<?xml version="1.0" encoding="utf-8"?>
<svg version="1.1" xmlns:xlink="http://www.w3.org/1999/xlink" width="20px" height="20px" xmlns="http://www.w3.org/2000/svg">
  <defs>
    <pattern id="BGPattern" patternUnits="userSpaceOnUse" alignment="0 0" imageRepeat="None" />
    <mask fill="white" id="Clip18">
      <path d="M 20 9.375  L 20 10.625  L 10.625 10.625  L 10.625 20  L 9.375 20  L 9.375 10.625  L 0 10.625  L 0 9.375  L 9.375 9.375  L 9.375 0  L 10.625 0  L 10.625 9.375  L 20 9.375  Z " fill-rule="evenodd" />
    </mask>
  </defs>
  <g transform="matrix(1 0 0 1 -51 -35 )">
    <path d="M 20 9.375  L 20 10.625  L 10.625 10.625  L 10.625 20  L 9.375 20  L 9.375 10.625  L 0 10.625  L 0 9.375  L 9.375 9.375  L 9.375 0  L 10.625 0  L 10.625 9.375  L 20 9.375  Z " fill-rule="nonzero" fill="rgba(35, 31, 32, 1)" stroke="none" transform="matrix(1 0 0 1 51 35 )" class="fill" />
    <path d="M 20 9.375  L 20 10.625  L 10.625 10.625  L 10.625 20  L 9.375 20  L 9.375 10.625  L 0 10.625  L 0 9.375  L 9.375 9.375  L 9.375 0  L 10.625 0  L 10.625 9.375  L 20 9.375  Z " stroke-width="0" stroke-dasharray="0" stroke="rgba(255, 255, 255, 0)" fill="none" transform="matrix(1 0 0 1 51 35 )" class="stroke" mask="url(#Clip18)" />
  </g>
</svg>