<?xml version="1.0" encoding="utf-8"?>
<svg version="1.1" xmlns:xlink="http://www.w3.org/1999/xlink" width="25px" height="22px" xmlns="http://www.w3.org/2000/svg">
  <defs>
    <pattern id="BGPattern" patternUnits="userSpaceOnUse" alignment="0 0" imageRepeat="None" />
    <mask fill="white" id="Clip21">
      <path d="M 25 11  C 25 4.925555555555556  20.202380952380953 0  14.279761904761903 0  C 8.357142857142856 0  3.571428571428571 4.925555555555556  3.571428571428571 11  L 0 11  L 4.636904761904762 15.760555555555555  L 4.720238095238096 15.937777777777779  L 9.523809523809524 11  L 5.952380952380952 11  C 5.952380952380952 6.27611111111111  9.68452380952381 2.4444444444444446  14.285714285714285 2.4444444444444446  C 18.886904761904763 2.4444444444444446  22.61904761904762 6.27611111111111  22.61904761904762 11  C 22.61904761904762 15.72388888888889  18.886904761904763 19.555555555555557  14.285714285714285 19.555555555555557  C 11.982142857142856 19.555555555555557  9.904761904761905 18.590000000000003  8.398809523809524 17.043888888888887  L 6.714285714285714 18.773333333333333  C 8.648809523809524 20.765555555555554  11.321428571428571 22  14.279761904761903 22  C 20.202380952380953 22  25 17.074444444444445  25 11  Z M 14.880952380952381 6.111111111111112  L 13.095238095238097 6.111111111111112  L 13.095238095238097 12.222222222222223  L 18.190476190476193 15.326666666666666  L 19.047619047619047 13.841666666666669  L 14.880952380952381 11.305555555555554  L 14.880952380952381 6.111111111111112  Z " fill-rule="evenodd" />
    </mask>
  </defs>
  <g transform="matrix(1 0 0 1 -109 -180 )">
    <path d="M 25 11  C 25 4.925555555555556  20.202380952380953 0  14.279761904761903 0  C 8.357142857142856 0  3.571428571428571 4.925555555555556  3.571428571428571 11  L 0 11  L 4.636904761904762 15.760555555555555  L 4.720238095238096 15.937777777777779  L 9.523809523809524 11  L 5.952380952380952 11  C 5.952380952380952 6.27611111111111  9.68452380952381 2.4444444444444446  14.285714285714285 2.4444444444444446  C 18.886904761904763 2.4444444444444446  22.61904761904762 6.27611111111111  22.61904761904762 11  C 22.61904761904762 15.72388888888889  18.886904761904763 19.555555555555557  14.285714285714285 19.555555555555557  C 11.982142857142856 19.555555555555557  9.904761904761905 18.590000000000003  8.398809523809524 17.043888888888887  L 6.714285714285714 18.773333333333333  C 8.648809523809524 20.765555555555554  11.321428571428571 22  14.279761904761903 22  C 20.202380952380953 22  25 17.074444444444445  25 11  Z M 14.880952380952381 6.111111111111112  L 13.095238095238097 6.111111111111112  L 13.095238095238097 12.222222222222223  L 18.190476190476193 15.326666666666666  L 19.047619047619047 13.841666666666669  L 14.880952380952381 11.305555555555554  L 14.880952380952381 6.111111111111112  Z " fill-rule="nonzero" fill="rgba(0, 0, 0, 1)" stroke="none" transform="matrix(1 0 0 1 109 180 )" class="fill" />
    <path d="M 25 11  C 25 4.925555555555556  20.202380952380953 0  14.279761904761903 0  C 8.357142857142856 0  3.571428571428571 4.925555555555556  3.571428571428571 11  L 0 11  L 4.636904761904762 15.760555555555555  L 4.720238095238096 15.937777777777779  L 9.523809523809524 11  L 5.952380952380952 11  C 5.952380952380952 6.27611111111111  9.68452380952381 2.4444444444444446  14.285714285714285 2.4444444444444446  C 18.886904761904763 2.4444444444444446  22.61904761904762 6.27611111111111  22.61904761904762 11  C 22.61904761904762 15.72388888888889  18.886904761904763 19.555555555555557  14.285714285714285 19.555555555555557  C 11.982142857142856 19.555555555555557  9.904761904761905 18.590000000000003  8.398809523809524 17.043888888888887  L 6.714285714285714 18.773333333333333  C 8.648809523809524 20.765555555555554  11.321428571428571 22  14.279761904761903 22  C 20.202380952380953 22  25 17.074444444444445  25 11  Z " stroke-width="0" stroke-dasharray="0" stroke="rgba(255, 255, 255, 0)" fill="none" transform="matrix(1 0 0 1 109 180 )" class="stroke" mask="url(#Clip21)" />
    <path d="M 14.880952380952381 6.111111111111112  L 13.095238095238097 6.111111111111112  L 13.095238095238097 12.222222222222223  L 18.190476190476193 15.326666666666666  L 19.047619047619047 13.841666666666669  L 14.880952380952381 11.305555555555554  L 14.880952380952381 6.111111111111112  Z " stroke-width="0" stroke-dasharray="0" stroke="rgba(255, 255, 255, 0)" fill="none" transform="matrix(1 0 0 1 109 180 )" class="stroke" mask="url(#Clip21)" />
  </g>
</svg>