<?xml version="1.0" encoding="utf-8"?>
<svg version="1.1" xmlns:xlink="http://www.w3.org/1999/xlink" width="29px" height="30px" xmlns="http://www.w3.org/2000/svg">
  <defs>
    <pattern id="BGPattern" patternUnits="userSpaceOnUse" alignment="0 0" imageRepeat="None" />
    <mask fill="white" id="Clip20">
      <path d="M 14.5 0  C 22.508128872546504 0  29 6.715728752538098  29 15  C 29 23.284271247461902  22.508128872546504 30  14.5 30  C 6.491871127453495 30  0 23.284271247461902  0 15  C 0 6.715728752538098  6.491871127453495 0  14.5 0  Z M 7.25 15  C 7.25 15.517766952966369  7.655741945465843 15.9375  8.15625 16  L 18.656062499999997 16  L 14.764625000000002 19.96125  C 14.594455469706705 20.137287445130994  14.498855223042362 20.376045457610232  14.498855223042362 20.625  C 14.498855223042362 21.143420997299813  14.90510970261018 21.563684252025148  15.40625 21.563684252025148  C 15.646906057643442 21.563684252025148  15.877705469706704 21.46478744513099  16.047875 21.28875  L 21.485375 15.663749999999999  C 21.655825582496337 15.487867006855936  21.75161998292982 15.249051114109202  21.75161998292982 15  C 21.75161998292982 14.750948885890796  21.655825582496337 14.512132993144064  21.485375 14.33625  L 16.047875 8.71125  C 15.877705469706704 8.535212554869002  15.646906057643442 8.436315747974858  15.40625 8.436315747974858  C 14.905109702610183 8.436315747974858  14.498855223042362 8.856579002700188  14.498855223042362 9.375  C 14.498855223042362 9.623954542389765  14.594455469706705 9.862712554869004  14.764625000000002 10.03875  L 18.656062499999997 14  L 8.15625 14  C 7.655741945465843 14.0625  7.25 14.48223304703363  7.25 15  Z " fill-rule="evenodd" />
    </mask>
  </defs>
  <g transform="matrix(1 0 0 1 -1021 -181 )">
    <path d="M 14.5 0  C 22.508128872546504 0  29 6.715728752538098  29 15  C 29 23.284271247461902  22.508128872546504 30  14.5 30  C 6.491871127453495 30  0 23.284271247461902  0 15  C 0 6.715728752538098  6.491871127453495 0  14.5 0  Z M 7.25 15  C 7.25 15.517766952966369  7.655741945465843 15.9375  8.15625 16  L 18.656062499999997 16  L 14.764625000000002 19.96125  C 14.594455469706705 20.137287445130994  14.498855223042362 20.376045457610232  14.498855223042362 20.625  C 14.498855223042362 21.143420997299813  14.90510970261018 21.563684252025148  15.40625 21.563684252025148  C 15.646906057643442 21.563684252025148  15.877705469706704 21.46478744513099  16.047875 21.28875  L 21.485375 15.663749999999999  C 21.655825582496337 15.487867006855936  21.75161998292982 15.249051114109202  21.75161998292982 15  C 21.75161998292982 14.750948885890796  21.655825582496337 14.512132993144064  21.485375 14.33625  L 16.047875 8.71125  C 15.877705469706704 8.535212554869002  15.646906057643442 8.436315747974858  15.40625 8.436315747974858  C 14.905109702610183 8.436315747974858  14.498855223042362 8.856579002700188  14.498855223042362 9.375  C 14.498855223042362 9.623954542389765  14.594455469706705 9.862712554869004  14.764625000000002 10.03875  L 18.656062499999997 14  L 8.15625 14  C 7.655741945465843 14.0625  7.25 14.48223304703363  7.25 15  Z " fill-rule="nonzero" fill="rgba(0, 0, 0, 1)" stroke="none" transform="matrix(1 0 0 1 1021 181 )" class="fill" />
    <path d="M 14.5 0  C 22.508128872546504 0  29 6.715728752538098  29 15  C 29 23.284271247461902  22.508128872546504 30  14.5 30  C 6.491871127453495 30  0 23.284271247461902  0 15  C 0 6.715728752538098  6.491871127453495 0  14.5 0  Z " stroke-width="0" stroke-dasharray="0" stroke="rgba(255, 255, 255, 0)" fill="none" transform="matrix(1 0 0 1 1021 181 )" class="stroke" mask="url(#Clip20)" />
    <path d="M 7.25 15  C 7.25 15.517766952966369  7.655741945465843 15.9375  8.15625 16  L 18.656062499999997 16  L 14.764625000000002 19.96125  C 14.594455469706705 20.137287445130994  14.498855223042362 20.376045457610232  14.498855223042362 20.625  C 14.498855223042362 21.143420997299813  14.90510970261018 21.563684252025148  15.40625 21.563684252025148  C 15.646906057643442 21.563684252025148  15.877705469706704 21.46478744513099  16.047875 21.28875  L 21.485375 15.663749999999999  C 21.655825582496337 15.487867006855936  21.75161998292982 15.249051114109202  21.75161998292982 15  C 21.75161998292982 14.750948885890796  21.655825582496337 14.512132993144064  21.485375 14.33625  L 16.047875 8.71125  C 15.877705469706704 8.535212554869002  15.646906057643442 8.436315747974858  15.40625 8.436315747974858  C 14.905109702610183 8.436315747974858  14.498855223042362 8.856579002700188  14.498855223042362 9.375  C 14.498855223042362 9.623954542389765  14.594455469706705 9.862712554869004  14.764625000000002 10.03875  L 18.656062499999997 14  L 8.15625 14  C 7.655741945465843 14.0625  7.25 14.48223304703363  7.25 15  Z " stroke-width="0" stroke-dasharray="0" stroke="rgba(255, 255, 255, 0)" fill="none" transform="matrix(1 0 0 1 1021 181 )" class="stroke" mask="url(#Clip20)" />
  </g>
</svg>