<?xml version="1.0" encoding="utf-8"?>
<svg version="1.1" xmlns:xlink="http://www.w3.org/1999/xlink" width="28px" height="30px" xmlns="http://www.w3.org/2000/svg">
  <defs>
    <pattern id="BGPattern" patternUnits="userSpaceOnUse" alignment="0 0" imageRepeat="None" />
    <mask fill="white" id="Clip16">
      <path d="M 14 0  C 21.73198649763111 0  28 6.715728752538098  28 15  C 28 23.284271247461902  21.73198649763111 30  14 30  C 6.268013502368891 30  0 23.284271247461902  0 15  C 0 6.715728752538098  6.268013502368891 0  14 0  Z M 7 15  C 7 15.517766952966369  7.3917508438980555 15.9375  7.875 16  L 18.012749999999997 16  L 14.255500000000001 19.96125  C 14.091198384544406 20.137287445130994  13.998894698109867 20.376045457610232  13.998894698109867 20.625  C 13.998894698109867 21.143420997299813  14.391140402520174 21.563684252025148  14.875 21.563684252025148  C 15.107357572897115 21.563684252025148  15.330198384544405 21.46478744513099  15.494500000000002 21.28875  L 20.744500000000002 15.663749999999999  C 20.90907297620336 15.487867006855936  21.001564121449483 15.249051114109202  21.001564121449483 15  C 21.001564121449483 14.750948885890796  20.90907297620336 14.512132993144064  20.744500000000002 14.33625  L 15.494500000000002 8.71125  C 15.330198384544405 8.535212554869002  15.107357572897115 8.436315747974858  14.875 8.436315747974858  C 14.391140402520175 8.436315747974858  13.998894698109867 8.856579002700188  13.998894698109867 9.375  C 13.998894698109867 9.623954542389765  14.091198384544406 9.862712554869004  14.255500000000001 10.03875  L 18.012749999999997 14  L 7.875 14  C 7.3917508438980555 14.0625  7 14.48223304703363  7 15  Z " fill-rule="evenodd" />
    </mask>
  </defs>
  <g transform="matrix(1 0 0 1 -923 -30 )">
    <path d="M 14 0  C 21.73198649763111 0  28 6.715728752538098  28 15  C 28 23.284271247461902  21.73198649763111 30  14 30  C 6.268013502368891 30  0 23.284271247461902  0 15  C 0 6.715728752538098  6.268013502368891 0  14 0  Z M 7 15  C 7 15.517766952966369  7.3917508438980555 15.9375  7.875 16  L 18.012749999999997 16  L 14.255500000000001 19.96125  C 14.091198384544406 20.137287445130994  13.998894698109867 20.376045457610232  13.998894698109867 20.625  C 13.998894698109867 21.143420997299813  14.391140402520174 21.563684252025148  14.875 21.563684252025148  C 15.107357572897115 21.563684252025148  15.330198384544405 21.46478744513099  15.494500000000002 21.28875  L 20.744500000000002 15.663749999999999  C 20.90907297620336 15.487867006855936  21.001564121449483 15.249051114109202  21.001564121449483 15  C 21.001564121449483 14.750948885890796  20.90907297620336 14.512132993144064  20.744500000000002 14.33625  L 15.494500000000002 8.71125  C 15.330198384544405 8.535212554869002  15.107357572897115 8.436315747974858  14.875 8.436315747974858  C 14.391140402520175 8.436315747974858  13.998894698109867 8.856579002700188  13.998894698109867 9.375  C 13.998894698109867 9.623954542389765  14.091198384544406 9.862712554869004  14.255500000000001 10.03875  L 18.012749999999997 14  L 7.875 14  C 7.3917508438980555 14.0625  7 14.48223304703363  7 15  Z " fill-rule="nonzero" fill="rgba(0, 0, 0, 1)" stroke="none" transform="matrix(1 0 0 1 923 30 )" class="fill" />
    <path d="M 14 0  C 21.73198649763111 0  28 6.715728752538098  28 15  C 28 23.284271247461902  21.73198649763111 30  14 30  C 6.268013502368891 30  0 23.284271247461902  0 15  C 0 6.715728752538098  6.268013502368891 0  14 0  Z " stroke-width="0" stroke-dasharray="0" stroke="rgba(255, 255, 255, 0)" fill="none" transform="matrix(1 0 0 1 923 30 )" class="stroke" mask="url(#Clip16)" />
    <path d="M 7 15  C 7 15.517766952966369  7.3917508438980555 15.9375  7.875 16  L 18.012749999999997 16  L 14.255500000000001 19.96125  C 14.091198384544406 20.137287445130994  13.998894698109867 20.376045457610232  13.998894698109867 20.625  C 13.998894698109867 21.143420997299813  14.391140402520174 21.563684252025148  14.875 21.563684252025148  C 15.107357572897115 21.563684252025148  15.330198384544405 21.46478744513099  15.494500000000002 21.28875  L 20.744500000000002 15.663749999999999  C 20.90907297620336 15.487867006855936  21.001564121449483 15.249051114109202  21.001564121449483 15  C 21.001564121449483 14.750948885890796  20.90907297620336 14.512132993144064  20.744500000000002 14.33625  L 15.494500000000002 8.71125  C 15.330198384544405 8.535212554869002  15.107357572897115 8.436315747974858  14.875 8.436315747974858  C 14.391140402520175 8.436315747974858  13.998894698109867 8.856579002700188  13.998894698109867 9.375  C 13.998894698109867 9.623954542389765  14.091198384544406 9.862712554869004  14.255500000000001 10.03875  L 18.012749999999997 14  L 7.875 14  C 7.3917508438980555 14.0625  7 14.48223304703363  7 15  Z " stroke-width="0" stroke-dasharray="0" stroke="rgba(255, 255, 255, 0)" fill="none" transform="matrix(1 0 0 1 923 30 )" class="stroke" mask="url(#Clip16)" />
  </g>
</svg>