<?xml version="1.0" encoding="utf-8"?>
<svg version="1.1" xmlns:xlink="http://www.w3.org/1999/xlink" width="33px" height="20px" xmlns="http://www.w3.org/2000/svg">
  <defs>
    <pattern id="BGPattern" patternUnits="userSpaceOnUse" alignment="0 0" imageRepeat="None" />
    <mask fill="white" id="Clip7">
      <path d="M 0 20  L 0 0  L 9 0  L 18 0  L 33 0  L 33 20  L 0 20  Z " fill-rule="evenodd" />
    </mask>
  </defs>
  <g transform="matrix(1 0 0 1 -1172 -149 )">
    <path d="M 0 20  L 0 0  L 9 0  L 18 0  L 33 0  L 33 20  L 0 20  Z " fill-rule="nonzero" fill="rgba(255, 255, 255, 1)" stroke="none" transform="matrix(1 0 0 1 1172 149 )" class="fill" />
    <path d="M 0 20  L 0 0  L 9 0  L 18 0  L 33 0  L 33 20  L 0 20  Z " stroke-width="2" stroke-dasharray="0" stroke="rgba(121, 121, 121, 1)" fill="none" transform="matrix(1 0 0 1 1172 149 )" class="stroke" mask="url(#Clip7)" />
  </g>
</svg>