<?xml version="1.0" encoding="utf-8"?>
<svg version="1.1" xmlns:xlink="http://www.w3.org/1999/xlink" width="17px" height="15px" xmlns="http://www.w3.org/2000/svg">
  <defs>
    <pattern id="BGPattern" patternUnits="userSpaceOnUse" alignment="0 0" imageRepeat="None" />
    <mask fill="white" id="Clip8">
      <path d="M 13.271763392857142 8.837890624999998  C 13.328683035714286 8.896484374999998  13.357142857142858 8.971354166666664  13.357142857142858 9.062500000000002  L 13.357142857142858 12.1875  C 13.357142857142858 12.962239583333332  13.089936755952383 13.624674479166668  12.555524553571429 14.1748046875  C 12.021112351190478 14.724934895833332  11.377604166666668 15  10.625 15  L 2.732142857142857 15  C 1.9795386904761907 15  1.336030505952381 14.724934895833332  0.8016183035714286 14.1748046875  C 0.26720610119047616 13.624674479166668  0 12.962239583333332  0 12.1875  L 0 4.062500000000001  C 0 3.287760416666665  0.26720610119047616 2.6253255208333326  0.8016183035714286 2.0751953124999996  C 1.336030505952381 1.5250651041666647  1.9795386904761907 1.2500000000000004  2.732142857142857 1.2500000000000004  L 9.410714285714286 1.2500000000000004  C 9.499255952380954 1.2500000000000004  9.571986607142858 1.2792968750000004  9.62890625 1.3378906250000004  C 9.685825892857142 1.3964843750000004  9.714285714285714 1.4713541666666652  9.714285714285714 1.5624999999999996  L 9.714285714285714 2.1875000000000004  C 9.714285714285714 2.278645833333333  9.685825892857142 2.3535156249999996  9.62890625 2.4121093749999996  C 9.571986607142858 2.4707031249999996  9.499255952380954 2.4999999999999996  9.410714285714286 2.4999999999999996  L 2.732142857142857 2.4999999999999996  C 2.3147321428571432 2.4999999999999996  1.9574032738095242 2.6529947916666647  1.66015625 2.958984375  C 1.3629092261904763 3.264973958333332  1.2142857142857142 3.6328125  1.2142857142857142 4.062500000000001  L 1.2142857142857142 12.1875  C 1.2142857142857142 12.6171875  1.3629092261904763 12.985026041666664  1.66015625 13.291015625  C 1.9574032738095242 13.597005208333332  2.3147321428571432 13.75  2.732142857142857 13.75  L 10.625 13.75  C 11.042410714285714 13.75  11.399739583333334 13.597005208333332  11.696986607142858 13.291015625  C 11.994233630952383 12.985026041666664  12.142857142857142 12.6171875  12.142857142857142 12.1875  L 12.142857142857142 9.062500000000002  C 12.142857142857142 8.971354166666664  12.171316964285714 8.896484374999998  12.228236607142858 8.837890624999998  C 12.28515625 8.779296874999998  12.357886904761905 8.749999999999998  12.446428571428571 8.749999999999998  L 13.053571428571429 8.749999999999998  C 13.142113095238097 8.749999999999998  13.21484375 8.779296874999998  13.271763392857142 8.837890624999998  Z M 16.819754464285715 0.18554687499999944  C 16.939918154761905 0.30924479166666463  17 0.45572916666666463  17 0.6249999999999994  L 17 5.625  C 17 5.794270833333333  16.939918154761905 5.940755208333333  16.819754464285715 6.064453125  C 16.699590773809526 6.188151041666667  16.557291666666668 6.249999999999999  16.392857142857142 6.249999999999999  C 16.22842261904762 6.249999999999999  16.086123511904763 6.188151041666667  15.965959821428571 6.064453125  L 14.296316964285714 4.345703124999999  L 8.111049107142858 10.712890624999998  C 8.04780505952381 10.777994791666664  7.975074404761905 10.810546875  7.892857142857143 10.810546875  C 7.810639880952382 10.810546875  7.737909226190477 10.777994791666664  7.674665178571429 10.712890624999998  L 6.593191964285714 9.599609374999998  C 6.529947916666667 9.534505208333334  6.498325892857143 9.459635416666668  6.498325892857143 9.375  C 6.498325892857143 9.290364583333332  6.529947916666667 9.215494791666666  6.593191964285714 9.150390625000002  L 12.778459821428571 2.783203125  L 11.108816964285714 1.0644531249999996  C 10.988653273809526 0.9407552083333326  10.928571428571429 0.7942708333333326  10.928571428571429 0.6249999999999994  C 10.928571428571429 0.45572916666666463  10.988653273809526 0.30924479166666463  11.108816964285714 0.18554687499999944  C 11.228980654761905 0.06184895833333426  11.371279761904763 0  11.535714285714286 0  L 16.392857142857142 0  C 16.557291666666668 0  16.699590773809526 0.06184895833333426  16.819754464285715 0.18554687499999944  Z " fill-rule="evenodd" />
    </mask>
  </defs>
  <g transform="matrix(1 0 0 1 -273 -41 )">
    <path d="M 13.271763392857142 8.837890624999998  C 13.328683035714286 8.896484374999998  13.357142857142858 8.971354166666664  13.357142857142858 9.062500000000002  L 13.357142857142858 12.1875  C 13.357142857142858 12.962239583333332  13.089936755952383 13.624674479166668  12.555524553571429 14.1748046875  C 12.021112351190478 14.724934895833332  11.377604166666668 15  10.625 15  L 2.732142857142857 15  C 1.9795386904761907 15  1.336030505952381 14.724934895833332  0.8016183035714286 14.1748046875  C 0.26720610119047616 13.624674479166668  0 12.962239583333332  0 12.1875  L 0 4.062500000000001  C 0 3.287760416666665  0.26720610119047616 2.6253255208333326  0.8016183035714286 2.0751953124999996  C 1.336030505952381 1.5250651041666647  1.9795386904761907 1.2500000000000004  2.732142857142857 1.2500000000000004  L 9.410714285714286 1.2500000000000004  C 9.499255952380954 1.2500000000000004  9.571986607142858 1.2792968750000004  9.62890625 1.3378906250000004  C 9.685825892857142 1.3964843750000004  9.714285714285714 1.4713541666666652  9.714285714285714 1.5624999999999996  L 9.714285714285714 2.1875000000000004  C 9.714285714285714 2.278645833333333  9.685825892857142 2.3535156249999996  9.62890625 2.4121093749999996  C 9.571986607142858 2.4707031249999996  9.499255952380954 2.4999999999999996  9.410714285714286 2.4999999999999996  L 2.732142857142857 2.4999999999999996  C 2.3147321428571432 2.4999999999999996  1.9574032738095242 2.6529947916666647  1.66015625 2.958984375  C 1.3629092261904763 3.264973958333332  1.2142857142857142 3.6328125  1.2142857142857142 4.062500000000001  L 1.2142857142857142 12.1875  C 1.2142857142857142 12.6171875  1.3629092261904763 12.985026041666664  1.66015625 13.291015625  C 1.9574032738095242 13.597005208333332  2.3147321428571432 13.75  2.732142857142857 13.75  L 10.625 13.75  C 11.042410714285714 13.75  11.399739583333334 13.597005208333332  11.696986607142858 13.291015625  C 11.994233630952383 12.985026041666664  12.142857142857142 12.6171875  12.142857142857142 12.1875  L 12.142857142857142 9.062500000000002  C 12.142857142857142 8.971354166666664  12.171316964285714 8.896484374999998  12.228236607142858 8.837890624999998  C 12.28515625 8.779296874999998  12.357886904761905 8.749999999999998  12.446428571428571 8.749999999999998  L 13.053571428571429 8.749999999999998  C 13.142113095238097 8.749999999999998  13.21484375 8.779296874999998  13.271763392857142 8.837890624999998  Z M 16.819754464285715 0.18554687499999944  C 16.939918154761905 0.30924479166666463  17 0.45572916666666463  17 0.6249999999999994  L 17 5.625  C 17 5.794270833333333  16.939918154761905 5.940755208333333  16.819754464285715 6.064453125  C 16.699590773809526 6.188151041666667  16.557291666666668 6.249999999999999  16.392857142857142 6.249999999999999  C 16.22842261904762 6.249999999999999  16.086123511904763 6.188151041666667  15.965959821428571 6.064453125  L 14.296316964285714 4.345703124999999  L 8.111049107142858 10.712890624999998  C 8.04780505952381 10.777994791666664  7.975074404761905 10.810546875  7.892857142857143 10.810546875  C 7.810639880952382 10.810546875  7.737909226190477 10.777994791666664  7.674665178571429 10.712890624999998  L 6.593191964285714 9.599609374999998  C 6.529947916666667 9.534505208333334  6.498325892857143 9.459635416666668  6.498325892857143 9.375  C 6.498325892857143 9.290364583333332  6.529947916666667 9.215494791666666  6.593191964285714 9.150390625000002  L 12.778459821428571 2.783203125  L 11.108816964285714 1.0644531249999996  C 10.988653273809526 0.9407552083333326  10.928571428571429 0.7942708333333326  10.928571428571429 0.6249999999999994  C 10.928571428571429 0.45572916666666463  10.988653273809526 0.30924479166666463  11.108816964285714 0.18554687499999944  C 11.228980654761905 0.06184895833333426  11.371279761904763 0  11.535714285714286 0  L 16.392857142857142 0  C 16.557291666666668 0  16.699590773809526 0.06184895833333426  16.819754464285715 0.18554687499999944  Z " fill-rule="nonzero" fill="rgba(0, 0, 0, 1)" stroke="none" transform="matrix(1 0 0 1 273 41 )" class="fill" />
    <path d="M 13.271763392857142 8.837890624999998  C 13.328683035714286 8.896484374999998  13.357142857142858 8.971354166666664  13.357142857142858 9.062500000000002  L 13.357142857142858 12.1875  C 13.357142857142858 12.962239583333332  13.089936755952383 13.624674479166668  12.555524553571429 14.1748046875  C 12.021112351190478 14.724934895833332  11.377604166666668 15  10.625 15  L 2.732142857142857 15  C 1.9795386904761907 15  1.336030505952381 14.724934895833332  0.8016183035714286 14.1748046875  C 0.26720610119047616 13.624674479166668  0 12.962239583333332  0 12.1875  L 0 4.062500000000001  C 0 3.287760416666665  0.26720610119047616 2.6253255208333326  0.8016183035714286 2.0751953124999996  C 1.336030505952381 1.5250651041666647  1.9795386904761907 1.2500000000000004  2.732142857142857 1.2500000000000004  L 9.410714285714286 1.2500000000000004  C 9.499255952380954 1.2500000000000004  9.571986607142858 1.2792968750000004  9.62890625 1.3378906250000004  C 9.685825892857142 1.3964843750000004  9.714285714285714 1.4713541666666652  9.714285714285714 1.5624999999999996  L 9.714285714285714 2.1875000000000004  C 9.714285714285714 2.278645833333333  9.685825892857142 2.3535156249999996  9.62890625 2.4121093749999996  C 9.571986607142858 2.4707031249999996  9.499255952380954 2.4999999999999996  9.410714285714286 2.4999999999999996  L 2.732142857142857 2.4999999999999996  C 2.3147321428571432 2.4999999999999996  1.9574032738095242 2.6529947916666647  1.66015625 2.958984375  C 1.3629092261904763 3.264973958333332  1.2142857142857142 3.6328125  1.2142857142857142 4.062500000000001  L 1.2142857142857142 12.1875  C 1.2142857142857142 12.6171875  1.3629092261904763 12.985026041666664  1.66015625 13.291015625  C 1.9574032738095242 13.597005208333332  2.3147321428571432 13.75  2.732142857142857 13.75  L 10.625 13.75  C 11.042410714285714 13.75  11.399739583333334 13.597005208333332  11.696986607142858 13.291015625  C 11.994233630952383 12.985026041666664  12.142857142857142 12.6171875  12.142857142857142 12.1875  L 12.142857142857142 9.062500000000002  C 12.142857142857142 8.971354166666664  12.171316964285714 8.896484374999998  12.228236607142858 8.837890624999998  C 12.28515625 8.779296874999998  12.357886904761905 8.749999999999998  12.446428571428571 8.749999999999998  L 13.053571428571429 8.749999999999998  C 13.142113095238097 8.749999999999998  13.21484375 8.779296874999998  13.271763392857142 8.837890624999998  Z " stroke-width="0" stroke-dasharray="0" stroke="rgba(255, 255, 255, 0)" fill="none" transform="matrix(1 0 0 1 273 41 )" class="stroke" mask="url(#Clip8)" />
    <path d="M 16.819754464285715 0.18554687499999944  C 16.939918154761905 0.30924479166666463  17 0.45572916666666463  17 0.6249999999999994  L 17 5.625  C 17 5.794270833333333  16.939918154761905 5.940755208333333  16.819754464285715 6.064453125  C 16.699590773809526 6.188151041666667  16.557291666666668 6.249999999999999  16.392857142857142 6.249999999999999  C 16.22842261904762 6.249999999999999  16.086123511904763 6.188151041666667  15.965959821428571 6.064453125  L 14.296316964285714 4.345703124999999  L 8.111049107142858 10.712890624999998  C 8.04780505952381 10.777994791666664  7.975074404761905 10.810546875  7.892857142857143 10.810546875  C 7.810639880952382 10.810546875  7.737909226190477 10.777994791666664  7.674665178571429 10.712890624999998  L 6.593191964285714 9.599609374999998  C 6.529947916666667 9.534505208333334  6.498325892857143 9.459635416666668  6.498325892857143 9.375  C 6.498325892857143 9.290364583333332  6.529947916666667 9.215494791666666  6.593191964285714 9.150390625000002  L 12.778459821428571 2.783203125  L 11.108816964285714 1.0644531249999996  C 10.988653273809526 0.9407552083333326  10.928571428571429 0.7942708333333326  10.928571428571429 0.6249999999999994  C 10.928571428571429 0.45572916666666463  10.988653273809526 0.30924479166666463  11.108816964285714 0.18554687499999944  C 11.228980654761905 0.06184895833333426  11.371279761904763 0  11.535714285714286 0  L 16.392857142857142 0  C 16.557291666666668 0  16.699590773809526 0.06184895833333426  16.819754464285715 0.18554687499999944  Z " stroke-width="0" stroke-dasharray="0" stroke="rgba(255, 255, 255, 0)" fill="none" transform="matrix(1 0 0 1 273 41 )" class="stroke" mask="url(#Clip8)" />
  </g>
</svg>