<?xml version="1.0" encoding="utf-8"?>
<svg version="1.1" xmlns:xlink="http://www.w3.org/1999/xlink" width="15px" height="17px" xmlns="http://www.w3.org/2000/svg">
  <defs>
    <pattern id="BGPattern" patternUnits="userSpaceOnUse" alignment="0 0" imageRepeat="None" />
    <mask fill="white" id="Clip15">
      <path d="M 9.3046875 3.1875  L 10.359375 3.1875  L 14.8828125 7.744444444444444  L 14.8828125 17  L 4.3359375 17  L 4.3359375 13.8125  L 0.1171875 13.8125  L 0.1171875 0  L 6.140625000000001 0  L 9.3046875 3.1875  Z M 1.171875 1.0625  L 1.171875 12.75  L 4.3359375 12.75  L 4.3359375 3.1875  L 7.804687499999999 3.1875  L 5.695312499999999 1.0625  L 1.171875 1.0625  Z M 5.390625 4.25  L 5.390625 15.9375  L 13.828125 15.9375  L 13.828125 8.5  L 9.609375 8.5  L 9.609375 4.25  L 5.390625 4.25  Z M 13.078125 7.4375  L 10.6640625 5.005555555555556  L 10.6640625 7.4375  L 13.078125 7.4375  Z " fill-rule="evenodd" />
    </mask>
  </defs>
  <g transform="matrix(1 0 0 1 -280 -2027 )">
    <path d="M 9.3046875 3.1875  L 10.359375 3.1875  L 14.8828125 7.744444444444444  L 14.8828125 17  L 4.3359375 17  L 4.3359375 13.8125  L 0.1171875 13.8125  L 0.1171875 0  L 6.140625000000001 0  L 9.3046875 3.1875  Z M 1.171875 1.0625  L 1.171875 12.75  L 4.3359375 12.75  L 4.3359375 3.1875  L 7.804687499999999 3.1875  L 5.695312499999999 1.0625  L 1.171875 1.0625  Z M 5.390625 4.25  L 5.390625 15.9375  L 13.828125 15.9375  L 13.828125 8.5  L 9.609375 8.5  L 9.609375 4.25  L 5.390625 4.25  Z M 13.078125 7.4375  L 10.6640625 5.005555555555556  L 10.6640625 7.4375  L 13.078125 7.4375  Z " fill-rule="nonzero" fill="rgba(35, 31, 32, 1)" stroke="none" transform="matrix(1 0 0 1 280 2027 )" class="fill" />
    <path d="M 9.3046875 3.1875  L 10.359375 3.1875  L 14.8828125 7.744444444444444  L 14.8828125 17  L 4.3359375 17  L 4.3359375 13.8125  L 0.1171875 13.8125  L 0.1171875 0  L 6.140625000000001 0  L 9.3046875 3.1875  Z " stroke-width="0" stroke-dasharray="0" stroke="rgba(255, 255, 255, 0)" fill="none" transform="matrix(1 0 0 1 280 2027 )" class="stroke" mask="url(#Clip15)" />
    <path d="M 1.171875 1.0625  L 1.171875 12.75  L 4.3359375 12.75  L 4.3359375 3.1875  L 7.804687499999999 3.1875  L 5.695312499999999 1.0625  L 1.171875 1.0625  Z " stroke-width="0" stroke-dasharray="0" stroke="rgba(255, 255, 255, 0)" fill="none" transform="matrix(1 0 0 1 280 2027 )" class="stroke" mask="url(#Clip15)" />
    <path d="M 5.390625 4.25  L 5.390625 15.9375  L 13.828125 15.9375  L 13.828125 8.5  L 9.609375 8.5  L 9.609375 4.25  L 5.390625 4.25  Z " stroke-width="0" stroke-dasharray="0" stroke="rgba(255, 255, 255, 0)" fill="none" transform="matrix(1 0 0 1 280 2027 )" class="stroke" mask="url(#Clip15)" />
    <path d="M 13.078125 7.4375  L 10.6640625 5.005555555555556  L 10.6640625 7.4375  L 13.078125 7.4375  Z " stroke-width="0" stroke-dasharray="0" stroke="rgba(255, 255, 255, 0)" fill="none" transform="matrix(1 0 0 1 280 2027 )" class="stroke" mask="url(#Clip15)" />
  </g>
</svg>