<?xml version="1.0" encoding="utf-8"?>
<svg version="1.1" xmlns:xlink="http://www.w3.org/1999/xlink" width="15px" height="15px" xmlns="http://www.w3.org/2000/svg">
  <defs>
    <pattern id="BGPattern" patternUnits="userSpaceOnUse" alignment="0 0" imageRepeat="None" />
    <mask fill="white" id="Clip17">
      <path d="M 11.992916666666668 5.2687500000000025  L 13.062916666666666 3.8839285714285716  C 12.442916666666667 3.909107142857143  11.855833333333333 4.020535714285714  11.30125 4.218214285714286  C 10.746666666666664 4.415892857142856  10.222083333333334 4.689107142857143  9.726666666666665 5.0373214285714285  C 9.231249999999994 5.385535714285712  8.761249999999997 5.801785714285714  8.316666666666665 6.285  C 7.8720833333333315 6.768214285714286  7.452499999999999 7.301785714285714  7.057083333333331 7.885714285714285  C 6.891249999999998 8.130535714285715  6.724999999999997 8.368928571428572  6.559166666666664 8.601428571428569  C 6.393333333333331 8.833928571428569  6.217499999999998 9.059464285714283  6.031666666666663 9.279642857142854  C 5.211249999999996 10.240178571428569  4.30333333333333 10.987499999999999  3.3070833333333294 11.521071428571425  C 2.3108333333333286 12.054642857142852  1.2537500000000001 12.321428571428571  0.13541666666666638 12.321428571428571  L 0.13541666666666638 11.116071428571429  C 0.7749999999999998 11.116071428571429  1.3816666666666664 11.020178571428572  1.9554166666666655 10.82892857142857  C 2.5291666666666655 10.637678571428571  3.0725 10.367678571428574  3.585 10.01892857142857  C 4.0975 9.670178571428568  4.582499999999999 9.249642857142856  5.038749999999999 8.757321428571428  C 5.495000000000001 8.265000000000002  5.92875 7.716964285714286  6.33875 7.114285714285715  C 6.5095833333333335 6.857142857142858  6.6816666666666675 6.609107142857143  6.855000000000001 6.370178571428573  C 7.028333333333334 6.131250000000001  7.212500000000001 5.899285714285714  7.407916666666668 5.6732142857142875  C 7.803333333333334 5.221071428571429  8.219583333333334 4.813392857142859  8.656666666666668 4.4491071428571445  C 9.093750000000002 4.084821428571431  9.55041666666667 3.7741071428571438  10.026250000000001 3.516964285714288  C 10.502083333333333 3.259821428571433  10.995416666666667 3.060000000000002  11.505833333333335 2.9191071428571456  C 12.016250000000003 2.7782142857142897  12.537500000000001 2.697857142857145  13.069583333333336 2.6791071428571454  L 11.992916666666668 1.2948214285714315  L 12.652083333333334 0.4473214285714309  L 14.864166666666666 3.2817857142857165  L 12.652083333333334 6.116250000000003  L 11.992916666666668 5.2687500000000025  Z M 3.3066666666666666 3.48375  C 4.3025 4.020535714285714  5.211250000000001 4.768928571428572  6.031666666666666 5.729464285714285  C 5.924166666666666 5.879999999999999  5.820416666666666 6.0321428571428575  5.720416666666666 6.186428571428572  C 5.620416666666666 6.340714285714286  5.514166666666666 6.49232142857143  5.4016666666666655 6.643392857142858  C 5.040416666666665 6.216428571428573  4.655833333333333 5.831785714285716  4.247916666666667 5.490000000000002  C 3.84 5.14821428571429  3.4141666666666666 4.857321428571431  2.97 4.618928571428573  C 2.525833333333334 4.380535714285716  2.066666666666667 4.198392857142859  1.5929166666666668 4.072500000000002  C 1.1191666666666666 3.9466071428571454  0.6333333333333332 3.8839285714285734  0.13541666666666638 3.8839285714285734  L 0.13541666666666638 2.678571428571429  C 1.2537500000000001 2.678571428571429  2.310833333333333 2.9469642857142864  3.3066666666666666 3.48375  Z M 11.993750000000002 9.731249999999992  L 12.6525 8.884285714285717  L 14.864583333333332 11.71875  L 12.6525 14.553214285714283  L 11.993333333333334 13.705714285714285  L 13.07 12.321428571428571  C 12.532916666666667 12.302678571428572  12.006666666666668 12.220714285714283  11.491666666666669 12.076607142857142  C 10.97666666666667 11.9325  10.479583333333336 11.73  10.001250000000002 11.469107142857142  C 9.52291666666667 11.208214285714284  9.062500000000004 10.893214285714285  8.620833333333335 10.522499999999999  C 8.179166666666667 10.151785714285712  7.760416666666669 9.734464285714282  7.364583333333336 9.269999999999996  C 7.472083333333335 9.119464285714285  7.575833333333334 8.967321428571427  7.675833333333334 8.81303571428571  C 7.775833333333335 8.658749999999994  7.882083333333333 8.507142857142854  7.9945833333333365 8.356071428571425  C 8.346250000000001 8.77017857142857  8.717083333333337 9.144107142857138  9.107916666666668 9.47678571428571  C 9.498749999999998 9.80946428571428  9.907499999999999 10.094999999999997  10.334583333333335 10.333928571428567  C 10.761666666666672 10.572857142857139  11.203750000000001 10.757678571428565  11.66041666666667 10.889464285714281  C 12.117083333333339 11.021249999999997  12.584583333333335 11.096785714285708  13.06291666666667 11.11553571428571  L 11.993750000000002 9.731249999999992  Z " fill-rule="evenodd" />
    </mask>
  </defs>
  <g transform="matrix(1 0 0 1 -109 -38 )">
    <path d="M 11.992916666666668 5.2687500000000025  L 13.062916666666666 3.8839285714285716  C 12.442916666666667 3.909107142857143  11.855833333333333 4.020535714285714  11.30125 4.218214285714286  C 10.746666666666664 4.415892857142856  10.222083333333334 4.689107142857143  9.726666666666665 5.0373214285714285  C 9.231249999999994 5.385535714285712  8.761249999999997 5.801785714285714  8.316666666666665 6.285  C 7.8720833333333315 6.768214285714286  7.452499999999999 7.301785714285714  7.057083333333331 7.885714285714285  C 6.891249999999998 8.130535714285715  6.724999999999997 8.368928571428572  6.559166666666664 8.601428571428569  C 6.393333333333331 8.833928571428569  6.217499999999998 9.059464285714283  6.031666666666663 9.279642857142854  C 5.211249999999996 10.240178571428569  4.30333333333333 10.987499999999999  3.3070833333333294 11.521071428571425  C 2.3108333333333286 12.054642857142852  1.2537500000000001 12.321428571428571  0.13541666666666638 12.321428571428571  L 0.13541666666666638 11.116071428571429  C 0.7749999999999998 11.116071428571429  1.3816666666666664 11.020178571428572  1.9554166666666655 10.82892857142857  C 2.5291666666666655 10.637678571428571  3.0725 10.367678571428574  3.585 10.01892857142857  C 4.0975 9.670178571428568  4.582499999999999 9.249642857142856  5.038749999999999 8.757321428571428  C 5.495000000000001 8.265000000000002  5.92875 7.716964285714286  6.33875 7.114285714285715  C 6.5095833333333335 6.857142857142858  6.6816666666666675 6.609107142857143  6.855000000000001 6.370178571428573  C 7.028333333333334 6.131250000000001  7.212500000000001 5.899285714285714  7.407916666666668 5.6732142857142875  C 7.803333333333334 5.221071428571429  8.219583333333334 4.813392857142859  8.656666666666668 4.4491071428571445  C 9.093750000000002 4.084821428571431  9.55041666666667 3.7741071428571438  10.026250000000001 3.516964285714288  C 10.502083333333333 3.259821428571433  10.995416666666667 3.060000000000002  11.505833333333335 2.9191071428571456  C 12.016250000000003 2.7782142857142897  12.537500000000001 2.697857142857145  13.069583333333336 2.6791071428571454  L 11.992916666666668 1.2948214285714315  L 12.652083333333334 0.4473214285714309  L 14.864166666666666 3.2817857142857165  L 12.652083333333334 6.116250000000003  L 11.992916666666668 5.2687500000000025  Z M 3.3066666666666666 3.48375  C 4.3025 4.020535714285714  5.211250000000001 4.768928571428572  6.031666666666666 5.729464285714285  C 5.924166666666666 5.879999999999999  5.820416666666666 6.0321428571428575  5.720416666666666 6.186428571428572  C 5.620416666666666 6.340714285714286  5.514166666666666 6.49232142857143  5.4016666666666655 6.643392857142858  C 5.040416666666665 6.216428571428573  4.655833333333333 5.831785714285716  4.247916666666667 5.490000000000002  C 3.84 5.14821428571429  3.4141666666666666 4.857321428571431  2.97 4.618928571428573  C 2.525833333333334 4.380535714285716  2.066666666666667 4.198392857142859  1.5929166666666668 4.072500000000002  C 1.1191666666666666 3.9466071428571454  0.6333333333333332 3.8839285714285734  0.13541666666666638 3.8839285714285734  L 0.13541666666666638 2.678571428571429  C 1.2537500000000001 2.678571428571429  2.310833333333333 2.9469642857142864  3.3066666666666666 3.48375  Z M 11.993750000000002 9.731249999999992  L 12.6525 8.884285714285717  L 14.864583333333332 11.71875  L 12.6525 14.553214285714283  L 11.993333333333334 13.705714285714285  L 13.07 12.321428571428571  C 12.532916666666667 12.302678571428572  12.006666666666668 12.220714285714283  11.491666666666669 12.076607142857142  C 10.97666666666667 11.9325  10.479583333333336 11.73  10.001250000000002 11.469107142857142  C 9.52291666666667 11.208214285714284  9.062500000000004 10.893214285714285  8.620833333333335 10.522499999999999  C 8.179166666666667 10.151785714285712  7.760416666666669 9.734464285714282  7.364583333333336 9.269999999999996  C 7.472083333333335 9.119464285714285  7.575833333333334 8.967321428571427  7.675833333333334 8.81303571428571  C 7.775833333333335 8.658749999999994  7.882083333333333 8.507142857142854  7.9945833333333365 8.356071428571425  C 8.346250000000001 8.77017857142857  8.717083333333337 9.144107142857138  9.107916666666668 9.47678571428571  C 9.498749999999998 9.80946428571428  9.907499999999999 10.094999999999997  10.334583333333335 10.333928571428567  C 10.761666666666672 10.572857142857139  11.203750000000001 10.757678571428565  11.66041666666667 10.889464285714281  C 12.117083333333339 11.021249999999997  12.584583333333335 11.096785714285708  13.06291666666667 11.11553571428571  L 11.993750000000002 9.731249999999992  Z " fill-rule="nonzero" fill="rgba(255, 255, 255, 1)" stroke="none" transform="matrix(1 0 0 1 109 38 )" class="fill" />
    <path d="M 11.992916666666668 5.2687500000000025  L 13.062916666666666 3.8839285714285716  C 12.442916666666667 3.909107142857143  11.855833333333333 4.020535714285714  11.30125 4.218214285714286  C 10.746666666666664 4.415892857142856  10.222083333333334 4.689107142857143  9.726666666666665 5.0373214285714285  C 9.231249999999994 5.385535714285712  8.761249999999997 5.801785714285714  8.316666666666665 6.285  C 7.8720833333333315 6.768214285714286  7.452499999999999 7.301785714285714  7.057083333333331 7.885714285714285  C 6.891249999999998 8.130535714285715  6.724999999999997 8.368928571428572  6.559166666666664 8.601428571428569  C 6.393333333333331 8.833928571428569  6.217499999999998 9.059464285714283  6.031666666666663 9.279642857142854  C 5.211249999999996 10.240178571428569  4.30333333333333 10.987499999999999  3.3070833333333294 11.521071428571425  C 2.3108333333333286 12.054642857142852  1.2537500000000001 12.321428571428571  0.13541666666666638 12.321428571428571  L 0.13541666666666638 11.116071428571429  C 0.7749999999999998 11.116071428571429  1.3816666666666664 11.020178571428572  1.9554166666666655 10.82892857142857  C 2.5291666666666655 10.637678571428571  3.0725 10.367678571428574  3.585 10.01892857142857  C 4.0975 9.670178571428568  4.582499999999999 9.249642857142856  5.038749999999999 8.757321428571428  C 5.495000000000001 8.265000000000002  5.92875 7.716964285714286  6.33875 7.114285714285715  C 6.5095833333333335 6.857142857142858  6.6816666666666675 6.609107142857143  6.855000000000001 6.370178571428573  C 7.028333333333334 6.131250000000001  7.212500000000001 5.899285714285714  7.407916666666668 5.6732142857142875  C 7.803333333333334 5.221071428571429  8.219583333333334 4.813392857142859  8.656666666666668 4.4491071428571445  C 9.093750000000002 4.084821428571431  9.55041666666667 3.7741071428571438  10.026250000000001 3.516964285714288  C 10.502083333333333 3.259821428571433  10.995416666666667 3.060000000000002  11.505833333333335 2.9191071428571456  C 12.016250000000003 2.7782142857142897  12.537500000000001 2.697857142857145  13.069583333333336 2.6791071428571454  L 11.992916666666668 1.2948214285714315  L 12.652083333333334 0.4473214285714309  L 14.864166666666666 3.2817857142857165  L 12.652083333333334 6.116250000000003  L 11.992916666666668 5.2687500000000025  Z " stroke-width="0" stroke-dasharray="0" stroke="rgba(255, 255, 255, 0)" fill="none" transform="matrix(1 0 0 1 109 38 )" class="stroke" mask="url(#Clip17)" />
    <path d="M 3.3066666666666666 3.48375  C 4.3025 4.020535714285714  5.211250000000001 4.768928571428572  6.031666666666666 5.729464285714285  C 5.924166666666666 5.879999999999999  5.820416666666666 6.0321428571428575  5.720416666666666 6.186428571428572  C 5.620416666666666 6.340714285714286  5.514166666666666 6.49232142857143  5.4016666666666655 6.643392857142858  C 5.040416666666665 6.216428571428573  4.655833333333333 5.831785714285716  4.247916666666667 5.490000000000002  C 3.84 5.14821428571429  3.4141666666666666 4.857321428571431  2.97 4.618928571428573  C 2.525833333333334 4.380535714285716  2.066666666666667 4.198392857142859  1.5929166666666668 4.072500000000002  C 1.1191666666666666 3.9466071428571454  0.6333333333333332 3.8839285714285734  0.13541666666666638 3.8839285714285734  L 0.13541666666666638 2.678571428571429  C 1.2537500000000001 2.678571428571429  2.310833333333333 2.9469642857142864  3.3066666666666666 3.48375  Z " stroke-width="0" stroke-dasharray="0" stroke="rgba(255, 255, 255, 0)" fill="none" transform="matrix(1 0 0 1 109 38 )" class="stroke" mask="url(#Clip17)" />
    <path d="M 11.993750000000002 9.731249999999992  L 12.6525 8.884285714285717  L 14.864583333333332 11.71875  L 12.6525 14.553214285714283  L 11.993333333333334 13.705714285714285  L 13.07 12.321428571428571  C 12.532916666666667 12.302678571428572  12.006666666666668 12.220714285714283  11.491666666666669 12.076607142857142  C 10.97666666666667 11.9325  10.479583333333336 11.73  10.001250000000002 11.469107142857142  C 9.52291666666667 11.208214285714284  9.062500000000004 10.893214285714285  8.620833333333335 10.522499999999999  C 8.179166666666667 10.151785714285712  7.760416666666669 9.734464285714282  7.364583333333336 9.269999999999996  C 7.472083333333335 9.119464285714285  7.575833333333334 8.967321428571427  7.675833333333334 8.81303571428571  C 7.775833333333335 8.658749999999994  7.882083333333333 8.507142857142854  7.9945833333333365 8.356071428571425  C 8.346250000000001 8.77017857142857  8.717083333333337 9.144107142857138  9.107916666666668 9.47678571428571  C 9.498749999999998 9.80946428571428  9.907499999999999 10.094999999999997  10.334583333333335 10.333928571428567  C 10.761666666666672 10.572857142857139  11.203750000000001 10.757678571428565  11.66041666666667 10.889464285714281  C 12.117083333333339 11.021249999999997  12.584583333333335 11.096785714285708  13.06291666666667 11.11553571428571  L 11.993750000000002 9.731249999999992  Z " stroke-width="0" stroke-dasharray="0" stroke="rgba(255, 255, 255, 0)" fill="none" transform="matrix(1 0 0 1 109 38 )" class="stroke" mask="url(#Clip17)" />
  </g>
</svg>