<?xml version="1.0" encoding="utf-8"?>
<svg version="1.1" xmlns:xlink="http://www.w3.org/1999/xlink" width="12px" height="19px" xmlns="http://www.w3.org/2000/svg">
  <defs>
    <pattern id="BGPattern" patternUnits="userSpaceOnUse" alignment="0 0" imageRepeat="None" />
    <mask fill="white" id="Clip95">
      <path d="M 4.286931818181818 15.722005208333334  C 4.338068181818182 15.647786458333334  4.363636363636363 15.552951388888888  4.363636363636363 15.4375  L 4.363636363636363 6.729166666666666  C 4.363636363636363 6.613715277777778  4.338068181818182 6.518880208333334  4.286931818181818 6.444661458333334  C 4.235795454545454 6.370442708333334  4.170454545454546 6.333333333333334  4.090909090909091 6.333333333333334  L 3.545454545454546 6.333333333333334  C 3.4659090909090917 6.333333333333334  3.4005681818181825 6.370442708333334  3.3494318181818183 6.444661458333334  C 3.298295454545454 6.518880208333334  3.2727272727272725 6.613715277777778  3.2727272727272725 6.729166666666666  L 3.2727272727272725 15.4375  C 3.2727272727272725 15.552951388888888  3.298295454545454 15.647786458333334  3.3494318181818183 15.722005208333334  C 3.4005681818181825 15.796223958333334  3.4659090909090917 15.833333333333334  3.545454545454546 15.833333333333334  L 4.090909090909091 15.833333333333334  C 4.170454545454546 15.833333333333334  4.235795454545454 15.796223958333334  4.286931818181818 15.722005208333334  Z M 6.46875 15.722005208333334  C 6.519886363636363 15.647786458333334  6.545454545454545 15.552951388888888  6.545454545454545 15.4375  L 6.545454545454545 6.729166666666666  C 6.545454545454545 6.613715277777778  6.519886363636363 6.518880208333334  6.46875 6.444661458333334  C 6.417613636363637 6.370442708333334  6.352272727272728 6.333333333333334  6.2727272727272725 6.333333333333334  L 5.7272727272727275 6.333333333333334  C 5.647727272727273 6.333333333333334  5.582386363636363 6.370442708333334  5.53125 6.444661458333334  C 5.480113636363637 6.518880208333334  5.454545454545454 6.613715277777778  5.454545454545454 6.729166666666666  L 5.454545454545454 15.4375  C 5.454545454545454 15.552951388888888  5.480113636363637 15.647786458333334  5.53125 15.722005208333334  C 5.582386363636363 15.796223958333334  5.647727272727273 15.833333333333334  5.7272727272727275 15.833333333333334  L 6.2727272727272725 15.833333333333334  C 6.352272727272728 15.833333333333334  6.417613636363637 15.796223958333334  6.46875 15.722005208333334  Z M 8.650568181818182 15.722005208333334  C 8.701704545454545 15.647786458333334  8.727272727272727 15.552951388888888  8.727272727272727 15.4375  L 8.727272727272727 6.729166666666666  C 8.727272727272727 6.613715277777778  8.701704545454545 6.518880208333334  8.650568181818182 6.444661458333334  C 8.599431818181818 6.370442708333334  8.53409090909091 6.333333333333334  8.454545454545455 6.333333333333334  L 7.909090909090908 6.333333333333334  C 7.829545454545455 6.333333333333334  7.764204545454545 6.370442708333334  7.713068181818182 6.444661458333334  C 7.661931818181818 6.518880208333334  7.636363636363637 6.613715277777778  7.636363636363637 6.729166666666666  L 7.636363636363637 15.4375  C 7.636363636363637 15.552951388888888  7.661931818181818 15.647786458333334  7.713068181818182 15.722005208333334  C 7.764204545454545 15.796223958333334  7.829545454545455 15.833333333333334  7.909090909090908 15.833333333333334  L 8.454545454545455 15.833333333333334  C 8.53409090909091 15.833333333333334  8.599431818181818 15.796223958333334  8.650568181818182 15.722005208333334  Z M 4.5085227272727275 1.719401041666666  L 4.090909090909091 3.166666666666666  L 7.909090909090908 3.166666666666666  L 7.5 1.719401041666666  C 7.460227272727274 1.645182291666666  7.411931818181818 1.599826388888888  7.355113636363637 1.583333333333334  L 4.653409090909091 1.583333333333334  C 4.596590909090909 1.599826388888888  4.548295454545455 1.645182291666666  4.5085227272727275 1.719401041666666  Z M 11.923295454545455 3.277994791666666  C 11.974431818181818 3.352213541666666  12 3.44704861111111  12 3.5625  L 12 4.354166666666666  C 12 4.469618055555554  11.974431818181818 4.564453125  11.923295454545455 4.638671875  C 11.872159090909092 4.712890625  11.806818181818183 4.75  11.727272727272727 4.75  L 11 4.75  L 11 16.4765625  C 10.909090909090908 17.161024305555554  10.775568181818183 17.75271267361111  10.508522727272727 18.251627604166664  C 10.241477272727273 18.75054253472222  9.920454545454545 19  9.545454545454545 19  L 2.4545454545454546 19  C 2.0795454545454546 19  1.7585227272727275 18.7587890625  1.4914772727272727 18.2763671875  C 1.2244318181818183 17.7939453125  1.0909090909090908 17.21050347222222  1 16.526041666666664  L 1 4.75  L 0.2727272727272727 4.75  C 0.19318181818181818 4.75  0.12784090909090912 4.712890625  0.07670454545454546 4.638671875  C 0.025568181818181816 4.564453125  0 4.469618055555554  0 4.354166666666666  L 0 3.5625  C 0 3.44704861111111  0.025568181818181816 3.352213541666666  0.07670454545454546 3.277994791666666  C 0.12784090909090912 3.203776041666666  0.19318181818181818 3.166666666666666  0.2727272727272727 3.166666666666666  L 2.90625 3.166666666666666  L 3.502840909090909 1.100911458333334  C 3.5880681818181825 0.7957899305555539  3.7414772727272734 0.5360243055555539  3.9630681818181817 0.32161458333333404  C 4.184659090909092 0.10720486111110994  4.409090909090909 0  4.636363636363637 0  L 7.363636363636363 0  C 7.590909090909092 0  7.815340909090908 0.10720486111110994  8.036931818181818 0.32161458333333404  C 8.258522727272727 0.5360243055555539  8.411931818181818 0.7957899305555539  8.497159090909092 1.100911458333334  L 9.09375 3.166666666666666  L 11.727272727272727 3.166666666666666  C 11.806818181818183 3.166666666666666  11.872159090909092 3.203776041666666  11.923295454545455 3.277994791666666  Z " fill-rule="evenodd" />
    </mask>
  </defs>
  <g transform="matrix(1 0 0 1 -1381 -375 )">
    <path d="M 4.286931818181818 15.722005208333334  C 4.338068181818182 15.647786458333334  4.363636363636363 15.552951388888888  4.363636363636363 15.4375  L 4.363636363636363 6.729166666666666  C 4.363636363636363 6.613715277777778  4.338068181818182 6.518880208333334  4.286931818181818 6.444661458333334  C 4.235795454545454 6.370442708333334  4.170454545454546 6.333333333333334  4.090909090909091 6.333333333333334  L 3.545454545454546 6.333333333333334  C 3.4659090909090917 6.333333333333334  3.4005681818181825 6.370442708333334  3.3494318181818183 6.444661458333334  C 3.298295454545454 6.518880208333334  3.2727272727272725 6.613715277777778  3.2727272727272725 6.729166666666666  L 3.2727272727272725 15.4375  C 3.2727272727272725 15.552951388888888  3.298295454545454 15.647786458333334  3.3494318181818183 15.722005208333334  C 3.4005681818181825 15.796223958333334  3.4659090909090917 15.833333333333334  3.545454545454546 15.833333333333334  L 4.090909090909091 15.833333333333334  C 4.170454545454546 15.833333333333334  4.235795454545454 15.796223958333334  4.286931818181818 15.722005208333334  Z M 6.46875 15.722005208333334  C 6.519886363636363 15.647786458333334  6.545454545454545 15.552951388888888  6.545454545454545 15.4375  L 6.545454545454545 6.729166666666666  C 6.545454545454545 6.613715277777778  6.519886363636363 6.518880208333334  6.46875 6.444661458333334  C 6.417613636363637 6.370442708333334  6.352272727272728 6.333333333333334  6.2727272727272725 6.333333333333334  L 5.7272727272727275 6.333333333333334  C 5.647727272727273 6.333333333333334  5.582386363636363 6.370442708333334  5.53125 6.444661458333334  C 5.480113636363637 6.518880208333334  5.454545454545454 6.613715277777778  5.454545454545454 6.729166666666666  L 5.454545454545454 15.4375  C 5.454545454545454 15.552951388888888  5.480113636363637 15.647786458333334  5.53125 15.722005208333334  C 5.582386363636363 15.796223958333334  5.647727272727273 15.833333333333334  5.7272727272727275 15.833333333333334  L 6.2727272727272725 15.833333333333334  C 6.352272727272728 15.833333333333334  6.417613636363637 15.796223958333334  6.46875 15.722005208333334  Z M 8.650568181818182 15.722005208333334  C 8.701704545454545 15.647786458333334  8.727272727272727 15.552951388888888  8.727272727272727 15.4375  L 8.727272727272727 6.729166666666666  C 8.727272727272727 6.613715277777778  8.701704545454545 6.518880208333334  8.650568181818182 6.444661458333334  C 8.599431818181818 6.370442708333334  8.53409090909091 6.333333333333334  8.454545454545455 6.333333333333334  L 7.909090909090908 6.333333333333334  C 7.829545454545455 6.333333333333334  7.764204545454545 6.370442708333334  7.713068181818182 6.444661458333334  C 7.661931818181818 6.518880208333334  7.636363636363637 6.613715277777778  7.636363636363637 6.729166666666666  L 7.636363636363637 15.4375  C 7.636363636363637 15.552951388888888  7.661931818181818 15.647786458333334  7.713068181818182 15.722005208333334  C 7.764204545454545 15.796223958333334  7.829545454545455 15.833333333333334  7.909090909090908 15.833333333333334  L 8.454545454545455 15.833333333333334  C 8.53409090909091 15.833333333333334  8.599431818181818 15.796223958333334  8.650568181818182 15.722005208333334  Z M 4.5085227272727275 1.719401041666666  L 4.090909090909091 3.166666666666666  L 7.909090909090908 3.166666666666666  L 7.5 1.719401041666666  C 7.460227272727274 1.645182291666666  7.411931818181818 1.599826388888888  7.355113636363637 1.583333333333334  L 4.653409090909091 1.583333333333334  C 4.596590909090909 1.599826388888888  4.548295454545455 1.645182291666666  4.5085227272727275 1.719401041666666  Z M 11.923295454545455 3.277994791666666  C 11.974431818181818 3.352213541666666  12 3.44704861111111  12 3.5625  L 12 4.354166666666666  C 12 4.469618055555554  11.974431818181818 4.564453125  11.923295454545455 4.638671875  C 11.872159090909092 4.712890625  11.806818181818183 4.75  11.727272727272727 4.75  L 11 4.75  L 11 16.4765625  C 10.909090909090908 17.161024305555554  10.775568181818183 17.75271267361111  10.508522727272727 18.251627604166664  C 10.241477272727273 18.75054253472222  9.920454545454545 19  9.545454545454545 19  L 2.4545454545454546 19  C 2.0795454545454546 19  1.7585227272727275 18.7587890625  1.4914772727272727 18.2763671875  C 1.2244318181818183 17.7939453125  1.0909090909090908 17.21050347222222  1 16.526041666666664  L 1 4.75  L 0.2727272727272727 4.75  C 0.19318181818181818 4.75  0.12784090909090912 4.712890625  0.07670454545454546 4.638671875  C 0.025568181818181816 4.564453125  0 4.469618055555554  0 4.354166666666666  L 0 3.5625  C 0 3.44704861111111  0.025568181818181816 3.352213541666666  0.07670454545454546 3.277994791666666  C 0.12784090909090912 3.203776041666666  0.19318181818181818 3.166666666666666  0.2727272727272727 3.166666666666666  L 2.90625 3.166666666666666  L 3.502840909090909 1.100911458333334  C 3.5880681818181825 0.7957899305555539  3.7414772727272734 0.5360243055555539  3.9630681818181817 0.32161458333333404  C 4.184659090909092 0.10720486111110994  4.409090909090909 0  4.636363636363637 0  L 7.363636363636363 0  C 7.590909090909092 0  7.815340909090908 0.10720486111110994  8.036931818181818 0.32161458333333404  C 8.258522727272727 0.5360243055555539  8.411931818181818 0.7957899305555539  8.497159090909092 1.100911458333334  L 9.09375 3.166666666666666  L 11.727272727272727 3.166666666666666  C 11.806818181818183 3.166666666666666  11.872159090909092 3.203776041666666  11.923295454545455 3.277994791666666  Z " fill-rule="nonzero" fill="rgba(0, 0, 0, 1)" stroke="none" transform="matrix(1 0 0 1 1381 375 )" class="fill" />
    <path d="M 4.286931818181818 15.722005208333334  C 4.338068181818182 15.647786458333334  4.363636363636363 15.552951388888888  4.363636363636363 15.4375  L 4.363636363636363 6.729166666666666  C 4.363636363636363 6.613715277777778  4.338068181818182 6.518880208333334  4.286931818181818 6.444661458333334  C 4.235795454545454 6.370442708333334  4.170454545454546 6.333333333333334  4.090909090909091 6.333333333333334  L 3.545454545454546 6.333333333333334  C 3.4659090909090917 6.333333333333334  3.4005681818181825 6.370442708333334  3.3494318181818183 6.444661458333334  C 3.298295454545454 6.518880208333334  3.2727272727272725 6.613715277777778  3.2727272727272725 6.729166666666666  L 3.2727272727272725 15.4375  C 3.2727272727272725 15.552951388888888  3.298295454545454 15.647786458333334  3.3494318181818183 15.722005208333334  C 3.4005681818181825 15.796223958333334  3.4659090909090917 15.833333333333334  3.545454545454546 15.833333333333334  L 4.090909090909091 15.833333333333334  C 4.170454545454546 15.833333333333334  4.235795454545454 15.796223958333334  4.286931818181818 15.722005208333334  Z " stroke-width="0" stroke-dasharray="0" stroke="rgba(255, 255, 255, 0)" fill="none" transform="matrix(1 0 0 1 1381 375 )" class="stroke" mask="url(#Clip95)" />
    <path d="M 6.46875 15.722005208333334  C 6.519886363636363 15.647786458333334  6.545454545454545 15.552951388888888  6.545454545454545 15.4375  L 6.545454545454545 6.729166666666666  C 6.545454545454545 6.613715277777778  6.519886363636363 6.518880208333334  6.46875 6.444661458333334  C 6.417613636363637 6.370442708333334  6.352272727272728 6.333333333333334  6.2727272727272725 6.333333333333334  L 5.7272727272727275 6.333333333333334  C 5.647727272727273 6.333333333333334  5.582386363636363 6.370442708333334  5.53125 6.444661458333334  C 5.480113636363637 6.518880208333334  5.454545454545454 6.613715277777778  5.454545454545454 6.729166666666666  L 5.454545454545454 15.4375  C 5.454545454545454 15.552951388888888  5.480113636363637 15.647786458333334  5.53125 15.722005208333334  C 5.582386363636363 15.796223958333334  5.647727272727273 15.833333333333334  5.7272727272727275 15.833333333333334  L 6.2727272727272725 15.833333333333334  C 6.352272727272728 15.833333333333334  6.417613636363637 15.796223958333334  6.46875 15.722005208333334  Z " stroke-width="0" stroke-dasharray="0" stroke="rgba(255, 255, 255, 0)" fill="none" transform="matrix(1 0 0 1 1381 375 )" class="stroke" mask="url(#Clip95)" />
    <path d="M 8.650568181818182 15.722005208333334  C 8.701704545454545 15.647786458333334  8.727272727272727 15.552951388888888  8.727272727272727 15.4375  L 8.727272727272727 6.729166666666666  C 8.727272727272727 6.613715277777778  8.701704545454545 6.518880208333334  8.650568181818182 6.444661458333334  C 8.599431818181818 6.370442708333334  8.53409090909091 6.333333333333334  8.454545454545455 6.333333333333334  L 7.909090909090908 6.333333333333334  C 7.829545454545455 6.333333333333334  7.764204545454545 6.370442708333334  7.713068181818182 6.444661458333334  C 7.661931818181818 6.518880208333334  7.636363636363637 6.613715277777778  7.636363636363637 6.729166666666666  L 7.636363636363637 15.4375  C 7.636363636363637 15.552951388888888  7.661931818181818 15.647786458333334  7.713068181818182 15.722005208333334  C 7.764204545454545 15.796223958333334  7.829545454545455 15.833333333333334  7.909090909090908 15.833333333333334  L 8.454545454545455 15.833333333333334  C 8.53409090909091 15.833333333333334  8.599431818181818 15.796223958333334  8.650568181818182 15.722005208333334  Z " stroke-width="0" stroke-dasharray="0" stroke="rgba(255, 255, 255, 0)" fill="none" transform="matrix(1 0 0 1 1381 375 )" class="stroke" mask="url(#Clip95)" />
    <path d="M 4.5085227272727275 1.719401041666666  L 4.090909090909091 3.166666666666666  L 7.909090909090908 3.166666666666666  L 7.5 1.719401041666666  C 7.460227272727274 1.645182291666666  7.411931818181818 1.599826388888888  7.355113636363637 1.583333333333334  L 4.653409090909091 1.583333333333334  C 4.596590909090909 1.599826388888888  4.548295454545455 1.645182291666666  4.5085227272727275 1.719401041666666  Z " stroke-width="0" stroke-dasharray="0" stroke="rgba(255, 255, 255, 0)" fill="none" transform="matrix(1 0 0 1 1381 375 )" class="stroke" mask="url(#Clip95)" />
    <path d="M 11.923295454545455 3.277994791666666  C 11.974431818181818 3.352213541666666  12 3.44704861111111  12 3.5625  L 12 4.354166666666666  C 12 4.469618055555554  11.974431818181818 4.564453125  11.923295454545455 4.638671875  C 11.872159090909092 4.712890625  11.806818181818183 4.75  11.727272727272727 4.75  L 11 4.75  L 11 16.4765625  C 10.909090909090908 17.161024305555554  10.775568181818183 17.75271267361111  10.508522727272727 18.251627604166664  C 10.241477272727273 18.75054253472222  9.920454545454545 19  9.545454545454545 19  L 2.4545454545454546 19  C 2.0795454545454546 19  1.7585227272727275 18.7587890625  1.4914772727272727 18.2763671875  C 1.2244318181818183 17.7939453125  1.0909090909090908 17.21050347222222  1 16.526041666666664  L 1 4.75  L 0.2727272727272727 4.75  C 0.19318181818181818 4.75  0.12784090909090912 4.712890625  0.07670454545454546 4.638671875  C 0.025568181818181816 4.564453125  0 4.469618055555554  0 4.354166666666666  L 0 3.5625  C 0 3.44704861111111  0.025568181818181816 3.352213541666666  0.07670454545454546 3.277994791666666  C 0.12784090909090912 3.203776041666666  0.19318181818181818 3.166666666666666  0.2727272727272727 3.166666666666666  L 2.90625 3.166666666666666  L 3.502840909090909 1.100911458333334  C 3.5880681818181825 0.7957899305555539  3.7414772727272734 0.5360243055555539  3.9630681818181817 0.32161458333333404  C 4.184659090909092 0.10720486111110994  4.409090909090909 0  4.636363636363637 0  L 7.363636363636363 0  C 7.590909090909092 0  7.815340909090908 0.10720486111110994  8.036931818181818 0.32161458333333404  C 8.258522727272727 0.5360243055555539  8.411931818181818 0.7957899305555539  8.497159090909092 1.100911458333334  L 9.09375 3.166666666666666  L 11.727272727272727 3.166666666666666  C 11.806818181818183 3.166666666666666  11.872159090909092 3.203776041666666  11.923295454545455 3.277994791666666  Z " stroke-width="0" stroke-dasharray="0" stroke="rgba(255, 255, 255, 0)" fill="none" transform="matrix(1 0 0 1 1381 375 )" class="stroke" mask="url(#Clip95)" />
  </g>
</svg>