<?xml version="1.0" encoding="utf-8"?>
<svg version="1.1" xmlns:xlink="http://www.w3.org/1999/xlink" width="20px" height="22px" xmlns="http://www.w3.org/2000/svg">
  <defs>
    <pattern id="BGPattern" patternUnits="userSpaceOnUse" alignment="0 0" imageRepeat="None" />
    <mask fill="white" id="Clip4">
      <path d="M 19.205729166666668 6.731770833333334  C 19.735243055555554 8.08767361111111  20 9.510416666666666  20 11  C 20 12.489583333333332  19.735243055555554 13.912326388888886  19.205729166666668 15.268229166666668  C 18.67621527777778 16.624131944444446  17.96440972222222 17.793836805555554  17.0703125 18.77734375  C 16.17621527777778 19.760850694444446  15.112847222222223 20.543836805555554  13.880208333333332 21.126302083333336  C 12.647569444444446 21.70876736111111  11.354166666666668 22  10 22  C 8.506944444444445 22  7.087673611111112 21.65386284722222  5.7421875 20.961588541666664  C 4.396701388888889 20.26931423611111  3.250868055555556 19.29296875  2.3046875 18.032552083333336  C 2.243923611111111 17.93706597222222  2.215711805555556 17.82964409722222  2.2200520833333335 17.710286458333336  C 2.224392361111111 17.590928819444446  2.2612847222222223 17.493055555555554  2.3307291666666665 17.416666666666664  L 4.114583333333333 15.440104166666668  C 4.201388888888889 15.354166666666668  4.309895833333333 15.311197916666668  4.440104166666667 15.311197916666668  C 4.578993055555555 15.330295138888886  4.678819444444445 15.387586805555554  4.739583333333333 15.483072916666668  C 5.373263888888889 16.39019097222222  6.150173611111112 17.09201388888889  7.0703125 17.588541666666664  C 7.990451388888889 18.085069444444446  8.96701388888889 18.333333333333336  10 18.333333333333336  C 10.902777777777779 18.333333333333336  11.764322916666668 18.139973958333336  12.584635416666668 17.753255208333336  C 13.404947916666668 17.366536458333336  14.114583333333332 16.84375  14.713541666666668 16.184895833333332  C 15.3125 15.526041666666668  15.787760416666668 14.745442708333332  16.139322916666668 13.843098958333332  C 16.490885416666668 12.940755208333332  16.666666666666668 11.993055555555554  16.666666666666668 11  C 16.666666666666668 10.006944444444443  16.490885416666668 9.059244791666666  16.139322916666668 8.156901041666666  C 15.787760416666668 7.254557291666666  15.3125 6.473958333333334  14.713541666666668 5.815104166666666  C 14.114583333333332 5.15625  13.404947916666668 4.633463541666666  12.584635416666668 4.246744791666666  C 11.764322916666668 3.860026041666666  10.902777777777779 3.666666666666666  10 3.666666666666666  C 9.149305555555557 3.666666666666666  8.333333333333334 3.8361545138888884  7.552083333333334 4.175130208333334  C 6.770833333333334 4.514105902777775  6.076388888888889 4.998697916666666  5.46875 5.62890625  L 7.252604166666666 7.60546875  C 7.521701388888889 7.891927083333334  7.582465277777778 8.221354166666666  7.434895833333334 8.59375  C 7.287326388888889 8.975694444444446  7.03125 9.166666666666666  6.666666666666666 9.166666666666666  L 0.8333333333333333 9.166666666666666  C 0.607638888888889 9.166666666666666  0.4123263888888889 9.07595486111111  0.24739583333333331 8.89453125  C 0.08246527777777778 8.71310763888889  0 8.49826388888889  0 8.25  L 0 1.8333333333333341  C 0 1.4322916666666659  0.17361111111111108 1.1506076388888886  0.5208333333333334 0.98828125  C 0.859375 0.8259548611111089  1.1588541666666667 0.8927951388888886  1.4192708333333335 1.1888020833333341  L 3.111979166666667 3.036458333333334  C 4.040798611111112 2.072048611111109  5.101996527777778 1.3248697916666659  6.295572916666666 0.794921875  C 7.489149305555557 0.26497395833333415  8.723958333333334 0  10 0  C 11.354166666666668 0  12.647569444444446 0.2912326388888886  13.880208333333332 0.8736979166666659  C 15.112847222222223 1.456163194444443  16.17621527777778 2.2391493055555545  17.0703125 3.22265625  C 17.96440972222222 4.206163194444443  18.67621527777778 5.3758680555555545  19.205729166666668 6.731770833333334  Z M 11.549479166666668 6.545572916666666  C 11.627604166666668 6.631510416666666  11.666666666666668 6.741319444444443  11.666666666666668 6.875  L 11.666666666666668 13.291666666666668  C 11.666666666666668 13.425347222222223  11.627604166666668 13.53515625  11.549479166666668 13.62109375  C 11.471354166666668 13.70703125  11.371527777777779 13.75  11.25 13.75  L 7.083333333333334 13.75  C 6.961805555555557 13.75  6.861979166666666 13.70703125  6.783854166666666 13.62109375  C 6.705729166666666 13.53515625  6.666666666666666 13.425347222222223  6.666666666666666 13.291666666666668  L 6.666666666666666 12.375  C 6.666666666666666 12.241319444444446  6.705729166666666 12.131510416666668  6.783854166666666 12.045572916666668  C 6.861979166666666 11.959635416666668  6.961805555555557 11.916666666666668  7.083333333333334 11.916666666666668  L 10 11.916666666666668  L 10 6.875  C 10 6.741319444444443  10.0390625 6.631510416666666  10.1171875 6.545572916666666  C 10.195312500000002 6.459635416666666  10.295138888888891 6.416666666666666  10.416666666666668 6.416666666666666  L 11.25 6.416666666666666  C 11.371527777777779 6.416666666666666  11.471354166666668 6.459635416666666  11.549479166666668 6.545572916666666  Z " fill-rule="evenodd" />
    </mask>
  </defs>
  <g transform="matrix(1 0 0 1 -723 -436 )">
    <path d="M 19.205729166666668 6.731770833333334  C 19.735243055555554 8.08767361111111  20 9.510416666666666  20 11  C 20 12.489583333333332  19.735243055555554 13.912326388888886  19.205729166666668 15.268229166666668  C 18.67621527777778 16.624131944444446  17.96440972222222 17.793836805555554  17.0703125 18.77734375  C 16.17621527777778 19.760850694444446  15.112847222222223 20.543836805555554  13.880208333333332 21.126302083333336  C 12.647569444444446 21.70876736111111  11.354166666666668 22  10 22  C 8.506944444444445 22  7.087673611111112 21.65386284722222  5.7421875 20.961588541666664  C 4.396701388888889 20.26931423611111  3.250868055555556 19.29296875  2.3046875 18.032552083333336  C 2.243923611111111 17.93706597222222  2.215711805555556 17.82964409722222  2.2200520833333335 17.710286458333336  C 2.224392361111111 17.590928819444446  2.2612847222222223 17.493055555555554  2.3307291666666665 17.416666666666664  L 4.114583333333333 15.440104166666668  C 4.201388888888889 15.354166666666668  4.309895833333333 15.311197916666668  4.440104166666667 15.311197916666668  C 4.578993055555555 15.330295138888886  4.678819444444445 15.387586805555554  4.739583333333333 15.483072916666668  C 5.373263888888889 16.39019097222222  6.150173611111112 17.09201388888889  7.0703125 17.588541666666664  C 7.990451388888889 18.085069444444446  8.96701388888889 18.333333333333336  10 18.333333333333336  C 10.902777777777779 18.333333333333336  11.764322916666668 18.139973958333336  12.584635416666668 17.753255208333336  C 13.404947916666668 17.366536458333336  14.114583333333332 16.84375  14.713541666666668 16.184895833333332  C 15.3125 15.526041666666668  15.787760416666668 14.745442708333332  16.139322916666668 13.843098958333332  C 16.490885416666668 12.940755208333332  16.666666666666668 11.993055555555554  16.666666666666668 11  C 16.666666666666668 10.006944444444443  16.490885416666668 9.059244791666666  16.139322916666668 8.156901041666666  C 15.787760416666668 7.254557291666666  15.3125 6.473958333333334  14.713541666666668 5.815104166666666  C 14.114583333333332 5.15625  13.404947916666668 4.633463541666666  12.584635416666668 4.246744791666666  C 11.764322916666668 3.860026041666666  10.902777777777779 3.666666666666666  10 3.666666666666666  C 9.149305555555557 3.666666666666666  8.333333333333334 3.8361545138888884  7.552083333333334 4.175130208333334  C 6.770833333333334 4.514105902777775  6.076388888888889 4.998697916666666  5.46875 5.62890625  L 7.252604166666666 7.60546875  C 7.521701388888889 7.891927083333334  7.582465277777778 8.221354166666666  7.434895833333334 8.59375  C 7.287326388888889 8.975694444444446  7.03125 9.166666666666666  6.666666666666666 9.166666666666666  L 0.8333333333333333 9.166666666666666  C 0.607638888888889 9.166666666666666  0.4123263888888889 9.07595486111111  0.24739583333333331 8.89453125  C 0.08246527777777778 8.71310763888889  0 8.49826388888889  0 8.25  L 0 1.8333333333333341  C 0 1.4322916666666659  0.17361111111111108 1.1506076388888886  0.5208333333333334 0.98828125  C 0.859375 0.8259548611111089  1.1588541666666667 0.8927951388888886  1.4192708333333335 1.1888020833333341  L 3.111979166666667 3.036458333333334  C 4.040798611111112 2.072048611111109  5.101996527777778 1.3248697916666659  6.295572916666666 0.794921875  C 7.489149305555557 0.26497395833333415  8.723958333333334 0  10 0  C 11.354166666666668 0  12.647569444444446 0.2912326388888886  13.880208333333332 0.8736979166666659  C 15.112847222222223 1.456163194444443  16.17621527777778 2.2391493055555545  17.0703125 3.22265625  C 17.96440972222222 4.206163194444443  18.67621527777778 5.3758680555555545  19.205729166666668 6.731770833333334  Z M 11.549479166666668 6.545572916666666  C 11.627604166666668 6.631510416666666  11.666666666666668 6.741319444444443  11.666666666666668 6.875  L 11.666666666666668 13.291666666666668  C 11.666666666666668 13.425347222222223  11.627604166666668 13.53515625  11.549479166666668 13.62109375  C 11.471354166666668 13.70703125  11.371527777777779 13.75  11.25 13.75  L 7.083333333333334 13.75  C 6.961805555555557 13.75  6.861979166666666 13.70703125  6.783854166666666 13.62109375  C 6.705729166666666 13.53515625  6.666666666666666 13.425347222222223  6.666666666666666 13.291666666666668  L 6.666666666666666 12.375  C 6.666666666666666 12.241319444444446  6.705729166666666 12.131510416666668  6.783854166666666 12.045572916666668  C 6.861979166666666 11.959635416666668  6.961805555555557 11.916666666666668  7.083333333333334 11.916666666666668  L 10 11.916666666666668  L 10 6.875  C 10 6.741319444444443  10.0390625 6.631510416666666  10.1171875 6.545572916666666  C 10.195312500000002 6.459635416666666  10.295138888888891 6.416666666666666  10.416666666666668 6.416666666666666  L 11.25 6.416666666666666  C 11.371527777777779 6.416666666666666  11.471354166666668 6.459635416666666  11.549479166666668 6.545572916666666  Z " fill-rule="nonzero" fill="rgba(0, 0, 0, 1)" stroke="none" transform="matrix(1 0 0 1 723 436 )" class="fill" />
    <path d="M 19.205729166666668 6.731770833333334  C 19.735243055555554 8.08767361111111  20 9.510416666666666  20 11  C 20 12.489583333333332  19.735243055555554 13.912326388888886  19.205729166666668 15.268229166666668  C 18.67621527777778 16.624131944444446  17.96440972222222 17.793836805555554  17.0703125 18.77734375  C 16.17621527777778 19.760850694444446  15.112847222222223 20.543836805555554  13.880208333333332 21.126302083333336  C 12.647569444444446 21.70876736111111  11.354166666666668 22  10 22  C 8.506944444444445 22  7.087673611111112 21.65386284722222  5.7421875 20.961588541666664  C 4.396701388888889 20.26931423611111  3.250868055555556 19.29296875  2.3046875 18.032552083333336  C 2.243923611111111 17.93706597222222  2.215711805555556 17.82964409722222  2.2200520833333335 17.710286458333336  C 2.224392361111111 17.590928819444446  2.2612847222222223 17.493055555555554  2.3307291666666665 17.416666666666664  L 4.114583333333333 15.440104166666668  C 4.201388888888889 15.354166666666668  4.309895833333333 15.311197916666668  4.440104166666667 15.311197916666668  C 4.578993055555555 15.330295138888886  4.678819444444445 15.387586805555554  4.739583333333333 15.483072916666668  C 5.373263888888889 16.39019097222222  6.150173611111112 17.09201388888889  7.0703125 17.588541666666664  C 7.990451388888889 18.085069444444446  8.96701388888889 18.333333333333336  10 18.333333333333336  C 10.902777777777779 18.333333333333336  11.764322916666668 18.139973958333336  12.584635416666668 17.753255208333336  C 13.404947916666668 17.366536458333336  14.114583333333332 16.84375  14.713541666666668 16.184895833333332  C 15.3125 15.526041666666668  15.787760416666668 14.745442708333332  16.139322916666668 13.843098958333332  C 16.490885416666668 12.940755208333332  16.666666666666668 11.993055555555554  16.666666666666668 11  C 16.666666666666668 10.006944444444443  16.490885416666668 9.059244791666666  16.139322916666668 8.156901041666666  C 15.787760416666668 7.254557291666666  15.3125 6.473958333333334  14.713541666666668 5.815104166666666  C 14.114583333333332 5.15625  13.404947916666668 4.633463541666666  12.584635416666668 4.246744791666666  C 11.764322916666668 3.860026041666666  10.902777777777779 3.666666666666666  10 3.666666666666666  C 9.149305555555557 3.666666666666666  8.333333333333334 3.8361545138888884  7.552083333333334 4.175130208333334  C 6.770833333333334 4.514105902777775  6.076388888888889 4.998697916666666  5.46875 5.62890625  L 7.252604166666666 7.60546875  C 7.521701388888889 7.891927083333334  7.582465277777778 8.221354166666666  7.434895833333334 8.59375  C 7.287326388888889 8.975694444444446  7.03125 9.166666666666666  6.666666666666666 9.166666666666666  L 0.8333333333333333 9.166666666666666  C 0.607638888888889 9.166666666666666  0.4123263888888889 9.07595486111111  0.24739583333333331 8.89453125  C 0.08246527777777778 8.71310763888889  0 8.49826388888889  0 8.25  L 0 1.8333333333333341  C 0 1.4322916666666659  0.17361111111111108 1.1506076388888886  0.5208333333333334 0.98828125  C 0.859375 0.8259548611111089  1.1588541666666667 0.8927951388888886  1.4192708333333335 1.1888020833333341  L 3.111979166666667 3.036458333333334  C 4.040798611111112 2.072048611111109  5.101996527777778 1.3248697916666659  6.295572916666666 0.794921875  C 7.489149305555557 0.26497395833333415  8.723958333333334 0  10 0  C 11.354166666666668 0  12.647569444444446 0.2912326388888886  13.880208333333332 0.8736979166666659  C 15.112847222222223 1.456163194444443  16.17621527777778 2.2391493055555545  17.0703125 3.22265625  C 17.96440972222222 4.206163194444443  18.67621527777778 5.3758680555555545  19.205729166666668 6.731770833333334  Z " stroke-width="0" stroke-dasharray="0" stroke="rgba(0, 0, 0, 1)" fill="none" transform="matrix(1 0 0 1 723 436 )" class="stroke" mask="url(#Clip4)" />
    <path d="M 11.549479166666668 6.545572916666666  C 11.627604166666668 6.631510416666666  11.666666666666668 6.741319444444443  11.666666666666668 6.875  L 11.666666666666668 13.291666666666668  C 11.666666666666668 13.425347222222223  11.627604166666668 13.53515625  11.549479166666668 13.62109375  C 11.471354166666668 13.70703125  11.371527777777779 13.75  11.25 13.75  L 7.083333333333334 13.75  C 6.961805555555557 13.75  6.861979166666666 13.70703125  6.783854166666666 13.62109375  C 6.705729166666666 13.53515625  6.666666666666666 13.425347222222223  6.666666666666666 13.291666666666668  L 6.666666666666666 12.375  C 6.666666666666666 12.241319444444446  6.705729166666666 12.131510416666668  6.783854166666666 12.045572916666668  C 6.861979166666666 11.959635416666668  6.961805555555557 11.916666666666668  7.083333333333334 11.916666666666668  L 10 11.916666666666668  L 10 6.875  C 10 6.741319444444443  10.0390625 6.631510416666666  10.1171875 6.545572916666666  C 10.195312500000002 6.459635416666666  10.295138888888891 6.416666666666666  10.416666666666668 6.416666666666666  L 11.25 6.416666666666666  C 11.371527777777779 6.416666666666666  11.471354166666668 6.459635416666666  11.549479166666668 6.545572916666666  Z " stroke-width="0" stroke-dasharray="0" stroke="rgba(0, 0, 0, 1)" fill="none" transform="matrix(1 0 0 1 723 436 )" class="stroke" mask="url(#Clip4)" />
  </g>
</svg>