<?xml version="1.0" encoding="utf-8"?>
<svg version="1.1" xmlns:xlink="http://www.w3.org/1999/xlink" width="30px" height="30px" xmlns="http://www.w3.org/2000/svg">
  <defs>
    <pattern id="BGPattern" patternUnits="userSpaceOnUse" alignment="0 0" imageRepeat="None" />
    <mask fill="white" id="Clip3">
      <path d="M 15 0  C 23.284271247461902 0  30 6.715728752538098  30 15  C 30 23.284271247461902  23.284271247461902 30  15 30  C 6.715728752538098 30  0 23.284271247461902  0 15  C 0 6.715728752538098  6.715728752538098 0  15 0  Z M 7.5 15  C 7.5 15.517766952966369  7.919733047033631 15.9375  8.4375 16  L 19.299374999999998 16  L 15.273750000000001 19.96125  C 15.097712554869005 20.137287445130994  14.998815747974858 20.376045457610232  14.998815747974858 20.625  C 14.998815747974858 21.143420997299813  15.419079002700185 21.563684252025148  15.9375 21.563684252025148  C 16.186454542389768 21.563684252025148  16.425212554869006 21.46478744513099  16.60125 21.28875  L 22.22625 15.663749999999999  C 22.402578188789313 15.487867006855936  22.50167584441016 15.249051114109202  22.50167584441016 15  C 22.50167584441016 14.750948885890796  22.402578188789313 14.512132993144064  22.22625 14.33625  L 16.60125 8.71125  C 16.425212554869006 8.535212554869002  16.186454542389768 8.436315747974858  15.9375 8.436315747974858  C 15.419079002700188 8.436315747974858  14.998815747974858 8.856579002700188  14.998815747974858 9.375  C 14.998815747974858 9.623954542389765  15.097712554869005 9.862712554869004  15.273750000000001 10.03875  L 19.299374999999998 14  L 8.4375 14  C 7.919733047033631 14.0625  7.5 14.48223304703363  7.5 15  Z " fill-rule="evenodd" />
    </mask>
  </defs>
  <g transform="matrix(1 0 0 1 -1103 -384 )">
    <path d="M 15 0  C 23.284271247461902 0  30 6.715728752538098  30 15  C 30 23.284271247461902  23.284271247461902 30  15 30  C 6.715728752538098 30  0 23.284271247461902  0 15  C 0 6.715728752538098  6.715728752538098 0  15 0  Z M 7.5 15  C 7.5 15.517766952966369  7.919733047033631 15.9375  8.4375 16  L 19.299374999999998 16  L 15.273750000000001 19.96125  C 15.097712554869005 20.137287445130994  14.998815747974858 20.376045457610232  14.998815747974858 20.625  C 14.998815747974858 21.143420997299813  15.419079002700185 21.563684252025148  15.9375 21.563684252025148  C 16.186454542389768 21.563684252025148  16.425212554869006 21.46478744513099  16.60125 21.28875  L 22.22625 15.663749999999999  C 22.402578188789313 15.487867006855936  22.50167584441016 15.249051114109202  22.50167584441016 15  C 22.50167584441016 14.750948885890796  22.402578188789313 14.512132993144064  22.22625 14.33625  L 16.60125 8.71125  C 16.425212554869006 8.535212554869002  16.186454542389768 8.436315747974858  15.9375 8.436315747974858  C 15.419079002700188 8.436315747974858  14.998815747974858 8.856579002700188  14.998815747974858 9.375  C 14.998815747974858 9.623954542389765  15.097712554869005 9.862712554869004  15.273750000000001 10.03875  L 19.299374999999998 14  L 8.4375 14  C 7.919733047033631 14.0625  7.5 14.48223304703363  7.5 15  Z " fill-rule="nonzero" fill="rgba(0, 0, 0, 1)" stroke="none" transform="matrix(1 0 0 1 1103 384 )" class="fill" />
    <path d="M 15 0  C 23.284271247461902 0  30 6.715728752538098  30 15  C 30 23.284271247461902  23.284271247461902 30  15 30  C 6.715728752538098 30  0 23.284271247461902  0 15  C 0 6.715728752538098  6.715728752538098 0  15 0  Z " stroke-width="0" stroke-dasharray="0" stroke="rgba(255, 255, 255, 0)" fill="none" transform="matrix(1 0 0 1 1103 384 )" class="stroke" mask="url(#Clip3)" />
    <path d="M 7.5 15  C 7.5 15.517766952966369  7.919733047033631 15.9375  8.4375 16  L 19.299374999999998 16  L 15.273750000000001 19.96125  C 15.097712554869005 20.137287445130994  14.998815747974858 20.376045457610232  14.998815747974858 20.625  C 14.998815747974858 21.143420997299813  15.419079002700185 21.563684252025148  15.9375 21.563684252025148  C 16.186454542389768 21.563684252025148  16.425212554869006 21.46478744513099  16.60125 21.28875  L 22.22625 15.663749999999999  C 22.402578188789313 15.487867006855936  22.50167584441016 15.249051114109202  22.50167584441016 15  C 22.50167584441016 14.750948885890796  22.402578188789313 14.512132993144064  22.22625 14.33625  L 16.60125 8.71125  C 16.425212554869006 8.535212554869002  16.186454542389768 8.436315747974858  15.9375 8.436315747974858  C 15.419079002700188 8.436315747974858  14.998815747974858 8.856579002700188  14.998815747974858 9.375  C 14.998815747974858 9.623954542389765  15.097712554869005 9.862712554869004  15.273750000000001 10.03875  L 19.299374999999998 14  L 8.4375 14  C 7.919733047033631 14.0625  7.5 14.48223304703363  7.5 15  Z " stroke-width="0" stroke-dasharray="0" stroke="rgba(255, 255, 255, 0)" fill="none" transform="matrix(1 0 0 1 1103 384 )" class="stroke" mask="url(#Clip3)" />
  </g>
</svg>