<?xml version="1.0" encoding="utf-8"?>
<svg version="1.1" xmlns:xlink="http://www.w3.org/1999/xlink" width="20px" height="18px" xmlns="http://www.w3.org/2000/svg">
  <defs>
    <pattern id="BGPattern" patternUnits="userSpaceOnUse" alignment="0 0" imageRepeat="None" />
    <mask fill="white" id="Clip5">
      <path d="M 18.979591836734695 3.597656249999999  C 19.28371348539416 3.714843750000001  19.519807923169267 3.8828124999999982  19.687875150060023 4.101562500000001  C 20.00800320128051 4.546874999999999  20.080032012805123 5.050781250000001  19.903961584633855 5.613281250000001  L 16.60264105642257 16.23046875  C 16.45058023209284 16.73046875  16.144457783113246 17.150390625  15.684273709483794 17.490234375  C 15.224089635854343 17.830078125  14.73389355742297 18  14.213685474189678 18  L 3.1332533013205284 18  C 2.5170068027210886 18  1.9227691076430575 17.791015625  1.3505402160864346 17.373046875  C 0.7783113245298121 16.955078125  0.3801520608243298 16.44140625  0.15606242496998798 15.83203125  C -0.03601440576230492 15.308593749999998  -0.04401760704281713 14.8125  0.13205282112845138 14.34375  C 0.13205282112845138 14.3125  0.14405762304921968 14.20703125  0.1680672268907563 14.02734375  C 0.1920768307322929 13.847656249999998  0.20808323329331735 13.703125  0.21608643457382953 13.59375  C 0.22408963585434175 13.53125  0.21208483393357344 13.447265625  0.1800720288115246 13.341796875  C 0.1480592236894758 13.236328125  0.1360544217687075 13.160156250000002  0.14405762304921968 13.11328125  C 0.1600640256102441 13.02734375  0.1920768307322929 12.945312499999998  0.24009603841536614 12.8671875  C 0.28811524609843936 12.789062499999998  0.35414165666266506 12.697265624999998  0.43817527010804325 12.591796874999998  C 0.5222088835534213 12.486328124999998  0.5882352941176471 12.39453125  0.6362545018007203 12.316406250000002  C 0.8203281312525011 12.019531249999996  1.0004001600640258 11.662109374999998  1.1764705882352942 11.244140625000002  C 1.3525410164065628 10.826171875  1.4725890356142457 10.468749999999998  1.5366146458583432 10.171875000000002  C 1.56062424969988 10.09375  1.562625050020008 9.976562499999998  1.5426170468187275 9.820312500000002  C 1.522609043617447 9.6640625  1.520608243297319 9.554687499999998  1.5366146458583432 9.4921875  C 1.56062424969988 9.40625  1.628651460584234 9.296875  1.7406962785114046 9.164062499999998  C 1.8527410964385753 9.03125  1.9207683073229291 8.94140625  1.9447779111644659 8.89453125  C 2.112845138055222 8.61328125  2.280912364945978 8.25390625  2.4489795918367347 7.816406249999999  C 2.617046818727491 7.378906249999999  2.7170868347338937 7.027343749999999  2.7490996398559426 6.761718749999999  C 2.7571028411364544 6.691406249999999  2.7470988395358145 6.56640625  2.719087635054022 6.386718750000001  C 2.6910764305722292 6.20703125  2.6930772308923574 6.097656249999998  2.725090036014406 6.058593749999999  C 2.7571028411364544 5.957031249999998  2.845138055222089 5.837890624999997  2.9891956782713085 5.701171875000001  C 3.1332533013205284 5.564453125  3.2212885154061626 5.4765625  3.2533013205282115 5.437500000000001  C 3.4053621448579436 5.234374999999999  3.575430172068828 4.904296875  3.7635054021608645 4.447265625  C 3.9515806322529015 3.990234375  4.061624649859945 3.61328125  4.093637454981993 3.316406249999999  C 4.101640656262505 3.2539062499999973  4.089635854341737 3.1542968749999982  4.057623049219688 3.017578124999999  C 4.025610244097639 2.8808593749999982  4.0176070428171275 2.77734375  4.033613445378151 2.70703125  C 4.049619847939176 2.6445312499999982  4.085634253701481 2.5742187499999982  4.141656662665066 2.49609375  C 4.197679071628651 2.41796875  4.269707883153261 2.3281249999999982  4.357743097238895 2.226562499999999  C 4.44577831132453 2.1249999999999982  4.513805522208884 2.042968749999999  4.561824729891956 1.9804687499999993  C 4.625850340136055 1.8867187500000007  4.69187675070028 1.7675781249999998  4.759903961584634 1.6230468750000007  C 4.827931172468988 1.4785156249999976  4.8879551820728295 1.3417968750000007  4.939975990396158 1.212890625  C 4.991996798719488 1.0839843749999993  5.056022408963586 0.9433593749999993  5.132052821128451 0.791015625  C 5.208083233293318 0.6386718750000007  5.286114445778312 0.5136718749999991  5.366146458583433 0.41601562499999933  C 5.446178471388556 0.31835937499999756  5.552220888355342 0.22656249999999845  5.684273709483794 0.140625  C 5.816326530612246 0.05468749999999756  5.960384153661465 0.009765624999999778  6.116446578631453 0.005859375000000666  C 6.27250900360144 0.0019531249999975575  6.462585034013606 0.023437500000000666  6.686674669867947 0.0703125  L 6.67466986794718 0.10546875  C 6.978791516606643 0.03515625  7.182873149259704 0  7.286914765906363 0  L 16.422569027611043 0  C 17.01480592236895 0  17.470988395358145 0.21874999999999822  17.79111644657863 0.6562500000000007  C 18.11124449779912 1.0937499999999991  18.18327330932373 1.6015624999999976  18.007202881152462 2.1796875  L 14.717887154861945 12.796875  C 14.429771908763504 13.726562499999998  14.143657462985196 14.326171875  13.859543817527012 14.595703125  C 13.57543017206883 14.865234375  13.061224489795917 15  12.316926770708283 15  L 1.8847539015606243 15  C 1.668667466986795 15  1.516606642657063 15.05859375  1.4285714285714284 15.17578125  C 1.3405362144857944 15.30078125  1.3365346138455383 15.46875  1.4165666266506602 15.6796875  C 1.6086434573829531 16.2265625  2.184873949579832 16.5  3.1452581032412965 16.5  L 14.225690276110443 16.5  C 14.457783113245299 16.5  14.68187274909964 16.439453125  14.897959183673471 16.318359375  C 15.114045618247298 16.197265625  15.254101640656263 16.03515625  15.31812725090036 15.83203125  L 18.91956782713085 4.265624999999999  C 18.97559023609444 4.093749999999998  18.99559823929572 3.871093749999999  18.979591836734695 3.597656249999999  Z M 7.166866746698679 3.375  L 6.914765906362545 4.124999999999999  C 6.882753101240496 4.226562499999998  6.890756302521009 4.314453124999998  6.938775510204081 4.388671874999999  C 6.986794717887155 4.462890624999998  7.066826730692278 4.5  7.178871548619448 4.5  L 14.477791116446578 4.5  C 14.581832733093238 4.5  14.683873549419769 4.462890624999998  14.78391356542617 4.388671874999999  C 14.883953581432575 4.314453124999998  14.9499799919968 4.226562499999998  14.98199279711885 4.124999999999999  L 15.234093637454983 3.375  C 15.266106442577032 3.273437499999999  15.258103241296519 3.185546874999999  15.210084033613445 3.111328125  C 15.162064825930372 3.037109374999999  15.082032813125252 2.999999999999999  14.96998799519808 2.999999999999999  L 7.671068427370948 2.999999999999999  C 7.56702681072429 2.999999999999999  7.464985994397759 3.037109374999999  7.364945978391356 3.111328125  C 7.264905962384955 3.185546874999999  7.198879551820729 3.273437499999999  7.166866746698679 3.375  Z M 6.17046818727491 6.374999999999999  L 5.918367346938775 7.125000000000001  C 5.886354541816727 7.2265625  5.894357743097239 7.314453125  5.942376950780313 7.388671875000001  C 5.990396158463386 7.462890625  6.070428171268507 7.499999999999999  6.182472989195679 7.499999999999999  L 13.481392557022808 7.499999999999999  C 13.58543417366947 7.499999999999999  13.687474989996 7.462890625  13.7875150060024 7.388671875000001  C 13.887555022008806 7.314453125  13.95358143257303 7.2265625  13.985594237695079 7.125000000000001  L 14.237695078031212 6.374999999999999  C 14.269707883153263 6.273437499999998  14.261704681872748 6.185546874999998  14.213685474189678 6.111328124999999  C 14.165666266506602 6.037109375  14.085634253701482 6.000000000000001  13.97358943577431 6.000000000000001  L 6.67466986794718 6.000000000000001  C 6.570628251300521 6.000000000000001  6.4685874349739905 6.037109375  6.368547418967587 6.111328124999999  C 6.268507402961186 6.185546874999998  6.202480992396959 6.273437499999998  6.17046818727491 6.374999999999999  Z " fill-rule="evenodd" />
    </mask>
  </defs>
  <g transform="matrix(1 0 0 1 -557 -438 )">
    <path d="M 18.979591836734695 3.597656249999999  C 19.28371348539416 3.714843750000001  19.519807923169267 3.8828124999999982  19.687875150060023 4.101562500000001  C 20.00800320128051 4.546874999999999  20.080032012805123 5.050781250000001  19.903961584633855 5.613281250000001  L 16.60264105642257 16.23046875  C 16.45058023209284 16.73046875  16.144457783113246 17.150390625  15.684273709483794 17.490234375  C 15.224089635854343 17.830078125  14.73389355742297 18  14.213685474189678 18  L 3.1332533013205284 18  C 2.5170068027210886 18  1.9227691076430575 17.791015625  1.3505402160864346 17.373046875  C 0.7783113245298121 16.955078125  0.3801520608243298 16.44140625  0.15606242496998798 15.83203125  C -0.03601440576230492 15.308593749999998  -0.04401760704281713 14.8125  0.13205282112845138 14.34375  C 0.13205282112845138 14.3125  0.14405762304921968 14.20703125  0.1680672268907563 14.02734375  C 0.1920768307322929 13.847656249999998  0.20808323329331735 13.703125  0.21608643457382953 13.59375  C 0.22408963585434175 13.53125  0.21208483393357344 13.447265625  0.1800720288115246 13.341796875  C 0.1480592236894758 13.236328125  0.1360544217687075 13.160156250000002  0.14405762304921968 13.11328125  C 0.1600640256102441 13.02734375  0.1920768307322929 12.945312499999998  0.24009603841536614 12.8671875  C 0.28811524609843936 12.789062499999998  0.35414165666266506 12.697265624999998  0.43817527010804325 12.591796874999998  C 0.5222088835534213 12.486328124999998  0.5882352941176471 12.39453125  0.6362545018007203 12.316406250000002  C 0.8203281312525011 12.019531249999996  1.0004001600640258 11.662109374999998  1.1764705882352942 11.244140625000002  C 1.3525410164065628 10.826171875  1.4725890356142457 10.468749999999998  1.5366146458583432 10.171875000000002  C 1.56062424969988 10.09375  1.562625050020008 9.976562499999998  1.5426170468187275 9.820312500000002  C 1.522609043617447 9.6640625  1.520608243297319 9.554687499999998  1.5366146458583432 9.4921875  C 1.56062424969988 9.40625  1.628651460584234 9.296875  1.7406962785114046 9.164062499999998  C 1.8527410964385753 9.03125  1.9207683073229291 8.94140625  1.9447779111644659 8.89453125  C 2.112845138055222 8.61328125  2.280912364945978 8.25390625  2.4489795918367347 7.816406249999999  C 2.617046818727491 7.378906249999999  2.7170868347338937 7.027343749999999  2.7490996398559426 6.761718749999999  C 2.7571028411364544 6.691406249999999  2.7470988395358145 6.56640625  2.719087635054022 6.386718750000001  C 2.6910764305722292 6.20703125  2.6930772308923574 6.097656249999998  2.725090036014406 6.058593749999999  C 2.7571028411364544 5.957031249999998  2.845138055222089 5.837890624999997  2.9891956782713085 5.701171875000001  C 3.1332533013205284 5.564453125  3.2212885154061626 5.4765625  3.2533013205282115 5.437500000000001  C 3.4053621448579436 5.234374999999999  3.575430172068828 4.904296875  3.7635054021608645 4.447265625  C 3.9515806322529015 3.990234375  4.061624649859945 3.61328125  4.093637454981993 3.316406249999999  C 4.101640656262505 3.2539062499999973  4.089635854341737 3.1542968749999982  4.057623049219688 3.017578124999999  C 4.025610244097639 2.8808593749999982  4.0176070428171275 2.77734375  4.033613445378151 2.70703125  C 4.049619847939176 2.6445312499999982  4.085634253701481 2.5742187499999982  4.141656662665066 2.49609375  C 4.197679071628651 2.41796875  4.269707883153261 2.3281249999999982  4.357743097238895 2.226562499999999  C 4.44577831132453 2.1249999999999982  4.513805522208884 2.042968749999999  4.561824729891956 1.9804687499999993  C 4.625850340136055 1.8867187500000007  4.69187675070028 1.7675781249999998  4.759903961584634 1.6230468750000007  C 4.827931172468988 1.4785156249999976  4.8879551820728295 1.3417968750000007  4.939975990396158 1.212890625  C 4.991996798719488 1.0839843749999993  5.056022408963586 0.9433593749999993  5.132052821128451 0.791015625  C 5.208083233293318 0.6386718750000007  5.286114445778312 0.5136718749999991  5.366146458583433 0.41601562499999933  C 5.446178471388556 0.31835937499999756  5.552220888355342 0.22656249999999845  5.684273709483794 0.140625  C 5.816326530612246 0.05468749999999756  5.960384153661465 0.009765624999999778  6.116446578631453 0.005859375000000666  C 6.27250900360144 0.0019531249999975575  6.462585034013606 0.023437500000000666  6.686674669867947 0.0703125  L 6.67466986794718 0.10546875  C 6.978791516606643 0.03515625  7.182873149259704 0  7.286914765906363 0  L 16.422569027611043 0  C 17.01480592236895 0  17.470988395358145 0.21874999999999822  17.79111644657863 0.6562500000000007  C 18.11124449779912 1.0937499999999991  18.18327330932373 1.6015624999999976  18.007202881152462 2.1796875  L 14.717887154861945 12.796875  C 14.429771908763504 13.726562499999998  14.143657462985196 14.326171875  13.859543817527012 14.595703125  C 13.57543017206883 14.865234375  13.061224489795917 15  12.316926770708283 15  L 1.8847539015606243 15  C 1.668667466986795 15  1.516606642657063 15.05859375  1.4285714285714284 15.17578125  C 1.3405362144857944 15.30078125  1.3365346138455383 15.46875  1.4165666266506602 15.6796875  C 1.6086434573829531 16.2265625  2.184873949579832 16.5  3.1452581032412965 16.5  L 14.225690276110443 16.5  C 14.457783113245299 16.5  14.68187274909964 16.439453125  14.897959183673471 16.318359375  C 15.114045618247298 16.197265625  15.254101640656263 16.03515625  15.31812725090036 15.83203125  L 18.91956782713085 4.265624999999999  C 18.97559023609444 4.093749999999998  18.99559823929572 3.871093749999999  18.979591836734695 3.597656249999999  Z M 7.166866746698679 3.375  L 6.914765906362545 4.124999999999999  C 6.882753101240496 4.226562499999998  6.890756302521009 4.314453124999998  6.938775510204081 4.388671874999999  C 6.986794717887155 4.462890624999998  7.066826730692278 4.5  7.178871548619448 4.5  L 14.477791116446578 4.5  C 14.581832733093238 4.5  14.683873549419769 4.462890624999998  14.78391356542617 4.388671874999999  C 14.883953581432575 4.314453124999998  14.9499799919968 4.226562499999998  14.98199279711885 4.124999999999999  L 15.234093637454983 3.375  C 15.266106442577032 3.273437499999999  15.258103241296519 3.185546874999999  15.210084033613445 3.111328125  C 15.162064825930372 3.037109374999999  15.082032813125252 2.999999999999999  14.96998799519808 2.999999999999999  L 7.671068427370948 2.999999999999999  C 7.56702681072429 2.999999999999999  7.464985994397759 3.037109374999999  7.364945978391356 3.111328125  C 7.264905962384955 3.185546874999999  7.198879551820729 3.273437499999999  7.166866746698679 3.375  Z M 6.17046818727491 6.374999999999999  L 5.918367346938775 7.125000000000001  C 5.886354541816727 7.2265625  5.894357743097239 7.314453125  5.942376950780313 7.388671875000001  C 5.990396158463386 7.462890625  6.070428171268507 7.499999999999999  6.182472989195679 7.499999999999999  L 13.481392557022808 7.499999999999999  C 13.58543417366947 7.499999999999999  13.687474989996 7.462890625  13.7875150060024 7.388671875000001  C 13.887555022008806 7.314453125  13.95358143257303 7.2265625  13.985594237695079 7.125000000000001  L 14.237695078031212 6.374999999999999  C 14.269707883153263 6.273437499999998  14.261704681872748 6.185546874999998  14.213685474189678 6.111328124999999  C 14.165666266506602 6.037109375  14.085634253701482 6.000000000000001  13.97358943577431 6.000000000000001  L 6.67466986794718 6.000000000000001  C 6.570628251300521 6.000000000000001  6.4685874349739905 6.037109375  6.368547418967587 6.111328124999999  C 6.268507402961186 6.185546874999998  6.202480992396959 6.273437499999998  6.17046818727491 6.374999999999999  Z " fill-rule="nonzero" fill="rgba(0, 0, 0, 1)" stroke="none" transform="matrix(1 0 0 1 557 438 )" class="fill" />
    <path d="M 18.979591836734695 3.597656249999999  C 19.28371348539416 3.714843750000001  19.519807923169267 3.8828124999999982  19.687875150060023 4.101562500000001  C 20.00800320128051 4.546874999999999  20.080032012805123 5.050781250000001  19.903961584633855 5.613281250000001  L 16.60264105642257 16.23046875  C 16.45058023209284 16.73046875  16.144457783113246 17.150390625  15.684273709483794 17.490234375  C 15.224089635854343 17.830078125  14.73389355742297 18  14.213685474189678 18  L 3.1332533013205284 18  C 2.5170068027210886 18  1.9227691076430575 17.791015625  1.3505402160864346 17.373046875  C 0.7783113245298121 16.955078125  0.3801520608243298 16.44140625  0.15606242496998798 15.83203125  C -0.03601440576230492 15.308593749999998  -0.04401760704281713 14.8125  0.13205282112845138 14.34375  C 0.13205282112845138 14.3125  0.14405762304921968 14.20703125  0.1680672268907563 14.02734375  C 0.1920768307322929 13.847656249999998  0.20808323329331735 13.703125  0.21608643457382953 13.59375  C 0.22408963585434175 13.53125  0.21208483393357344 13.447265625  0.1800720288115246 13.341796875  C 0.1480592236894758 13.236328125  0.1360544217687075 13.160156250000002  0.14405762304921968 13.11328125  C 0.1600640256102441 13.02734375  0.1920768307322929 12.945312499999998  0.24009603841536614 12.8671875  C 0.28811524609843936 12.789062499999998  0.35414165666266506 12.697265624999998  0.43817527010804325 12.591796874999998  C 0.5222088835534213 12.486328124999998  0.5882352941176471 12.39453125  0.6362545018007203 12.316406250000002  C 0.8203281312525011 12.019531249999996  1.0004001600640258 11.662109374999998  1.1764705882352942 11.244140625000002  C 1.3525410164065628 10.826171875  1.4725890356142457 10.468749999999998  1.5366146458583432 10.171875000000002  C 1.56062424969988 10.09375  1.562625050020008 9.976562499999998  1.5426170468187275 9.820312500000002  C 1.522609043617447 9.6640625  1.520608243297319 9.554687499999998  1.5366146458583432 9.4921875  C 1.56062424969988 9.40625  1.628651460584234 9.296875  1.7406962785114046 9.164062499999998  C 1.8527410964385753 9.03125  1.9207683073229291 8.94140625  1.9447779111644659 8.89453125  C 2.112845138055222 8.61328125  2.280912364945978 8.25390625  2.4489795918367347 7.816406249999999  C 2.617046818727491 7.378906249999999  2.7170868347338937 7.027343749999999  2.7490996398559426 6.761718749999999  C 2.7571028411364544 6.691406249999999  2.7470988395358145 6.56640625  2.719087635054022 6.386718750000001  C 2.6910764305722292 6.20703125  2.6930772308923574 6.097656249999998  2.725090036014406 6.058593749999999  C 2.7571028411364544 5.957031249999998  2.845138055222089 5.837890624999997  2.9891956782713085 5.701171875000001  C 3.1332533013205284 5.564453125  3.2212885154061626 5.4765625  3.2533013205282115 5.437500000000001  C 3.4053621448579436 5.234374999999999  3.575430172068828 4.904296875  3.7635054021608645 4.447265625  C 3.9515806322529015 3.990234375  4.061624649859945 3.61328125  4.093637454981993 3.316406249999999  C 4.101640656262505 3.2539062499999973  4.089635854341737 3.1542968749999982  4.057623049219688 3.017578124999999  C 4.025610244097639 2.8808593749999982  4.0176070428171275 2.77734375  4.033613445378151 2.70703125  C 4.049619847939176 2.6445312499999982  4.085634253701481 2.5742187499999982  4.141656662665066 2.49609375  C 4.197679071628651 2.41796875  4.269707883153261 2.3281249999999982  4.357743097238895 2.226562499999999  C 4.44577831132453 2.1249999999999982  4.513805522208884 2.042968749999999  4.561824729891956 1.9804687499999993  C 4.625850340136055 1.8867187500000007  4.69187675070028 1.7675781249999998  4.759903961584634 1.6230468750000007  C 4.827931172468988 1.4785156249999976  4.8879551820728295 1.3417968750000007  4.939975990396158 1.212890625  C 4.991996798719488 1.0839843749999993  5.056022408963586 0.9433593749999993  5.132052821128451 0.791015625  C 5.208083233293318 0.6386718750000007  5.286114445778312 0.5136718749999991  5.366146458583433 0.41601562499999933  C 5.446178471388556 0.31835937499999756  5.552220888355342 0.22656249999999845  5.684273709483794 0.140625  C 5.816326530612246 0.05468749999999756  5.960384153661465 0.009765624999999778  6.116446578631453 0.005859375000000666  C 6.27250900360144 0.0019531249999975575  6.462585034013606 0.023437500000000666  6.686674669867947 0.0703125  L 6.67466986794718 0.10546875  C 6.978791516606643 0.03515625  7.182873149259704 0  7.286914765906363 0  L 16.422569027611043 0  C 17.01480592236895 0  17.470988395358145 0.21874999999999822  17.79111644657863 0.6562500000000007  C 18.11124449779912 1.0937499999999991  18.18327330932373 1.6015624999999976  18.007202881152462 2.1796875  L 14.717887154861945 12.796875  C 14.429771908763504 13.726562499999998  14.143657462985196 14.326171875  13.859543817527012 14.595703125  C 13.57543017206883 14.865234375  13.061224489795917 15  12.316926770708283 15  L 1.8847539015606243 15  C 1.668667466986795 15  1.516606642657063 15.05859375  1.4285714285714284 15.17578125  C 1.3405362144857944 15.30078125  1.3365346138455383 15.46875  1.4165666266506602 15.6796875  C 1.6086434573829531 16.2265625  2.184873949579832 16.5  3.1452581032412965 16.5  L 14.225690276110443 16.5  C 14.457783113245299 16.5  14.68187274909964 16.439453125  14.897959183673471 16.318359375  C 15.114045618247298 16.197265625  15.254101640656263 16.03515625  15.31812725090036 15.83203125  L 18.91956782713085 4.265624999999999  C 18.97559023609444 4.093749999999998  18.99559823929572 3.871093749999999  18.979591836734695 3.597656249999999  Z " stroke-width="0" stroke-dasharray="0" stroke="rgba(255, 255, 255, 0)" fill="none" transform="matrix(1 0 0 1 557 438 )" class="stroke" mask="url(#Clip5)" />
    <path d="M 7.166866746698679 3.375  L 6.914765906362545 4.124999999999999  C 6.882753101240496 4.226562499999998  6.890756302521009 4.314453124999998  6.938775510204081 4.388671874999999  C 6.986794717887155 4.462890624999998  7.066826730692278 4.5  7.178871548619448 4.5  L 14.477791116446578 4.5  C 14.581832733093238 4.5  14.683873549419769 4.462890624999998  14.78391356542617 4.388671874999999  C 14.883953581432575 4.314453124999998  14.9499799919968 4.226562499999998  14.98199279711885 4.124999999999999  L 15.234093637454983 3.375  C 15.266106442577032 3.273437499999999  15.258103241296519 3.185546874999999  15.210084033613445 3.111328125  C 15.162064825930372 3.037109374999999  15.082032813125252 2.999999999999999  14.96998799519808 2.999999999999999  L 7.671068427370948 2.999999999999999  C 7.56702681072429 2.999999999999999  7.464985994397759 3.037109374999999  7.364945978391356 3.111328125  C 7.264905962384955 3.185546874999999  7.198879551820729 3.273437499999999  7.166866746698679 3.375  Z " stroke-width="0" stroke-dasharray="0" stroke="rgba(255, 255, 255, 0)" fill="none" transform="matrix(1 0 0 1 557 438 )" class="stroke" mask="url(#Clip5)" />
    <path d="M 6.17046818727491 6.374999999999999  L 5.918367346938775 7.125000000000001  C 5.886354541816727 7.2265625  5.894357743097239 7.314453125  5.942376950780313 7.388671875000001  C 5.990396158463386 7.462890625  6.070428171268507 7.499999999999999  6.182472989195679 7.499999999999999  L 13.481392557022808 7.499999999999999  C 13.58543417366947 7.499999999999999  13.687474989996 7.462890625  13.7875150060024 7.388671875000001  C 13.887555022008806 7.314453125  13.95358143257303 7.2265625  13.985594237695079 7.125000000000001  L 14.237695078031212 6.374999999999999  C 14.269707883153263 6.273437499999998  14.261704681872748 6.185546874999998  14.213685474189678 6.111328124999999  C 14.165666266506602 6.037109375  14.085634253701482 6.000000000000001  13.97358943577431 6.000000000000001  L 6.67466986794718 6.000000000000001  C 6.570628251300521 6.000000000000001  6.4685874349739905 6.037109375  6.368547418967587 6.111328124999999  C 6.268507402961186 6.185546874999998  6.202480992396959 6.273437499999998  6.17046818727491 6.374999999999999  Z " stroke-width="0" stroke-dasharray="0" stroke="rgba(255, 255, 255, 0)" fill="none" transform="matrix(1 0 0 1 557 438 )" class="stroke" mask="url(#Clip5)" />
  </g>
</svg>