<?xml version="1.0" encoding="utf-8"?>
<svg version="1.1" xmlns:xlink="http://www.w3.org/1999/xlink" width="14px" height="18px" xmlns="http://www.w3.org/2000/svg">
  <defs>
    <pattern id="BGPattern" patternUnits="userSpaceOnUse" alignment="0 0" imageRepeat="None" />
    <mask fill="white" id="Clip6">
      <path d="M 5.001420454545454 6.85546875  C 5.061079545454546 6.92578125  5.090909090909091 7.015625  5.090909090909091 7.125000000000001  L 5.090909090909091 13.875  C 5.090909090909091 13.984375  5.061079545454546 14.07421875  5.001420454545454 14.14453125  C 4.941761363636363 14.21484375  4.865530303030304 14.25  4.7727272727272725 14.25  L 4.136363636363637 14.25  C 4.043560606060606 14.25  3.9673295454545463 14.21484375  3.9076704545454546 14.14453125  C 3.8480113636363633 14.07421875  3.818181818181818 13.984375  3.818181818181818 13.875  L 3.818181818181818 7.125000000000001  C 3.818181818181818 7.015625  3.8480113636363633 6.92578125  3.9076704545454546 6.85546875  C 3.9673295454545463 6.78515625  4.043560606060606 6.75  4.136363636363637 6.75  L 4.7727272727272725 6.75  C 4.865530303030304 6.75  4.941761363636363 6.78515625  5.001420454545454 6.85546875  Z M 7.546875 6.85546875  C 7.606534090909091 6.92578125  7.636363636363636 7.015625  7.636363636363636 7.125000000000001  L 7.636363636363636 13.875  C 7.636363636363636 13.984375  7.606534090909091 14.07421875  7.546875 14.14453125  C 7.487215909090909 14.21484375  7.4109848484848495 14.25  7.318181818181818 14.25  L 6.681818181818182 14.25  C 6.589015151515152 14.25  6.512784090909091 14.21484375  6.453125 14.14453125  C 6.393465909090909 14.07421875  6.363636363636363 13.984375  6.363636363636363 13.875  L 6.363636363636363 7.125000000000001  C 6.363636363636363 7.015625  6.393465909090909 6.92578125  6.453125 6.85546875  C 6.512784090909091 6.78515625  6.589015151515152 6.75  6.681818181818182 6.75  L 7.318181818181818 6.75  C 7.4109848484848495 6.75  7.487215909090909 6.78515625  7.546875 6.85546875  Z M 10.092329545454545 6.85546875  C 10.151988636363637 6.92578125  10.181818181818182 7.015625  10.181818181818182 7.125000000000001  L 10.181818181818182 13.875  C 10.181818181818182 13.984375  10.151988636363637 14.07421875  10.092329545454545 14.14453125  C 10.032670454545455 14.21484375  9.956439393939394 14.25  9.863636363636363 14.25  L 9.227272727272727 14.25  C 9.134469696969697 14.25  9.058238636363637 14.21484375  8.998579545454545 14.14453125  C 8.938920454545455 14.07421875  8.909090909090908 13.984375  8.909090909090908 13.875  L 8.909090909090908 7.125000000000001  C 8.909090909090908 7.015625  8.938920454545455 6.92578125  8.998579545454545 6.85546875  C 9.058238636363637 6.78515625  9.134469696969697 6.75  9.227272727272727 6.75  L 9.863636363636363 6.75  C 9.956439393939394 6.75  10.032670454545455 6.78515625  10.092329545454545 6.85546875  Z M 11.384943181818182 16.083984375  C 11.431344696969697 15.939453125  11.454545454545455 15.78125  11.454545454545455 15.609375  L 11.454545454545455 4.5  L 2.5454545454545454 4.5  L 2.5454545454545454 15.609375  C 2.5454545454545454 15.78125  2.568655303030303 15.939453125  2.6150568181818183 16.083984375  C 2.6614583333333335 16.228515625  2.7095170454545454 16.333984375  2.7592329545454546 16.400390625  C 2.8089488636363638 16.466796875  2.84375 16.5  2.8636363636363638 16.5  L 11.136363636363637 16.5  C 11.15625 16.5  11.191051136363637 16.466796875  11.240767045454545 16.400390625  C 11.290482954545455 16.333984375  11.338541666666668 16.228515625  11.384943181818182 16.083984375  Z M 5.259943181818182 1.6289062499999993  L 4.7727272727272725 2.999999999999999  L 9.227272727272727 2.999999999999999  L 8.75 1.6289062499999993  C 8.703598484848486 1.5585937499999993  8.647253787878789 1.5156249999999991  8.580965909090908 1.5000000000000007  L 5.4289772727272725 1.5000000000000007  C 5.3626893939393945 1.5156249999999991  5.306344696969698 1.5585937499999993  5.259943181818182 1.6289062499999993  Z M 13.910511363636363 3.105468749999999  C 13.970170454545455 3.175781249999999  14 3.265624999999999  14 3.375  L 14 4.124999999999999  C 14 4.234374999999998  13.970170454545455 4.32421875  13.910511363636363 4.39453125  C 13.850852272727273 4.46484375  13.774621212121213 4.5  13.681818181818182 4.5  L 12.727272727272727 4.5  L 12.727272727272727 15.609375  C 12.727272727272727 16.2578125  12.571496212121213 16.818359375  12.259943181818182 17.291015625  C 11.948390151515152 17.763671875  11.573863636363637 18  11.136363636363637 18  L 2.8636363636363638 18  C 2.4261363636363638 18  2.051609848484849 17.771484375  1.7400568181818181 17.314453125  C 1.428503787878788 16.857421875  1.2727272727272727 16.3046875  1.2727272727272727 15.65625  L 1.2727272727272727 4.5  L 0.3181818181818182 4.5  C 0.22537878787878787 4.5  0.1491477272727273 4.46484375  0.08948863636363637 4.39453125  C 0.029829545454545452 4.32421875  0 4.234374999999998  0 4.124999999999999  L 0 3.375  C 0 3.265624999999999  0.029829545454545452 3.175781249999999  0.08948863636363637 3.105468749999999  C 0.1491477272727273 3.035156249999999  0.22537878787878787 2.999999999999999  0.3181818181818182 2.999999999999999  L 3.390625 2.999999999999999  L 4.0866477272727275 1.0429687500000007  C 4.186079545454547 0.7539062499999984  4.365056818181818 0.5078124999999984  4.623579545454546 0.30468750000000067  C 4.882102272727273 0.10156249999999889  5.1439393939393945 0  5.409090909090909 0  L 8.590909090909092 0  C 8.856060606060607 0  9.117897727272727 0.10156249999999889  9.376420454545455 0.30468750000000067  C 9.634943181818182 0.5078124999999984  9.813920454545455 0.7539062499999984  9.913352272727273 1.0429687500000007  L 10.609375 2.999999999999999  L 13.681818181818182 2.999999999999999  C 13.774621212121213 2.999999999999999  13.850852272727273 3.035156249999999  13.910511363636363 3.105468749999999  Z " fill-rule="evenodd" />
    </mask>
  </defs>
  <g transform="matrix(1 0 0 1 -982 -473 )">
    <path d="M 5.001420454545454 6.85546875  C 5.061079545454546 6.92578125  5.090909090909091 7.015625  5.090909090909091 7.125000000000001  L 5.090909090909091 13.875  C 5.090909090909091 13.984375  5.061079545454546 14.07421875  5.001420454545454 14.14453125  C 4.941761363636363 14.21484375  4.865530303030304 14.25  4.7727272727272725 14.25  L 4.136363636363637 14.25  C 4.043560606060606 14.25  3.9673295454545463 14.21484375  3.9076704545454546 14.14453125  C 3.8480113636363633 14.07421875  3.818181818181818 13.984375  3.818181818181818 13.875  L 3.818181818181818 7.125000000000001  C 3.818181818181818 7.015625  3.8480113636363633 6.92578125  3.9076704545454546 6.85546875  C 3.9673295454545463 6.78515625  4.043560606060606 6.75  4.136363636363637 6.75  L 4.7727272727272725 6.75  C 4.865530303030304 6.75  4.941761363636363 6.78515625  5.001420454545454 6.85546875  Z M 7.546875 6.85546875  C 7.606534090909091 6.92578125  7.636363636363636 7.015625  7.636363636363636 7.125000000000001  L 7.636363636363636 13.875  C 7.636363636363636 13.984375  7.606534090909091 14.07421875  7.546875 14.14453125  C 7.487215909090909 14.21484375  7.4109848484848495 14.25  7.318181818181818 14.25  L 6.681818181818182 14.25  C 6.589015151515152 14.25  6.512784090909091 14.21484375  6.453125 14.14453125  C 6.393465909090909 14.07421875  6.363636363636363 13.984375  6.363636363636363 13.875  L 6.363636363636363 7.125000000000001  C 6.363636363636363 7.015625  6.393465909090909 6.92578125  6.453125 6.85546875  C 6.512784090909091 6.78515625  6.589015151515152 6.75  6.681818181818182 6.75  L 7.318181818181818 6.75  C 7.4109848484848495 6.75  7.487215909090909 6.78515625  7.546875 6.85546875  Z M 10.092329545454545 6.85546875  C 10.151988636363637 6.92578125  10.181818181818182 7.015625  10.181818181818182 7.125000000000001  L 10.181818181818182 13.875  C 10.181818181818182 13.984375  10.151988636363637 14.07421875  10.092329545454545 14.14453125  C 10.032670454545455 14.21484375  9.956439393939394 14.25  9.863636363636363 14.25  L 9.227272727272727 14.25  C 9.134469696969697 14.25  9.058238636363637 14.21484375  8.998579545454545 14.14453125  C 8.938920454545455 14.07421875  8.909090909090908 13.984375  8.909090909090908 13.875  L 8.909090909090908 7.125000000000001  C 8.909090909090908 7.015625  8.938920454545455 6.92578125  8.998579545454545 6.85546875  C 9.058238636363637 6.78515625  9.134469696969697 6.75  9.227272727272727 6.75  L 9.863636363636363 6.75  C 9.956439393939394 6.75  10.032670454545455 6.78515625  10.092329545454545 6.85546875  Z M 11.384943181818182 16.083984375  C 11.431344696969697 15.939453125  11.454545454545455 15.78125  11.454545454545455 15.609375  L 11.454545454545455 4.5  L 2.5454545454545454 4.5  L 2.5454545454545454 15.609375  C 2.5454545454545454 15.78125  2.568655303030303 15.939453125  2.6150568181818183 16.083984375  C 2.6614583333333335 16.228515625  2.7095170454545454 16.333984375  2.7592329545454546 16.400390625  C 2.8089488636363638 16.466796875  2.84375 16.5  2.8636363636363638 16.5  L 11.136363636363637 16.5  C 11.15625 16.5  11.191051136363637 16.466796875  11.240767045454545 16.400390625  C 11.290482954545455 16.333984375  11.338541666666668 16.228515625  11.384943181818182 16.083984375  Z M 5.259943181818182 1.6289062499999993  L 4.7727272727272725 2.999999999999999  L 9.227272727272727 2.999999999999999  L 8.75 1.6289062499999993  C 8.703598484848486 1.5585937499999993  8.647253787878789 1.5156249999999991  8.580965909090908 1.5000000000000007  L 5.4289772727272725 1.5000000000000007  C 5.3626893939393945 1.5156249999999991  5.306344696969698 1.5585937499999993  5.259943181818182 1.6289062499999993  Z M 13.910511363636363 3.105468749999999  C 13.970170454545455 3.175781249999999  14 3.265624999999999  14 3.375  L 14 4.124999999999999  C 14 4.234374999999998  13.970170454545455 4.32421875  13.910511363636363 4.39453125  C 13.850852272727273 4.46484375  13.774621212121213 4.5  13.681818181818182 4.5  L 12.727272727272727 4.5  L 12.727272727272727 15.609375  C 12.727272727272727 16.2578125  12.571496212121213 16.818359375  12.259943181818182 17.291015625  C 11.948390151515152 17.763671875  11.573863636363637 18  11.136363636363637 18  L 2.8636363636363638 18  C 2.4261363636363638 18  2.051609848484849 17.771484375  1.7400568181818181 17.314453125  C 1.428503787878788 16.857421875  1.2727272727272727 16.3046875  1.2727272727272727 15.65625  L 1.2727272727272727 4.5  L 0.3181818181818182 4.5  C 0.22537878787878787 4.5  0.1491477272727273 4.46484375  0.08948863636363637 4.39453125  C 0.029829545454545452 4.32421875  0 4.234374999999998  0 4.124999999999999  L 0 3.375  C 0 3.265624999999999  0.029829545454545452 3.175781249999999  0.08948863636363637 3.105468749999999  C 0.1491477272727273 3.035156249999999  0.22537878787878787 2.999999999999999  0.3181818181818182 2.999999999999999  L 3.390625 2.999999999999999  L 4.0866477272727275 1.0429687500000007  C 4.186079545454547 0.7539062499999984  4.365056818181818 0.5078124999999984  4.623579545454546 0.30468750000000067  C 4.882102272727273 0.10156249999999889  5.1439393939393945 0  5.409090909090909 0  L 8.590909090909092 0  C 8.856060606060607 0  9.117897727272727 0.10156249999999889  9.376420454545455 0.30468750000000067  C 9.634943181818182 0.5078124999999984  9.813920454545455 0.7539062499999984  9.913352272727273 1.0429687500000007  L 10.609375 2.999999999999999  L 13.681818181818182 2.999999999999999  C 13.774621212121213 2.999999999999999  13.850852272727273 3.035156249999999  13.910511363636363 3.105468749999999  Z " fill-rule="nonzero" fill="rgba(0, 0, 0, 1)" stroke="none" transform="matrix(1 0 0 1 982 473 )" class="fill" />
    <path d="M 5.001420454545454 6.85546875  C 5.061079545454546 6.92578125  5.090909090909091 7.015625  5.090909090909091 7.125000000000001  L 5.090909090909091 13.875  C 5.090909090909091 13.984375  5.061079545454546 14.07421875  5.001420454545454 14.14453125  C 4.941761363636363 14.21484375  4.865530303030304 14.25  4.7727272727272725 14.25  L 4.136363636363637 14.25  C 4.043560606060606 14.25  3.9673295454545463 14.21484375  3.9076704545454546 14.14453125  C 3.8480113636363633 14.07421875  3.818181818181818 13.984375  3.818181818181818 13.875  L 3.818181818181818 7.125000000000001  C 3.818181818181818 7.015625  3.8480113636363633 6.92578125  3.9076704545454546 6.85546875  C 3.9673295454545463 6.78515625  4.043560606060606 6.75  4.136363636363637 6.75  L 4.7727272727272725 6.75  C 4.865530303030304 6.75  4.941761363636363 6.78515625  5.001420454545454 6.85546875  Z " stroke-width="0" stroke-dasharray="0" stroke="rgba(255, 255, 255, 0)" fill="none" transform="matrix(1 0 0 1 982 473 )" class="stroke" mask="url(#Clip6)" />
    <path d="M 7.546875 6.85546875  C 7.606534090909091 6.92578125  7.636363636363636 7.015625  7.636363636363636 7.125000000000001  L 7.636363636363636 13.875  C 7.636363636363636 13.984375  7.606534090909091 14.07421875  7.546875 14.14453125  C 7.487215909090909 14.21484375  7.4109848484848495 14.25  7.318181818181818 14.25  L 6.681818181818182 14.25  C 6.589015151515152 14.25  6.512784090909091 14.21484375  6.453125 14.14453125  C 6.393465909090909 14.07421875  6.363636363636363 13.984375  6.363636363636363 13.875  L 6.363636363636363 7.125000000000001  C 6.363636363636363 7.015625  6.393465909090909 6.92578125  6.453125 6.85546875  C 6.512784090909091 6.78515625  6.589015151515152 6.75  6.681818181818182 6.75  L 7.318181818181818 6.75  C 7.4109848484848495 6.75  7.487215909090909 6.78515625  7.546875 6.85546875  Z " stroke-width="0" stroke-dasharray="0" stroke="rgba(255, 255, 255, 0)" fill="none" transform="matrix(1 0 0 1 982 473 )" class="stroke" mask="url(#Clip6)" />
    <path d="M 10.092329545454545 6.85546875  C 10.151988636363637 6.92578125  10.181818181818182 7.015625  10.181818181818182 7.125000000000001  L 10.181818181818182 13.875  C 10.181818181818182 13.984375  10.151988636363637 14.07421875  10.092329545454545 14.14453125  C 10.032670454545455 14.21484375  9.956439393939394 14.25  9.863636363636363 14.25  L 9.227272727272727 14.25  C 9.134469696969697 14.25  9.058238636363637 14.21484375  8.998579545454545 14.14453125  C 8.938920454545455 14.07421875  8.909090909090908 13.984375  8.909090909090908 13.875  L 8.909090909090908 7.125000000000001  C 8.909090909090908 7.015625  8.938920454545455 6.92578125  8.998579545454545 6.85546875  C 9.058238636363637 6.78515625  9.134469696969697 6.75  9.227272727272727 6.75  L 9.863636363636363 6.75  C 9.956439393939394 6.75  10.032670454545455 6.78515625  10.092329545454545 6.85546875  Z " stroke-width="0" stroke-dasharray="0" stroke="rgba(255, 255, 255, 0)" fill="none" transform="matrix(1 0 0 1 982 473 )" class="stroke" mask="url(#Clip6)" />
    <path d="M 11.384943181818182 16.083984375  C 11.431344696969697 15.939453125  11.454545454545455 15.78125  11.454545454545455 15.609375  L 11.454545454545455 4.5  L 2.5454545454545454 4.5  L 2.5454545454545454 15.609375  C 2.5454545454545454 15.78125  2.568655303030303 15.939453125  2.6150568181818183 16.083984375  C 2.6614583333333335 16.228515625  2.7095170454545454 16.333984375  2.7592329545454546 16.400390625  C 2.8089488636363638 16.466796875  2.84375 16.5  2.8636363636363638 16.5  L 11.136363636363637 16.5  C 11.15625 16.5  11.191051136363637 16.466796875  11.240767045454545 16.400390625  C 11.290482954545455 16.333984375  11.338541666666668 16.228515625  11.384943181818182 16.083984375  Z " stroke-width="0" stroke-dasharray="0" stroke="rgba(255, 255, 255, 0)" fill="none" transform="matrix(1 0 0 1 982 473 )" class="stroke" mask="url(#Clip6)" />
    <path d="M 5.259943181818182 1.6289062499999993  L 4.7727272727272725 2.999999999999999  L 9.227272727272727 2.999999999999999  L 8.75 1.6289062499999993  C 8.703598484848486 1.5585937499999993  8.647253787878789 1.5156249999999991  8.580965909090908 1.5000000000000007  L 5.4289772727272725 1.5000000000000007  C 5.3626893939393945 1.5156249999999991  5.306344696969698 1.5585937499999993  5.259943181818182 1.6289062499999993  Z " stroke-width="0" stroke-dasharray="0" stroke="rgba(255, 255, 255, 0)" fill="none" transform="matrix(1 0 0 1 982 473 )" class="stroke" mask="url(#Clip6)" />
    <path d="M 13.910511363636363 3.105468749999999  C 13.970170454545455 3.175781249999999  14 3.265624999999999  14 3.375  L 14 4.124999999999999  C 14 4.234374999999998  13.970170454545455 4.32421875  13.910511363636363 4.39453125  C 13.850852272727273 4.46484375  13.774621212121213 4.5  13.681818181818182 4.5  L 12.727272727272727 4.5  L 12.727272727272727 15.609375  C 12.727272727272727 16.2578125  12.571496212121213 16.818359375  12.259943181818182 17.291015625  C 11.948390151515152 17.763671875  11.573863636363637 18  11.136363636363637 18  L 2.8636363636363638 18  C 2.4261363636363638 18  2.051609848484849 17.771484375  1.7400568181818181 17.314453125  C 1.428503787878788 16.857421875  1.2727272727272727 16.3046875  1.2727272727272727 15.65625  L 1.2727272727272727 4.5  L 0.3181818181818182 4.5  C 0.22537878787878787 4.5  0.1491477272727273 4.46484375  0.08948863636363637 4.39453125  C 0.029829545454545452 4.32421875  0 4.234374999999998  0 4.124999999999999  L 0 3.375  C 0 3.265624999999999  0.029829545454545452 3.175781249999999  0.08948863636363637 3.105468749999999  C 0.1491477272727273 3.035156249999999  0.22537878787878787 2.999999999999999  0.3181818181818182 2.999999999999999  L 3.390625 2.999999999999999  L 4.0866477272727275 1.0429687500000007  C 4.186079545454547 0.7539062499999984  4.365056818181818 0.5078124999999984  4.623579545454546 0.30468750000000067  C 4.882102272727273 0.10156249999999889  5.1439393939393945 0  5.409090909090909 0  L 8.590909090909092 0  C 8.856060606060607 0  9.117897727272727 0.10156249999999889  9.376420454545455 0.30468750000000067  C 9.634943181818182 0.5078124999999984  9.813920454545455 0.7539062499999984  9.913352272727273 1.0429687500000007  L 10.609375 2.999999999999999  L 13.681818181818182 2.999999999999999  C 13.774621212121213 2.999999999999999  13.850852272727273 3.035156249999999  13.910511363636363 3.105468749999999  Z " stroke-width="0" stroke-dasharray="0" stroke="rgba(255, 255, 255, 0)" fill="none" transform="matrix(1 0 0 1 982 473 )" class="stroke" mask="url(#Clip6)" />
  </g>
</svg>