<?xml version="1.0" encoding="utf-8"?>
<svg version="1.1" xmlns:xlink="http://www.w3.org/1999/xlink" width="18px" height="18px" xmlns="http://www.w3.org/2000/svg">
  <defs>
    <pattern id="BGPattern" patternUnits="userSpaceOnUse" alignment="0 0" imageRepeat="None" />
  </defs>
  <g transform="matrix(1 0 0 1 -333 -155 )">
    <path d="M 9 0  C 14.040000000000001 0  18 3.9599999999999995  18 9  C 18 14.040000000000001  14.040000000000001 18  9 18  C 3.9599999999999995 18  0 14.040000000000001  0 9  C 0 3.9599999999999995  3.9599999999999995 0  9 0  Z " fill-rule="nonzero" fill="rgba(240, 240, 240, 1)" stroke="none" transform="matrix(1 0 0 1 333 155 )" class="fill" />
    <path d="M 9 0.5  C 13.76 0.5  17.5 4.239999999999999  17.5 9  C 17.5 13.76  13.76 17.5  9 17.5  C 4.239999999999999 17.5  0.5 13.76  0.5 9  C 0.5 4.239999999999999  4.239999999999999 0.5  9 0.5  Z " stroke-width="1" stroke-dasharray="0" stroke="rgba(121, 121, 121, 1)" fill="none" transform="matrix(1 0 0 1 333 155 )" class="stroke" stroke-dashoffset="0.5" />
    <path d="M 9 13.5  C 6.4799999999999995 13.5  4.5 11.52  4.5 9  C 4.5 6.4799999999999995  6.4799999999999995 4.5  9 4.5  C 11.52 4.5  13.5 6.4799999999999995  13.5 9  C 13.5 11.52  11.52 13.5  9 13.5  " fill-rule="nonzero" fill="rgba(121, 121, 121, 1)" stroke="none" transform="matrix(1 0 0 1 333 155 )" class="stroke btn_check" />
  </g>
</svg>