<?xml version="1.0" encoding="utf-8"?>
<svg version="1.1" xmlns:xlink="http://www.w3.org/1999/xlink" width="7px" height="6px" xmlns="http://www.w3.org/2000/svg">
  <defs>
    <pattern id="BGPattern" patternUnits="userSpaceOnUse" alignment="0 0" imageRepeat="None" />
    <mask fill="white" id="Clip68">
      <path d="M 0.4651500000000003 0.44200000000000017  L 0.4641000000000002 0.44200000000000017  C 0.6610466699993808 0.2542229569699093  0.9282952894959793 0.14871334358422908  1.2069749999999984 0.14871334358422908  C 1.4856547105040228 0.14871334358422908  1.7529033300006165 0.2542229569699093  1.9498499999999994 0.44200000000000017  L 5.992349999999998 4.291999999999999  C 6.189463695675308 4.479594659723969  6.300212734699499 4.734107259912802  6.300212734699499 4.999500000000002  C 6.300212734699499 5.551896645192977  5.830016477452626 5.999702604475715  5.25 5.999702604475715  C 4.971594902405527 5.999702604475715  4.704581707302778 5.894421459953648  4.507649999999999 5.707000000000001  L 0.4651500000000003 1.8570000000000015  C 0.26798410481840235 1.669431742857732  0.15719901076343934 1.4149092480990693  0.15719901076343934 1.1494999999999986  C 0.15719901076343934 0.8840907519009324  0.26798410481840484 0.6295682571422698  0.4651500000000003 0.44200000000000017  Z " fill-rule="evenodd" />
    </mask>
  </defs>
  <g transform="matrix(1 0 0 1 -310 -67 )">
    <path d="M 0.4651500000000003 0.44200000000000017  L 0.4641000000000002 0.44200000000000017  C 0.6610466699993808 0.2542229569699093  0.9282952894959793 0.14871334358422908  1.2069749999999984 0.14871334358422908  C 1.4856547105040228 0.14871334358422908  1.7529033300006165 0.2542229569699093  1.9498499999999994 0.44200000000000017  L 5.992349999999998 4.291999999999999  C 6.189463695675308 4.479594659723969  6.300212734699499 4.734107259912802  6.300212734699499 4.999500000000002  C 6.300212734699499 5.551896645192977  5.830016477452626 5.999702604475715  5.25 5.999702604475715  C 4.971594902405527 5.999702604475715  4.704581707302778 5.894421459953648  4.507649999999999 5.707000000000001  L 0.4651500000000003 1.8570000000000015  C 0.26798410481840235 1.669431742857732  0.15719901076343934 1.4149092480990693  0.15719901076343934 1.1494999999999986  C 0.15719901076343934 0.8840907519009324  0.26798410481840484 0.6295682571422698  0.4651500000000003 0.44200000000000017  Z " fill-rule="nonzero" fill="rgba(0, 0, 0, 1)" stroke="none" transform="matrix(1 0 0 1 310 67 )" class="fill" />
    <path d="M 0.4651500000000003 0.44200000000000017  L 0.4641000000000002 0.44200000000000017  C 0.6610466699993808 0.2542229569699093  0.9282952894959793 0.14871334358422908  1.2069749999999984 0.14871334358422908  C 1.4856547105040228 0.14871334358422908  1.7529033300006165 0.2542229569699093  1.9498499999999994 0.44200000000000017  L 5.992349999999998 4.291999999999999  C 6.189463695675308 4.479594659723969  6.300212734699499 4.734107259912802  6.300212734699499 4.999500000000002  C 6.300212734699499 5.551896645192977  5.830016477452626 5.999702604475715  5.25 5.999702604475715  C 4.971594902405527 5.999702604475715  4.704581707302778 5.894421459953648  4.507649999999999 5.707000000000001  L 0.4651500000000003 1.8570000000000015  C 0.26798410481840235 1.669431742857732  0.15719901076343934 1.4149092480990693  0.15719901076343934 1.1494999999999986  C 0.15719901076343934 0.8840907519009324  0.26798410481840484 0.6295682571422698  0.4651500000000003 0.44200000000000017  Z " stroke-width="0" stroke-dasharray="0" stroke="rgba(255, 255, 255, 0)" fill="none" transform="matrix(1 0 0 1 310 67 )" class="stroke" mask="url(#Clip68)" />
  </g>
</svg>