<?xml version="1.0" encoding="utf-8"?>
<svg version="1.1" xmlns:xlink="http://www.w3.org/1999/xlink" width="14px" height="14px" xmlns="http://www.w3.org/2000/svg">
  <defs>
    <pattern id="BGPattern" patternUnits="userSpaceOnUse" alignment="0 0" imageRepeat="None" />
    <mask fill="white" id="Clip69">
      <path d="M 6.825000000000001 0  C 10.594343417595166 0  13.65 3.0556565824048363  13.65 6.825000000000001  C 13.65 10.594343417595166  10.594343417595166 13.65  6.825000000000001 13.65  C 3.0556565824048363 13.65  0 10.594343417595166  0 6.825000000000001  C 0 3.0556565824048363  3.0556565824048363 0  6.825000000000001 0  Z M 1.0500000860542076 6.825  C 1.0500000860542076 10.014444430272832  3.635555655781375 12.6  6.825000086054207 12.6  C 10.014444516327039 12.6  12.600000086054207 10.014444430272832  12.600000086054207 6.825  C 12.600000086054207 3.63555556972717  10.014444516327039 1.0500000000000003  6.825000086054207 1.0500000000000003  C 3.635555655781375 1.0500000000000003  1.0500000860542076 3.6355555697271678  1.0500000860542076 6.825  Z " fill-rule="evenodd" />
    </mask>
  </defs>
  <g transform="matrix(1 0 0 1 -299 -56 )">
    <path d="M 6.825000000000001 0  C 10.594343417595166 0  13.65 3.0556565824048363  13.65 6.825000000000001  C 13.65 10.594343417595166  10.594343417595166 13.65  6.825000000000001 13.65  C 3.0556565824048363 13.65  0 10.594343417595166  0 6.825000000000001  C 0 3.0556565824048363  3.0556565824048363 0  6.825000000000001 0  Z M 1.0500000860542076 6.825  C 1.0500000860542076 10.014444430272832  3.635555655781375 12.6  6.825000086054207 12.6  C 10.014444516327039 12.6  12.600000086054207 10.014444430272832  12.600000086054207 6.825  C 12.600000086054207 3.63555556972717  10.014444516327039 1.0500000000000003  6.825000086054207 1.0500000000000003  C 3.635555655781375 1.0500000000000003  1.0500000860542076 3.6355555697271678  1.0500000860542076 6.825  Z " fill-rule="nonzero" fill="rgba(0, 0, 0, 1)" stroke="none" transform="matrix(1 0 0 1 299 56 )" class="fill" />
    <path d="M 6.825000000000001 0  C 10.594343417595166 0  13.65 3.0556565824048363  13.65 6.825000000000001  C 13.65 10.594343417595166  10.594343417595166 13.65  6.825000000000001 13.65  C 3.0556565824048363 13.65  0 10.594343417595166  0 6.825000000000001  C 0 3.0556565824048363  3.0556565824048363 0  6.825000000000001 0  Z " stroke-width="0" stroke-dasharray="0" stroke="rgba(255, 255, 255, 0)" fill="none" transform="matrix(1 0 0 1 299 56 )" class="stroke" mask="url(#Clip69)" />
    <path d="M 1.0500000860542076 6.825  C 1.0500000860542076 10.014444430272832  3.635555655781375 12.6  6.825000086054207 12.6  C 10.014444516327039 12.6  12.600000086054207 10.014444430272832  12.600000086054207 6.825  C 12.600000086054207 3.63555556972717  10.014444516327039 1.0500000000000003  6.825000086054207 1.0500000000000003  C 3.635555655781375 1.0500000000000003  1.0500000860542076 3.6355555697271678  1.0500000860542076 6.825  Z " stroke-width="0" stroke-dasharray="0" stroke="rgba(255, 255, 255, 0)" fill="none" transform="matrix(1 0 0 1 299 56 )" class="stroke" mask="url(#Clip69)" />
  </g>
</svg>