<?xml version="1.0" encoding="utf-8"?>
<svg version="1.1" xmlns:xlink="http://www.w3.org/1999/xlink" width="16px" height="19px" xmlns="http://www.w3.org/2000/svg">
  <defs>
    <pattern id="BGPattern" patternUnits="userSpaceOnUse" alignment="0 0" imageRepeat="None" />
    <mask fill="white" id="Clip70">
      <path d="M 12.041666666666666 0.7209821428571435  L 15.291666666666666 4.029017857142857  C 15.486111111111112 4.226934523809523  15.652777777777779 4.495535714285715  15.791666666666666 4.834821428571428  C 15.930555555555555 5.174107142857143  16 5.4851190476190474  16 5.767857142857143  L 16 17.982142857142858  C 16 18.264880952380953  15.902777777777777 18.505208333333332  15.708333333333334 18.703125  C 15.513888888888891 18.901041666666668  15.277777777777779 19  15 19  L 1 19  C 0.7222222222222223 19  0.48611111111111116 18.901041666666668  0.2916666666666667 18.703125  C 0.09722222222222221 18.505208333333332  0 18.264880952380953  0 17.982142857142858  L 0 1.0178571428571435  C 0 0.7351190476190471  0.09722222222222221 0.49479166666666596  0.2916666666666667 0.296875  C 0.48611111111111116 0.09895833333333404  0.7222222222222223 0  1 0  L 10.333333333333334 0  C 10.611111111111112 0  10.916666666666666 0.07068452380952461  11.25 0.21205357142857173  C 11.583333333333334 0.35342261904761885  11.847222222222223 0.5230654761904754  12.041666666666666 0.7209821428571435  Z M 11.09375 1.6752232142857153  C 11.010416666666666 1.5904017857142847  10.868055555555557 1.5126488095238073  10.666666666666666 1.4419642857142847  L 10.666666666666666 5.428571428571428  L 14.583333333333334 5.428571428571428  C 14.513888888888891 5.2235863095238075  14.4375 5.078683035714285  14.354166666666666 4.993861607142857  L 11.09375 1.6752232142857153  Z M 1.3333333333333333 17.642857142857142  L 14.666666666666666 17.642857142857142  L 14.666666666666666 6.785714285714285  L 10.333333333333334 6.785714285714285  C 10.055555555555555 6.785714285714285  9.819444444444445 6.686755952380951  9.625 6.488839285714285  C 9.430555555555555 6.290922619047619  9.333333333333334 6.0505952380952355  9.333333333333334 5.767857142857143  L 9.333333333333334 1.3571428571428565  L 1.3333333333333333 1.3571428571428565  L 1.3333333333333333 17.642857142857142  Z " fill-rule="evenodd" />
    </mask>
  </defs>
  <g transform="matrix(1 0 0 1 -45 -650 )">
    <path d="M 12.041666666666666 0.7209821428571435  L 15.291666666666666 4.029017857142857  C 15.486111111111112 4.226934523809523  15.652777777777779 4.495535714285715  15.791666666666666 4.834821428571428  C 15.930555555555555 5.174107142857143  16 5.4851190476190474  16 5.767857142857143  L 16 17.982142857142858  C 16 18.264880952380953  15.902777777777777 18.505208333333332  15.708333333333334 18.703125  C 15.513888888888891 18.901041666666668  15.277777777777779 19  15 19  L 1 19  C 0.7222222222222223 19  0.48611111111111116 18.901041666666668  0.2916666666666667 18.703125  C 0.09722222222222221 18.505208333333332  0 18.264880952380953  0 17.982142857142858  L 0 1.0178571428571435  C 0 0.7351190476190471  0.09722222222222221 0.49479166666666596  0.2916666666666667 0.296875  C 0.48611111111111116 0.09895833333333404  0.7222222222222223 0  1 0  L 10.333333333333334 0  C 10.611111111111112 0  10.916666666666666 0.07068452380952461  11.25 0.21205357142857173  C 11.583333333333334 0.35342261904761885  11.847222222222223 0.5230654761904754  12.041666666666666 0.7209821428571435  Z M 11.09375 1.6752232142857153  C 11.010416666666666 1.5904017857142847  10.868055555555557 1.5126488095238073  10.666666666666666 1.4419642857142847  L 10.666666666666666 5.428571428571428  L 14.583333333333334 5.428571428571428  C 14.513888888888891 5.2235863095238075  14.4375 5.078683035714285  14.354166666666666 4.993861607142857  L 11.09375 1.6752232142857153  Z M 1.3333333333333333 17.642857142857142  L 14.666666666666666 17.642857142857142  L 14.666666666666666 6.785714285714285  L 10.333333333333334 6.785714285714285  C 10.055555555555555 6.785714285714285  9.819444444444445 6.686755952380951  9.625 6.488839285714285  C 9.430555555555555 6.290922619047619  9.333333333333334 6.0505952380952355  9.333333333333334 5.767857142857143  L 9.333333333333334 1.3571428571428565  L 1.3333333333333333 1.3571428571428565  L 1.3333333333333333 17.642857142857142  Z " fill-rule="nonzero" fill="rgba(0, 0, 0, 1)" stroke="none" transform="matrix(1 0 0 1 45 650 )" class="fill" />
    <path d="M 12.041666666666666 0.7209821428571435  L 15.291666666666666 4.029017857142857  C 15.486111111111112 4.226934523809523  15.652777777777779 4.495535714285715  15.791666666666666 4.834821428571428  C 15.930555555555555 5.174107142857143  16 5.4851190476190474  16 5.767857142857143  L 16 17.982142857142858  C 16 18.264880952380953  15.902777777777777 18.505208333333332  15.708333333333334 18.703125  C 15.513888888888891 18.901041666666668  15.277777777777779 19  15 19  L 1 19  C 0.7222222222222223 19  0.48611111111111116 18.901041666666668  0.2916666666666667 18.703125  C 0.09722222222222221 18.505208333333332  0 18.264880952380953  0 17.982142857142858  L 0 1.0178571428571435  C 0 0.7351190476190471  0.09722222222222221 0.49479166666666596  0.2916666666666667 0.296875  C 0.48611111111111116 0.09895833333333404  0.7222222222222223 0  1 0  L 10.333333333333334 0  C 10.611111111111112 0  10.916666666666666 0.07068452380952461  11.25 0.21205357142857173  C 11.583333333333334 0.35342261904761885  11.847222222222223 0.5230654761904754  12.041666666666666 0.7209821428571435  Z " stroke-width="0" stroke-dasharray="0" stroke="rgba(255, 255, 255, 0)" fill="none" transform="matrix(1 0 0 1 45 650 )" class="stroke" mask="url(#Clip70)" />
    <path d="M 11.09375 1.6752232142857153  C 11.010416666666666 1.5904017857142847  10.868055555555557 1.5126488095238073  10.666666666666666 1.4419642857142847  L 10.666666666666666 5.428571428571428  L 14.583333333333334 5.428571428571428  C 14.513888888888891 5.2235863095238075  14.4375 5.078683035714285  14.354166666666666 4.993861607142857  L 11.09375 1.6752232142857153  Z " stroke-width="0" stroke-dasharray="0" stroke="rgba(255, 255, 255, 0)" fill="none" transform="matrix(1 0 0 1 45 650 )" class="stroke" mask="url(#Clip70)" />
    <path d="M 1.3333333333333333 17.642857142857142  L 14.666666666666666 17.642857142857142  L 14.666666666666666 6.785714285714285  L 10.333333333333334 6.785714285714285  C 10.055555555555555 6.785714285714285  9.819444444444445 6.686755952380951  9.625 6.488839285714285  C 9.430555555555555 6.290922619047619  9.333333333333334 6.0505952380952355  9.333333333333334 5.767857142857143  L 9.333333333333334 1.3571428571428565  L 1.3333333333333333 1.3571428571428565  L 1.3333333333333333 17.642857142857142  Z " stroke-width="0" stroke-dasharray="0" stroke="rgba(255, 255, 255, 0)" fill="none" transform="matrix(1 0 0 1 45 650 )" class="stroke" mask="url(#Clip70)" />
  </g>
</svg>