<?xml version="1.0" encoding="utf-8"?>
<svg version="1.1" xmlns:xlink="http://www.w3.org/1999/xlink" width="12px" height="8px" xmlns="http://www.w3.org/2000/svg">
  <defs>
    <pattern id="BGPattern" patternUnits="userSpaceOnUse" alignment="0 0" imageRepeat="None" />
    <mask fill="white" id="Clip1">
      <path d="M 11.879759519038076 0.8247422680412368  C 11.959919839679358 0.9163802978235944  12 1.0217640320733095  12 1.1408934707903784  C 12 1.2600229095074447  11.959919839679358 1.365406643757158  11.879759519038076 1.457044673539519  L 6.2765531062124245 7.86254295532646  C 6.196392785571143 7.954180985108818  6.104208416833668 8  6 8  C 5.895791583166334 8  5.803607214428858 7.954180985108818  5.723446893787575 7.86254295532646  L 0.12024048096192384 1.457044673539519  C 0.0400801603206414 1.365406643757158  0 1.2600229095074447  0 1.1408934707903784  C 0 1.0217640320733095  0.0400801603206414 0.9163802978235944  0.12024048096192384 0.8247422680412368  L 0.721442885771543 0.13745704467353992  C 0.8016032064128259 0.04581901489117879  0.8937875751503007 0  0.9979959919839679 0  C 1.1022044088176355 0  1.1943887775551103 0.04581901489117879  1.2745490981963927 0.13745704467353992  L 6 5.5395189003436425  L 10.725450901803608 0.13745704467353992  C 10.80561122244489 0.04581901489117879  10.897795591182366 0  11.002004008016032 0  C 11.106212424849701 0  11.198396793587175 0.04581901489117879  11.278557114228457 0.13745704467353992  L 11.879759519038076 0.8247422680412368  Z " fill-rule="evenodd" />
    </mask>
  </defs>
  <g transform="matrix(1 0 0 1 -1383 -755 )">
    <path d="M 11.879759519038076 0.8247422680412368  C 11.959919839679358 0.9163802978235944  12 1.0217640320733095  12 1.1408934707903784  C 12 1.2600229095074447  11.959919839679358 1.365406643757158  11.879759519038076 1.457044673539519  L 6.2765531062124245 7.86254295532646  C 6.196392785571143 7.954180985108818  6.104208416833668 8  6 8  C 5.895791583166334 8  5.803607214428858 7.954180985108818  5.723446893787575 7.86254295532646  L 0.12024048096192384 1.457044673539519  C 0.0400801603206414 1.365406643757158  0 1.2600229095074447  0 1.1408934707903784  C 0 1.0217640320733095  0.0400801603206414 0.9163802978235944  0.12024048096192384 0.8247422680412368  L 0.721442885771543 0.13745704467353992  C 0.8016032064128259 0.04581901489117879  0.8937875751503007 0  0.9979959919839679 0  C 1.1022044088176355 0  1.1943887775551103 0.04581901489117879  1.2745490981963927 0.13745704467353992  L 6 5.5395189003436425  L 10.725450901803608 0.13745704467353992  C 10.80561122244489 0.04581901489117879  10.897795591182366 0  11.002004008016032 0  C 11.106212424849701 0  11.198396793587175 0.04581901489117879  11.278557114228457 0.13745704467353992  L 11.879759519038076 0.8247422680412368  Z " fill-rule="nonzero" fill="rgba(0, 0, 0, 1)" stroke="none" transform="matrix(1 0 0 1 1383 755 )" class="fill" />
    <path d="M 11.879759519038076 0.8247422680412368  C 11.959919839679358 0.9163802978235944  12 1.0217640320733095  12 1.1408934707903784  C 12 1.2600229095074447  11.959919839679358 1.365406643757158  11.879759519038076 1.457044673539519  L 6.2765531062124245 7.86254295532646  C 6.196392785571143 7.954180985108818  6.104208416833668 8  6 8  C 5.895791583166334 8  5.803607214428858 7.954180985108818  5.723446893787575 7.86254295532646  L 0.12024048096192384 1.457044673539519  C 0.0400801603206414 1.365406643757158  0 1.2600229095074447  0 1.1408934707903784  C 0 1.0217640320733095  0.0400801603206414 0.9163802978235944  0.12024048096192384 0.8247422680412368  L 0.721442885771543 0.13745704467353992  C 0.8016032064128259 0.04581901489117879  0.8937875751503007 0  0.9979959919839679 0  C 1.1022044088176355 0  1.1943887775551103 0.04581901489117879  1.2745490981963927 0.13745704467353992  L 6 5.5395189003436425  L 10.725450901803608 0.13745704467353992  C 10.80561122244489 0.04581901489117879  10.897795591182366 0  11.002004008016032 0  C 11.106212424849701 0  11.198396793587175 0.04581901489117879  11.278557114228457 0.13745704467353992  L 11.879759519038076 0.8247422680412368  Z " stroke-width="0" stroke-dasharray="0" stroke="rgba(255, 255, 255, 0)" fill="none" transform="matrix(1 0 0 1 1383 755 )" class="stroke" mask="url(#Clip1)" />
  </g>
</svg>