<?xml version="1.0" encoding="utf-8"?>
<svg version="1.1" xmlns:xlink="http://www.w3.org/1999/xlink" width="8px" height="15px" xmlns="http://www.w3.org/2000/svg">
  <defs>
    <pattern id="BGPattern" patternUnits="userSpaceOnUse" alignment="0 0" imageRepeat="None" />
    <mask fill="white" id="Clip4">
      <path d="M 8 3.409090909090909  L 6.909090909090909 3.409090909090909  L 6.909090909090909 11.25  C 6.909090909090909 12.756818181818183  5.607272727272728 13.977272727272727  4 13.977272727272727  C 2.392727272727272 13.977272727272727  1.0909090909090908 12.756818181818183  1.0909090909090908 11.25  L 1.0909090909090908 2.7272727272727275  C 1.0909090909090908 1.7863636363636364  1.9054545454545462 1.0227272727272727  2.909090909090909 1.0227272727272727  C 3.912727272727272 1.0227272727272727  4.7272727272727275 1.7863636363636364  4.7272727272727275 2.7272727272727275  L 4.7272727272727275 9.886363636363637  C 4.7272727272727275 10.261363636363637  4.403636363636363 10.568181818181818  4 10.568181818181818  C 3.5963636363636367 10.568181818181818  3.272727272727273 10.261363636363637  3.272727272727273 9.886363636363637  L 3.272727272727273 3.409090909090909  L 2.1818181818181817 3.409090909090909  L 2.1818181818181817 9.886363636363637  C 2.1818181818181817 10.827272727272726  2.996363636363637 11.59090909090909  4 11.59090909090909  C 5.003636363636363 11.59090909090909  5.818181818181818 10.827272727272726  5.818181818181818 9.886363636363637  L 5.818181818181818 2.7272727272727275  C 5.818181818181818 1.2204545454545455  4.516363636363637 0  2.909090909090909 0  C 1.301818181818181 0  0 1.2204545454545455  0 2.7272727272727275  L 0 11.25  C 0 13.322727272727272  1.7927272727272727 15  4 15  C 6.207272727272727 15  8 13.322727272727272  8 11.25  L 8 3.409090909090909  Z " fill-rule="evenodd" />
    </mask>
  </defs>
  <g transform="matrix(1 0 0 1 -643 -145 )">
    <path d="M 8 3.409090909090909  L 6.909090909090909 3.409090909090909  L 6.909090909090909 11.25  C 6.909090909090909 12.756818181818183  5.607272727272728 13.977272727272727  4 13.977272727272727  C 2.392727272727272 13.977272727272727  1.0909090909090908 12.756818181818183  1.0909090909090908 11.25  L 1.0909090909090908 2.7272727272727275  C 1.0909090909090908 1.7863636363636364  1.9054545454545462 1.0227272727272727  2.909090909090909 1.0227272727272727  C 3.912727272727272 1.0227272727272727  4.7272727272727275 1.7863636363636364  4.7272727272727275 2.7272727272727275  L 4.7272727272727275 9.886363636363637  C 4.7272727272727275 10.261363636363637  4.403636363636363 10.568181818181818  4 10.568181818181818  C 3.5963636363636367 10.568181818181818  3.272727272727273 10.261363636363637  3.272727272727273 9.886363636363637  L 3.272727272727273 3.409090909090909  L 2.1818181818181817 3.409090909090909  L 2.1818181818181817 9.886363636363637  C 2.1818181818181817 10.827272727272726  2.996363636363637 11.59090909090909  4 11.59090909090909  C 5.003636363636363 11.59090909090909  5.818181818181818 10.827272727272726  5.818181818181818 9.886363636363637  L 5.818181818181818 2.7272727272727275  C 5.818181818181818 1.2204545454545455  4.516363636363637 0  2.909090909090909 0  C 1.301818181818181 0  0 1.2204545454545455  0 2.7272727272727275  L 0 11.25  C 0 13.322727272727272  1.7927272727272727 15  4 15  C 6.207272727272727 15  8 13.322727272727272  8 11.25  L 8 3.409090909090909  Z " fill-rule="nonzero" fill="rgba(38, 82, 232, 1)" stroke="none" transform="matrix(1 0 0 1 643 145 )" class="fill" />
    <path d="M 8 3.409090909090909  L 6.909090909090909 3.409090909090909  L 6.909090909090909 11.25  C 6.909090909090909 12.756818181818183  5.607272727272728 13.977272727272727  4 13.977272727272727  C 2.392727272727272 13.977272727272727  1.0909090909090908 12.756818181818183  1.0909090909090908 11.25  L 1.0909090909090908 2.7272727272727275  C 1.0909090909090908 1.7863636363636364  1.9054545454545462 1.0227272727272727  2.909090909090909 1.0227272727272727  C 3.912727272727272 1.0227272727272727  4.7272727272727275 1.7863636363636364  4.7272727272727275 2.7272727272727275  L 4.7272727272727275 9.886363636363637  C 4.7272727272727275 10.261363636363637  4.403636363636363 10.568181818181818  4 10.568181818181818  C 3.5963636363636367 10.568181818181818  3.272727272727273 10.261363636363637  3.272727272727273 9.886363636363637  L 3.272727272727273 3.409090909090909  L 2.1818181818181817 3.409090909090909  L 2.1818181818181817 9.886363636363637  C 2.1818181818181817 10.827272727272726  2.996363636363637 11.59090909090909  4 11.59090909090909  C 5.003636363636363 11.59090909090909  5.818181818181818 10.827272727272726  5.818181818181818 9.886363636363637  L 5.818181818181818 2.7272727272727275  C 5.818181818181818 1.2204545454545455  4.516363636363637 0  2.909090909090909 0  C 1.301818181818181 0  0 1.2204545454545455  0 2.7272727272727275  L 0 11.25  C 0 13.322727272727272  1.7927272727272727 15  4 15  C 6.207272727272727 15  8 13.322727272727272  8 11.25  L 8 3.409090909090909  Z " stroke-width="0" stroke-dasharray="0" stroke="rgba(255, 255, 255, 0)" fill="none" transform="matrix(1 0 0 1 643 145 )" class="stroke" mask="url(#Clip4)" />
  </g>
</svg>