<?xml version="1.0" encoding="utf-8"?>
<svg version="1.1" xmlns:xlink="http://www.w3.org/1999/xlink" width="11px" height="8px" xmlns="http://www.w3.org/2000/svg">
  <defs>
    <pattern id="BGPattern" patternUnits="userSpaceOnUse" alignment="0 0" imageRepeat="None" />
    <mask fill="white" id="Clip2">
      <path d="M 3.953125 7.666666666666667  C 3.6683531758684964 7.666666666666667  3.4375 7.442809041582064  3.4375 7.166666666666667  C 3.4375 6.8905242917512695  3.6683531758684964 6.666666666666667  3.953125 6.666666666666667  L 7.046875 6.666666666666667  C 7.331646824131504 6.666666666666667  7.5625 6.8905242917512695  7.5625 7.166666666666667  C 7.5625 7.442809041582064  7.331646824131504 7.666666666666667  7.046875 7.666666666666667  L 3.953125 7.666666666666667  Z M 0.34375 3.8856666666666655  L 0.34375 2.728666666666667  C 0.34375 1.426666666666667  1.6173437500000007 0.43166666666666603  2.9528125 0.5526666666666671  C 4.6472555754976606 0.7060182631195341  6.3527444245023394 0.7060182631195341  8.047187500000001 0.5526666666666671  C 9.38265625 0.43166666666666603  10.65625 1.426666666666667  10.65625 2.728666666666667  L 10.656250000000002 3.8856666666666655  C 10.664949676027195 4.34263866965518  10.330987105947058 4.738446160120532  9.86734375 4.820666666666667  C 8.995937499999998 4.967666666666666  7.45421875 5.166666666666667  5.499999999999999 5.166666666666667  C 3.545781249999999 5.166666666666667  2.0040624999999994 4.966666666666668  1.1326562499999993 4.820666666666668  C 0.669012894052944 4.738446160120531  0.335050323972807 4.34263866965518  0.34375 3.8856666666666655  Z M 5.215375000000002 2.0366666666666653  C 5.178643632762239 1.965177218662492  5.1088971262632565 1.9150099013005857  5.027687499999999 1.9016666666666662  C 4.9461641875251665 1.8882198083964756  4.8629367146401155 1.913509988678263  4.803906250000001 1.9696666666666662  L 3.85515625 2.869666666666666  C 3.209843467692974 2.832366749001146  2.566223690558696 2.771322785881466  1.9256875000000007 2.686666666666666  C 1.9172161871924678 2.6858504175032025  1.9087083806313498 2.68544154153485  1.9001953497113047 2.68544154153485  C 1.757809437645553 2.68544154153485  1.6423828497113047 2.797370354077151  1.6423828497113047 2.93544154153485  C 1.6423828497113047 3.056815437635534  1.7322856261351025 3.1606542531353696  1.8555625000000011 3.181666666666665  C 2.4227500000000006 3.2576666666666654  3.1260625000000015 3.3306666666666644  3.938687500000001 3.374666666666665  C 4.011060514393914 3.378622513766319  4.08180729846106 3.3528510381529544  4.133593750000001 3.3036666666666648  L 4.9111562499999994 2.5676666666666654  L 5.784625 4.277666666666666  C 5.828199038430965 4.362622616181838  5.917614220512841 4.416336438217736  6.015462844013498 4.416336438217736  C 6.085565834662209 4.416336438217736  6.152646130463625 4.388654056583957  6.20125 4.339666666666665  L 7.162374999999999 3.369666666666665  C 7.825290177185213 3.331496668639486  8.486459741389469 3.2687842778493867  9.144437500000002 3.1816666666666635  C 9.267714373864896 3.1606542531353683  9.357617150288698 3.056815437635534  9.357617150288698 2.93544154153485  C 9.357617150288698 2.797370354077151  9.242190562354448 2.68544154153485  9.099804650288698 2.68544154153485  C 9.091291619368663 2.68544154153485  9.082783812807522 2.6858504175032016  9.074312500000001 2.686666666666665  C 8.519500000000003 2.760666666666664  7.829593750000001 2.8316666666666634  7.0324375 2.8756666666666653  C 6.967535043742581 2.8791671675620094  6.906391614089582 2.906312260828912  6.86125 2.9516666666666658  L 6.0836875 3.7366666666666646  L 5.215375000000002 2.0366666666666653  Z " fill-rule="evenodd" />
    </mask>
  </defs>
  <g transform="matrix(1 0 0 1 -1108 -34 )">
    <path d="M 3.953125 7.666666666666667  C 3.6683531758684964 7.666666666666667  3.4375 7.442809041582064  3.4375 7.166666666666667  C 3.4375 6.8905242917512695  3.6683531758684964 6.666666666666667  3.953125 6.666666666666667  L 7.046875 6.666666666666667  C 7.331646824131504 6.666666666666667  7.5625 6.8905242917512695  7.5625 7.166666666666667  C 7.5625 7.442809041582064  7.331646824131504 7.666666666666667  7.046875 7.666666666666667  L 3.953125 7.666666666666667  Z M 0.34375 3.8856666666666655  L 0.34375 2.728666666666667  C 0.34375 1.426666666666667  1.6173437500000007 0.43166666666666603  2.9528125 0.5526666666666671  C 4.6472555754976606 0.7060182631195341  6.3527444245023394 0.7060182631195341  8.047187500000001 0.5526666666666671  C 9.38265625 0.43166666666666603  10.65625 1.426666666666667  10.65625 2.728666666666667  L 10.656250000000002 3.8856666666666655  C 10.664949676027195 4.34263866965518  10.330987105947058 4.738446160120532  9.86734375 4.820666666666667  C 8.995937499999998 4.967666666666666  7.45421875 5.166666666666667  5.499999999999999 5.166666666666667  C 3.545781249999999 5.166666666666667  2.0040624999999994 4.966666666666668  1.1326562499999993 4.820666666666668  C 0.669012894052944 4.738446160120531  0.335050323972807 4.34263866965518  0.34375 3.8856666666666655  Z M 5.215375000000002 2.0366666666666653  C 5.178643632762239 1.965177218662492  5.1088971262632565 1.9150099013005857  5.027687499999999 1.9016666666666662  C 4.9461641875251665 1.8882198083964756  4.8629367146401155 1.913509988678263  4.803906250000001 1.9696666666666662  L 3.85515625 2.869666666666666  C 3.209843467692974 2.832366749001146  2.566223690558696 2.771322785881466  1.9256875000000007 2.686666666666666  C 1.9172161871924678 2.6858504175032025  1.9087083806313498 2.68544154153485  1.9001953497113047 2.68544154153485  C 1.757809437645553 2.68544154153485  1.6423828497113047 2.797370354077151  1.6423828497113047 2.93544154153485  C 1.6423828497113047 3.056815437635534  1.7322856261351025 3.1606542531353696  1.8555625000000011 3.181666666666665  C 2.4227500000000006 3.2576666666666654  3.1260625000000015 3.3306666666666644  3.938687500000001 3.374666666666665  C 4.011060514393914 3.378622513766319  4.08180729846106 3.3528510381529544  4.133593750000001 3.3036666666666648  L 4.9111562499999994 2.5676666666666654  L 5.784625 4.277666666666666  C 5.828199038430965 4.362622616181838  5.917614220512841 4.416336438217736  6.015462844013498 4.416336438217736  C 6.085565834662209 4.416336438217736  6.152646130463625 4.388654056583957  6.20125 4.339666666666665  L 7.162374999999999 3.369666666666665  C 7.825290177185213 3.331496668639486  8.486459741389469 3.2687842778493867  9.144437500000002 3.1816666666666635  C 9.267714373864896 3.1606542531353683  9.357617150288698 3.056815437635534  9.357617150288698 2.93544154153485  C 9.357617150288698 2.797370354077151  9.242190562354448 2.68544154153485  9.099804650288698 2.68544154153485  C 9.091291619368663 2.68544154153485  9.082783812807522 2.6858504175032016  9.074312500000001 2.686666666666665  C 8.519500000000003 2.760666666666664  7.829593750000001 2.8316666666666634  7.0324375 2.8756666666666653  C 6.967535043742581 2.8791671675620094  6.906391614089582 2.906312260828912  6.86125 2.9516666666666658  L 6.0836875 3.7366666666666646  L 5.215375000000002 2.0366666666666653  Z " fill-rule="nonzero" fill="rgba(255, 255, 255, 1)" stroke="none" transform="matrix(1 0 0 1 1108 34 )" class="fill" />
    <path d="M 3.953125 7.666666666666667  C 3.6683531758684964 7.666666666666667  3.4375 7.442809041582064  3.4375 7.166666666666667  C 3.4375 6.8905242917512695  3.6683531758684964 6.666666666666667  3.953125 6.666666666666667  L 7.046875 6.666666666666667  C 7.331646824131504 6.666666666666667  7.5625 6.8905242917512695  7.5625 7.166666666666667  C 7.5625 7.442809041582064  7.331646824131504 7.666666666666667  7.046875 7.666666666666667  L 3.953125 7.666666666666667  Z " stroke-width="0" stroke-dasharray="0" stroke="rgba(255, 255, 255, 0)" fill="none" transform="matrix(1 0 0 1 1108 34 )" class="stroke" mask="url(#Clip2)" />
    <path d="M 0.34375 3.8856666666666655  L 0.34375 2.728666666666667  C 0.34375 1.426666666666667  1.6173437500000007 0.43166666666666603  2.9528125 0.5526666666666671  C 4.6472555754976606 0.7060182631195341  6.3527444245023394 0.7060182631195341  8.047187500000001 0.5526666666666671  C 9.38265625 0.43166666666666603  10.65625 1.426666666666667  10.65625 2.728666666666667  L 10.656250000000002 3.8856666666666655  C 10.664949676027195 4.34263866965518  10.330987105947058 4.738446160120532  9.86734375 4.820666666666667  C 8.995937499999998 4.967666666666666  7.45421875 5.166666666666667  5.499999999999999 5.166666666666667  C 3.545781249999999 5.166666666666667  2.0040624999999994 4.966666666666668  1.1326562499999993 4.820666666666668  C 0.669012894052944 4.738446160120531  0.335050323972807 4.34263866965518  0.34375 3.8856666666666655  Z " stroke-width="0" stroke-dasharray="0" stroke="rgba(255, 255, 255, 0)" fill="none" transform="matrix(1 0 0 1 1108 34 )" class="stroke" mask="url(#Clip2)" />
    <path d="M 5.215375000000002 2.0366666666666653  C 5.178643632762239 1.965177218662492  5.1088971262632565 1.9150099013005857  5.027687499999999 1.9016666666666662  C 4.9461641875251665 1.8882198083964756  4.8629367146401155 1.913509988678263  4.803906250000001 1.9696666666666662  L 3.85515625 2.869666666666666  C 3.209843467692974 2.832366749001146  2.566223690558696 2.771322785881466  1.9256875000000007 2.686666666666666  C 1.9172161871924678 2.6858504175032025  1.9087083806313498 2.68544154153485  1.9001953497113047 2.68544154153485  C 1.757809437645553 2.68544154153485  1.6423828497113047 2.797370354077151  1.6423828497113047 2.93544154153485  C 1.6423828497113047 3.056815437635534  1.7322856261351025 3.1606542531353696  1.8555625000000011 3.181666666666665  C 2.4227500000000006 3.2576666666666654  3.1260625000000015 3.3306666666666644  3.938687500000001 3.374666666666665  C 4.011060514393914 3.378622513766319  4.08180729846106 3.3528510381529544  4.133593750000001 3.3036666666666648  L 4.9111562499999994 2.5676666666666654  L 5.784625 4.277666666666666  C 5.828199038430965 4.362622616181838  5.917614220512841 4.416336438217736  6.015462844013498 4.416336438217736  C 6.085565834662209 4.416336438217736  6.152646130463625 4.388654056583957  6.20125 4.339666666666665  L 7.162374999999999 3.369666666666665  C 7.825290177185213 3.331496668639486  8.486459741389469 3.2687842778493867  9.144437500000002 3.1816666666666635  C 9.267714373864896 3.1606542531353683  9.357617150288698 3.056815437635534  9.357617150288698 2.93544154153485  C 9.357617150288698 2.797370354077151  9.242190562354448 2.68544154153485  9.099804650288698 2.68544154153485  C 9.091291619368663 2.68544154153485  9.082783812807522 2.6858504175032016  9.074312500000001 2.686666666666665  C 8.519500000000003 2.760666666666664  7.829593750000001 2.8316666666666634  7.0324375 2.8756666666666653  C 6.967535043742581 2.8791671675620094  6.906391614089582 2.906312260828912  6.86125 2.9516666666666658  L 6.0836875 3.7366666666666646  L 5.215375000000002 2.0366666666666653  Z " stroke-width="0" stroke-dasharray="0" stroke="rgba(255, 255, 255, 0)" fill="none" transform="matrix(1 0 0 1 1108 34 )" class="stroke" mask="url(#Clip2)" />
  </g>
</svg>