<?xml version="1.0" encoding="utf-8"?>
<svg version="1.1" xmlns:xlink="http://www.w3.org/1999/xlink" width="16px" height="16px" xmlns="http://www.w3.org/2000/svg">
  <defs>
    <pattern id="BGPattern" patternUnits="userSpaceOnUse" alignment="0 0" imageRepeat="None" />
    <mask fill="white" id="Clip3">
      <path d="M 8.5 3.6666666666666665  L 8.5 2.532666666666667  C 8.809401076758503 2.354033871712585  9 2.0239068527903914  9 1.6666412628822282  C 9 1.1143565130514348  8.552284749830793 0.6666412628822281  8 0.6666412628822281  C 7.447715250169207 0.6666412628822281  7 1.1143565130514348  7 1.6666412628822282  C 7 2.0239068527903914  7.190598923241498 2.354033871712585  7.5 2.532666666666667  L 7.5 3.6666666666666665  L 5.499999999999999 3.6666666666666665  C 3.01471862576143 3.6666666666666665  1 5.6813852924280965  1 8.166666666666666  L 1 8.666666666666666  C 0.44771525016920655 8.666666666666666  0 9.114381916835873  0 9.666666666666666  L 0 11.666666666666666  C 0 12.218951416497461  0.44771525016920655 12.666666666666666  1 12.666666666666666  L 1 13.666666666666666  C 1 14.771236166328253  1.8954305003384129 15.666666666666666  3 15.666666666666666  L 13 15.666666666666666  C 14.104569499661586 15.666666666666666  15 14.771236166328253  15 13.666666666666666  L 15 12.666666666666666  C 15.552284749830795 12.666666666666666  16 12.218951416497461  16 11.666666666666666  L 16 9.666666666666666  C 16 9.114381916835873  15.552284749830795 8.666666666666666  15 8.666666666666666  L 14.999999999999998 8.166666666666666  C 14.999999999999998 5.681385292428094  12.985281374238568 3.6666666666666665  10.5 3.6666666666666665  L 8.5 3.6666666666666665  Z M 10.5 4.666666666666667  C 12.432996624407776 4.666666666666667  14 6.23367004225889  14 8.166666666666666  L 14 13.666666666666666  C 14 14.218951416497461  13.552284749830795 14.666666666666666  13 14.666666666666666  L 3 14.666666666666666  C 2.4477152501692068 14.666666666666666  2 14.218951416497461  2 13.666666666666666  L 2 8.166666666666666  C 2 6.23367004225889  3.5670033755922232 4.666666666666667  5.5 4.666666666666667  L 10.5 4.666666666666667  Z " fill-rule="evenodd" />
    </mask>
  </defs>
  <g transform="matrix(1 0 0 1 -1105 -28 )">
    <path d="M 8.5 3.6666666666666665  L 8.5 2.532666666666667  C 8.809401076758503 2.354033871712585  9 2.0239068527903914  9 1.6666412628822282  C 9 1.1143565130514348  8.552284749830793 0.6666412628822281  8 0.6666412628822281  C 7.447715250169207 0.6666412628822281  7 1.1143565130514348  7 1.6666412628822282  C 7 2.0239068527903914  7.190598923241498 2.354033871712585  7.5 2.532666666666667  L 7.5 3.6666666666666665  L 5.499999999999999 3.6666666666666665  C 3.01471862576143 3.6666666666666665  1 5.6813852924280965  1 8.166666666666666  L 1 8.666666666666666  C 0.44771525016920655 8.666666666666666  0 9.114381916835873  0 9.666666666666666  L 0 11.666666666666666  C 0 12.218951416497461  0.44771525016920655 12.666666666666666  1 12.666666666666666  L 1 13.666666666666666  C 1 14.771236166328253  1.8954305003384129 15.666666666666666  3 15.666666666666666  L 13 15.666666666666666  C 14.104569499661586 15.666666666666666  15 14.771236166328253  15 13.666666666666666  L 15 12.666666666666666  C 15.552284749830795 12.666666666666666  16 12.218951416497461  16 11.666666666666666  L 16 9.666666666666666  C 16 9.114381916835873  15.552284749830795 8.666666666666666  15 8.666666666666666  L 14.999999999999998 8.166666666666666  C 14.999999999999998 5.681385292428094  12.985281374238568 3.6666666666666665  10.5 3.6666666666666665  L 8.5 3.6666666666666665  Z M 10.5 4.666666666666667  C 12.432996624407776 4.666666666666667  14 6.23367004225889  14 8.166666666666666  L 14 13.666666666666666  C 14 14.218951416497461  13.552284749830795 14.666666666666666  13 14.666666666666666  L 3 14.666666666666666  C 2.4477152501692068 14.666666666666666  2 14.218951416497461  2 13.666666666666666  L 2 8.166666666666666  C 2 6.23367004225889  3.5670033755922232 4.666666666666667  5.5 4.666666666666667  L 10.5 4.666666666666667  Z " fill-rule="nonzero" fill="rgba(255, 255, 255, 1)" stroke="none" transform="matrix(1 0 0 1 1105 28 )" class="fill" />
    <path d="M 8.5 3.6666666666666665  L 8.5 2.532666666666667  C 8.809401076758503 2.354033871712585  9 2.0239068527903914  9 1.6666412628822282  C 9 1.1143565130514348  8.552284749830793 0.6666412628822281  8 0.6666412628822281  C 7.447715250169207 0.6666412628822281  7 1.1143565130514348  7 1.6666412628822282  C 7 2.0239068527903914  7.190598923241498 2.354033871712585  7.5 2.532666666666667  L 7.5 3.6666666666666665  L 5.499999999999999 3.6666666666666665  C 3.01471862576143 3.6666666666666665  1 5.6813852924280965  1 8.166666666666666  L 1 8.666666666666666  C 0.44771525016920655 8.666666666666666  0 9.114381916835873  0 9.666666666666666  L 0 11.666666666666666  C 0 12.218951416497461  0.44771525016920655 12.666666666666666  1 12.666666666666666  L 1 13.666666666666666  C 1 14.771236166328253  1.8954305003384129 15.666666666666666  3 15.666666666666666  L 13 15.666666666666666  C 14.104569499661586 15.666666666666666  15 14.771236166328253  15 13.666666666666666  L 15 12.666666666666666  C 15.552284749830795 12.666666666666666  16 12.218951416497461  16 11.666666666666666  L 16 9.666666666666666  C 16 9.114381916835873  15.552284749830795 8.666666666666666  15 8.666666666666666  L 14.999999999999998 8.166666666666666  C 14.999999999999998 5.681385292428094  12.985281374238568 3.6666666666666665  10.5 3.6666666666666665  L 8.5 3.6666666666666665  Z " stroke-width="0" stroke-dasharray="0" stroke="rgba(255, 255, 255, 0)" fill="none" transform="matrix(1 0 0 1 1105 28 )" class="stroke" mask="url(#Clip3)" />
    <path d="M 10.5 4.666666666666667  C 12.432996624407776 4.666666666666667  14 6.23367004225889  14 8.166666666666666  L 14 13.666666666666666  C 14 14.218951416497461  13.552284749830795 14.666666666666666  13 14.666666666666666  L 3 14.666666666666666  C 2.4477152501692068 14.666666666666666  2 14.218951416497461  2 13.666666666666666  L 2 8.166666666666666  C 2 6.23367004225889  3.5670033755922232 4.666666666666667  5.5 4.666666666666667  L 10.5 4.666666666666667  Z " stroke-width="0" stroke-dasharray="0" stroke="rgba(255, 255, 255, 0)" fill="none" transform="matrix(1 0 0 1 1105 28 )" class="stroke" mask="url(#Clip3)" />
  </g>
</svg>