<?xml version="1.0" encoding="utf-8"?>
<svg version="1.1" xmlns:xlink="http://www.w3.org/1999/xlink" width="15px" height="15px" xmlns="http://www.w3.org/2000/svg">
  <defs>
    <pattern id="BGPattern" patternUnits="userSpaceOnUse" alignment="0 0" imageRepeat="None" />
    <mask fill="white" id="Clip11">
      <path d="M 10.361328125 6.992187500000001  C 10.537109375 7.115885416666666  10.625 7.285156250000001  10.625 7.5  C 10.625 7.714843750000001  10.537109375 7.884114583333332  10.361328125 8.007812500000002  L 5.986328125 11.1328125  C 5.784505208333334 11.282552083333332  5.569661458333333 11.298828125  5.341796875 11.181640624999998  C 5.113932291666667 11.070963541666664  5 10.885416666666666  5 10.624999999999998  L 5 4.374999999999999  C 5 4.114583333333332  5.113932291666667 3.9290364583333326  5.341796875 3.8183593749999996  C 5.569661458333333 3.7011718749999996  5.784505208333334 3.7174479166666656  5.986328125 3.8671875  L 10.361328125 6.992187500000001  Z M 12.412109375 12.412109375  C 12.470703125 12.353515625  12.5 12.278645833333332  12.5 12.1875  L 12.5 2.8125  C 12.5 2.7213541666666656  12.470703125 2.6464843749999996  12.412109375 2.5878906249999996  C 12.353515625 2.5292968749999996  12.278645833333334 2.4999999999999996  12.1875 2.4999999999999996  L 2.8125 2.4999999999999996  C 2.721354166666667 2.4999999999999996  2.646484375 2.5292968749999996  2.587890625 2.5878906249999996  C 2.529296875 2.6464843749999996  2.5 2.7213541666666656  2.5 2.8125  L 2.5 12.1875  C 2.5 12.278645833333332  2.529296875 12.353515625  2.587890625 12.412109375  C 2.646484375 12.470703125  2.721354166666667 12.5  2.8125 12.5  L 12.1875 12.5  C 12.278645833333334 12.5  12.353515625 12.470703125  12.412109375 12.412109375  Z M 14.1748046875 0.8251953125000006  C 14.724934895833332 1.3753255208333321  15 2.0377604166666647  15 2.8125  L 15 12.1875  C 15 12.962239583333332  14.724934895833332 13.624674479166668  14.1748046875 14.1748046875  C 13.624674479166668 14.724934895833332  12.962239583333336 15  12.1875 15  L 2.8125 15  C 2.0377604166666665 15  1.3753255208333335 14.724934895833332  0.8251953125 14.1748046875  C 0.27506510416666663 13.624674479166668  0 12.962239583333332  0 12.1875  L 0 2.8125  C 0 2.0377604166666647  0.27506510416666663 1.3753255208333321  0.8251953125 0.8251953125000006  C 1.3753255208333335 0.27506510416666574  2.0377604166666665 0  2.8125 0  L 12.1875 0  C 12.962239583333336 0  13.624674479166668 0.27506510416666574  14.1748046875 0.8251953125000006  Z " fill-rule="evenodd" />
    </mask>
  </defs>
  <g transform="matrix(1 0 0 1 -31 -246 )">
    <path d="M 10.361328125 6.992187500000001  C 10.537109375 7.115885416666666  10.625 7.285156250000001  10.625 7.5  C 10.625 7.714843750000001  10.537109375 7.884114583333332  10.361328125 8.007812500000002  L 5.986328125 11.1328125  C 5.784505208333334 11.282552083333332  5.569661458333333 11.298828125  5.341796875 11.181640624999998  C 5.113932291666667 11.070963541666664  5 10.885416666666666  5 10.624999999999998  L 5 4.374999999999999  C 5 4.114583333333332  5.113932291666667 3.9290364583333326  5.341796875 3.8183593749999996  C 5.569661458333333 3.7011718749999996  5.784505208333334 3.7174479166666656  5.986328125 3.8671875  L 10.361328125 6.992187500000001  Z M 12.412109375 12.412109375  C 12.470703125 12.353515625  12.5 12.278645833333332  12.5 12.1875  L 12.5 2.8125  C 12.5 2.7213541666666656  12.470703125 2.6464843749999996  12.412109375 2.5878906249999996  C 12.353515625 2.5292968749999996  12.278645833333334 2.4999999999999996  12.1875 2.4999999999999996  L 2.8125 2.4999999999999996  C 2.721354166666667 2.4999999999999996  2.646484375 2.5292968749999996  2.587890625 2.5878906249999996  C 2.529296875 2.6464843749999996  2.5 2.7213541666666656  2.5 2.8125  L 2.5 12.1875  C 2.5 12.278645833333332  2.529296875 12.353515625  2.587890625 12.412109375  C 2.646484375 12.470703125  2.721354166666667 12.5  2.8125 12.5  L 12.1875 12.5  C 12.278645833333334 12.5  12.353515625 12.470703125  12.412109375 12.412109375  Z M 14.1748046875 0.8251953125000006  C 14.724934895833332 1.3753255208333321  15 2.0377604166666647  15 2.8125  L 15 12.1875  C 15 12.962239583333332  14.724934895833332 13.624674479166668  14.1748046875 14.1748046875  C 13.624674479166668 14.724934895833332  12.962239583333336 15  12.1875 15  L 2.8125 15  C 2.0377604166666665 15  1.3753255208333335 14.724934895833332  0.8251953125 14.1748046875  C 0.27506510416666663 13.624674479166668  0 12.962239583333332  0 12.1875  L 0 2.8125  C 0 2.0377604166666647  0.27506510416666663 1.3753255208333321  0.8251953125 0.8251953125000006  C 1.3753255208333335 0.27506510416666574  2.0377604166666665 0  2.8125 0  L 12.1875 0  C 12.962239583333336 0  13.624674479166668 0.27506510416666574  14.1748046875 0.8251953125000006  Z " fill-rule="nonzero" fill="rgba(0, 0, 0, 1)" stroke="none" transform="matrix(1 0 0 1 31 246 )" class="fill" />
    <path d="M 10.361328125 6.992187500000001  C 10.537109375 7.115885416666666  10.625 7.285156250000001  10.625 7.5  C 10.625 7.714843750000001  10.537109375 7.884114583333332  10.361328125 8.007812500000002  L 5.986328125 11.1328125  C 5.784505208333334 11.282552083333332  5.569661458333333 11.298828125  5.341796875 11.181640624999998  C 5.113932291666667 11.070963541666664  5 10.885416666666666  5 10.624999999999998  L 5 4.374999999999999  C 5 4.114583333333332  5.113932291666667 3.9290364583333326  5.341796875 3.8183593749999996  C 5.569661458333333 3.7011718749999996  5.784505208333334 3.7174479166666656  5.986328125 3.8671875  L 10.361328125 6.992187500000001  Z " stroke-width="0" stroke-dasharray="0" stroke="rgba(255, 255, 255, 0)" fill="none" transform="matrix(1 0 0 1 31 246 )" class="stroke" mask="url(#Clip11)" />
    <path d="M 12.412109375 12.412109375  C 12.470703125 12.353515625  12.5 12.278645833333332  12.5 12.1875  L 12.5 2.8125  C 12.5 2.7213541666666656  12.470703125 2.6464843749999996  12.412109375 2.5878906249999996  C 12.353515625 2.5292968749999996  12.278645833333334 2.4999999999999996  12.1875 2.4999999999999996  L 2.8125 2.4999999999999996  C 2.721354166666667 2.4999999999999996  2.646484375 2.5292968749999996  2.587890625 2.5878906249999996  C 2.529296875 2.6464843749999996  2.5 2.7213541666666656  2.5 2.8125  L 2.5 12.1875  C 2.5 12.278645833333332  2.529296875 12.353515625  2.587890625 12.412109375  C 2.646484375 12.470703125  2.721354166666667 12.5  2.8125 12.5  L 12.1875 12.5  C 12.278645833333334 12.5  12.353515625 12.470703125  12.412109375 12.412109375  Z " stroke-width="0" stroke-dasharray="0" stroke="rgba(255, 255, 255, 0)" fill="none" transform="matrix(1 0 0 1 31 246 )" class="stroke" mask="url(#Clip11)" />
    <path d="M 14.1748046875 0.8251953125000006  C 14.724934895833332 1.3753255208333321  15 2.0377604166666647  15 2.8125  L 15 12.1875  C 15 12.962239583333332  14.724934895833332 13.624674479166668  14.1748046875 14.1748046875  C 13.624674479166668 14.724934895833332  12.962239583333336 15  12.1875 15  L 2.8125 15  C 2.0377604166666665 15  1.3753255208333335 14.724934895833332  0.8251953125 14.1748046875  C 0.27506510416666663 13.624674479166668  0 12.962239583333332  0 12.1875  L 0 2.8125  C 0 2.0377604166666647  0.27506510416666663 1.3753255208333321  0.8251953125 0.8251953125000006  C 1.3753255208333335 0.27506510416666574  2.0377604166666665 0  2.8125 0  L 12.1875 0  C 12.962239583333336 0  13.624674479166668 0.27506510416666574  14.1748046875 0.8251953125000006  Z " stroke-width="0" stroke-dasharray="0" stroke="rgba(255, 255, 255, 0)" fill="none" transform="matrix(1 0 0 1 31 246 )" class="stroke" mask="url(#Clip11)" />
  </g>
</svg>