<?xml version="1.0" encoding="utf-8"?>
<svg version="1.1" xmlns:xlink="http://www.w3.org/1999/xlink" width="17px" height="15px" xmlns="http://www.w3.org/2000/svg">
  <defs>
    <pattern id="BGPattern" patternUnits="userSpaceOnUse" alignment="0 0" imageRepeat="None" />
    <mask fill="white" id="Clip18">
      <path d="M 8.854166666666668 8.681640625000002  L 13.089409722222223 6.9140625  L 13.222222222222223 10.000000000000002  C 13.241898148148149 10.449218749999998  13.040219907407408 10.865885416666664  12.6171875 11.25  C 12.194155092592593 11.634114583333332  11.61617476851852 11.9384765625  10.883246527777777 12.1630859375  C 10.150318287037036 12.3876953125  9.355902777777777 12.5  8.5 12.5  C 7.644097222222222 12.5  6.849681712962965 12.3876953125  6.116753472222222 12.1630859375  C 5.383825231481482 11.9384765625  4.805844907407408 11.634114583333332  4.3828125 11.25  C 3.9597800925925934 10.865885416666664  3.758101851851852 10.449218749999998  3.7777777777777777 10.000000000000002  L 3.9105902777777777 6.9140625  L 8.145833333333334 8.681640625000002  C 8.254050925925927 8.727213541666668  8.372106481481481 8.749999999999998  8.5 8.749999999999998  C 8.62789351851852 8.749999999999998  8.745949074074076 8.727213541666668  8.854166666666668 8.681640625000002  Z M 16.83767361111111 3.4472656250000004  C 16.945891203703706 3.499348958333332  17 3.6002604166666656  17 3.75  C 17 3.8997395833333326  16.945891203703706 4.000651041666664  16.83767361111111 4.052734374999999  L 8.573784722222223 7.490234375000001  C 8.554108796296298 7.496744791666666  8.52951388888889 7.5  8.5 7.5  C 8.47048611111111 7.5  8.445891203703704 7.496744791666666  8.426215277777777 7.490234375000001  L 3.615451388888889 5.478515625  C 3.4039351851851856 5.699869791666664  3.2293113425925934 6.062825520833332  3.091579861111111 6.567382812500001  C 2.95384837962963 7.071940104166666  2.870225694444444 7.652994791666665  2.840711805555556 8.310546874999998  C 3.150607638888889 8.544921874999998  3.305555555555556 8.899739583333332  3.305555555555556 9.375  C 3.305555555555556 9.824218750000002  3.162905092592593 10.172526041666664  2.877604166666667 10.419921874999998  L 3.305555555555556 14.6484375  C 3.315393518518519 14.739583333333332  3.2957175925925934 14.820963541666668  3.2465277777777777 14.892578125  C 3.202256944444444 14.964192708333334  3.143229166666667 15  3.069444444444444 15  L 1.652777777777778 15  C 1.5789930555555556 15  1.519965277777778 14.964192708333334  1.4756944444444444 14.892578125  C 1.4265046296296295 14.820963541666668  1.4068287037037037 14.739583333333332  1.4166666666666665 14.6484375  L 1.8446180555555556 10.419921874999998  C 1.5593171296296295 10.172526041666664  1.4166666666666665 9.824218750000002  1.4166666666666665 9.375  C 1.4166666666666665 8.899739583333332  1.5765335648148149 8.538411458333334  1.8962673611111112 8.291015625  C 1.9503761574074077 6.943359375  2.19140625 5.869140624999999  2.619357638888889 5.068359375  L 0.1623263888888889 4.052734374999999  C 0.054108796296296294 4.000651041666664  0 3.8997395833333326  0 3.75  C 0 3.6002604166666656  0.054108796296296294 3.499348958333332  0.1623263888888889 3.4472656250000004  L 8.426215277777777 0.009765624999999445  C 8.445891203703704 0.003255208333332593  8.47048611111111 0  8.5 0  C 8.52951388888889 0  8.554108796296298 0.003255208333332593  8.573784722222223 0.009765624999999445  L 16.83767361111111 3.4472656250000004  Z " fill-rule="evenodd" />
    </mask>
  </defs>
  <g transform="matrix(1 0 0 1 -1311 -222 )">
    <path d="M 8.854166666666668 8.681640625000002  L 13.089409722222223 6.9140625  L 13.222222222222223 10.000000000000002  C 13.241898148148149 10.449218749999998  13.040219907407408 10.865885416666664  12.6171875 11.25  C 12.194155092592593 11.634114583333332  11.61617476851852 11.9384765625  10.883246527777777 12.1630859375  C 10.150318287037036 12.3876953125  9.355902777777777 12.5  8.5 12.5  C 7.644097222222222 12.5  6.849681712962965 12.3876953125  6.116753472222222 12.1630859375  C 5.383825231481482 11.9384765625  4.805844907407408 11.634114583333332  4.3828125 11.25  C 3.9597800925925934 10.865885416666664  3.758101851851852 10.449218749999998  3.7777777777777777 10.000000000000002  L 3.9105902777777777 6.9140625  L 8.145833333333334 8.681640625000002  C 8.254050925925927 8.727213541666668  8.372106481481481 8.749999999999998  8.5 8.749999999999998  C 8.62789351851852 8.749999999999998  8.745949074074076 8.727213541666668  8.854166666666668 8.681640625000002  Z M 16.83767361111111 3.4472656250000004  C 16.945891203703706 3.499348958333332  17 3.6002604166666656  17 3.75  C 17 3.8997395833333326  16.945891203703706 4.000651041666664  16.83767361111111 4.052734374999999  L 8.573784722222223 7.490234375000001  C 8.554108796296298 7.496744791666666  8.52951388888889 7.5  8.5 7.5  C 8.47048611111111 7.5  8.445891203703704 7.496744791666666  8.426215277777777 7.490234375000001  L 3.615451388888889 5.478515625  C 3.4039351851851856 5.699869791666664  3.2293113425925934 6.062825520833332  3.091579861111111 6.567382812500001  C 2.95384837962963 7.071940104166666  2.870225694444444 7.652994791666665  2.840711805555556 8.310546874999998  C 3.150607638888889 8.544921874999998  3.305555555555556 8.899739583333332  3.305555555555556 9.375  C 3.305555555555556 9.824218750000002  3.162905092592593 10.172526041666664  2.877604166666667 10.419921874999998  L 3.305555555555556 14.6484375  C 3.315393518518519 14.739583333333332  3.2957175925925934 14.820963541666668  3.2465277777777777 14.892578125  C 3.202256944444444 14.964192708333334  3.143229166666667 15  3.069444444444444 15  L 1.652777777777778 15  C 1.5789930555555556 15  1.519965277777778 14.964192708333334  1.4756944444444444 14.892578125  C 1.4265046296296295 14.820963541666668  1.4068287037037037 14.739583333333332  1.4166666666666665 14.6484375  L 1.8446180555555556 10.419921874999998  C 1.5593171296296295 10.172526041666664  1.4166666666666665 9.824218750000002  1.4166666666666665 9.375  C 1.4166666666666665 8.899739583333332  1.5765335648148149 8.538411458333334  1.8962673611111112 8.291015625  C 1.9503761574074077 6.943359375  2.19140625 5.869140624999999  2.619357638888889 5.068359375  L 0.1623263888888889 4.052734374999999  C 0.054108796296296294 4.000651041666664  0 3.8997395833333326  0 3.75  C 0 3.6002604166666656  0.054108796296296294 3.499348958333332  0.1623263888888889 3.4472656250000004  L 8.426215277777777 0.009765624999999445  C 8.445891203703704 0.003255208333332593  8.47048611111111 0  8.5 0  C 8.52951388888889 0  8.554108796296298 0.003255208333332593  8.573784722222223 0.009765624999999445  L 16.83767361111111 3.4472656250000004  Z " fill-rule="nonzero" fill="rgba(0, 0, 0, 1)" stroke="none" transform="matrix(1 0 0 1 1311 222 )" class="fill" />
    <path d="M 8.854166666666668 8.681640625000002  L 13.089409722222223 6.9140625  L 13.222222222222223 10.000000000000002  C 13.241898148148149 10.449218749999998  13.040219907407408 10.865885416666664  12.6171875 11.25  C 12.194155092592593 11.634114583333332  11.61617476851852 11.9384765625  10.883246527777777 12.1630859375  C 10.150318287037036 12.3876953125  9.355902777777777 12.5  8.5 12.5  C 7.644097222222222 12.5  6.849681712962965 12.3876953125  6.116753472222222 12.1630859375  C 5.383825231481482 11.9384765625  4.805844907407408 11.634114583333332  4.3828125 11.25  C 3.9597800925925934 10.865885416666664  3.758101851851852 10.449218749999998  3.7777777777777777 10.000000000000002  L 3.9105902777777777 6.9140625  L 8.145833333333334 8.681640625000002  C 8.254050925925927 8.727213541666668  8.372106481481481 8.749999999999998  8.5 8.749999999999998  C 8.62789351851852 8.749999999999998  8.745949074074076 8.727213541666668  8.854166666666668 8.681640625000002  Z " stroke-width="0" stroke-dasharray="0" stroke="rgba(255, 255, 255, 0)" fill="none" transform="matrix(1 0 0 1 1311 222 )" class="stroke" mask="url(#Clip18)" />
    <path d="M 16.83767361111111 3.4472656250000004  C 16.945891203703706 3.499348958333332  17 3.6002604166666656  17 3.75  C 17 3.8997395833333326  16.945891203703706 4.000651041666664  16.83767361111111 4.052734374999999  L 8.573784722222223 7.490234375000001  C 8.554108796296298 7.496744791666666  8.52951388888889 7.5  8.5 7.5  C 8.47048611111111 7.5  8.445891203703704 7.496744791666666  8.426215277777777 7.490234375000001  L 3.615451388888889 5.478515625  C 3.4039351851851856 5.699869791666664  3.2293113425925934 6.062825520833332  3.091579861111111 6.567382812500001  C 2.95384837962963 7.071940104166666  2.870225694444444 7.652994791666665  2.840711805555556 8.310546874999998  C 3.150607638888889 8.544921874999998  3.305555555555556 8.899739583333332  3.305555555555556 9.375  C 3.305555555555556 9.824218750000002  3.162905092592593 10.172526041666664  2.877604166666667 10.419921874999998  L 3.305555555555556 14.6484375  C 3.315393518518519 14.739583333333332  3.2957175925925934 14.820963541666668  3.2465277777777777 14.892578125  C 3.202256944444444 14.964192708333334  3.143229166666667 15  3.069444444444444 15  L 1.652777777777778 15  C 1.5789930555555556 15  1.519965277777778 14.964192708333334  1.4756944444444444 14.892578125  C 1.4265046296296295 14.820963541666668  1.4068287037037037 14.739583333333332  1.4166666666666665 14.6484375  L 1.8446180555555556 10.419921874999998  C 1.5593171296296295 10.172526041666664  1.4166666666666665 9.824218750000002  1.4166666666666665 9.375  C 1.4166666666666665 8.899739583333332  1.5765335648148149 8.538411458333334  1.8962673611111112 8.291015625  C 1.9503761574074077 6.943359375  2.19140625 5.869140624999999  2.619357638888889 5.068359375  L 0.1623263888888889 4.052734374999999  C 0.054108796296296294 4.000651041666664  0 3.8997395833333326  0 3.75  C 0 3.6002604166666656  0.054108796296296294 3.499348958333332  0.1623263888888889 3.4472656250000004  L 8.426215277777777 0.009765624999999445  C 8.445891203703704 0.003255208333332593  8.47048611111111 0  8.5 0  C 8.52951388888889 0  8.554108796296298 0.003255208333332593  8.573784722222223 0.009765624999999445  L 16.83767361111111 3.4472656250000004  Z " stroke-width="0" stroke-dasharray="0" stroke="rgba(255, 255, 255, 0)" fill="none" transform="matrix(1 0 0 1 1311 222 )" class="stroke" mask="url(#Clip18)" />
  </g>
</svg>