<?xml version="1.0" encoding="utf-8"?>
<svg version="1.1" xmlns:xlink="http://www.w3.org/1999/xlink" width="25px" height="17px" xmlns="http://www.w3.org/2000/svg">
  <defs>
    <pattern id="BGPattern" patternUnits="userSpaceOnUse" alignment="0 0" imageRepeat="None" />
    <mask fill="white" id="Clip19">
      <path d="M 13.020833333333334 9.839192708333334  L 19.249131944444446 7.8359375  L 19.444444444444446 11.333333333333334  C 19.47337962962963 11.842447916666666  19.17679398148148 12.314670138888886  18.5546875 12.75  C 17.93258101851852 13.18532986111111  17.082609953703706 13.5302734375  16.004774305555554 13.784830729166668  C 14.926938657407407 14.039388020833332  13.758680555555555 14.166666666666668  12.5 14.166666666666668  C 11.241319444444445 14.166666666666668  10.073061342592595 14.039388020833332  8.995225694444445 13.784830729166668  C 7.917390046296297 13.5302734375  7.067418981481483 13.18532986111111  6.4453125 12.75  C 5.82320601851852 12.314670138888886  5.52662037037037 11.842447916666666  5.555555555555555 11.333333333333334  L 5.750868055555555 7.8359375  L 11.979166666666668 9.839192708333334  C 12.138310185185187 9.89084201388889  12.311921296296296 9.916666666666666  12.5 9.916666666666666  C 12.688078703703706 9.916666666666666  12.861689814814817 9.89084201388889  13.020833333333334 9.839192708333334  Z M 24.76128472222222 3.9069010416666674  C 24.920428240740744 3.965928819444443  25 4.0802951388888875  25 4.25  C 25 4.419704861111111  24.920428240740744 4.534071180555554  24.76128472222222 4.593098958333333  L 12.608506944444445 8.488932291666668  C 12.579571759259261 8.496310763888888  12.543402777777779 8.5  12.5 8.5  C 12.456597222222223 8.5  12.42042824074074 8.496310763888888  12.391493055555555 8.488932291666668  L 5.316840277777778 6.208984375  C 5.005787037037038 6.459852430555554  4.74898726851852 6.871202256944443  4.546440972222222 7.443033854166667  C 4.3438946759259265 8.014865451388888  4.220920138888888 8.673394097222221  4.177517361111112 9.418619791666666  C 4.633246527777778 9.684244791666666  4.861111111111112 10.086371527777775  4.861111111111112 10.625  C 4.861111111111112 11.134114583333334  4.651331018518519 11.528862847222221  4.231770833333334 11.809244791666666  L 4.861111111111112 16.6015625  C 4.875578703703704 16.70486111111111  4.84664351851852 16.79709201388889  4.774305555555555 16.878255208333332  C 4.709201388888888 16.95941840277778  4.622395833333334 17  4.513888888888888 17  L 2.430555555555556 17  C 2.322048611111111 17  2.235243055555556 16.95941840277778  2.170138888888889 16.878255208333332  C 2.097800925925926 16.79709201388889  2.068865740740741 16.70486111111111  2.083333333333333 16.6015625  L 2.712673611111111 11.809244791666666  C 2.293113425925926 11.528862847222221  2.083333333333333 11.134114583333334  2.083333333333333 10.625  C 2.083333333333333 10.086371527777775  2.318431712962963 9.676866319444445  2.7886284722222223 9.396484375  C 2.868200231481482 7.869140625  3.22265625 6.651692708333333  3.8519965277777777 5.744140625  L 0.2387152777777778 4.593098958333333  C 0.07957175925925926 4.534071180555554  0 4.419704861111111  0 4.25  C 0 4.0802951388888875  0.07957175925925926 3.965928819444443  0.2387152777777778 3.9069010416666674  L 12.391493055555555 0.011067708333332704  C 12.42042824074074 0.0036892361111102723  12.456597222222223 0  12.5 0  C 12.543402777777779 0  12.579571759259261 0.0036892361111102723  12.608506944444445 0.011067708333332704  L 24.76128472222222 3.9069010416666674  Z " fill-rule="evenodd" />
    </mask>
  </defs>
  <g transform="matrix(1 0 0 1 -530 -232 )">
    <path d="M 13.020833333333334 9.839192708333334  L 19.249131944444446 7.8359375  L 19.444444444444446 11.333333333333334  C 19.47337962962963 11.842447916666666  19.17679398148148 12.314670138888886  18.5546875 12.75  C 17.93258101851852 13.18532986111111  17.082609953703706 13.5302734375  16.004774305555554 13.784830729166668  C 14.926938657407407 14.039388020833332  13.758680555555555 14.166666666666668  12.5 14.166666666666668  C 11.241319444444445 14.166666666666668  10.073061342592595 14.039388020833332  8.995225694444445 13.784830729166668  C 7.917390046296297 13.5302734375  7.067418981481483 13.18532986111111  6.4453125 12.75  C 5.82320601851852 12.314670138888886  5.52662037037037 11.842447916666666  5.555555555555555 11.333333333333334  L 5.750868055555555 7.8359375  L 11.979166666666668 9.839192708333334  C 12.138310185185187 9.89084201388889  12.311921296296296 9.916666666666666  12.5 9.916666666666666  C 12.688078703703706 9.916666666666666  12.861689814814817 9.89084201388889  13.020833333333334 9.839192708333334  Z M 24.76128472222222 3.9069010416666674  C 24.920428240740744 3.965928819444443  25 4.0802951388888875  25 4.25  C 25 4.419704861111111  24.920428240740744 4.534071180555554  24.76128472222222 4.593098958333333  L 12.608506944444445 8.488932291666668  C 12.579571759259261 8.496310763888888  12.543402777777779 8.5  12.5 8.5  C 12.456597222222223 8.5  12.42042824074074 8.496310763888888  12.391493055555555 8.488932291666668  L 5.316840277777778 6.208984375  C 5.005787037037038 6.459852430555554  4.74898726851852 6.871202256944443  4.546440972222222 7.443033854166667  C 4.3438946759259265 8.014865451388888  4.220920138888888 8.673394097222221  4.177517361111112 9.418619791666666  C 4.633246527777778 9.684244791666666  4.861111111111112 10.086371527777775  4.861111111111112 10.625  C 4.861111111111112 11.134114583333334  4.651331018518519 11.528862847222221  4.231770833333334 11.809244791666666  L 4.861111111111112 16.6015625  C 4.875578703703704 16.70486111111111  4.84664351851852 16.79709201388889  4.774305555555555 16.878255208333332  C 4.709201388888888 16.95941840277778  4.622395833333334 17  4.513888888888888 17  L 2.430555555555556 17  C 2.322048611111111 17  2.235243055555556 16.95941840277778  2.170138888888889 16.878255208333332  C 2.097800925925926 16.79709201388889  2.068865740740741 16.70486111111111  2.083333333333333 16.6015625  L 2.712673611111111 11.809244791666666  C 2.293113425925926 11.528862847222221  2.083333333333333 11.134114583333334  2.083333333333333 10.625  C 2.083333333333333 10.086371527777775  2.318431712962963 9.676866319444445  2.7886284722222223 9.396484375  C 2.868200231481482 7.869140625  3.22265625 6.651692708333333  3.8519965277777777 5.744140625  L 0.2387152777777778 4.593098958333333  C 0.07957175925925926 4.534071180555554  0 4.419704861111111  0 4.25  C 0 4.0802951388888875  0.07957175925925926 3.965928819444443  0.2387152777777778 3.9069010416666674  L 12.391493055555555 0.011067708333332704  C 12.42042824074074 0.0036892361111102723  12.456597222222223 0  12.5 0  C 12.543402777777779 0  12.579571759259261 0.0036892361111102723  12.608506944444445 0.011067708333332704  L 24.76128472222222 3.9069010416666674  Z " fill-rule="nonzero" fill="rgba(0, 0, 0, 1)" stroke="none" transform="matrix(1 0 0 1 530 232 )" class="fill" />
    <path d="M 13.020833333333334 9.839192708333334  L 19.249131944444446 7.8359375  L 19.444444444444446 11.333333333333334  C 19.47337962962963 11.842447916666666  19.17679398148148 12.314670138888886  18.5546875 12.75  C 17.93258101851852 13.18532986111111  17.082609953703706 13.5302734375  16.004774305555554 13.784830729166668  C 14.926938657407407 14.039388020833332  13.758680555555555 14.166666666666668  12.5 14.166666666666668  C 11.241319444444445 14.166666666666668  10.073061342592595 14.039388020833332  8.995225694444445 13.784830729166668  C 7.917390046296297 13.5302734375  7.067418981481483 13.18532986111111  6.4453125 12.75  C 5.82320601851852 12.314670138888886  5.52662037037037 11.842447916666666  5.555555555555555 11.333333333333334  L 5.750868055555555 7.8359375  L 11.979166666666668 9.839192708333334  C 12.138310185185187 9.89084201388889  12.311921296296296 9.916666666666666  12.5 9.916666666666666  C 12.688078703703706 9.916666666666666  12.861689814814817 9.89084201388889  13.020833333333334 9.839192708333334  Z " stroke-width="0" stroke-dasharray="0" stroke="rgba(255, 255, 255, 0)" fill="none" transform="matrix(1 0 0 1 530 232 )" class="stroke" mask="url(#Clip19)" />
    <path d="M 24.76128472222222 3.9069010416666674  C 24.920428240740744 3.965928819444443  25 4.0802951388888875  25 4.25  C 25 4.419704861111111  24.920428240740744 4.534071180555554  24.76128472222222 4.593098958333333  L 12.608506944444445 8.488932291666668  C 12.579571759259261 8.496310763888888  12.543402777777779 8.5  12.5 8.5  C 12.456597222222223 8.5  12.42042824074074 8.496310763888888  12.391493055555555 8.488932291666668  L 5.316840277777778 6.208984375  C 5.005787037037038 6.459852430555554  4.74898726851852 6.871202256944443  4.546440972222222 7.443033854166667  C 4.3438946759259265 8.014865451388888  4.220920138888888 8.673394097222221  4.177517361111112 9.418619791666666  C 4.633246527777778 9.684244791666666  4.861111111111112 10.086371527777775  4.861111111111112 10.625  C 4.861111111111112 11.134114583333334  4.651331018518519 11.528862847222221  4.231770833333334 11.809244791666666  L 4.861111111111112 16.6015625  C 4.875578703703704 16.70486111111111  4.84664351851852 16.79709201388889  4.774305555555555 16.878255208333332  C 4.709201388888888 16.95941840277778  4.622395833333334 17  4.513888888888888 17  L 2.430555555555556 17  C 2.322048611111111 17  2.235243055555556 16.95941840277778  2.170138888888889 16.878255208333332  C 2.097800925925926 16.79709201388889  2.068865740740741 16.70486111111111  2.083333333333333 16.6015625  L 2.712673611111111 11.809244791666666  C 2.293113425925926 11.528862847222221  2.083333333333333 11.134114583333334  2.083333333333333 10.625  C 2.083333333333333 10.086371527777775  2.318431712962963 9.676866319444445  2.7886284722222223 9.396484375  C 2.868200231481482 7.869140625  3.22265625 6.651692708333333  3.8519965277777777 5.744140625  L 0.2387152777777778 4.593098958333333  C 0.07957175925925926 4.534071180555554  0 4.419704861111111  0 4.25  C 0 4.0802951388888875  0.07957175925925926 3.965928819444443  0.2387152777777778 3.9069010416666674  L 12.391493055555555 0.011067708333332704  C 12.42042824074074 0.0036892361111102723  12.456597222222223 0  12.5 0  C 12.543402777777779 0  12.579571759259261 0.0036892361111102723  12.608506944444445 0.011067708333332704  L 24.76128472222222 3.9069010416666674  Z " stroke-width="0" stroke-dasharray="0" stroke="rgba(255, 255, 255, 0)" fill="none" transform="matrix(1 0 0 1 530 232 )" class="stroke" mask="url(#Clip19)" />
  </g>
</svg>