<?xml version="1.0" encoding="utf-8"?>
<svg version="1.1" xmlns:xlink="http://www.w3.org/1999/xlink" width="85px" height="85px" xmlns="http://www.w3.org/2000/svg">
  <defs>
    <pattern id="BGPattern" patternUnits="userSpaceOnUse" alignment="0 0" imageRepeat="None" />
    <mask fill="white" id="Clip4">
      <path d="M 0 42.5  C 0 18.7  18.7 0  42.5 0  C 66.3 0  85 18.7  85 42.5  C 85 66.3  66.3 85  42.5 85  C 18.7 85  0 66.3  0 42.5  Z " fill-rule="evenodd" />
    </mask>
  </defs>
  <g transform="matrix(1 0 0 1 -178 -472 )">
    <path d="M 0 42.5  C 0 18.7  18.7 0  42.5 0  C 66.3 0  85 18.7  85 42.5  C 85 66.3  66.3 85  42.5 85  C 18.7 85  0 66.3  0 42.5  Z " fill-rule="nonzero" fill="rgba(59, 56, 156, 1)" stroke="none" transform="matrix(1 0 0 1 178 472 )" class="fill" />
    <path d="M 0 42.5  C 0 18.7  18.7 0  42.5 0  C 66.3 0  85 18.7  85 42.5  C 85 66.3  66.3 85  42.5 85  C 18.7 85  0 66.3  0 42.5  Z " stroke-width="0" stroke-dasharray="0" stroke="rgba(121, 121, 121, 1)" fill="none" transform="matrix(1 0 0 1 178 472 )" class="stroke" mask="url(#Clip4)" />
  </g>
</svg>