<?xml version="1.0" encoding="utf-8"?>
<svg version="1.1" xmlns:xlink="http://www.w3.org/1999/xlink" width="145px" height="145px" xmlns="http://www.w3.org/2000/svg">
  <defs>
    <pattern id="BGPattern" patternUnits="userSpaceOnUse" alignment="0 0" imageRepeat="None" />
    <mask fill="white" id="Clip5">
      <path d="M 0 72.5  C 0 31.899999999999995  31.899999999999995 0  72.5 0  C 113.10000000000001 0  145 31.899999999999995  145 72.5  C 145 113.10000000000001  113.10000000000001 145  72.5 145  C 31.899999999999995 145  0 113.10000000000001  0 72.5  Z " fill-rule="evenodd" />
    </mask>
  </defs>
  <g transform="matrix(1 0 0 1 -1152 -565 )">
    <path d="M 0 72.5  C 0 31.899999999999995  31.899999999999995 0  72.5 0  C 113.10000000000001 0  145 31.899999999999995  145 72.5  C 145 113.10000000000001  113.10000000000001 145  72.5 145  C 31.899999999999995 145  0 113.10000000000001  0 72.5  Z " fill-rule="nonzero" fill="rgba(27, 78, 199, 1)" stroke="none" transform="matrix(1 0 0 1 1152 565 )" class="fill" />
    <path d="M 0 72.5  C 0 31.899999999999995  31.899999999999995 0  72.5 0  C 113.10000000000001 0  145 31.899999999999995  145 72.5  C 145 113.10000000000001  113.10000000000001 145  72.5 145  C 31.899999999999995 145  0 113.10000000000001  0 72.5  Z " stroke-width="0" stroke-dasharray="0" stroke="rgba(121, 121, 121, 1)" fill="none" transform="matrix(1 0 0 1 1152 565 )" class="stroke" mask="url(#Clip5)" />
  </g>
</svg>