<?xml version="1.0" encoding="utf-8"?>
<svg version="1.1" xmlns:xlink="http://www.w3.org/1999/xlink" width="30px" height="30px" xmlns="http://www.w3.org/2000/svg">
  <defs>
    <pattern id="BGPattern" patternUnits="userSpaceOnUse" alignment="0 0" imageRepeat="None" />
    <mask fill="white" id="Clip8">
      <path d="M 29.80263157894737 17  L 29.80263157894737 13  L 17 13  L 17 0.19736842105263158  L 13 0.19736842105263158  L 13 13  L 0.19736842105263158 13  L 0.19736842105263158 17  L 13 17  L 13 29.80263157894737  L 17 29.80263157894737  L 17 17  L 29.80263157894737 17  Z " fill-rule="evenodd" />
    </mask>
  </defs>
  <g transform="matrix(1 0 0 1 -369 -446 )">
    <path d="M 29.80263157894737 17  L 29.80263157894737 13  L 17 13  L 17 0.19736842105263158  L 13 0.19736842105263158  L 13 13  L 0.19736842105263158 13  L 0.19736842105263158 17  L 13 17  L 13 29.80263157894737  L 17 29.80263157894737  L 17 17  L 29.80263157894737 17  Z " fill-rule="nonzero" fill="rgba(27, 78, 199, 1)" stroke="none" transform="matrix(1 0 0 1 369 446 )" class="fill" />
    <path d="M 29.80263157894737 17  L 29.80263157894737 13  L 17 13  L 17 0.19736842105263158  L 13 0.19736842105263158  L 13 13  L 0.19736842105263158 13  L 0.19736842105263158 17  L 13 17  L 13 29.80263157894737  L 17 29.80263157894737  L 17 17  L 29.80263157894737 17  Z " stroke-width="0" stroke-dasharray="0" stroke="rgba(255, 255, 255, 0)" fill="none" transform="matrix(1 0 0 1 369 446 )" class="stroke" mask="url(#Clip8)" />
  </g>
</svg>