<?xml version="1.0" encoding="utf-8"?>
<svg version="1.1" xmlns:xlink="http://www.w3.org/1999/xlink" width="24px" height="22px" xmlns="http://www.w3.org/2000/svg">
  <defs>
    <pattern id="BGPattern" patternUnits="userSpaceOnUse" alignment="0 0" imageRepeat="None" />
    <mask fill="white" id="Clip113">
      <path d="M 12.75 5.041666666666666  L 12.75 3.4824166666666674  C 13.214101615137753 3.2367965736048045  13.5 2.7828719225867884  13.5 2.2916317364630636  C 13.5 1.532240205445723  12.82842712474619 0.9166317364630637  12 0.9166317364630637  C 11.17157287525381 0.9166317364630637  10.5 1.532240205445723  10.5 2.2916317364630636  C 10.5 2.7828719225867884  10.785898384862247 3.2367965736048045  11.25 3.4824166666666674  L 11.25 5.041666666666666  L 8.249999999999998 5.041666666666666  C 4.522077938642145 5.041666666666666  1.5 7.811904777088633  1.5 11.229166666666666  L 1.5 11.916666666666666  C 0.6715728752538098 11.916666666666666  0 12.532275135649325  0 13.291666666666666  L 0 16.041666666666664  C 0 16.801058197684007  0.6715728752538098 17.416666666666664  1.5 17.416666666666664  L 1.5 18.791666666666664  C 1.5 20.310449728701347  2.8431457505076194 21.541666666666664  4.5 21.541666666666664  L 19.5 21.541666666666664  C 21.15685424949238 21.541666666666664  22.5 20.310449728701347  22.5 18.791666666666664  L 22.5 17.416666666666664  C 23.32842712474619 17.416666666666664  24 16.801058197684007  24 16.041666666666664  L 24 13.291666666666666  C 24 12.532275135649325  23.32842712474619 11.916666666666666  22.5 11.916666666666666  L 22.499999999999996 11.229166666666666  C 22.499999999999996 7.811904777088629  19.47792206135785 5.041666666666666  15.75 5.041666666666666  L 12.75 5.041666666666666  Z M 15.75 6.416666666666667  C 18.649494936611664 6.416666666666667  21 8.571296308105973  21 11.229166666666666  L 21 18.791666666666664  C 21 19.551058197684007  20.32842712474619 20.166666666666664  19.5 20  L 4.5 20  C 3.67157287525381 20.166666666666664  3 19.551058197684007  3 18.791666666666664  L 3 11.229166666666666  C 3 8.571296308105973  5.350505063388335 6.416666666666667  8.25 6.416666666666667  L 15.75 6.416666666666667  Z " fill-rule="evenodd" />
    </mask>
  </defs>
  <g transform="matrix(1 0 0 1 -21 -287 )">
    <path d="M 12.75 5.041666666666666  L 12.75 3.4824166666666674  C 13.214101615137753 3.2367965736048045  13.5 2.7828719225867884  13.5 2.2916317364630636  C 13.5 1.532240205445723  12.82842712474619 0.9166317364630637  12 0.9166317364630637  C 11.17157287525381 0.9166317364630637  10.5 1.532240205445723  10.5 2.2916317364630636  C 10.5 2.7828719225867884  10.785898384862247 3.2367965736048045  11.25 3.4824166666666674  L 11.25 5.041666666666666  L 8.249999999999998 5.041666666666666  C 4.522077938642145 5.041666666666666  1.5 7.811904777088633  1.5 11.229166666666666  L 1.5 11.916666666666666  C 0.6715728752538098 11.916666666666666  0 12.532275135649325  0 13.291666666666666  L 0 16.041666666666664  C 0 16.801058197684007  0.6715728752538098 17.416666666666664  1.5 17.416666666666664  L 1.5 18.791666666666664  C 1.5 20.310449728701347  2.8431457505076194 21.541666666666664  4.5 21.541666666666664  L 19.5 21.541666666666664  C 21.15685424949238 21.541666666666664  22.5 20.310449728701347  22.5 18.791666666666664  L 22.5 17.416666666666664  C 23.32842712474619 17.416666666666664  24 16.801058197684007  24 16.041666666666664  L 24 13.291666666666666  C 24 12.532275135649325  23.32842712474619 11.916666666666666  22.5 11.916666666666666  L 22.499999999999996 11.229166666666666  C 22.499999999999996 7.811904777088629  19.47792206135785 5.041666666666666  15.75 5.041666666666666  L 12.75 5.041666666666666  Z M 15.75 6.416666666666667  C 18.649494936611664 6.416666666666667  21 8.571296308105973  21 11.229166666666666  L 21 18.791666666666664  C 21 19.551058197684007  20.32842712474619 20.166666666666664  19.5 20  L 4.5 20  C 3.67157287525381 20.166666666666664  3 19.551058197684007  3 18.791666666666664  L 3 11.229166666666666  C 3 8.571296308105973  5.350505063388335 6.416666666666667  8.25 6.416666666666667  L 15.75 6.416666666666667  Z " fill-rule="nonzero" fill="rgba(0, 0, 0, 1)" stroke="none" transform="matrix(1 0 0 1 21 287 )" class="fill" />
    <path d="M 12.75 5.041666666666666  L 12.75 3.4824166666666674  C 13.214101615137753 3.2367965736048045  13.5 2.7828719225867884  13.5 2.2916317364630636  C 13.5 1.532240205445723  12.82842712474619 0.9166317364630637  12 0.9166317364630637  C 11.17157287525381 0.9166317364630637  10.5 1.532240205445723  10.5 2.2916317364630636  C 10.5 2.7828719225867884  10.785898384862247 3.2367965736048045  11.25 3.4824166666666674  L 11.25 5.041666666666666  L 8.249999999999998 5.041666666666666  C 4.522077938642145 5.041666666666666  1.5 7.811904777088633  1.5 11.229166666666666  L 1.5 11.916666666666666  C 0.6715728752538098 11.916666666666666  0 12.532275135649325  0 13.291666666666666  L 0 16.041666666666664  C 0 16.801058197684007  0.6715728752538098 17.416666666666664  1.5 17.416666666666664  L 1.5 18.791666666666664  C 1.5 20.310449728701347  2.8431457505076194 21.541666666666664  4.5 21.541666666666664  L 19.5 21.541666666666664  C 21.15685424949238 21.541666666666664  22.5 20.310449728701347  22.5 18.791666666666664  L 22.5 17.416666666666664  C 23.32842712474619 17.416666666666664  24 16.801058197684007  24 16.041666666666664  L 24 13.291666666666666  C 24 12.532275135649325  23.32842712474619 11.916666666666666  22.5 11.916666666666666  L 22.499999999999996 11.229166666666666  C 22.499999999999996 7.811904777088629  19.47792206135785 5.041666666666666  15.75 5.041666666666666  L 12.75 5.041666666666666  Z " stroke-width="0" stroke-dasharray="0" stroke="rgba(255, 255, 255, 0)" fill="none" transform="matrix(1 0 0 1 21 287 )" class="stroke" mask="url(#Clip113)" />
    <path d="M 15.75 6.416666666666667  C 18.649494936611664 6.416666666666667  21 8.571296308105973  21 11.229166666666666  L 21 18.791666666666664  C 21 19.551058197684007  20.32842712474619 20.166666666666664  19.5 20  L 4.5 20  C 3.67157287525381 20.166666666666664  3 19.551058197684007  3 18.791666666666664  L 3 11.229166666666666  C 3 8.571296308105973  5.350505063388335 6.416666666666667  8.25 6.416666666666667  L 15.75 6.416666666666667  Z " stroke-width="0" stroke-dasharray="0" stroke="rgba(255, 255, 255, 0)" fill="none" transform="matrix(1 0 0 1 21 287 )" class="stroke" mask="url(#Clip113)" />
  </g>
</svg>