<?xml version="1.0" encoding="utf-8"?>
<svg version="1.1" xmlns:xlink="http://www.w3.org/1999/xlink" width="19px" height="19px" xmlns="http://www.w3.org/2000/svg">
  <defs>
    <pattern id="BGPattern" patternUnits="userSpaceOnUse" alignment="0 0" imageRepeat="None" />
    <mask fill="white" id="Clip121">
      <path d="M 16.157059832317074 16.157059832317074  C 19.836318597560975 12.482326600609758  19.83179306402439 6.517673399390244  16.157059832317074 2.8429401676829267  C 12.482326600609758 -0.8317930640243901  6.522198932926829 -0.8317930640243901  2.8429401676829285 2.8429401676829267  C -0.8363185975609733 6.517673399390246  -0.8317930640243888 12.477801067073171  2.8429401676829285 16.157059832317074  C 6.517673399390246 19.83179306402439  12.477801067073173 19.83179306402439  16.157059832317074 16.157059832317074  Z M 15.600419207317072 3.399580792682926  C 18.967416158536587 6.762052210365853  18.967416158536587 12.237947789634145  15.600419207317072 15.600419207317072  C 12.237947789634145 18.962890625  6.762052210365853 18.962890625  3.399580792682926 15.600419207317072  C 0.03710937499999959 12.237947789634145  0.03710937499999959 6.762052210365853  3.399580792682926 3.399580792682926  C 6.762052210365853 0.037109374999999174  12.237947789634145 0.03710937499999959  15.600419207317072 3.399580792682926  Z " fill-rule="evenodd" />
    </mask>
  </defs>
  <g transform="matrix(1 0 0 1 -2979 -1137 )">
    <path d="M 16.157059832317074 16.157059832317074  C 19.836318597560975 12.482326600609758  19.83179306402439 6.517673399390244  16.157059832317074 2.8429401676829267  C 12.482326600609758 -0.8317930640243901  6.522198932926829 -0.8317930640243901  2.8429401676829285 2.8429401676829267  C -0.8363185975609733 6.517673399390246  -0.8317930640243888 12.477801067073171  2.8429401676829285 16.157059832317074  C 6.517673399390246 19.83179306402439  12.477801067073173 19.83179306402439  16.157059832317074 16.157059832317074  Z M 15.600419207317072 3.399580792682926  C 18.967416158536587 6.762052210365853  18.967416158536587 12.237947789634145  15.600419207317072 15.600419207317072  C 12.237947789634145 18.962890625  6.762052210365853 18.962890625  3.399580792682926 15.600419207317072  C 0.03710937499999959 12.237947789634145  0.03710937499999959 6.762052210365853  3.399580792682926 3.399580792682926  C 6.762052210365853 0.037109374999999174  12.237947789634145 0.03710937499999959  15.600419207317072 3.399580792682926  Z " fill-rule="nonzero" fill="rgba(1, 1, 1, 1)" stroke="none" transform="matrix(1 0 0 1 2979 1137 )" class="fill" />
    <path d="M 16.157059832317074 16.157059832317074  C 19.836318597560975 12.482326600609758  19.83179306402439 6.517673399390244  16.157059832317074 2.8429401676829267  C 12.482326600609758 -0.8317930640243901  6.522198932926829 -0.8317930640243901  2.8429401676829285 2.8429401676829267  C -0.8363185975609733 6.517673399390246  -0.8317930640243888 12.477801067073171  2.8429401676829285 16.157059832317074  C 6.517673399390246 19.83179306402439  12.477801067073173 19.83179306402439  16.157059832317074 16.157059832317074  Z " stroke-width="0" stroke-dasharray="0" stroke="rgba(255, 255, 255, 0)" fill="none" transform="matrix(1 0 0 1 2979 1137 )" class="stroke" mask="url(#Clip121)" />
    <path d="M 15.600419207317072 3.399580792682926  C 18.967416158536587 6.762052210365853  18.967416158536587 12.237947789634145  15.600419207317072 15.600419207317072  C 12.237947789634145 18.962890625  6.762052210365853 18.962890625  3.399580792682926 15.600419207317072  C 0.03710937499999959 12.237947789634145  0.03710937499999959 6.762052210365853  3.399580792682926 3.399580792682926  C 6.762052210365853 0.037109374999999174  12.237947789634145 0.03710937499999959  15.600419207317072 3.399580792682926  Z " stroke-width="0" stroke-dasharray="0" stroke="rgba(255, 255, 255, 0)" fill="none" transform="matrix(1 0 0 1 2979 1137 )" class="stroke" mask="url(#Clip121)" />
  </g>
</svg>