<?xml version="1.0" encoding="utf-8"?>
<svg version="1.1" xmlns:xlink="http://www.w3.org/1999/xlink" width="9px" height="9px" xmlns="http://www.w3.org/2000/svg">
  <defs>
    <pattern id="BGPattern" patternUnits="userSpaceOnUse" alignment="0 0" imageRepeat="None" />
    <mask fill="white" id="Clip122">
      <path d="M 8.94078947368421 0.6050575657894737  L 8.394942434210526 0.05921052631578947  L 4.490748355263158 3.954152960526316  L 0.6050575657894737 0.07771381578947369  L 0.05921052631578947 0.6235608552631579  L 3.944901315789474 4.5  L 0.05921052631578947 8.376439144736842  L 0.6050575657894737 8.922286184210526  L 4.490748355263158 5.045847039473684  L 8.394942434210526 8.94078947368421  L 8.94078947368421 8.394942434210526  L 5.036595394736843 4.5  L 8.94078947368421 0.6050575657894737  Z " fill-rule="evenodd" />
    </mask>
  </defs>
  <g transform="matrix(1 0 0 1 -2984 -1142 )">
    <path d="M 8.94078947368421 0.6050575657894737  L 8.394942434210526 0.05921052631578947  L 4.490748355263158 3.954152960526316  L 0.6050575657894737 0.07771381578947369  L 0.05921052631578947 0.6235608552631579  L 3.944901315789474 4.5  L 0.05921052631578947 8.376439144736842  L 0.6050575657894737 8.922286184210526  L 4.490748355263158 5.045847039473684  L 8.394942434210526 8.94078947368421  L 8.94078947368421 8.394942434210526  L 5.036595394736843 4.5  L 8.94078947368421 0.6050575657894737  Z " fill-rule="nonzero" fill="rgba(1, 1, 1, 1)" stroke="none" transform="matrix(1 0 0 1 2984 1142 )" class="fill" />
    <path d="M 8.94078947368421 0.6050575657894737  L 8.394942434210526 0.05921052631578947  L 4.490748355263158 3.954152960526316  L 0.6050575657894737 0.07771381578947369  L 0.05921052631578947 0.6235608552631579  L 3.944901315789474 4.5  L 0.05921052631578947 8.376439144736842  L 0.6050575657894737 8.922286184210526  L 4.490748355263158 5.045847039473684  L 8.394942434210526 8.94078947368421  L 8.94078947368421 8.394942434210526  L 5.036595394736843 4.5  L 8.94078947368421 0.6050575657894737  Z " stroke-width="0" stroke-dasharray="0" stroke="rgba(255, 255, 255, 0)" fill="none" transform="matrix(1 0 0 1 2984 1142 )" class="stroke" mask="url(#Clip122)" />
  </g>
</svg>