<?xml version="1.0" encoding="utf-8"?>
<svg version="1.1" xmlns:xlink="http://www.w3.org/1999/xlink" width="25px" height="23px" xmlns="http://www.w3.org/2000/svg">
  <defs>
    <pattern id="BGPattern" patternUnits="userSpaceOnUse" alignment="0 0" imageRepeat="None" />
    <mask fill="white" id="Clip123">
      <path d="M 0 11.5  C 0 5.06  5.499999999999999 0  12.5 0  C 19.5 0  25 5.06  25 11.5  C 25 17.94  19.5 23  12.5 23  C 5.499999999999999 23  0 17.94  0 11.5  Z " fill-rule="evenodd" />
    </mask>
  </defs>
  <g transform="matrix(1 0 0 1 -1289 -310 )">
    <path d="M 0 11.5  C 0 5.06  5.499999999999999 0  12.5 0  C 19.5 0  25 5.06  25 11.5  C 25 17.94  19.5 23  12.5 23  C 5.499999999999999 23  0 17.94  0 11.5  Z " fill-rule="nonzero" fill="rgba(255, 255, 255, 1)" stroke="none" transform="matrix(1 0 0 1 1289 310 )" class="fill" />
    <path d="M 0 11.5  C 0 5.06  5.499999999999999 0  12.5 0  C 19.5 0  25 5.06  25 11.5  C 25 17.94  19.5 23  12.5 23  C 5.499999999999999 23  0 17.94  0 11.5  Z " stroke-width="2" stroke-dasharray="0" stroke="rgba(217, 0, 27, 1)" fill="none" transform="matrix(1 0 0 1 1289 310 )" class="stroke" mask="url(#Clip123)" />
  </g>
</svg>