<?xml version="1.0" encoding="utf-8"?>
<svg version="1.1" xmlns:xlink="http://www.w3.org/1999/xlink" width="20px" height="20px" xmlns="http://www.w3.org/2000/svg">
  <defs>
    <pattern id="BGPattern" patternUnits="userSpaceOnUse" alignment="0 0" imageRepeat="None" />
  </defs>
  <g transform="matrix(1 0 0 1 -332 -797 )">
    <path d="M 10 0  C 15.600000000000001 0  20 4.3999999999999995  20 10  C 20 15.600000000000001  15.600000000000001 20  10 20  C 4.3999999999999995 20  0 15.600000000000001  0 10  C 0 4.3999999999999995  4.3999999999999995 0  10 0  Z " fill-rule="nonzero" fill="rgba(255, 255, 255, 1)" stroke="none" transform="matrix(1 0 0 1 332 797 )" class="fill" />
    <path d="M 10 0.5  C 15.32 0.5  19.5 4.68  19.5 10  C 19.5 15.32  15.32 19.5  10 19.5  C 4.68 19.5  0.5 15.32  0.5 10  C 0.5 4.68  4.68 0.5  10 0.5  Z " stroke-width="1" stroke-dasharray="0" stroke="rgba(121, 121, 121, 1)" fill="none" transform="matrix(1 0 0 1 332 797 )" class="stroke" stroke-dashoffset="0.5" />
    <path d="M 10 15  C 7.199999999999999 15  5 12.8  5 10  C 5 7.199999999999999  7.199999999999999 5  10 5  C 12.8 5  15 7.199999999999999  15 10  C 15 12.8  12.8 15  10 15  " fill-rule="nonzero" fill="rgba(121, 121, 121, 1)" stroke="none" transform="matrix(1 0 0 1 332 797 )" class="stroke btn_check" />
  </g>
</svg>