<?xml version="1.0" encoding="utf-8"?>
<svg version="1.1" xmlns:xlink="http://www.w3.org/1999/xlink" width="23px" height="15px" xmlns="http://www.w3.org/2000/svg">
  <defs>
    <pattern id="BGPattern" patternUnits="userSpaceOnUse" alignment="0 0" imageRepeat="None" />
    <mask fill="white" id="Clip40">
      <path d="M 13.142857142857142 6.428571428571428  L 13.142857142857142 4.285714285714286  L 0 4.285714285714286  L 0 6.428571428571428  L 13.142857142857142 6.428571428571428  Z M 13.142857142857142 2.142857142857143  L 13.142857142857142 0  L 0 0  L 0 2.142857142857143  L 13.142857142857142 2.142857142857143  Z M 0 8.571428571428571  L 0 10.714285714285715  L 8.761904761904761 10.714285714285715  L 8.761904761904761 8.571428571428571  L 0 8.571428571428571  Z M 15.338809523809523 11.785714285714285  L 21.357142857142858 5.892857142857142  L 23 7.5  L 15.338809523809523 15  L 10.404761904761905 10.178571428571429  L 12.047619047619047 8.571428571428571  L 15.338809523809523 11.785714285714285  Z " fill-rule="evenodd" />
    </mask>
  </defs>
  <g transform="matrix(1 0 0 1 -326 -73 )">
    <path d="M 13.142857142857142 6.428571428571428  L 13.142857142857142 4.285714285714286  L 0 4.285714285714286  L 0 6.428571428571428  L 13.142857142857142 6.428571428571428  Z M 13.142857142857142 2.142857142857143  L 13.142857142857142 0  L 0 0  L 0 2.142857142857143  L 13.142857142857142 2.142857142857143  Z M 0 8.571428571428571  L 0 10.714285714285715  L 8.761904761904761 10.714285714285715  L 8.761904761904761 8.571428571428571  L 0 8.571428571428571  Z M 15.338809523809523 11.785714285714285  L 21.357142857142858 5.892857142857142  L 23 7.5  L 15.338809523809523 15  L 10.404761904761905 10.178571428571429  L 12.047619047619047 8.571428571428571  L 15.338809523809523 11.785714285714285  Z " fill-rule="nonzero" fill="rgba(0, 0, 0, 1)" stroke="none" transform="matrix(1 0 0 1 326 73 )" class="fill" />
    <path d="M 13.142857142857142 6.428571428571428  L 13.142857142857142 4.285714285714286  L 0 4.285714285714286  L 0 6.428571428571428  L 13.142857142857142 6.428571428571428  Z " stroke-width="0" stroke-dasharray="0" stroke="rgba(255, 255, 255, 0)" fill="none" transform="matrix(1 0 0 1 326 73 )" class="stroke" mask="url(#Clip40)" />
    <path d="M 13.142857142857142 2.142857142857143  L 13.142857142857142 0  L 0 0  L 0 2.142857142857143  L 13.142857142857142 2.142857142857143  Z " stroke-width="0" stroke-dasharray="0" stroke="rgba(255, 255, 255, 0)" fill="none" transform="matrix(1 0 0 1 326 73 )" class="stroke" mask="url(#Clip40)" />
    <path d="M 0 8.571428571428571  L 0 10.714285714285715  L 8.761904761904761 10.714285714285715  L 8.761904761904761 8.571428571428571  L 0 8.571428571428571  Z " stroke-width="0" stroke-dasharray="0" stroke="rgba(255, 255, 255, 0)" fill="none" transform="matrix(1 0 0 1 326 73 )" class="stroke" mask="url(#Clip40)" />
    <path d="M 15.338809523809523 11.785714285714285  L 21.357142857142858 5.892857142857142  L 23 7.5  L 15.338809523809523 15  L 10.404761904761905 10.178571428571429  L 12.047619047619047 8.571428571428571  L 15.338809523809523 11.785714285714285  Z " stroke-width="0" stroke-dasharray="0" stroke="rgba(255, 255, 255, 0)" fill="none" transform="matrix(1 0 0 1 326 73 )" class="stroke" mask="url(#Clip40)" />
  </g>
</svg>