<?xml version="1.0" encoding="utf-8"?>
<svg version="1.1" xmlns:xlink="http://www.w3.org/1999/xlink" width="25px" height="26px" xmlns="http://www.w3.org/2000/svg">
  <defs>
    <pattern id="BGPattern" patternUnits="userSpaceOnUse" alignment="0 0" imageRepeat="None" />
    <mask fill="white" id="Clip35">
      <path d="M 0 13  C 0 5.719999999999999  5.499999999999999 0  12.5 0  C 19.5 0  25 5.719999999999999  25 13  C 25 20.28  19.5 26  12.5 26  C 5.499999999999999 26  0 20.28  0 13  Z " fill-rule="evenodd" />
    </mask>
  </defs>
  <g transform="matrix(1 0 0 1 -49 -44 )">
    <path d="M 0 13  C 0 5.719999999999999  5.499999999999999 0  12.5 0  C 19.5 0  25 5.719999999999999  25 13  C 25 20.28  19.5 26  12.5 26  C 5.499999999999999 26  0 20.28  0 13  Z " fill-rule="nonzero" fill="rgba(0, 0, 255, 0.9921568627450981)" stroke="none" transform="matrix(1 0 0 1 49 44 )" class="fill" />
    <path d="M 0 13  C 0 5.719999999999999  5.499999999999999 0  12.5 0  C 19.5 0  25 5.719999999999999  25 13  C 25 20.28  19.5 26  12.5 26  C 5.499999999999999 26  0 20.28  0 13  Z " stroke-width="0" stroke-dasharray="0" stroke="rgba(0, 0, 255, 1)" fill="none" transform="matrix(1 0 0 1 49 44 )" class="stroke" mask="url(#Clip35)" />
  </g>
</svg>