<?xml version="1.0" encoding="utf-8"?>
<svg version="1.1" xmlns:xlink="http://www.w3.org/1999/xlink" width="95px" height="14px" xmlns="http://www.w3.org/2000/svg">
  <defs>
    <pattern id="BGPattern" patternUnits="userSpaceOnUse" alignment="0 0" imageRepeat="None" />
    <mask fill="white" id="Clip37">
      <path d="M 0 14  L 0 0  L 70.69767441860465 0  L 74.74264705882352 0  L 95 0  L 95 14  L 40.503875968992254 14  L 0 14  Z " fill-rule="evenodd" />
    </mask>
  </defs>
  <g transform="matrix(1 0 0 1 -25 -75 )">
    <path d="M 0 14  L 0 0  L 70.69767441860465 0  L 74.74264705882352 0  L 95 0  L 95 14  L 40.503875968992254 14  L 0 14  Z " fill-rule="nonzero" fill="rgba(255, 255, 255, 1)" stroke="none" transform="matrix(1 0 0 1 25 75 )" class="fill" />
    <path d="M 0 14  L 0 0  L 70.69767441860465 0  L 74.74264705882352 0  L 95 0  L 95 14  L 40.503875968992254 14  L 0 14  Z " stroke-width="0" stroke-dasharray="0" stroke="rgba(121, 121, 121, 1)" fill="none" transform="matrix(1 0 0 1 25 75 )" class="stroke" mask="url(#Clip37)" />
  </g>
</svg>