<?xml version="1.0" encoding="utf-8"?>
<svg version="1.1" xmlns:xlink="http://www.w3.org/1999/xlink" width="20px" height="16px" xmlns="http://www.w3.org/2000/svg">
  <defs>
    <pattern id="BGPattern" patternUnits="userSpaceOnUse" alignment="0 0" imageRepeat="None" />
    <mask fill="white" id="Clip74">
      <path d="M 15.613839285714286 9.427083333333332  C 15.680803571428573 9.489583333333332  15.714285714285714 9.569444444444443  15.714285714285714 9.666666666666668  L 15.714285714285714 13  C 15.714285714285714 13.826388888888888  15.399925595238098 14.532986111111112  14.771205357142858 15.119791666666666  C 14.14248511904762 15.706597222222221  13.385416666666668 16  12.5 16  L 3.2142857142857144 16  C 2.328869047619048 16  1.5718005952380953 15.706597222222221  0.9430803571428571 15.119791666666666  C 0.31436011904761907 14.532986111111112  0 13.826388888888888  0 13  L 0 4.333333333333334  C 0 3.506944444444443  0.31436011904761907 2.8003472222222214  0.9430803571428571 2.213541666666666  C 1.5718005952380953 1.626736111111109  2.328869047619048 1.333333333333334  3.2142857142857144 1.333333333333334  L 11.071428571428573 1.333333333333334  C 11.175595238095239 1.333333333333334  11.261160714285714 1.364583333333334  11.328125 1.427083333333334  C 11.395089285714286 1.489583333333334  11.428571428571427 1.5694444444444429  11.428571428571427 1.666666666666666  L 11.428571428571427 2.333333333333334  C 11.428571428571427 2.4305555555555554  11.395089285714286 2.510416666666666  11.328125 2.572916666666666  C 11.261160714285714 2.635416666666666  11.175595238095239 2.666666666666666  11.071428571428573 2.666666666666666  L 3.2142857142857144 2.666666666666666  C 2.723214285714286 2.666666666666666  2.3028273809523814 2.829861111111109  1.953125 3.15625  C 1.603422619047619 3.4826388888888875  1.4285714285714284 3.875  1.4285714285714284 4.333333333333334  L 1.4285714285714284 13  C 1.4285714285714284 13.458333333333334  1.603422619047619 13.850694444444443  1.953125 14.177083333333334  C 2.3028273809523814 14.503472222222221  2.723214285714286 14.666666666666666  3.2142857142857144 14.666666666666666  L 12.5 14.666666666666666  C 12.991071428571427 14.666666666666666  13.411458333333336 14.503472222222221  13.761160714285714 14.177083333333334  C 14.110863095238098 13.850694444444443  14.285714285714286 13.458333333333334  14.285714285714286 13  L 14.285714285714286 9.666666666666668  C 14.285714285714286 9.569444444444443  14.319196428571427 9.489583333333332  14.386160714285714 9.427083333333332  C 14.453125 9.364583333333332  14.538690476190476 9.333333333333332  14.642857142857142 9.333333333333332  L 15.357142857142858 9.333333333333332  C 15.461309523809526 9.333333333333332  15.546875 9.364583333333332  15.613839285714286 9.427083333333332  Z M 19.787946428571427 0.19791666666666607  C 19.929315476190478 0.32986111111110894  20 0.48611111111110894  20 0.6666666666666661  L 20 6  C 20 6.180555555555555  19.929315476190478 6.336805555555555  19.787946428571427 6.46875  C 19.646577380952383 6.600694444444445  19.479166666666668 6.666666666666666  19.285714285714285 6.666666666666666  C 19.092261904761905 6.666666666666666  18.92485119047619 6.600694444444445  18.783482142857142 6.46875  L 16.819196428571427 4.635416666666666  L 9.542410714285714 11.427083333333332  C 9.468005952380953 11.496527777777775  9.382440476190476 11.53125  9.285714285714286 11.53125  C 9.188988095238097 11.53125  9.10342261904762 11.496527777777775  9.029017857142858 11.427083333333332  L 7.756696428571429 10.239583333333332  C 7.682291666666668 10.17013888888889  7.6450892857142865 10.090277777777779  7.6450892857142865 10  C 7.6450892857142865 9.909722222222221  7.682291666666668 9.82986111111111  7.756696428571429 9.760416666666668  L 15.033482142857142 2.96875  L 13.069196428571427 1.135416666666666  C 12.927827380952383 1.0034722222222214  12.857142857142858 0.8472222222222214  12.857142857142858 0.6666666666666661  C 12.857142857142858 0.48611111111110894  12.927827380952383 0.32986111111110894  13.069196428571427 0.19791666666666607  C 13.210565476190476 0.06597222222222321  13.37797619047619 0  13.571428571428573 0  L 19.285714285714285 0  C 19.479166666666668 0  19.646577380952383 0.06597222222222321  19.787946428571427 0.19791666666666607  Z " fill-rule="evenodd" />
    </mask>
  </defs>
  <g transform="matrix(1 0 0 1 -244 -1030 )">
    <path d="M 15.613839285714286 9.427083333333332  C 15.680803571428573 9.489583333333332  15.714285714285714 9.569444444444443  15.714285714285714 9.666666666666668  L 15.714285714285714 13  C 15.714285714285714 13.826388888888888  15.399925595238098 14.532986111111112  14.771205357142858 15.119791666666666  C 14.14248511904762 15.706597222222221  13.385416666666668 16  12.5 16  L 3.2142857142857144 16  C 2.328869047619048 16  1.5718005952380953 15.706597222222221  0.9430803571428571 15.119791666666666  C 0.31436011904761907 14.532986111111112  0 13.826388888888888  0 13  L 0 4.333333333333334  C 0 3.506944444444443  0.31436011904761907 2.8003472222222214  0.9430803571428571 2.213541666666666  C 1.5718005952380953 1.626736111111109  2.328869047619048 1.333333333333334  3.2142857142857144 1.333333333333334  L 11.071428571428573 1.333333333333334  C 11.175595238095239 1.333333333333334  11.261160714285714 1.364583333333334  11.328125 1.427083333333334  C 11.395089285714286 1.489583333333334  11.428571428571427 1.5694444444444429  11.428571428571427 1.666666666666666  L 11.428571428571427 2.333333333333334  C 11.428571428571427 2.4305555555555554  11.395089285714286 2.510416666666666  11.328125 2.572916666666666  C 11.261160714285714 2.635416666666666  11.175595238095239 2.666666666666666  11.071428571428573 2.666666666666666  L 3.2142857142857144 2.666666666666666  C 2.723214285714286 2.666666666666666  2.3028273809523814 2.829861111111109  1.953125 3.15625  C 1.603422619047619 3.4826388888888875  1.4285714285714284 3.875  1.4285714285714284 4.333333333333334  L 1.4285714285714284 13  C 1.4285714285714284 13.458333333333334  1.603422619047619 13.850694444444443  1.953125 14.177083333333334  C 2.3028273809523814 14.503472222222221  2.723214285714286 14.666666666666666  3.2142857142857144 14.666666666666666  L 12.5 14.666666666666666  C 12.991071428571427 14.666666666666666  13.411458333333336 14.503472222222221  13.761160714285714 14.177083333333334  C 14.110863095238098 13.850694444444443  14.285714285714286 13.458333333333334  14.285714285714286 13  L 14.285714285714286 9.666666666666668  C 14.285714285714286 9.569444444444443  14.319196428571427 9.489583333333332  14.386160714285714 9.427083333333332  C 14.453125 9.364583333333332  14.538690476190476 9.333333333333332  14.642857142857142 9.333333333333332  L 15.357142857142858 9.333333333333332  C 15.461309523809526 9.333333333333332  15.546875 9.364583333333332  15.613839285714286 9.427083333333332  Z M 19.787946428571427 0.19791666666666607  C 19.929315476190478 0.32986111111110894  20 0.48611111111110894  20 0.6666666666666661  L 20 6  C 20 6.180555555555555  19.929315476190478 6.336805555555555  19.787946428571427 6.46875  C 19.646577380952383 6.600694444444445  19.479166666666668 6.666666666666666  19.285714285714285 6.666666666666666  C 19.092261904761905 6.666666666666666  18.92485119047619 6.600694444444445  18.783482142857142 6.46875  L 16.819196428571427 4.635416666666666  L 9.542410714285714 11.427083333333332  C 9.468005952380953 11.496527777777775  9.382440476190476 11.53125  9.285714285714286 11.53125  C 9.188988095238097 11.53125  9.10342261904762 11.496527777777775  9.029017857142858 11.427083333333332  L 7.756696428571429 10.239583333333332  C 7.682291666666668 10.17013888888889  7.6450892857142865 10.090277777777779  7.6450892857142865 10  C 7.6450892857142865 9.909722222222221  7.682291666666668 9.82986111111111  7.756696428571429 9.760416666666668  L 15.033482142857142 2.96875  L 13.069196428571427 1.135416666666666  C 12.927827380952383 1.0034722222222214  12.857142857142858 0.8472222222222214  12.857142857142858 0.6666666666666661  C 12.857142857142858 0.48611111111110894  12.927827380952383 0.32986111111110894  13.069196428571427 0.19791666666666607  C 13.210565476190476 0.06597222222222321  13.37797619047619 0  13.571428571428573 0  L 19.285714285714285 0  C 19.479166666666668 0  19.646577380952383 0.06597222222222321  19.787946428571427 0.19791666666666607  Z " fill-rule="nonzero" fill="rgba(38, 82, 232, 1)" stroke="none" transform="matrix(1 0 0 1 244 1030 )" class="fill" />
    <path d="M 15.613839285714286 9.427083333333332  C 15.680803571428573 9.489583333333332  15.714285714285714 9.569444444444443  15.714285714285714 9.666666666666668  L 15.714285714285714 13  C 15.714285714285714 13.826388888888888  15.399925595238098 14.532986111111112  14.771205357142858 15.119791666666666  C 14.14248511904762 15.706597222222221  13.385416666666668 16  12.5 16  L 3.2142857142857144 16  C 2.328869047619048 16  1.5718005952380953 15.706597222222221  0.9430803571428571 15.119791666666666  C 0.31436011904761907 14.532986111111112  0 13.826388888888888  0 13  L 0 4.333333333333334  C 0 3.506944444444443  0.31436011904761907 2.8003472222222214  0.9430803571428571 2.213541666666666  C 1.5718005952380953 1.626736111111109  2.328869047619048 1.333333333333334  3.2142857142857144 1.333333333333334  L 11.071428571428573 1.333333333333334  C 11.175595238095239 1.333333333333334  11.261160714285714 1.364583333333334  11.328125 1.427083333333334  C 11.395089285714286 1.489583333333334  11.428571428571427 1.5694444444444429  11.428571428571427 1.666666666666666  L 11.428571428571427 2.333333333333334  C 11.428571428571427 2.4305555555555554  11.395089285714286 2.510416666666666  11.328125 2.572916666666666  C 11.261160714285714 2.635416666666666  11.175595238095239 2.666666666666666  11.071428571428573 2.666666666666666  L 3.2142857142857144 2.666666666666666  C 2.723214285714286 2.666666666666666  2.3028273809523814 2.829861111111109  1.953125 3.15625  C 1.603422619047619 3.4826388888888875  1.4285714285714284 3.875  1.4285714285714284 4.333333333333334  L 1.4285714285714284 13  C 1.4285714285714284 13.458333333333334  1.603422619047619 13.850694444444443  1.953125 14.177083333333334  C 2.3028273809523814 14.503472222222221  2.723214285714286 14.666666666666666  3.2142857142857144 14.666666666666666  L 12.5 14.666666666666666  C 12.991071428571427 14.666666666666666  13.411458333333336 14.503472222222221  13.761160714285714 14.177083333333334  C 14.110863095238098 13.850694444444443  14.285714285714286 13.458333333333334  14.285714285714286 13  L 14.285714285714286 9.666666666666668  C 14.285714285714286 9.569444444444443  14.319196428571427 9.489583333333332  14.386160714285714 9.427083333333332  C 14.453125 9.364583333333332  14.538690476190476 9.333333333333332  14.642857142857142 9.333333333333332  L 15.357142857142858 9.333333333333332  C 15.461309523809526 9.333333333333332  15.546875 9.364583333333332  15.613839285714286 9.427083333333332  Z " stroke-width="0" stroke-dasharray="0" stroke="rgba(255, 255, 255, 0)" fill="none" transform="matrix(1 0 0 1 244 1030 )" class="stroke" mask="url(#Clip74)" />
    <path d="M 19.787946428571427 0.19791666666666607  C 19.929315476190478 0.32986111111110894  20 0.48611111111110894  20 0.6666666666666661  L 20 6  C 20 6.180555555555555  19.929315476190478 6.336805555555555  19.787946428571427 6.46875  C 19.646577380952383 6.600694444444445  19.479166666666668 6.666666666666666  19.285714285714285 6.666666666666666  C 19.092261904761905 6.666666666666666  18.92485119047619 6.600694444444445  18.783482142857142 6.46875  L 16.819196428571427 4.635416666666666  L 9.542410714285714 11.427083333333332  C 9.468005952380953 11.496527777777775  9.382440476190476 11.53125  9.285714285714286 11.53125  C 9.188988095238097 11.53125  9.10342261904762 11.496527777777775  9.029017857142858 11.427083333333332  L 7.756696428571429 10.239583333333332  C 7.682291666666668 10.17013888888889  7.6450892857142865 10.090277777777779  7.6450892857142865 10  C 7.6450892857142865 9.909722222222221  7.682291666666668 9.82986111111111  7.756696428571429 9.760416666666668  L 15.033482142857142 2.96875  L 13.069196428571427 1.135416666666666  C 12.927827380952383 1.0034722222222214  12.857142857142858 0.8472222222222214  12.857142857142858 0.6666666666666661  C 12.857142857142858 0.48611111111110894  12.927827380952383 0.32986111111110894  13.069196428571427 0.19791666666666607  C 13.210565476190476 0.06597222222222321  13.37797619047619 0  13.571428571428573 0  L 19.285714285714285 0  C 19.479166666666668 0  19.646577380952383 0.06597222222222321  19.787946428571427 0.19791666666666607  Z " stroke-width="0" stroke-dasharray="0" stroke="rgba(255, 255, 255, 0)" fill="none" transform="matrix(1 0 0 1 244 1030 )" class="stroke" mask="url(#Clip74)" />
  </g>
</svg>