<?xml version="1.0" encoding="utf-8"?>
<svg version="1.1" xmlns:xlink="http://www.w3.org/1999/xlink" width="15px" height="13px" xmlns="http://www.w3.org/2000/svg">
  <defs>
    <pattern id="BGPattern" patternUnits="userSpaceOnUse" alignment="0 0" imageRepeat="None" />
    <mask fill="white" id="Clip20">
      <path d="M 14.23469387755102 2.598307291666666  C 14.462785114045621 2.682942708333334  14.63985594237695 2.804253472222221  14.765906362545017 2.962239583333334  C 15.006002400960384 3.283854166666666  15.060024009603842 3.647786458333334  14.92797118847539 4.054036458333334  L 12.451980792316927 11.722005208333334  C 12.33793517406963 12.083116319444445  12.108343337334935 12.386393229166666  11.763205282112846 12.6318359375  C 11.418067226890757 12.877278645833334  11.050420168067227 13  10.660264105642257 13  L 2.349939975990396 13  C 1.8877551020408163 13  1.442076830732293 12.849066840277779  1.012905162064826 12.547200520833334  C 0.583733493397359 12.24533420138889  0.2851140456182473 11.874348958333334  0.117046818727491 11.434244791666666  C -0.02701080432172869 11.056206597222221  -0.03301320528211285 10.697916666666666  0.09903961584633854 10.359375  C 0.09903961584633854 10.336805555555555  0.10804321728691477 10.260633680555555  0.12605042016806722 10.130859375  C 0.14405762304921968 10.001085069444443  0.156062424969988 9.89670138888889  0.16206482593037216 9.817708333333334  C 0.16806722689075632 9.772569444444445  0.15906362545018007 9.7119140625  0.13505402160864344 9.6357421875  C 0.11104441776710686 9.5595703125  0.10204081632653061 9.504557291666668  0.10804321728691477 9.470703125  C 0.12004801920768307 9.408637152777777  0.14405762304921968 9.34939236111111  0.18007202881152462 9.29296875  C 0.21608643457382953 9.236545138888888  0.26560624249699877 9.170247395833332  0.32863145258103243 9.094075520833332  C 0.39165666266506605 9.017903645833332  0.4411764705882353 8.951605902777777  0.4771908763505402 8.895182291666668  C 0.6152460984393758 8.680772569444443  0.7503001200480193 8.42263454861111  0.8823529411764706 8.120768229166668  C 1.014405762304922 7.818901909722222  1.1044417767106842 7.5607638888888875  1.1524609843937574 7.346354166666668  C 1.1704681872749099 7.289930555555555  1.171968787515006 7.2052951388888875  1.1569627851140456 7.092447916666668  C 1.1419567827130854 6.979600694444445  1.140456182472989 6.9006076388888875  1.1524609843937574 6.85546875  C 1.1704681872749099 6.793402777777778  1.2214885954381756 6.714409722222222  1.3055222088835534 6.618489583333332  C 1.3895558223289315 6.522569444444445  1.440576230492197 6.457682291666666  1.4585834333733494 6.423828125  C 1.5846338535414166 6.220703125  1.7106842737094838 5.961154513888888  1.836734693877551 5.645182291666666  C 1.962785114045618 5.329210069444444  2.0378151260504205 5.075303819444444  2.0618247298919568 4.883463541666666  C 2.067827130852341 4.832682291666666  2.060324129651861 4.742404513888888  2.0393157262905164 4.612630208333334  C 2.018307322929172 4.482855902777778  2.019807923169268 4.403862847222221  2.0438175270108045 4.375651041666666  C 2.067827130852341 4.302300347222221  2.133853541416567 4.216254340277776  2.2418967587034815 4.117513020833334  C 2.349939975990396 4.018771701388888  2.415966386554622 3.955295138888889  2.4399759903961584 3.927083333333334  C 2.5540216086434575 3.7803819444444438  2.681572629051621 3.5419921875  2.8226290516206483 3.2119140625  C 2.963685474189676 2.8818359375  3.0462184873949583 2.609592013888889  3.0702280912364945 2.395182291666666  C 3.076230492196879 2.350043402777776  3.0672268907563027 2.27810329861111  3.043217286914766 2.179361979166666  C 3.0192076830732297 2.080620659722221  3.0132052821128457 2.005859375  3.0252100840336134 1.955078125  C 3.037214885954382 1.9099392361111098  3.064225690276111 1.8591579861111098  3.1062424969987994 1.802734375  C 3.1482593037214888 1.7463107638888888  3.2022809123649463 1.6814236111111098  3.2683073229291715 1.608072916666666  C 3.3343337334933976 1.534722222222221  3.385354141656663 1.475477430555555  3.4213685474189677 1.430338541666666  C 3.4693877551020416 1.362630208333334  3.5189075630252105 1.2765842013888888  3.5699279711884753 1.172200520833334  C 3.620948379351741 1.067816840277776  3.665966386554622 0.9690755208333338  3.704981992797119 0.8759765625  C 3.743997599039616 0.7828776041666662  3.79201680672269 0.6813151041666662  3.8490396158463382 0.5712890625  C 3.9060624249699885 0.4612630208333338  3.9645858343337337 0.3709852430555549  4.024609843937575 0.3004557291666662  C 4.084633853541417 0.229926215277776  4.1641656662665065 0.1636284722222211  4.263205282112845 0.1015625  C 4.362244897959185 0.039496527777776014  4.470288115246099 0.0070529513888887285  4.587334933973589 0.004231770833333814  C 4.704381752701081 0.0014105902777760138  4.846938775510204 0.016927083333333814  5.01500600240096 0.05078125  L 5.0060024009603845 0.076171875  C 5.234093637454982 0.025390625  5.387154861944778 0  5.465186074429772 0  L 12.316926770708283 0  C 12.761104441776713 0  13.103241296518608 0.15798611111110983  13.343337334933974 0.4739583333333338  C 13.583433373349342 0.7899305555555549  13.637454981992798 1.156684027777776  13.505402160864346 1.57421875  L 11.038415366146458 9.2421875  C 10.822328931572628 9.913628472222221  10.607743097238897 10.3466796875  10.394657863145259 10.541341145833334  C 10.181572629051622 10.736002604166666  9.795918367346937 10.833333333333334  9.237695078031212 10.833333333333334  L 1.4135654261704682 10.833333333333334  C 1.2515006002400961 10.833333333333334  1.1374549819927973 10.875651041666666  1.0714285714285714 10.960286458333334  C 1.0054021608643458 11.05056423611111  1.0024009603841537 11.171875  1.062424969987995 11.32421875  C 1.2064825930372147 11.719184027777779  1.638655462184874 11.916666666666666  2.3589435774309724 11.916666666666666  L 10.669267707082833 11.916666666666666  C 10.843337334933974 11.916666666666666  11.01140456182473 11.872938368055555  11.173469387755103 11.785481770833334  C 11.335534213685474 11.69802517361111  11.440576230492198 11.580946180555555  11.48859543817527 11.434244791666666  L 14.18967587034814 3.080729166666666  C 14.23169267707083 2.956597222222221  14.24669867947179 2.795789930555555  14.23469387755102 2.598307291666666  Z M 5.375150060024009 2.4375  L 5.186074429771909 2.979166666666666  C 5.162064825930372 3.05251736111111  5.168067226890757 3.11599392361111  5.204081632653061 3.169596354166666  C 5.240096038415366 3.223198784722221  5.300120048019209 3.25  5.384153661464586 3.25  L 10.858343337334935 3.25  C 10.936374549819929 3.25  11.012905162064826 3.223198784722221  11.087935174069628 3.169596354166666  C 11.16296518607443 3.11599392361111  11.2124849939976 3.05251736111111  11.236494597839137 2.979166666666666  L 11.425570228091237 2.4375  C 11.449579831932773 2.364149305555555  11.44357743097239 2.300672743055555  11.407563025210084 2.2470703125  C 11.371548619447779 2.1934678819444438  11.31152460984394 2.166666666666666  11.22749099639856 2.166666666666666  L 5.7533013205282115 2.166666666666666  C 5.675270108043217 2.166666666666666  5.59873949579832 2.1934678819444438  5.5237094837935174 2.2470703125  C 5.448679471788716 2.300672743055555  5.399159663865547 2.364149305555555  5.375150060024009 2.4375  Z M 4.627851140456182 4.604166666666666  L 4.438775510204081 5.145833333333334  C 4.414765906362545 5.219184027777778  4.42076830732293 5.282660590277778  4.456782713085234 5.336263020833334  C 4.492797118847539 5.389865451388888  4.55282112845138 5.416666666666666  4.636854741896759 5.416666666666666  L 10.111044417767106 5.416666666666666  C 10.189075630252102 5.416666666666666  10.265606242497 5.389865451388888  10.3406362545018 5.336263020833334  C 10.415666266506605 5.282660590277778  10.465186074429772 5.219184027777778  10.489195678271308 5.145833333333334  L 10.678271308523408 4.604166666666666  C 10.702280912364946 4.530815972222221  10.69627851140456 4.467339409722221  10.660264105642257 4.413736979166666  C 10.624249699879952 4.360134548611112  10.564225690276112 4.333333333333334  10.480192076830733 4.333333333333334  L 5.0060024009603845 4.333333333333334  C 4.927971188475391 4.333333333333334  4.851440576230493 4.360134548611112  4.77641056422569 4.413736979166666  C 4.701380552220889 4.467339409722221  4.65186074429772 4.530815972222221  4.627851140456182 4.604166666666666  Z " fill-rule="evenodd" />
    </mask>
  </defs>
  <g transform="matrix(1 0 0 1 -26 -874 )">
    <path d="M 14.23469387755102 2.598307291666666  C 14.462785114045621 2.682942708333334  14.63985594237695 2.804253472222221  14.765906362545017 2.962239583333334  C 15.006002400960384 3.283854166666666  15.060024009603842 3.647786458333334  14.92797118847539 4.054036458333334  L 12.451980792316927 11.722005208333334  C 12.33793517406963 12.083116319444445  12.108343337334935 12.386393229166666  11.763205282112846 12.6318359375  C 11.418067226890757 12.877278645833334  11.050420168067227 13  10.660264105642257 13  L 2.349939975990396 13  C 1.8877551020408163 13  1.442076830732293 12.849066840277779  1.012905162064826 12.547200520833334  C 0.583733493397359 12.24533420138889  0.2851140456182473 11.874348958333334  0.117046818727491 11.434244791666666  C -0.02701080432172869 11.056206597222221  -0.03301320528211285 10.697916666666666  0.09903961584633854 10.359375  C 0.09903961584633854 10.336805555555555  0.10804321728691477 10.260633680555555  0.12605042016806722 10.130859375  C 0.14405762304921968 10.001085069444443  0.156062424969988 9.89670138888889  0.16206482593037216 9.817708333333334  C 0.16806722689075632 9.772569444444445  0.15906362545018007 9.7119140625  0.13505402160864344 9.6357421875  C 0.11104441776710686 9.5595703125  0.10204081632653061 9.504557291666668  0.10804321728691477 9.470703125  C 0.12004801920768307 9.408637152777777  0.14405762304921968 9.34939236111111  0.18007202881152462 9.29296875  C 0.21608643457382953 9.236545138888888  0.26560624249699877 9.170247395833332  0.32863145258103243 9.094075520833332  C 0.39165666266506605 9.017903645833332  0.4411764705882353 8.951605902777777  0.4771908763505402 8.895182291666668  C 0.6152460984393758 8.680772569444443  0.7503001200480193 8.42263454861111  0.8823529411764706 8.120768229166668  C 1.014405762304922 7.818901909722222  1.1044417767106842 7.5607638888888875  1.1524609843937574 7.346354166666668  C 1.1704681872749099 7.289930555555555  1.171968787515006 7.2052951388888875  1.1569627851140456 7.092447916666668  C 1.1419567827130854 6.979600694444445  1.140456182472989 6.9006076388888875  1.1524609843937574 6.85546875  C 1.1704681872749099 6.793402777777778  1.2214885954381756 6.714409722222222  1.3055222088835534 6.618489583333332  C 1.3895558223289315 6.522569444444445  1.440576230492197 6.457682291666666  1.4585834333733494 6.423828125  C 1.5846338535414166 6.220703125  1.7106842737094838 5.961154513888888  1.836734693877551 5.645182291666666  C 1.962785114045618 5.329210069444444  2.0378151260504205 5.075303819444444  2.0618247298919568 4.883463541666666  C 2.067827130852341 4.832682291666666  2.060324129651861 4.742404513888888  2.0393157262905164 4.612630208333334  C 2.018307322929172 4.482855902777778  2.019807923169268 4.403862847222221  2.0438175270108045 4.375651041666666  C 2.067827130852341 4.302300347222221  2.133853541416567 4.216254340277776  2.2418967587034815 4.117513020833334  C 2.349939975990396 4.018771701388888  2.415966386554622 3.955295138888889  2.4399759903961584 3.927083333333334  C 2.5540216086434575 3.7803819444444438  2.681572629051621 3.5419921875  2.8226290516206483 3.2119140625  C 2.963685474189676 2.8818359375  3.0462184873949583 2.609592013888889  3.0702280912364945 2.395182291666666  C 3.076230492196879 2.350043402777776  3.0672268907563027 2.27810329861111  3.043217286914766 2.179361979166666  C 3.0192076830732297 2.080620659722221  3.0132052821128457 2.005859375  3.0252100840336134 1.955078125  C 3.037214885954382 1.9099392361111098  3.064225690276111 1.8591579861111098  3.1062424969987994 1.802734375  C 3.1482593037214888 1.7463107638888888  3.2022809123649463 1.6814236111111098  3.2683073229291715 1.608072916666666  C 3.3343337334933976 1.534722222222221  3.385354141656663 1.475477430555555  3.4213685474189677 1.430338541666666  C 3.4693877551020416 1.362630208333334  3.5189075630252105 1.2765842013888888  3.5699279711884753 1.172200520833334  C 3.620948379351741 1.067816840277776  3.665966386554622 0.9690755208333338  3.704981992797119 0.8759765625  C 3.743997599039616 0.7828776041666662  3.79201680672269 0.6813151041666662  3.8490396158463382 0.5712890625  C 3.9060624249699885 0.4612630208333338  3.9645858343337337 0.3709852430555549  4.024609843937575 0.3004557291666662  C 4.084633853541417 0.229926215277776  4.1641656662665065 0.1636284722222211  4.263205282112845 0.1015625  C 4.362244897959185 0.039496527777776014  4.470288115246099 0.0070529513888887285  4.587334933973589 0.004231770833333814  C 4.704381752701081 0.0014105902777760138  4.846938775510204 0.016927083333333814  5.01500600240096 0.05078125  L 5.0060024009603845 0.076171875  C 5.234093637454982 0.025390625  5.387154861944778 0  5.465186074429772 0  L 12.316926770708283 0  C 12.761104441776713 0  13.103241296518608 0.15798611111110983  13.343337334933974 0.4739583333333338  C 13.583433373349342 0.7899305555555549  13.637454981992798 1.156684027777776  13.505402160864346 1.57421875  L 11.038415366146458 9.2421875  C 10.822328931572628 9.913628472222221  10.607743097238897 10.3466796875  10.394657863145259 10.541341145833334  C 10.181572629051622 10.736002604166666  9.795918367346937 10.833333333333334  9.237695078031212 10.833333333333334  L 1.4135654261704682 10.833333333333334  C 1.2515006002400961 10.833333333333334  1.1374549819927973 10.875651041666666  1.0714285714285714 10.960286458333334  C 1.0054021608643458 11.05056423611111  1.0024009603841537 11.171875  1.062424969987995 11.32421875  C 1.2064825930372147 11.719184027777779  1.638655462184874 11.916666666666666  2.3589435774309724 11.916666666666666  L 10.669267707082833 11.916666666666666  C 10.843337334933974 11.916666666666666  11.01140456182473 11.872938368055555  11.173469387755103 11.785481770833334  C 11.335534213685474 11.69802517361111  11.440576230492198 11.580946180555555  11.48859543817527 11.434244791666666  L 14.18967587034814 3.080729166666666  C 14.23169267707083 2.956597222222221  14.24669867947179 2.795789930555555  14.23469387755102 2.598307291666666  Z M 5.375150060024009 2.4375  L 5.186074429771909 2.979166666666666  C 5.162064825930372 3.05251736111111  5.168067226890757 3.11599392361111  5.204081632653061 3.169596354166666  C 5.240096038415366 3.223198784722221  5.300120048019209 3.25  5.384153661464586 3.25  L 10.858343337334935 3.25  C 10.936374549819929 3.25  11.012905162064826 3.223198784722221  11.087935174069628 3.169596354166666  C 11.16296518607443 3.11599392361111  11.2124849939976 3.05251736111111  11.236494597839137 2.979166666666666  L 11.425570228091237 2.4375  C 11.449579831932773 2.364149305555555  11.44357743097239 2.300672743055555  11.407563025210084 2.2470703125  C 11.371548619447779 2.1934678819444438  11.31152460984394 2.166666666666666  11.22749099639856 2.166666666666666  L 5.7533013205282115 2.166666666666666  C 5.675270108043217 2.166666666666666  5.59873949579832 2.1934678819444438  5.5237094837935174 2.2470703125  C 5.448679471788716 2.300672743055555  5.399159663865547 2.364149305555555  5.375150060024009 2.4375  Z M 4.627851140456182 4.604166666666666  L 4.438775510204081 5.145833333333334  C 4.414765906362545 5.219184027777778  4.42076830732293 5.282660590277778  4.456782713085234 5.336263020833334  C 4.492797118847539 5.389865451388888  4.55282112845138 5.416666666666666  4.636854741896759 5.416666666666666  L 10.111044417767106 5.416666666666666  C 10.189075630252102 5.416666666666666  10.265606242497 5.389865451388888  10.3406362545018 5.336263020833334  C 10.415666266506605 5.282660590277778  10.465186074429772 5.219184027777778  10.489195678271308 5.145833333333334  L 10.678271308523408 4.604166666666666  C 10.702280912364946 4.530815972222221  10.69627851140456 4.467339409722221  10.660264105642257 4.413736979166666  C 10.624249699879952 4.360134548611112  10.564225690276112 4.333333333333334  10.480192076830733 4.333333333333334  L 5.0060024009603845 4.333333333333334  C 4.927971188475391 4.333333333333334  4.851440576230493 4.360134548611112  4.77641056422569 4.413736979166666  C 4.701380552220889 4.467339409722221  4.65186074429772 4.530815972222221  4.627851140456182 4.604166666666666  Z " fill-rule="nonzero" fill="rgba(0, 0, 0, 1)" stroke="none" transform="matrix(1 0 0 1 26 874 )" class="fill" />
    <path d="M 14.23469387755102 2.598307291666666  C 14.462785114045621 2.682942708333334  14.63985594237695 2.804253472222221  14.765906362545017 2.962239583333334  C 15.006002400960384 3.283854166666666  15.060024009603842 3.647786458333334  14.92797118847539 4.054036458333334  L 12.451980792316927 11.722005208333334  C 12.33793517406963 12.083116319444445  12.108343337334935 12.386393229166666  11.763205282112846 12.6318359375  C 11.418067226890757 12.877278645833334  11.050420168067227 13  10.660264105642257 13  L 2.349939975990396 13  C 1.8877551020408163 13  1.442076830732293 12.849066840277779  1.012905162064826 12.547200520833334  C 0.583733493397359 12.24533420138889  0.2851140456182473 11.874348958333334  0.117046818727491 11.434244791666666  C -0.02701080432172869 11.056206597222221  -0.03301320528211285 10.697916666666666  0.09903961584633854 10.359375  C 0.09903961584633854 10.336805555555555  0.10804321728691477 10.260633680555555  0.12605042016806722 10.130859375  C 0.14405762304921968 10.001085069444443  0.156062424969988 9.89670138888889  0.16206482593037216 9.817708333333334  C 0.16806722689075632 9.772569444444445  0.15906362545018007 9.7119140625  0.13505402160864344 9.6357421875  C 0.11104441776710686 9.5595703125  0.10204081632653061 9.504557291666668  0.10804321728691477 9.470703125  C 0.12004801920768307 9.408637152777777  0.14405762304921968 9.34939236111111  0.18007202881152462 9.29296875  C 0.21608643457382953 9.236545138888888  0.26560624249699877 9.170247395833332  0.32863145258103243 9.094075520833332  C 0.39165666266506605 9.017903645833332  0.4411764705882353 8.951605902777777  0.4771908763505402 8.895182291666668  C 0.6152460984393758 8.680772569444443  0.7503001200480193 8.42263454861111  0.8823529411764706 8.120768229166668  C 1.014405762304922 7.818901909722222  1.1044417767106842 7.5607638888888875  1.1524609843937574 7.346354166666668  C 1.1704681872749099 7.289930555555555  1.171968787515006 7.2052951388888875  1.1569627851140456 7.092447916666668  C 1.1419567827130854 6.979600694444445  1.140456182472989 6.9006076388888875  1.1524609843937574 6.85546875  C 1.1704681872749099 6.793402777777778  1.2214885954381756 6.714409722222222  1.3055222088835534 6.618489583333332  C 1.3895558223289315 6.522569444444445  1.440576230492197 6.457682291666666  1.4585834333733494 6.423828125  C 1.5846338535414166 6.220703125  1.7106842737094838 5.961154513888888  1.836734693877551 5.645182291666666  C 1.962785114045618 5.329210069444444  2.0378151260504205 5.075303819444444  2.0618247298919568 4.883463541666666  C 2.067827130852341 4.832682291666666  2.060324129651861 4.742404513888888  2.0393157262905164 4.612630208333334  C 2.018307322929172 4.482855902777778  2.019807923169268 4.403862847222221  2.0438175270108045 4.375651041666666  C 2.067827130852341 4.302300347222221  2.133853541416567 4.216254340277776  2.2418967587034815 4.117513020833334  C 2.349939975990396 4.018771701388888  2.415966386554622 3.955295138888889  2.4399759903961584 3.927083333333334  C 2.5540216086434575 3.7803819444444438  2.681572629051621 3.5419921875  2.8226290516206483 3.2119140625  C 2.963685474189676 2.8818359375  3.0462184873949583 2.609592013888889  3.0702280912364945 2.395182291666666  C 3.076230492196879 2.350043402777776  3.0672268907563027 2.27810329861111  3.043217286914766 2.179361979166666  C 3.0192076830732297 2.080620659722221  3.0132052821128457 2.005859375  3.0252100840336134 1.955078125  C 3.037214885954382 1.9099392361111098  3.064225690276111 1.8591579861111098  3.1062424969987994 1.802734375  C 3.1482593037214888 1.7463107638888888  3.2022809123649463 1.6814236111111098  3.2683073229291715 1.608072916666666  C 3.3343337334933976 1.534722222222221  3.385354141656663 1.475477430555555  3.4213685474189677 1.430338541666666  C 3.4693877551020416 1.362630208333334  3.5189075630252105 1.2765842013888888  3.5699279711884753 1.172200520833334  C 3.620948379351741 1.067816840277776  3.665966386554622 0.9690755208333338  3.704981992797119 0.8759765625  C 3.743997599039616 0.7828776041666662  3.79201680672269 0.6813151041666662  3.8490396158463382 0.5712890625  C 3.9060624249699885 0.4612630208333338  3.9645858343337337 0.3709852430555549  4.024609843937575 0.3004557291666662  C 4.084633853541417 0.229926215277776  4.1641656662665065 0.1636284722222211  4.263205282112845 0.1015625  C 4.362244897959185 0.039496527777776014  4.470288115246099 0.0070529513888887285  4.587334933973589 0.004231770833333814  C 4.704381752701081 0.0014105902777760138  4.846938775510204 0.016927083333333814  5.01500600240096 0.05078125  L 5.0060024009603845 0.076171875  C 5.234093637454982 0.025390625  5.387154861944778 0  5.465186074429772 0  L 12.316926770708283 0  C 12.761104441776713 0  13.103241296518608 0.15798611111110983  13.343337334933974 0.4739583333333338  C 13.583433373349342 0.7899305555555549  13.637454981992798 1.156684027777776  13.505402160864346 1.57421875  L 11.038415366146458 9.2421875  C 10.822328931572628 9.913628472222221  10.607743097238897 10.3466796875  10.394657863145259 10.541341145833334  C 10.181572629051622 10.736002604166666  9.795918367346937 10.833333333333334  9.237695078031212 10.833333333333334  L 1.4135654261704682 10.833333333333334  C 1.2515006002400961 10.833333333333334  1.1374549819927973 10.875651041666666  1.0714285714285714 10.960286458333334  C 1.0054021608643458 11.05056423611111  1.0024009603841537 11.171875  1.062424969987995 11.32421875  C 1.2064825930372147 11.719184027777779  1.638655462184874 11.916666666666666  2.3589435774309724 11.916666666666666  L 10.669267707082833 11.916666666666666  C 10.843337334933974 11.916666666666666  11.01140456182473 11.872938368055555  11.173469387755103 11.785481770833334  C 11.335534213685474 11.69802517361111  11.440576230492198 11.580946180555555  11.48859543817527 11.434244791666666  L 14.18967587034814 3.080729166666666  C 14.23169267707083 2.956597222222221  14.24669867947179 2.795789930555555  14.23469387755102 2.598307291666666  Z " stroke-width="0" stroke-dasharray="0" stroke="rgba(255, 255, 255, 0)" fill="none" transform="matrix(1 0 0 1 26 874 )" class="stroke" mask="url(#Clip20)" />
    <path d="M 5.375150060024009 2.4375  L 5.186074429771909 2.979166666666666  C 5.162064825930372 3.05251736111111  5.168067226890757 3.11599392361111  5.204081632653061 3.169596354166666  C 5.240096038415366 3.223198784722221  5.300120048019209 3.25  5.384153661464586 3.25  L 10.858343337334935 3.25  C 10.936374549819929 3.25  11.012905162064826 3.223198784722221  11.087935174069628 3.169596354166666  C 11.16296518607443 3.11599392361111  11.2124849939976 3.05251736111111  11.236494597839137 2.979166666666666  L 11.425570228091237 2.4375  C 11.449579831932773 2.364149305555555  11.44357743097239 2.300672743055555  11.407563025210084 2.2470703125  C 11.371548619447779 2.1934678819444438  11.31152460984394 2.166666666666666  11.22749099639856 2.166666666666666  L 5.7533013205282115 2.166666666666666  C 5.675270108043217 2.166666666666666  5.59873949579832 2.1934678819444438  5.5237094837935174 2.2470703125  C 5.448679471788716 2.300672743055555  5.399159663865547 2.364149305555555  5.375150060024009 2.4375  Z " stroke-width="0" stroke-dasharray="0" stroke="rgba(255, 255, 255, 0)" fill="none" transform="matrix(1 0 0 1 26 874 )" class="stroke" mask="url(#Clip20)" />
    <path d="M 4.627851140456182 4.604166666666666  L 4.438775510204081 5.145833333333334  C 4.414765906362545 5.219184027777778  4.42076830732293 5.282660590277778  4.456782713085234 5.336263020833334  C 4.492797118847539 5.389865451388888  4.55282112845138 5.416666666666666  4.636854741896759 5.416666666666666  L 10.111044417767106 5.416666666666666  C 10.189075630252102 5.416666666666666  10.265606242497 5.389865451388888  10.3406362545018 5.336263020833334  C 10.415666266506605 5.282660590277778  10.465186074429772 5.219184027777778  10.489195678271308 5.145833333333334  L 10.678271308523408 4.604166666666666  C 10.702280912364946 4.530815972222221  10.69627851140456 4.467339409722221  10.660264105642257 4.413736979166666  C 10.624249699879952 4.360134548611112  10.564225690276112 4.333333333333334  10.480192076830733 4.333333333333334  L 5.0060024009603845 4.333333333333334  C 4.927971188475391 4.333333333333334  4.851440576230493 4.360134548611112  4.77641056422569 4.413736979166666  C 4.701380552220889 4.467339409722221  4.65186074429772 4.530815972222221  4.627851140456182 4.604166666666666  Z " stroke-width="0" stroke-dasharray="0" stroke="rgba(255, 255, 255, 0)" fill="none" transform="matrix(1 0 0 1 26 874 )" class="stroke" mask="url(#Clip20)" />
  </g>
</svg>