<?xml version="1.0" encoding="utf-8"?>
<svg version="1.1" xmlns:xlink="http://www.w3.org/1999/xlink" width="241px" height="48px" xmlns="http://www.w3.org/2000/svg">
  <defs>
    <pattern id="BGPattern" patternUnits="userSpaceOnUse" alignment="0 0" imageRepeat="None" />
    <mask fill="white" id="Clip29">
      <path d="M 230.99999999999983 37.66129032258064  L 0 37.66129032258064  L 0 11  L 195.89481707317069 11  L 211.48170731707316 0.75  L 214.89481707317069 11  L 230.99999999999983 11  L 230.99999999999983 37.66129032258064  Z " fill-rule="evenodd" />
    </mask>
  </defs>
  <g transform="matrix(1 0 0 1 -1171 -228 )">
    <path d="M 230.99999999999983 37.66129032258064  L 0 37.66129032258064  L 0 11  L 195.89481707317069 11  L 211.48170731707316 0.75  L 214.89481707317069 11  L 230.99999999999983 11  L 230.99999999999983 37.66129032258064  Z " fill-rule="nonzero" fill="rgba(255, 255, 255, 1)" stroke="none" transform="matrix(1 0 0 1 1171 228 )" class="fill" />
    <path d="M 230.99999999999983 37.66129032258064  L 0 37.66129032258064  L 0 11  L 195.89481707317069 11  L 211.48170731707316 0.75  L 214.89481707317069 11  L 230.99999999999983 11  L 230.99999999999983 37.66129032258064  Z " stroke-width="2" stroke-dasharray="0" stroke="rgba(121, 121, 121, 1)" fill="none" transform="matrix(1 0 0 1 1171 228 )" class="stroke" mask="url(#Clip29)" />
  </g>
  <style>svg { filter: drop-shadow(5px 5px 2.5px rgba(0, 0, 0, 0.34901960784313724)); }</style>
</svg>