<?xml version="1.0" encoding="utf-8"?>
<svg version="1.1" xmlns:xlink="http://www.w3.org/1999/xlink" width="40px" height="37px" xmlns="http://www.w3.org/2000/svg">
  <defs>
    <pattern id="BGPattern" patternUnits="userSpaceOnUse" alignment="0 0" imageRepeat="None" />
    <mask fill="white" id="Clip16">
      <path d="M 0 18.5  C 0 8.139999999999999  8.799999999999999 0  20 0  C 31.200000000000003 0  40 8.139999999999999  40 18.5  C 40 28.86  31.200000000000003 37  20 37  C 8.799999999999999 37  0 28.86  0 18.5  Z " fill-rule="evenodd" />
    </mask>
  </defs>
  <g transform="matrix(1 0 0 1 -13 -79 )">
    <path d="M 0 18.5  C 0 8.139999999999999  8.799999999999999 0  20 0  C 31.200000000000003 0  40 8.139999999999999  40 18.5  C 40 28.86  31.200000000000003 37  20 37  C 8.799999999999999 37  0 28.86  0 18.5  Z " fill-rule="nonzero" fill="rgba(34, 203, 231, 1)" stroke="none" transform="matrix(1 0 0 1 13 79 )" class="fill" />
    <path d="M 0 18.5  C 0 8.139999999999999  8.799999999999999 0  20 0  C 31.200000000000003 0  40 8.139999999999999  40 18.5  C 40 28.86  31.200000000000003 37  20 37  C 8.799999999999999 37  0 28.86  0 18.5  Z " stroke-width="2" stroke-dasharray="0" stroke="rgba(34, 203, 231, 1)" fill="none" transform="matrix(1 0 0 1 13 79 )" class="stroke" mask="url(#Clip16)" />
  </g>
</svg>