<?xml version="1.0" encoding="utf-8"?>
<svg version="1.1" xmlns:xlink="http://www.w3.org/1999/xlink" width="16px" height="11px" xmlns="http://www.w3.org/2000/svg">
  <defs>
    <pattern id="BGPattern" patternUnits="userSpaceOnUse" alignment="0 0" imageRepeat="None" />
    <mask fill="white" id="Clip17">
      <path d="M 5.75 10.541666666666668  C 5.335786437626904 10.541666666666668  5 10.233862432175338  5 9.854166666666668  C 5 9.474470901157996  5.335786437626904 9.166666666666668  5.75 9.166666666666668  L 10.25 9.166666666666668  C 10.664213562373096 9.166666666666668  11 9.474470901157996  11 9.854166666666668  C 11 10.233862432175338  10.664213562373096 10.541666666666668  10.25 10.541666666666668  L 5.75 10.541666666666668  Z M 0.5 5.342791666666665  L 0.5 3.751916666666667  C 0.5 1.9616666666666671  2.352500000000001 0.5935416666666657  4.295 0.7599166666666672  C 6.759644473451143 0.9707751117893594  9.240355526548857 0.9707751117893594  11.705000000000002 0.7599166666666672  C 13.6475 0.5935416666666657  15.5 1.9616666666666671  15.5 3.751916666666667  L 15.500000000000004 5.342791666666665  C 15.512654074221373 5.971128170775873  15.026890335922992 6.515363470165731  14.3525 6.628416666666667  C 13.084999999999997 6.830541666666666  10.8425 7.104166666666667  7.999999999999998 7.104166666666667  C 5.157499999999999 7.104166666666667  2.914999999999999 6.829166666666668  1.647499999999999 6.628416666666668  C 0.9731096640770094 6.51536347016573  0.48734592577862834 5.971128170775873  0.5 5.342791666666665  Z M 7.586000000000002 2.8004166666666648  C 7.532572556745075 2.702118675660927  7.431123092746555 2.6331386142883053  7.312999999999999 2.614791666666666  C 7.194420636400242 2.596302236545154  7.0733624940219855 2.6310762344326117  6.987500000000001 2.708291666666666  L 5.6075 3.9457916666666657  C 4.668863225735235 3.8945042798765757  3.7326890044490124 3.810568830587016  2.801000000000001 3.694166666666666  C 2.7886780904617714 3.6930443240669035  2.7763030991001454 3.6924821196104185  2.7639205086709886 3.6924821196104185  C 2.5568137274844407 3.6924821196104185  2.3889205086709886 3.8463842368560828  2.3889205086709886 4.0362321196104185  C 2.3889205086709886 4.203121226748859  2.51968818346924 4.345899598061133  2.6990000000000016 4.374791666666664  C 3.524000000000001 4.479291666666665  4.547000000000002 4.579666666666664  5.729000000000001 4.640166666666664  C 5.83426983911842 4.645605956428688  5.9371742523069955 4.610170177460312  6.012500000000001 4.542541666666664  L 7.1434999999999995 3.530541666666665  L 8.414 5.881791666666666  C 8.47738041953595 5.998606097250027  8.607438866200496 6.072462602549387  8.749764136746906 6.072462602549387  C 8.85173212314503 6.072462602549387  8.949303462492544 6.034399327802941  9.02 5.967041666666665  L 10.418 4.633291666666665  C 11.382240257723947 4.580807919379294  12.343941442021045 4.494578382042906  13.301000000000002 4.374791666666662  C 13.480311816530758 4.3458995980611315  13.611079491329015 4.203121226748859  13.611079491329015 4.0362321196104185  C 13.611079491329015 3.8463842368560828  13.443186272515561 3.6924821196104185  13.236079491329015 3.6924821196104185  C 13.223696900899874 3.6924821196104185  13.211321909538214 3.693044324066902  13.199000000000002 3.6941666666666646  C 12.392000000000003 3.7959166666666633  11.3885 3.8935416666666622  10.229000000000001 3.9540416666666647  C 10.134596427261936 3.958854855397763  10.045660529584847 3.996179358639754  9.98 4.058541666666666  L 8.849 5.137916666666664  L 7.586000000000002 2.8004166666666648  Z " fill-rule="evenodd" />
    </mask>
  </defs>
  <g transform="matrix(1 0 0 1 -25 -94 )">
    <path d="M 5.75 10.541666666666668  C 5.335786437626904 10.541666666666668  5 10.233862432175338  5 9.854166666666668  C 5 9.474470901157996  5.335786437626904 9.166666666666668  5.75 9.166666666666668  L 10.25 9.166666666666668  C 10.664213562373096 9.166666666666668  11 9.474470901157996  11 9.854166666666668  C 11 10.233862432175338  10.664213562373096 10.541666666666668  10.25 10.541666666666668  L 5.75 10.541666666666668  Z M 0.5 5.342791666666665  L 0.5 3.751916666666667  C 0.5 1.9616666666666671  2.352500000000001 0.5935416666666657  4.295 0.7599166666666672  C 6.759644473451143 0.9707751117893594  9.240355526548857 0.9707751117893594  11.705000000000002 0.7599166666666672  C 13.6475 0.5935416666666657  15.5 1.9616666666666671  15.5 3.751916666666667  L 15.500000000000004 5.342791666666665  C 15.512654074221373 5.971128170775873  15.026890335922992 6.515363470165731  14.3525 6.628416666666667  C 13.084999999999997 6.830541666666666  10.8425 7.104166666666667  7.999999999999998 7.104166666666667  C 5.157499999999999 7.104166666666667  2.914999999999999 6.829166666666668  1.647499999999999 6.628416666666668  C 0.9731096640770094 6.51536347016573  0.48734592577862834 5.971128170775873  0.5 5.342791666666665  Z M 7.586000000000002 2.8004166666666648  C 7.532572556745075 2.702118675660927  7.431123092746555 2.6331386142883053  7.312999999999999 2.614791666666666  C 7.194420636400242 2.596302236545154  7.0733624940219855 2.6310762344326117  6.987500000000001 2.708291666666666  L 5.6075 3.9457916666666657  C 4.668863225735235 3.8945042798765757  3.7326890044490124 3.810568830587016  2.801000000000001 3.694166666666666  C 2.7886780904617714 3.6930443240669035  2.7763030991001454 3.6924821196104185  2.7639205086709886 3.6924821196104185  C 2.5568137274844407 3.6924821196104185  2.3889205086709886 3.8463842368560828  2.3889205086709886 4.0362321196104185  C 2.3889205086709886 4.203121226748859  2.51968818346924 4.345899598061133  2.6990000000000016 4.374791666666664  C 3.524000000000001 4.479291666666665  4.547000000000002 4.579666666666664  5.729000000000001 4.640166666666664  C 5.83426983911842 4.645605956428688  5.9371742523069955 4.610170177460312  6.012500000000001 4.542541666666664  L 7.1434999999999995 3.530541666666665  L 8.414 5.881791666666666  C 8.47738041953595 5.998606097250027  8.607438866200496 6.072462602549387  8.749764136746906 6.072462602549387  C 8.85173212314503 6.072462602549387  8.949303462492544 6.034399327802941  9.02 5.967041666666665  L 10.418 4.633291666666665  C 11.382240257723947 4.580807919379294  12.343941442021045 4.494578382042906  13.301000000000002 4.374791666666662  C 13.480311816530758 4.3458995980611315  13.611079491329015 4.203121226748859  13.611079491329015 4.0362321196104185  C 13.611079491329015 3.8463842368560828  13.443186272515561 3.6924821196104185  13.236079491329015 3.6924821196104185  C 13.223696900899874 3.6924821196104185  13.211321909538214 3.693044324066902  13.199000000000002 3.6941666666666646  C 12.392000000000003 3.7959166666666633  11.3885 3.8935416666666622  10.229000000000001 3.9540416666666647  C 10.134596427261936 3.958854855397763  10.045660529584847 3.996179358639754  9.98 4.058541666666666  L 8.849 5.137916666666664  L 7.586000000000002 2.8004166666666648  Z " fill-rule="nonzero" fill="rgba(0, 0, 0, 1)" stroke="none" transform="matrix(1 0 0 1 25 94 )" class="fill" />
    <path d="M 5.75 10.541666666666668  C 5.335786437626904 10.541666666666668  5 10.233862432175338  5 9.854166666666668  C 5 9.474470901157996  5.335786437626904 9.166666666666668  5.75 9.166666666666668  L 10.25 9.166666666666668  C 10.664213562373096 9.166666666666668  11 9.474470901157996  11 9.854166666666668  C 11 10.233862432175338  10.664213562373096 10.541666666666668  10.25 10.541666666666668  L 5.75 10.541666666666668  Z " stroke-width="0" stroke-dasharray="0" stroke="rgba(255, 255, 255, 0)" fill="none" transform="matrix(1 0 0 1 25 94 )" class="stroke" mask="url(#Clip17)" />
    <path d="M 0.5 5.342791666666665  L 0.5 3.751916666666667  C 0.5 1.9616666666666671  2.352500000000001 0.5935416666666657  4.295 0.7599166666666672  C 6.759644473451143 0.9707751117893594  9.240355526548857 0.9707751117893594  11.705000000000002 0.7599166666666672  C 13.6475 0.5935416666666657  15.5 1.9616666666666671  15.5 3.751916666666667  L 15.500000000000004 5.342791666666665  C 15.512654074221373 5.971128170775873  15.026890335922992 6.515363470165731  14.3525 6.628416666666667  C 13.084999999999997 6.830541666666666  10.8425 7.104166666666667  7.999999999999998 7.104166666666667  C 5.157499999999999 7.104166666666667  2.914999999999999 6.829166666666668  1.647499999999999 6.628416666666668  C 0.9731096640770094 6.51536347016573  0.48734592577862834 5.971128170775873  0.5 5.342791666666665  Z " stroke-width="0" stroke-dasharray="0" stroke="rgba(255, 255, 255, 0)" fill="none" transform="matrix(1 0 0 1 25 94 )" class="stroke" mask="url(#Clip17)" />
    <path d="M 7.586000000000002 2.8004166666666648  C 7.532572556745075 2.702118675660927  7.431123092746555 2.6331386142883053  7.312999999999999 2.614791666666666  C 7.194420636400242 2.596302236545154  7.0733624940219855 2.6310762344326117  6.987500000000001 2.708291666666666  L 5.6075 3.9457916666666657  C 4.668863225735235 3.8945042798765757  3.7326890044490124 3.810568830587016  2.801000000000001 3.694166666666666  C 2.7886780904617714 3.6930443240669035  2.7763030991001454 3.6924821196104185  2.7639205086709886 3.6924821196104185  C 2.5568137274844407 3.6924821196104185  2.3889205086709886 3.8463842368560828  2.3889205086709886 4.0362321196104185  C 2.3889205086709886 4.203121226748859  2.51968818346924 4.345899598061133  2.6990000000000016 4.374791666666664  C 3.524000000000001 4.479291666666665  4.547000000000002 4.579666666666664  5.729000000000001 4.640166666666664  C 5.83426983911842 4.645605956428688  5.9371742523069955 4.610170177460312  6.012500000000001 4.542541666666664  L 7.1434999999999995 3.530541666666665  L 8.414 5.881791666666666  C 8.47738041953595 5.998606097250027  8.607438866200496 6.072462602549387  8.749764136746906 6.072462602549387  C 8.85173212314503 6.072462602549387  8.949303462492544 6.034399327802941  9.02 5.967041666666665  L 10.418 4.633291666666665  C 11.382240257723947 4.580807919379294  12.343941442021045 4.494578382042906  13.301000000000002 4.374791666666662  C 13.480311816530758 4.3458995980611315  13.611079491329015 4.203121226748859  13.611079491329015 4.0362321196104185  C 13.611079491329015 3.8463842368560828  13.443186272515561 3.6924821196104185  13.236079491329015 3.6924821196104185  C 13.223696900899874 3.6924821196104185  13.211321909538214 3.693044324066902  13.199000000000002 3.6941666666666646  C 12.392000000000003 3.7959166666666633  11.3885 3.8935416666666622  10.229000000000001 3.9540416666666647  C 10.134596427261936 3.958854855397763  10.045660529584847 3.996179358639754  9.98 4.058541666666666  L 8.849 5.137916666666664  L 7.586000000000002 2.8004166666666648  Z " stroke-width="0" stroke-dasharray="0" stroke="rgba(255, 255, 255, 0)" fill="none" transform="matrix(1 0 0 1 25 94 )" class="stroke" mask="url(#Clip17)" />
  </g>
</svg>