<?xml version="1.0" encoding="utf-8"?>
<svg version="1.1" xmlns:xlink="http://www.w3.org/1999/xlink" width="20px" height="20px" xmlns="http://www.w3.org/2000/svg">
  <defs>
    <pattern id="BGPattern" patternUnits="userSpaceOnUse" alignment="0 0" imageRepeat="None" />
    <mask fill="white" id="Clip23">
      <path d="M 19.0248 0.18375  L 19.0248 0.1825  C 19.194607157308184 0.359656542935278  19.246548933351843 0.6252678977039896  19.156799999999997 0.8575  L 12.174 19.041249999999998  C 12.037269428395295 19.397067647879343  11.706386605729273 19.63035907487548  11.338452478760853 19.63035907487548  C 11.030770509022226 19.63035907487548  10.744409932150255 19.466629974761663  10.5792 19.196250000000003  L 6.765599999999999 12.952500000000002  L 0.7716000000000001 8.98  C 0.5113711758694779 8.808046900272691  0.3536957496556393 8.50935499566139  0.3536957496556393 8.18834451202796  C 0.3536957496556393 7.804605432790757  0.5782026790867132 7.459609560096143  0.9204000000000001 7.3175  L 18.3768 0.04625  C 18.599742818204167 -0.04723847224150742  18.85472971878213 0.006867544470638004  19.0248 0.18375  Z M 16.956 3.22  L 7.9632000000000005 12.5875  L 11.276400000000002 18.01  L 16.956 3.22  Z M 16.1088 2.3362499999999997  L 16.107599999999998 2.3362499999999997  L 1.9091999999999998 8.252500000000001  L 7.116000000000001 11.7025  L 16.1088 2.3362499999999997  Z " fill-rule="evenodd" />
    </mask>
  </defs>
  <g transform="matrix(1 0 0 1 -394 -550 )">
    <path d="M 19.0248 0.18375  L 19.0248 0.1825  C 19.194607157308184 0.359656542935278  19.246548933351843 0.6252678977039896  19.156799999999997 0.8575  L 12.174 19.041249999999998  C 12.037269428395295 19.397067647879343  11.706386605729273 19.63035907487548  11.338452478760853 19.63035907487548  C 11.030770509022226 19.63035907487548  10.744409932150255 19.466629974761663  10.5792 19.196250000000003  L 6.765599999999999 12.952500000000002  L 0.7716000000000001 8.98  C 0.5113711758694779 8.808046900272691  0.3536957496556393 8.50935499566139  0.3536957496556393 8.18834451202796  C 0.3536957496556393 7.804605432790757  0.5782026790867132 7.459609560096143  0.9204000000000001 7.3175  L 18.3768 0.04625  C 18.599742818204167 -0.04723847224150742  18.85472971878213 0.006867544470638004  19.0248 0.18375  Z M 16.956 3.22  L 7.9632000000000005 12.5875  L 11.276400000000002 18.01  L 16.956 3.22  Z M 16.1088 2.3362499999999997  L 16.107599999999998 2.3362499999999997  L 1.9091999999999998 8.252500000000001  L 7.116000000000001 11.7025  L 16.1088 2.3362499999999997  Z " fill-rule="nonzero" fill="rgba(0, 0, 0, 1)" stroke="none" transform="matrix(1 0 0 1 394 550 )" class="fill" />
    <path d="M 19.0248 0.18375  L 19.0248 0.1825  C 19.194607157308184 0.359656542935278  19.246548933351843 0.6252678977039896  19.156799999999997 0.8575  L 12.174 19.041249999999998  C 12.037269428395295 19.397067647879343  11.706386605729273 19.63035907487548  11.338452478760853 19.63035907487548  C 11.030770509022226 19.63035907487548  10.744409932150255 19.466629974761663  10.5792 19.196250000000003  L 6.765599999999999 12.952500000000002  L 0.7716000000000001 8.98  C 0.5113711758694779 8.808046900272691  0.3536957496556393 8.50935499566139  0.3536957496556393 8.18834451202796  C 0.3536957496556393 7.804605432790757  0.5782026790867132 7.459609560096143  0.9204000000000001 7.3175  L 18.3768 0.04625  C 18.599742818204167 -0.04723847224150742  18.85472971878213 0.006867544470638004  19.0248 0.18375  Z " stroke-width="0" stroke-dasharray="0" stroke="rgba(255, 255, 255, 0)" fill="none" transform="matrix(1 0 0 1 394 550 )" class="stroke" mask="url(#Clip23)" />
    <path d="M 16.956 3.22  L 7.9632000000000005 12.5875  L 11.276400000000002 18.01  L 16.956 3.22  Z " stroke-width="0" stroke-dasharray="0" stroke="rgba(255, 255, 255, 0)" fill="none" transform="matrix(1 0 0 1 394 550 )" class="stroke" mask="url(#Clip23)" />
    <path d="M 16.1088 2.3362499999999997  L 16.107599999999998 2.3362499999999997  L 1.9091999999999998 8.252500000000001  L 7.116000000000001 11.7025  L 16.1088 2.3362499999999997  Z " stroke-width="0" stroke-dasharray="0" stroke="rgba(255, 255, 255, 0)" fill="none" transform="matrix(1 0 0 1 394 550 )" class="stroke" mask="url(#Clip23)" />
  </g>
</svg>