<?xml version="1.0" encoding="utf-8"?>
<svg version="1.1" xmlns:xlink="http://www.w3.org/1999/xlink" width="12px" height="17px" xmlns="http://www.w3.org/2000/svg">
  <defs>
    <pattern id="BGPattern" patternUnits="userSpaceOnUse" alignment="0 0" imageRepeat="None" />
    <mask fill="white" id="Clip24">
      <path d="M 4.286931818181818 14.067057291666668  C 4.338068181818182 14.000651041666668  4.363636363636363 13.91579861111111  4.363636363636363 13.8125  L 4.363636363636363 6.020833333333333  C 4.363636363636363 5.917534722222222  4.338068181818182 5.832682291666667  4.286931818181818 5.766276041666667  C 4.235795454545454 5.699869791666667  4.170454545454546 5.666666666666667  4.090909090909091 5.666666666666667  L 3.545454545454546 5.666666666666667  C 3.4659090909090917 5.666666666666667  3.4005681818181825 5.699869791666667  3.3494318181818183 5.766276041666667  C 3.298295454545454 5.832682291666667  3.2727272727272725 5.917534722222222  3.2727272727272725 6.020833333333333  L 3.2727272727272725 13.8125  C 3.2727272727272725 13.91579861111111  3.298295454545454 14.000651041666668  3.3494318181818183 14.067057291666668  C 3.4005681818181825 14.133463541666668  3.4659090909090917 14.166666666666668  3.545454545454546 14.166666666666668  L 4.090909090909091 14.166666666666668  C 4.170454545454546 14.166666666666668  4.235795454545454 14.133463541666668  4.286931818181818 14.067057291666668  Z M 6.46875 14.067057291666668  C 6.519886363636363 14.000651041666668  6.545454545454545 13.91579861111111  6.545454545454545 13.8125  L 6.545454545454545 6.020833333333333  C 6.545454545454545 5.917534722222222  6.519886363636363 5.832682291666667  6.46875 5.766276041666667  C 6.417613636363637 5.699869791666667  6.352272727272728 5.666666666666667  6.2727272727272725 5.666666666666667  L 5.7272727272727275 5.666666666666667  C 5.647727272727273 5.666666666666667  5.582386363636363 5.699869791666667  5.53125 5.766276041666667  C 5.480113636363637 5.832682291666667  5.454545454545454 5.917534722222222  5.454545454545454 6.020833333333333  L 5.454545454545454 13.8125  C 5.454545454545454 13.91579861111111  5.480113636363637 14.000651041666668  5.53125 14.067057291666668  C 5.582386363636363 14.133463541666668  5.647727272727273 14.166666666666668  5.7272727272727275 14.166666666666668  L 6.2727272727272725 14.166666666666668  C 6.352272727272728 14.166666666666668  6.417613636363637 14.133463541666668  6.46875 14.067057291666668  Z M 8.650568181818182 14.067057291666668  C 8.701704545454545 14.000651041666668  8.727272727272727 13.91579861111111  8.727272727272727 13.8125  L 8.727272727272727 6.020833333333333  C 8.727272727272727 5.917534722222222  8.701704545454545 5.832682291666667  8.650568181818182 5.766276041666667  C 8.599431818181818 5.699869791666667  8.53409090909091 5.666666666666667  8.454545454545455 5.666666666666667  L 7.909090909090908 5.666666666666667  C 7.829545454545455 5.666666666666667  7.764204545454545 5.699869791666667  7.713068181818182 5.766276041666667  C 7.661931818181818 5.832682291666667  7.636363636363637 5.917534722222222  7.636363636363637 6.020833333333333  L 7.636363636363637 13.8125  C 7.636363636363637 13.91579861111111  7.661931818181818 14.000651041666668  7.713068181818182 14.067057291666668  C 7.764204545454545 14.133463541666668  7.829545454545455 14.166666666666668  7.909090909090908 14.166666666666668  L 8.454545454545455 14.166666666666668  C 8.53409090909091 14.166666666666668  8.599431818181818 14.133463541666668  8.650568181818182 14.067057291666668  Z M 4.5085227272727275 1.5384114583333326  L 4.090909090909091 2.8333333333333326  L 7.909090909090908 2.8333333333333326  L 7.5 1.5384114583333326  C 7.460227272727274 1.4720052083333326  7.411931818181818 1.4314236111111103  7.355113636363637 1.4166666666666674  L 4.653409090909091 1.4166666666666674  C 4.596590909090909 1.4314236111111103  4.548295454545455 1.4720052083333326  4.5085227272727275 1.5384114583333326  Z M 11.923295454545455 2.9329427083333326  C 11.974431818181818 2.9993489583333326  12 3.084201388888888  12 3.1875  L 12 3.8958333333333326  C 12 3.999131944444443  11.974431818181818 4.083984375  11.923295454545455 4.150390625  C 11.872159090909092 4.216796875  11.806818181818183 4.25  11.727272727272727 4.25  L 11 4.25  L 11 14.7421875  C 10.909090909090908 15.354600694444443  10.775568181818183 15.88400607638889  10.508522727272727 16.330403645833332  C 10.241477272727273 16.77680121527778  9.920454545454545 17  9.545454545454545 17  L 2.4545454545454546 17  C 2.0795454545454546 17  1.7585227272727275 16.7841796875  1.4914772727272727 16.3525390625  C 1.2244318181818183 15.9208984375  1.0909090909090908 15.398871527777777  1 14.786458333333332  L 1 4.25  L 0.2727272727272727 4.25  C 0.19318181818181818 4.25  0.12784090909090912 4.216796875  0.07670454545454546 4.150390625  C 0.025568181818181816 4.083984375  0 3.999131944444443  0 3.8958333333333326  L 0 3.1875  C 0 3.084201388888888  0.025568181818181816 2.9993489583333326  0.07670454545454546 2.9329427083333326  C 0.12784090909090912 2.8665364583333326  0.19318181818181818 2.8333333333333326  0.2727272727272727 2.8333333333333326  L 2.90625 2.8333333333333326  L 3.502840909090909 0.9850260416666673  C 3.5880681818181825 0.712022569444443  3.7414772727272734 0.479600694444443  3.9630681818181817 0.2877604166666673  C 4.184659090909092 0.09592013888888784  4.409090909090909 0  4.636363636363637 0  L 7.363636363636363 0  C 7.590909090909092 0  7.815340909090908 0.09592013888888784  8.036931818181818 0.2877604166666673  C 8.258522727272727 0.479600694444443  8.411931818181818 0.712022569444443  8.497159090909092 0.9850260416666673  L 9.09375 2.8333333333333326  L 11.727272727272727 2.8333333333333326  C 11.806818181818183 2.8333333333333326  11.872159090909092 2.8665364583333326  11.923295454545455 2.9329427083333326  Z " fill-rule="evenodd" />
    </mask>
  </defs>
  <g transform="matrix(1 0 0 1 -410 -185 )">
    <path d="M 4.286931818181818 14.067057291666668  C 4.338068181818182 14.000651041666668  4.363636363636363 13.91579861111111  4.363636363636363 13.8125  L 4.363636363636363 6.020833333333333  C 4.363636363636363 5.917534722222222  4.338068181818182 5.832682291666667  4.286931818181818 5.766276041666667  C 4.235795454545454 5.699869791666667  4.170454545454546 5.666666666666667  4.090909090909091 5.666666666666667  L 3.545454545454546 5.666666666666667  C 3.4659090909090917 5.666666666666667  3.4005681818181825 5.699869791666667  3.3494318181818183 5.766276041666667  C 3.298295454545454 5.832682291666667  3.2727272727272725 5.917534722222222  3.2727272727272725 6.020833333333333  L 3.2727272727272725 13.8125  C 3.2727272727272725 13.91579861111111  3.298295454545454 14.000651041666668  3.3494318181818183 14.067057291666668  C 3.4005681818181825 14.133463541666668  3.4659090909090917 14.166666666666668  3.545454545454546 14.166666666666668  L 4.090909090909091 14.166666666666668  C 4.170454545454546 14.166666666666668  4.235795454545454 14.133463541666668  4.286931818181818 14.067057291666668  Z M 6.46875 14.067057291666668  C 6.519886363636363 14.000651041666668  6.545454545454545 13.91579861111111  6.545454545454545 13.8125  L 6.545454545454545 6.020833333333333  C 6.545454545454545 5.917534722222222  6.519886363636363 5.832682291666667  6.46875 5.766276041666667  C 6.417613636363637 5.699869791666667  6.352272727272728 5.666666666666667  6.2727272727272725 5.666666666666667  L 5.7272727272727275 5.666666666666667  C 5.647727272727273 5.666666666666667  5.582386363636363 5.699869791666667  5.53125 5.766276041666667  C 5.480113636363637 5.832682291666667  5.454545454545454 5.917534722222222  5.454545454545454 6.020833333333333  L 5.454545454545454 13.8125  C 5.454545454545454 13.91579861111111  5.480113636363637 14.000651041666668  5.53125 14.067057291666668  C 5.582386363636363 14.133463541666668  5.647727272727273 14.166666666666668  5.7272727272727275 14.166666666666668  L 6.2727272727272725 14.166666666666668  C 6.352272727272728 14.166666666666668  6.417613636363637 14.133463541666668  6.46875 14.067057291666668  Z M 8.650568181818182 14.067057291666668  C 8.701704545454545 14.000651041666668  8.727272727272727 13.91579861111111  8.727272727272727 13.8125  L 8.727272727272727 6.020833333333333  C 8.727272727272727 5.917534722222222  8.701704545454545 5.832682291666667  8.650568181818182 5.766276041666667  C 8.599431818181818 5.699869791666667  8.53409090909091 5.666666666666667  8.454545454545455 5.666666666666667  L 7.909090909090908 5.666666666666667  C 7.829545454545455 5.666666666666667  7.764204545454545 5.699869791666667  7.713068181818182 5.766276041666667  C 7.661931818181818 5.832682291666667  7.636363636363637 5.917534722222222  7.636363636363637 6.020833333333333  L 7.636363636363637 13.8125  C 7.636363636363637 13.91579861111111  7.661931818181818 14.000651041666668  7.713068181818182 14.067057291666668  C 7.764204545454545 14.133463541666668  7.829545454545455 14.166666666666668  7.909090909090908 14.166666666666668  L 8.454545454545455 14.166666666666668  C 8.53409090909091 14.166666666666668  8.599431818181818 14.133463541666668  8.650568181818182 14.067057291666668  Z M 4.5085227272727275 1.5384114583333326  L 4.090909090909091 2.8333333333333326  L 7.909090909090908 2.8333333333333326  L 7.5 1.5384114583333326  C 7.460227272727274 1.4720052083333326  7.411931818181818 1.4314236111111103  7.355113636363637 1.4166666666666674  L 4.653409090909091 1.4166666666666674  C 4.596590909090909 1.4314236111111103  4.548295454545455 1.4720052083333326  4.5085227272727275 1.5384114583333326  Z M 11.923295454545455 2.9329427083333326  C 11.974431818181818 2.9993489583333326  12 3.084201388888888  12 3.1875  L 12 3.8958333333333326  C 12 3.999131944444443  11.974431818181818 4.083984375  11.923295454545455 4.150390625  C 11.872159090909092 4.216796875  11.806818181818183 4.25  11.727272727272727 4.25  L 11 4.25  L 11 14.7421875  C 10.909090909090908 15.354600694444443  10.775568181818183 15.88400607638889  10.508522727272727 16.330403645833332  C 10.241477272727273 16.77680121527778  9.920454545454545 17  9.545454545454545 17  L 2.4545454545454546 17  C 2.0795454545454546 17  1.7585227272727275 16.7841796875  1.4914772727272727 16.3525390625  C 1.2244318181818183 15.9208984375  1.0909090909090908 15.398871527777777  1 14.786458333333332  L 1 4.25  L 0.2727272727272727 4.25  C 0.19318181818181818 4.25  0.12784090909090912 4.216796875  0.07670454545454546 4.150390625  C 0.025568181818181816 4.083984375  0 3.999131944444443  0 3.8958333333333326  L 0 3.1875  C 0 3.084201388888888  0.025568181818181816 2.9993489583333326  0.07670454545454546 2.9329427083333326  C 0.12784090909090912 2.8665364583333326  0.19318181818181818 2.8333333333333326  0.2727272727272727 2.8333333333333326  L 2.90625 2.8333333333333326  L 3.502840909090909 0.9850260416666673  C 3.5880681818181825 0.712022569444443  3.7414772727272734 0.479600694444443  3.9630681818181817 0.2877604166666673  C 4.184659090909092 0.09592013888888784  4.409090909090909 0  4.636363636363637 0  L 7.363636363636363 0  C 7.590909090909092 0  7.815340909090908 0.09592013888888784  8.036931818181818 0.2877604166666673  C 8.258522727272727 0.479600694444443  8.411931818181818 0.712022569444443  8.497159090909092 0.9850260416666673  L 9.09375 2.8333333333333326  L 11.727272727272727 2.8333333333333326  C 11.806818181818183 2.8333333333333326  11.872159090909092 2.8665364583333326  11.923295454545455 2.9329427083333326  Z " fill-rule="nonzero" fill="rgba(0, 0, 0, 1)" stroke="none" transform="matrix(1 0 0 1 410 185 )" class="fill" />
    <path d="M 4.286931818181818 14.067057291666668  C 4.338068181818182 14.000651041666668  4.363636363636363 13.91579861111111  4.363636363636363 13.8125  L 4.363636363636363 6.020833333333333  C 4.363636363636363 5.917534722222222  4.338068181818182 5.832682291666667  4.286931818181818 5.766276041666667  C 4.235795454545454 5.699869791666667  4.170454545454546 5.666666666666667  4.090909090909091 5.666666666666667  L 3.545454545454546 5.666666666666667  C 3.4659090909090917 5.666666666666667  3.4005681818181825 5.699869791666667  3.3494318181818183 5.766276041666667  C 3.298295454545454 5.832682291666667  3.2727272727272725 5.917534722222222  3.2727272727272725 6.020833333333333  L 3.2727272727272725 13.8125  C 3.2727272727272725 13.91579861111111  3.298295454545454 14.000651041666668  3.3494318181818183 14.067057291666668  C 3.4005681818181825 14.133463541666668  3.4659090909090917 14.166666666666668  3.545454545454546 14.166666666666668  L 4.090909090909091 14.166666666666668  C 4.170454545454546 14.166666666666668  4.235795454545454 14.133463541666668  4.286931818181818 14.067057291666668  Z " stroke-width="0" stroke-dasharray="0" stroke="rgba(255, 255, 255, 0)" fill="none" transform="matrix(1 0 0 1 410 185 )" class="stroke" mask="url(#Clip24)" />
    <path d="M 6.46875 14.067057291666668  C 6.519886363636363 14.000651041666668  6.545454545454545 13.91579861111111  6.545454545454545 13.8125  L 6.545454545454545 6.020833333333333  C 6.545454545454545 5.917534722222222  6.519886363636363 5.832682291666667  6.46875 5.766276041666667  C 6.417613636363637 5.699869791666667  6.352272727272728 5.666666666666667  6.2727272727272725 5.666666666666667  L 5.7272727272727275 5.666666666666667  C 5.647727272727273 5.666666666666667  5.582386363636363 5.699869791666667  5.53125 5.766276041666667  C 5.480113636363637 5.832682291666667  5.454545454545454 5.917534722222222  5.454545454545454 6.020833333333333  L 5.454545454545454 13.8125  C 5.454545454545454 13.91579861111111  5.480113636363637 14.000651041666668  5.53125 14.067057291666668  C 5.582386363636363 14.133463541666668  5.647727272727273 14.166666666666668  5.7272727272727275 14.166666666666668  L 6.2727272727272725 14.166666666666668  C 6.352272727272728 14.166666666666668  6.417613636363637 14.133463541666668  6.46875 14.067057291666668  Z " stroke-width="0" stroke-dasharray="0" stroke="rgba(255, 255, 255, 0)" fill="none" transform="matrix(1 0 0 1 410 185 )" class="stroke" mask="url(#Clip24)" />
    <path d="M 8.650568181818182 14.067057291666668  C 8.701704545454545 14.000651041666668  8.727272727272727 13.91579861111111  8.727272727272727 13.8125  L 8.727272727272727 6.020833333333333  C 8.727272727272727 5.917534722222222  8.701704545454545 5.832682291666667  8.650568181818182 5.766276041666667  C 8.599431818181818 5.699869791666667  8.53409090909091 5.666666666666667  8.454545454545455 5.666666666666667  L 7.909090909090908 5.666666666666667  C 7.829545454545455 5.666666666666667  7.764204545454545 5.699869791666667  7.713068181818182 5.766276041666667  C 7.661931818181818 5.832682291666667  7.636363636363637 5.917534722222222  7.636363636363637 6.020833333333333  L 7.636363636363637 13.8125  C 7.636363636363637 13.91579861111111  7.661931818181818 14.000651041666668  7.713068181818182 14.067057291666668  C 7.764204545454545 14.133463541666668  7.829545454545455 14.166666666666668  7.909090909090908 14.166666666666668  L 8.454545454545455 14.166666666666668  C 8.53409090909091 14.166666666666668  8.599431818181818 14.133463541666668  8.650568181818182 14.067057291666668  Z " stroke-width="0" stroke-dasharray="0" stroke="rgba(255, 255, 255, 0)" fill="none" transform="matrix(1 0 0 1 410 185 )" class="stroke" mask="url(#Clip24)" />
    <path d="M 4.5085227272727275 1.5384114583333326  L 4.090909090909091 2.8333333333333326  L 7.909090909090908 2.8333333333333326  L 7.5 1.5384114583333326  C 7.460227272727274 1.4720052083333326  7.411931818181818 1.4314236111111103  7.355113636363637 1.4166666666666674  L 4.653409090909091 1.4166666666666674  C 4.596590909090909 1.4314236111111103  4.548295454545455 1.4720052083333326  4.5085227272727275 1.5384114583333326  Z " stroke-width="0" stroke-dasharray="0" stroke="rgba(255, 255, 255, 0)" fill="none" transform="matrix(1 0 0 1 410 185 )" class="stroke" mask="url(#Clip24)" />
    <path d="M 11.923295454545455 2.9329427083333326  C 11.974431818181818 2.9993489583333326  12 3.084201388888888  12 3.1875  L 12 3.8958333333333326  C 12 3.999131944444443  11.974431818181818 4.083984375  11.923295454545455 4.150390625  C 11.872159090909092 4.216796875  11.806818181818183 4.25  11.727272727272727 4.25  L 11 4.25  L 11 14.7421875  C 10.909090909090908 15.354600694444443  10.775568181818183 15.88400607638889  10.508522727272727 16.330403645833332  C 10.241477272727273 16.77680121527778  9.920454545454545 17  9.545454545454545 17  L 2.4545454545454546 17  C 2.0795454545454546 17  1.7585227272727275 16.7841796875  1.4914772727272727 16.3525390625  C 1.2244318181818183 15.9208984375  1.0909090909090908 15.398871527777777  1 14.786458333333332  L 1 4.25  L 0.2727272727272727 4.25  C 0.19318181818181818 4.25  0.12784090909090912 4.216796875  0.07670454545454546 4.150390625  C 0.025568181818181816 4.083984375  0 3.999131944444443  0 3.8958333333333326  L 0 3.1875  C 0 3.084201388888888  0.025568181818181816 2.9993489583333326  0.07670454545454546 2.9329427083333326  C 0.12784090909090912 2.8665364583333326  0.19318181818181818 2.8333333333333326  0.2727272727272727 2.8333333333333326  L 2.90625 2.8333333333333326  L 3.502840909090909 0.9850260416666673  C 3.5880681818181825 0.712022569444443  3.7414772727272734 0.479600694444443  3.9630681818181817 0.2877604166666673  C 4.184659090909092 0.09592013888888784  4.409090909090909 0  4.636363636363637 0  L 7.363636363636363 0  C 7.590909090909092 0  7.815340909090908 0.09592013888888784  8.036931818181818 0.2877604166666673  C 8.258522727272727 0.479600694444443  8.411931818181818 0.712022569444443  8.497159090909092 0.9850260416666673  L 9.09375 2.8333333333333326  L 11.727272727272727 2.8333333333333326  C 11.806818181818183 2.8333333333333326  11.872159090909092 2.8665364583333326  11.923295454545455 2.9329427083333326  Z " stroke-width="0" stroke-dasharray="0" stroke="rgba(255, 255, 255, 0)" fill="none" transform="matrix(1 0 0 1 410 185 )" class="stroke" mask="url(#Clip24)" />
  </g>
</svg>