<?xml version="1.0" encoding="utf-8"?>
<svg version="1.1" xmlns:xlink="http://www.w3.org/1999/xlink" width="15px" height="15px" xmlns="http://www.w3.org/2000/svg">
  <defs>
    <pattern id="BGPattern" patternUnits="userSpaceOnUse" alignment="0 0" imageRepeat="None" />
    <mask fill="white" id="Clip5">
      <path d="M 10.714285714285715 3.2142857142857144  L 14.196428571428571 3.2142857142857144  C 14.419642857142858 3.2142857142857144  14.609375 3.2924107142857135  14.765625 3.4486607142857144  C 14.921875000000002 3.604910714285712  15 3.7946428571428568  15 4.017857142857143  L 15 14.196428571428571  C 15 14.419642857142858  14.921875000000002 14.609374999999998  14.765625 14.765625  C 14.609375 14.921875000000002  14.419642857142858 15  14.196428571428571 15  L 6.160714285714286 15  C 5.937500000000001 15  5.747767857142858 14.921875000000002  5.591517857142858 14.765625  C 5.435267857142858 14.609374999999998  5.357142857142858 14.419642857142858  5.357142857142858 14.196428571428571  L 5.357142857142858 11.785714285714285  L 0.8035714285714285 11.785714285714285  C 0.580357142857143 11.785714285714285  0.390625 11.707589285714286  0.234375 11.551339285714285  C 0.078125 11.395089285714286  0 11.205357142857142  0 10.982142857142858  L 0 5.357142857142857  C 0 5.133928571428571  0.055803571428571425 4.888392857142857  0.1674107142857143 4.620535714285714  C 0.27901785714285715 4.352678571428571  0.4129464285714286 4.140624999999999  0.5691964285714285 3.984375  L 3.984375 0.569196428571429  C 4.140625 0.41294642857142794  4.352678571428572 0.279017857142857  4.620535714285714 0.16741071428571452  C 4.888392857142858 0.05580357142857206  5.133928571428571 0  5.357142857142858 0  L 8.839285714285715 0  C 9.062500000000002 0  9.252232142857144 0.07812500000000056  9.408482142857144 0.234375  C 9.564732142857142 0.39062499999999944  9.642857142857144 0.5803571428571425  9.642857142857144 0.803571428571429  L 9.642857142857144 3.5491071428571437  C 10.022321428571429 3.3258928571428568  10.379464285714285 3.2142857142857144  10.714285714285715 3.2142857142857144  Z M 9.642857142857144 7.5  L 9.642857142857144 4.997209821428571  L 7.140066964285714 7.5  L 9.642857142857144 7.5  Z M 4.285714285714286 4.285714285714286  L 4.285714285714286 1.7829241071428563  L 1.782924107142857 4.285714285714286  L 4.285714285714286 4.285714285714286  Z M 5.524553571428572 7.834821428571429  C 5.636160714285714 7.566964285714286  5.7700892857142865 7.3549107142857135  5.926339285714286 7.198660714285714  L 8.571428571428571 4.553571428571429  L 8.571428571428571 1.071428571428571  L 5.357142857142858 1.071428571428571  L 5.357142857142858 4.553571428571429  C 5.357142857142858 4.776785714285713  5.279017857142858 4.966517857142857  5.122767857142858 5.122767857142857  C 4.966517857142858 5.279017857142856  4.776785714285714 5.357142857142857  4.553571428571428 5.357142857142857  L 1.0714285714285714 5.357142857142857  L 1.0714285714285714 10.714285714285715  L 5.357142857142858 10.714285714285715  L 5.357142857142858 8.571428571428571  C 5.357142857142858 8.348214285714286  5.41294642857143 8.102678571428571  5.524553571428572 7.834821428571429  Z M 6.428571428571428 13.928571428571429  L 13.928571428571429 13.928571428571429  L 13.928571428571429 4.285714285714286  L 10.714285714285715 4.285714285714286  L 10.714285714285715 7.767857142857142  C 10.714285714285715 7.991071428571429  10.636160714285715 8.18080357142857  10.479910714285715 8.337053571428571  C 10.323660714285715 8.493303571428573  10.133928571428573 8.571428571428571  9.910714285714285 8.571428571428571  L 6.428571428571428 8.571428571428571  L 6.428571428571428 13.928571428571429  Z " fill-rule="evenodd" />
    </mask>
  </defs>
  <g transform="matrix(1 0 0 1 -239 -1097 )">
    <path d="M 10.714285714285715 3.2142857142857144  L 14.196428571428571 3.2142857142857144  C 14.419642857142858 3.2142857142857144  14.609375 3.2924107142857135  14.765625 3.4486607142857144  C 14.921875000000002 3.604910714285712  15 3.7946428571428568  15 4.017857142857143  L 15 14.196428571428571  C 15 14.419642857142858  14.921875000000002 14.609374999999998  14.765625 14.765625  C 14.609375 14.921875000000002  14.419642857142858 15  14.196428571428571 15  L 6.160714285714286 15  C 5.937500000000001 15  5.747767857142858 14.921875000000002  5.591517857142858 14.765625  C 5.435267857142858 14.609374999999998  5.357142857142858 14.419642857142858  5.357142857142858 14.196428571428571  L 5.357142857142858 11.785714285714285  L 0.8035714285714285 11.785714285714285  C 0.580357142857143 11.785714285714285  0.390625 11.707589285714286  0.234375 11.551339285714285  C 0.078125 11.395089285714286  0 11.205357142857142  0 10.982142857142858  L 0 5.357142857142857  C 0 5.133928571428571  0.055803571428571425 4.888392857142857  0.1674107142857143 4.620535714285714  C 0.27901785714285715 4.352678571428571  0.4129464285714286 4.140624999999999  0.5691964285714285 3.984375  L 3.984375 0.569196428571429  C 4.140625 0.41294642857142794  4.352678571428572 0.279017857142857  4.620535714285714 0.16741071428571452  C 4.888392857142858 0.05580357142857206  5.133928571428571 0  5.357142857142858 0  L 8.839285714285715 0  C 9.062500000000002 0  9.252232142857144 0.07812500000000056  9.408482142857144 0.234375  C 9.564732142857142 0.39062499999999944  9.642857142857144 0.5803571428571425  9.642857142857144 0.803571428571429  L 9.642857142857144 3.5491071428571437  C 10.022321428571429 3.3258928571428568  10.379464285714285 3.2142857142857144  10.714285714285715 3.2142857142857144  Z M 9.642857142857144 7.5  L 9.642857142857144 4.997209821428571  L 7.140066964285714 7.5  L 9.642857142857144 7.5  Z M 4.285714285714286 4.285714285714286  L 4.285714285714286 1.7829241071428563  L 1.782924107142857 4.285714285714286  L 4.285714285714286 4.285714285714286  Z M 5.524553571428572 7.834821428571429  C 5.636160714285714 7.566964285714286  5.7700892857142865 7.3549107142857135  5.926339285714286 7.198660714285714  L 8.571428571428571 4.553571428571429  L 8.571428571428571 1.071428571428571  L 5.357142857142858 1.071428571428571  L 5.357142857142858 4.553571428571429  C 5.357142857142858 4.776785714285713  5.279017857142858 4.966517857142857  5.122767857142858 5.122767857142857  C 4.966517857142858 5.279017857142856  4.776785714285714 5.357142857142857  4.553571428571428 5.357142857142857  L 1.0714285714285714 5.357142857142857  L 1.0714285714285714 10.714285714285715  L 5.357142857142858 10.714285714285715  L 5.357142857142858 8.571428571428571  C 5.357142857142858 8.348214285714286  5.41294642857143 8.102678571428571  5.524553571428572 7.834821428571429  Z M 6.428571428571428 13.928571428571429  L 13.928571428571429 13.928571428571429  L 13.928571428571429 4.285714285714286  L 10.714285714285715 4.285714285714286  L 10.714285714285715 7.767857142857142  C 10.714285714285715 7.991071428571429  10.636160714285715 8.18080357142857  10.479910714285715 8.337053571428571  C 10.323660714285715 8.493303571428573  10.133928571428573 8.571428571428571  9.910714285714285 8.571428571428571  L 6.428571428571428 8.571428571428571  L 6.428571428571428 13.928571428571429  Z " fill-rule="nonzero" fill="rgba(25, 70, 220, 1)" stroke="none" transform="matrix(1 0 0 1 239 1097 )" class="fill" />
    <path d="M 10.714285714285715 3.2142857142857144  L 14.196428571428571 3.2142857142857144  C 14.419642857142858 3.2142857142857144  14.609375 3.2924107142857135  14.765625 3.4486607142857144  C 14.921875000000002 3.604910714285712  15 3.7946428571428568  15 4.017857142857143  L 15 14.196428571428571  C 15 14.419642857142858  14.921875000000002 14.609374999999998  14.765625 14.765625  C 14.609375 14.921875000000002  14.419642857142858 15  14.196428571428571 15  L 6.160714285714286 15  C 5.937500000000001 15  5.747767857142858 14.921875000000002  5.591517857142858 14.765625  C 5.435267857142858 14.609374999999998  5.357142857142858 14.419642857142858  5.357142857142858 14.196428571428571  L 5.357142857142858 11.785714285714285  L 0.8035714285714285 11.785714285714285  C 0.580357142857143 11.785714285714285  0.390625 11.707589285714286  0.234375 11.551339285714285  C 0.078125 11.395089285714286  0 11.205357142857142  0 10.982142857142858  L 0 5.357142857142857  C 0 5.133928571428571  0.055803571428571425 4.888392857142857  0.1674107142857143 4.620535714285714  C 0.27901785714285715 4.352678571428571  0.4129464285714286 4.140624999999999  0.5691964285714285 3.984375  L 3.984375 0.569196428571429  C 4.140625 0.41294642857142794  4.352678571428572 0.279017857142857  4.620535714285714 0.16741071428571452  C 4.888392857142858 0.05580357142857206  5.133928571428571 0  5.357142857142858 0  L 8.839285714285715 0  C 9.062500000000002 0  9.252232142857144 0.07812500000000056  9.408482142857144 0.234375  C 9.564732142857142 0.39062499999999944  9.642857142857144 0.5803571428571425  9.642857142857144 0.803571428571429  L 9.642857142857144 3.5491071428571437  C 10.022321428571429 3.3258928571428568  10.379464285714285 3.2142857142857144  10.714285714285715 3.2142857142857144  Z " stroke-width="0" stroke-dasharray="0" stroke="rgba(255, 255, 255, 0)" fill="none" transform="matrix(1 0 0 1 239 1097 )" class="stroke" mask="url(#Clip5)" />
    <path d="M 9.642857142857144 7.5  L 9.642857142857144 4.997209821428571  L 7.140066964285714 7.5  L 9.642857142857144 7.5  Z " stroke-width="0" stroke-dasharray="0" stroke="rgba(255, 255, 255, 0)" fill="none" transform="matrix(1 0 0 1 239 1097 )" class="stroke" mask="url(#Clip5)" />
    <path d="M 4.285714285714286 4.285714285714286  L 4.285714285714286 1.7829241071428563  L 1.782924107142857 4.285714285714286  L 4.285714285714286 4.285714285714286  Z " stroke-width="0" stroke-dasharray="0" stroke="rgba(255, 255, 255, 0)" fill="none" transform="matrix(1 0 0 1 239 1097 )" class="stroke" mask="url(#Clip5)" />
    <path d="M 5.524553571428572 7.834821428571429  C 5.636160714285714 7.566964285714286  5.7700892857142865 7.3549107142857135  5.926339285714286 7.198660714285714  L 8.571428571428571 4.553571428571429  L 8.571428571428571 1.071428571428571  L 5.357142857142858 1.071428571428571  L 5.357142857142858 4.553571428571429  C 5.357142857142858 4.776785714285713  5.279017857142858 4.966517857142857  5.122767857142858 5.122767857142857  C 4.966517857142858 5.279017857142856  4.776785714285714 5.357142857142857  4.553571428571428 5.357142857142857  L 1.0714285714285714 5.357142857142857  L 1.0714285714285714 10.714285714285715  L 5.357142857142858 10.714285714285715  L 5.357142857142858 8.571428571428571  C 5.357142857142858 8.348214285714286  5.41294642857143 8.102678571428571  5.524553571428572 7.834821428571429  Z " stroke-width="0" stroke-dasharray="0" stroke="rgba(255, 255, 255, 0)" fill="none" transform="matrix(1 0 0 1 239 1097 )" class="stroke" mask="url(#Clip5)" />
    <path d="M 6.428571428571428 13.928571428571429  L 13.928571428571429 13.928571428571429  L 13.928571428571429 4.285714285714286  L 10.714285714285715 4.285714285714286  L 10.714285714285715 7.767857142857142  C 10.714285714285715 7.991071428571429  10.636160714285715 8.18080357142857  10.479910714285715 8.337053571428571  C 10.323660714285715 8.493303571428573  10.133928571428573 8.571428571428571  9.910714285714285 8.571428571428571  L 6.428571428571428 8.571428571428571  L 6.428571428571428 13.928571428571429  Z " stroke-width="0" stroke-dasharray="0" stroke="rgba(255, 255, 255, 0)" fill="none" transform="matrix(1 0 0 1 239 1097 )" class="stroke" mask="url(#Clip5)" />
  </g>
</svg>