<?xml version="1.0" encoding="utf-8"?>
<svg version="1.1" xmlns:xlink="http://www.w3.org/1999/xlink" width="14px" height="13px" xmlns="http://www.w3.org/2000/svg">
  <defs>
    <pattern id="BGPattern" patternUnits="userSpaceOnUse" alignment="0 0" imageRepeat="None" />
    <mask fill="white" id="Clip9">
      <path d="M 13.285714285714286 2.598307291666666  C 13.498599439775912 2.682942708333334  13.663865546218487 2.804253472222221  13.781512605042016 2.962239583333334  C 14.005602240896359 3.283854166666666  14.056022408963585 3.647786458333334  13.932773109243698 4.054036458333334  L 11.621848739495798 11.722005208333334  C 11.515406162464988 12.083116319444445  11.301120448179272 12.386393229166666  10.978991596638656 12.6318359375  C 10.65686274509804 12.877278645833334  10.313725490196079 13  9.949579831932773 13  L 2.19327731092437 13  C 1.7619047619047619 13  1.3459383753501402 12.849066840277779  0.9453781512605043 12.547200520833334  C 0.5448179271708684 12.24533420138889  0.26610644257703087 11.874348958333334  0.1092436974789916 11.434244791666666  C -0.025210084033613446 11.056206597222221  -0.03081232492997199 10.697916666666666  0.09243697478991597 10.359375  C 0.09243697478991597 10.336805555555555  0.10084033613445378 10.260633680555555  0.11764705882352941 10.130859375  C 0.13445378151260504 10.001085069444443  0.14565826330532214 9.89670138888889  0.1512605042016807 9.817708333333334  C 0.1568627450980392 9.772569444444445  0.1484593837535014 9.7119140625  0.12605042016806722 9.6357421875  C 0.10364145658263306 9.5595703125  0.09523809523809525 9.504557291666668  0.10084033613445378 9.470703125  C 0.11204481792717087 9.408637152777777  0.13445378151260504 9.34939236111111  0.16806722689075632 9.29296875  C 0.20168067226890757 9.236545138888888  0.24789915966386553 9.170247395833332  0.3067226890756303 9.094075520833332  C 0.365546218487395 9.017903645833332  0.4117647058823529 8.951605902777777  0.4453781512605042 8.895182291666668  C 0.5742296918767508 8.680772569444443  0.700280112044818 8.42263454861111  0.8235294117647058 8.120768229166668  C 0.9467787114845938 7.818901909722222  1.0308123249299719 7.5607638888888875  1.0756302521008403 7.346354166666668  C 1.0924369747899159 7.289930555555555  1.0938375350140057 7.2052951388888875  1.0798319327731092 7.092447916666668  C 1.065826330532213 6.979600694444445  1.0644257703081232 6.9006076388888875  1.0756302521008403 6.85546875  C 1.0924369747899159 6.793402777777778  1.1400560224089638 6.714409722222222  1.2184873949579833 6.618489583333332  C 1.2969187675070029 6.522569444444445  1.3445378151260505 6.457682291666666  1.361344537815126 6.423828125  C 1.4789915966386555 6.220703125  1.596638655462185 5.961154513888888  1.7142857142857142 5.645182291666666  C 1.8319327731092436 5.329210069444444  1.9019607843137258 5.075303819444444  1.9243697478991597 4.883463541666666  C 1.9299719887955182 4.832682291666666  1.9229691876750699 4.742404513888888  1.903361344537815 4.612630208333334  C 1.8837535014005602 4.482855902777778  1.88515406162465 4.403862847222221  1.9075630252100841 4.375651041666666  C 1.9299719887955182 4.302300347222221  1.9915966386554622 4.216254340277776  2.092436974789916 4.117513020833334  C 2.19327731092437 4.018771701388888  2.2549019607843137 3.955295138888889  2.277310924369748 3.927083333333334  C 2.3837535014005606 3.7803819444444438  2.5028011204481797 3.5419921875  2.634453781512605 3.2119140625  C 2.7661064425770308 2.8818359375  2.8431372549019613 2.609592013888889  2.865546218487395 2.395182291666666  C 2.8711484593837535 2.350043402777776  2.862745098039216 2.27810329861111  2.8403361344537816 2.179361979166666  C 2.8179271708683475 2.080620659722221  2.812324929971989 2.005859375  2.823529411764706 1.955078125  C 2.834733893557423 1.9099392361111098  2.859943977591037 1.8591579861111098  2.899159663865546 1.802734375  C 2.9383753501400562 1.7463107638888888  2.988795518207283 1.6814236111111098  3.0504201680672267 1.608072916666666  C 3.1120448179271714 1.534722222222221  3.1596638655462184 1.475477430555555  3.19327731092437 1.430338541666666  C 3.2380952380952386 1.362630208333334  3.2843137254901964 1.2765842013888888  3.331932773109244 1.172200520833334  C 3.3795518207282913 1.067816840277776  3.4215686274509807 0.9690755208333338  3.4579831932773106 0.8759765625  C 3.4943977591036415 0.7828776041666662  3.5392156862745106 0.6813151041666662  3.5924369747899156 0.5712890625  C 3.6456582633053225 0.4612630208333338  3.700280112044818 0.3709852430555549  3.756302521008403 0.3004557291666662  C 3.8123249299719895 0.229926215277776  3.88655462184874 0.1636284722222211  3.9789915966386555 0.1015625  C 4.071428571428572 0.039496527777776014  4.1722689075630255 0.0070529513888887285  4.281512605042017 0.004231770833333814  C 4.390756302521009 0.0014105902777760138  4.523809523809524 0.016927083333333814  4.680672268907562 0.05078125  L 4.6722689075630255 0.076171875  C 4.88515406162465 0.025390625  5.028011204481793 0  5.100840336134453 0  L 11.495798319327731 0  C 11.910364145658265 0  12.229691876750701 0.15798611111110983  12.453781512605042 0.4739583333333338  C 12.677871148459385 0.7899305555555549  12.728291316526612 1.156684027777776  12.605042016806724 1.57421875  L 10.30252100840336 9.2421875  C 10.100840336134453 9.913628472222221  9.900560224089636 10.3466796875  9.701680672268909 10.541341145833334  C 9.502801120448181 10.736002604166666  9.142857142857142 10.833333333333334  8.621848739495798 10.833333333333334  L 1.319327731092437 10.833333333333334  C 1.1680672268907564 10.833333333333334  1.061624649859944 10.875651041666666  1 10.960286458333334  C 0.938375350140056 11.05056423611111  0.9355742296918769 11.171875  0.9915966386554621 11.32421875  C 1.1260504201680672 11.719184027777779  1.5294117647058822 11.916666666666666  2.2016806722689073 11.916666666666666  L 9.957983193277311 11.916666666666666  C 10.12044817927171 11.916666666666666  10.277310924369749 11.872938368055555  10.428571428571429 11.785481770833334  C 10.579831932773109 11.69802517361111  10.677871148459385 11.580946180555555  10.722689075630251 11.434244791666666  L 13.243697478991596 3.080729166666666  C 13.282913165266107 2.956597222222221  13.296918767507004 2.795789930555555  13.285714285714286 2.598307291666666  Z M 5.016806722689076 2.4375  L 4.840336134453782 2.979166666666666  C 4.817927170868347 3.05251736111111  4.823529411764706 3.11599392361111  4.857142857142857 3.169596354166666  C 4.890756302521009 3.223198784722221  4.946778711484595 3.25  5.025210084033613 3.25  L 10.134453781512605 3.25  C 10.207282913165267 3.25  10.278711484593838 3.223198784722221  10.34873949579832 3.169596354166666  C 10.418767507002801 3.11599392361111  10.464985994397761 3.05251736111111  10.487394957983193 2.979166666666666  L 10.663865546218487 2.4375  C 10.686274509803923 2.364149305555555  10.680672268907564 2.300672743055555  10.647058823529411 2.2470703125  C 10.61344537815126 2.1934678819444438  10.557422969187677 2.166666666666666  10.478991596638656 2.166666666666666  L 5.369747899159664 2.166666666666666  C 5.296918767507003 2.166666666666666  5.2254901960784315 2.1934678819444438  5.155462184873949 2.2470703125  C 5.085434173669468 2.300672743055555  5.0392156862745106 2.364149305555555  5.016806722689076 2.4375  Z M 4.319327731092437 4.604166666666666  L 4.142857142857142 5.145833333333334  C 4.120448179271709 5.219184027777778  4.126050420168068 5.282660590277778  4.159663865546219 5.336263020833334  C 4.19327731092437 5.389865451388888  4.249299719887955 5.416666666666666  4.327731092436975 5.416666666666666  L 9.436974789915967 5.416666666666666  C 9.509803921568627 5.416666666666666  9.5812324929972 5.389865451388888  9.65126050420168 5.336263020833334  C 9.721288515406165 5.282660590277778  9.767507002801121 5.219184027777778  9.789915966386555 5.145833333333334  L 9.966386554621849 4.604166666666666  C 9.988795518207283 4.530815972222221  9.983193277310924 4.467339409722221  9.949579831932773 4.413736979166666  C 9.915966386554622 4.360134548611112  9.859943977591037 4.333333333333334  9.781512605042018 4.333333333333334  L 4.6722689075630255 4.333333333333334  C 4.599439775910365 4.333333333333334  4.5280112044817935 4.360134548611112  4.457983193277311 4.413736979166666  C 4.3879551820728295 4.467339409722221  4.341736694677872 4.530815972222221  4.319327731092437 4.604166666666666  Z " fill-rule="evenodd" />
    </mask>
  </defs>
  <g transform="matrix(1 0 0 1 -41 -929 )">
    <path d="M 13.285714285714286 2.598307291666666  C 13.498599439775912 2.682942708333334  13.663865546218487 2.804253472222221  13.781512605042016 2.962239583333334  C 14.005602240896359 3.283854166666666  14.056022408963585 3.647786458333334  13.932773109243698 4.054036458333334  L 11.621848739495798 11.722005208333334  C 11.515406162464988 12.083116319444445  11.301120448179272 12.386393229166666  10.978991596638656 12.6318359375  C 10.65686274509804 12.877278645833334  10.313725490196079 13  9.949579831932773 13  L 2.19327731092437 13  C 1.7619047619047619 13  1.3459383753501402 12.849066840277779  0.9453781512605043 12.547200520833334  C 0.5448179271708684 12.24533420138889  0.26610644257703087 11.874348958333334  0.1092436974789916 11.434244791666666  C -0.025210084033613446 11.056206597222221  -0.03081232492997199 10.697916666666666  0.09243697478991597 10.359375  C 0.09243697478991597 10.336805555555555  0.10084033613445378 10.260633680555555  0.11764705882352941 10.130859375  C 0.13445378151260504 10.001085069444443  0.14565826330532214 9.89670138888889  0.1512605042016807 9.817708333333334  C 0.1568627450980392 9.772569444444445  0.1484593837535014 9.7119140625  0.12605042016806722 9.6357421875  C 0.10364145658263306 9.5595703125  0.09523809523809525 9.504557291666668  0.10084033613445378 9.470703125  C 0.11204481792717087 9.408637152777777  0.13445378151260504 9.34939236111111  0.16806722689075632 9.29296875  C 0.20168067226890757 9.236545138888888  0.24789915966386553 9.170247395833332  0.3067226890756303 9.094075520833332  C 0.365546218487395 9.017903645833332  0.4117647058823529 8.951605902777777  0.4453781512605042 8.895182291666668  C 0.5742296918767508 8.680772569444443  0.700280112044818 8.42263454861111  0.8235294117647058 8.120768229166668  C 0.9467787114845938 7.818901909722222  1.0308123249299719 7.5607638888888875  1.0756302521008403 7.346354166666668  C 1.0924369747899159 7.289930555555555  1.0938375350140057 7.2052951388888875  1.0798319327731092 7.092447916666668  C 1.065826330532213 6.979600694444445  1.0644257703081232 6.9006076388888875  1.0756302521008403 6.85546875  C 1.0924369747899159 6.793402777777778  1.1400560224089638 6.714409722222222  1.2184873949579833 6.618489583333332  C 1.2969187675070029 6.522569444444445  1.3445378151260505 6.457682291666666  1.361344537815126 6.423828125  C 1.4789915966386555 6.220703125  1.596638655462185 5.961154513888888  1.7142857142857142 5.645182291666666  C 1.8319327731092436 5.329210069444444  1.9019607843137258 5.075303819444444  1.9243697478991597 4.883463541666666  C 1.9299719887955182 4.832682291666666  1.9229691876750699 4.742404513888888  1.903361344537815 4.612630208333334  C 1.8837535014005602 4.482855902777778  1.88515406162465 4.403862847222221  1.9075630252100841 4.375651041666666  C 1.9299719887955182 4.302300347222221  1.9915966386554622 4.216254340277776  2.092436974789916 4.117513020833334  C 2.19327731092437 4.018771701388888  2.2549019607843137 3.955295138888889  2.277310924369748 3.927083333333334  C 2.3837535014005606 3.7803819444444438  2.5028011204481797 3.5419921875  2.634453781512605 3.2119140625  C 2.7661064425770308 2.8818359375  2.8431372549019613 2.609592013888889  2.865546218487395 2.395182291666666  C 2.8711484593837535 2.350043402777776  2.862745098039216 2.27810329861111  2.8403361344537816 2.179361979166666  C 2.8179271708683475 2.080620659722221  2.812324929971989 2.005859375  2.823529411764706 1.955078125  C 2.834733893557423 1.9099392361111098  2.859943977591037 1.8591579861111098  2.899159663865546 1.802734375  C 2.9383753501400562 1.7463107638888888  2.988795518207283 1.6814236111111098  3.0504201680672267 1.608072916666666  C 3.1120448179271714 1.534722222222221  3.1596638655462184 1.475477430555555  3.19327731092437 1.430338541666666  C 3.2380952380952386 1.362630208333334  3.2843137254901964 1.2765842013888888  3.331932773109244 1.172200520833334  C 3.3795518207282913 1.067816840277776  3.4215686274509807 0.9690755208333338  3.4579831932773106 0.8759765625  C 3.4943977591036415 0.7828776041666662  3.5392156862745106 0.6813151041666662  3.5924369747899156 0.5712890625  C 3.6456582633053225 0.4612630208333338  3.700280112044818 0.3709852430555549  3.756302521008403 0.3004557291666662  C 3.8123249299719895 0.229926215277776  3.88655462184874 0.1636284722222211  3.9789915966386555 0.1015625  C 4.071428571428572 0.039496527777776014  4.1722689075630255 0.0070529513888887285  4.281512605042017 0.004231770833333814  C 4.390756302521009 0.0014105902777760138  4.523809523809524 0.016927083333333814  4.680672268907562 0.05078125  L 4.6722689075630255 0.076171875  C 4.88515406162465 0.025390625  5.028011204481793 0  5.100840336134453 0  L 11.495798319327731 0  C 11.910364145658265 0  12.229691876750701 0.15798611111110983  12.453781512605042 0.4739583333333338  C 12.677871148459385 0.7899305555555549  12.728291316526612 1.156684027777776  12.605042016806724 1.57421875  L 10.30252100840336 9.2421875  C 10.100840336134453 9.913628472222221  9.900560224089636 10.3466796875  9.701680672268909 10.541341145833334  C 9.502801120448181 10.736002604166666  9.142857142857142 10.833333333333334  8.621848739495798 10.833333333333334  L 1.319327731092437 10.833333333333334  C 1.1680672268907564 10.833333333333334  1.061624649859944 10.875651041666666  1 10.960286458333334  C 0.938375350140056 11.05056423611111  0.9355742296918769 11.171875  0.9915966386554621 11.32421875  C 1.1260504201680672 11.719184027777779  1.5294117647058822 11.916666666666666  2.2016806722689073 11.916666666666666  L 9.957983193277311 11.916666666666666  C 10.12044817927171 11.916666666666666  10.277310924369749 11.872938368055555  10.428571428571429 11.785481770833334  C 10.579831932773109 11.69802517361111  10.677871148459385 11.580946180555555  10.722689075630251 11.434244791666666  L 13.243697478991596 3.080729166666666  C 13.282913165266107 2.956597222222221  13.296918767507004 2.795789930555555  13.285714285714286 2.598307291666666  Z M 5.016806722689076 2.4375  L 4.840336134453782 2.979166666666666  C 4.817927170868347 3.05251736111111  4.823529411764706 3.11599392361111  4.857142857142857 3.169596354166666  C 4.890756302521009 3.223198784722221  4.946778711484595 3.25  5.025210084033613 3.25  L 10.134453781512605 3.25  C 10.207282913165267 3.25  10.278711484593838 3.223198784722221  10.34873949579832 3.169596354166666  C 10.418767507002801 3.11599392361111  10.464985994397761 3.05251736111111  10.487394957983193 2.979166666666666  L 10.663865546218487 2.4375  C 10.686274509803923 2.364149305555555  10.680672268907564 2.300672743055555  10.647058823529411 2.2470703125  C 10.61344537815126 2.1934678819444438  10.557422969187677 2.166666666666666  10.478991596638656 2.166666666666666  L 5.369747899159664 2.166666666666666  C 5.296918767507003 2.166666666666666  5.2254901960784315 2.1934678819444438  5.155462184873949 2.2470703125  C 5.085434173669468 2.300672743055555  5.0392156862745106 2.364149305555555  5.016806722689076 2.4375  Z M 4.319327731092437 4.604166666666666  L 4.142857142857142 5.145833333333334  C 4.120448179271709 5.219184027777778  4.126050420168068 5.282660590277778  4.159663865546219 5.336263020833334  C 4.19327731092437 5.389865451388888  4.249299719887955 5.416666666666666  4.327731092436975 5.416666666666666  L 9.436974789915967 5.416666666666666  C 9.509803921568627 5.416666666666666  9.5812324929972 5.389865451388888  9.65126050420168 5.336263020833334  C 9.721288515406165 5.282660590277778  9.767507002801121 5.219184027777778  9.789915966386555 5.145833333333334  L 9.966386554621849 4.604166666666666  C 9.988795518207283 4.530815972222221  9.983193277310924 4.467339409722221  9.949579831932773 4.413736979166666  C 9.915966386554622 4.360134548611112  9.859943977591037 4.333333333333334  9.781512605042018 4.333333333333334  L 4.6722689075630255 4.333333333333334  C 4.599439775910365 4.333333333333334  4.5280112044817935 4.360134548611112  4.457983193277311 4.413736979166666  C 4.3879551820728295 4.467339409722221  4.341736694677872 4.530815972222221  4.319327731092437 4.604166666666666  Z " fill-rule="nonzero" fill="rgba(0, 0, 0, 1)" stroke="none" transform="matrix(1 0 0 1 41 929 )" class="fill" />
    <path d="M 13.285714285714286 2.598307291666666  C 13.498599439775912 2.682942708333334  13.663865546218487 2.804253472222221  13.781512605042016 2.962239583333334  C 14.005602240896359 3.283854166666666  14.056022408963585 3.647786458333334  13.932773109243698 4.054036458333334  L 11.621848739495798 11.722005208333334  C 11.515406162464988 12.083116319444445  11.301120448179272 12.386393229166666  10.978991596638656 12.6318359375  C 10.65686274509804 12.877278645833334  10.313725490196079 13  9.949579831932773 13  L 2.19327731092437 13  C 1.7619047619047619 13  1.3459383753501402 12.849066840277779  0.9453781512605043 12.547200520833334  C 0.5448179271708684 12.24533420138889  0.26610644257703087 11.874348958333334  0.1092436974789916 11.434244791666666  C -0.025210084033613446 11.056206597222221  -0.03081232492997199 10.697916666666666  0.09243697478991597 10.359375  C 0.09243697478991597 10.336805555555555  0.10084033613445378 10.260633680555555  0.11764705882352941 10.130859375  C 0.13445378151260504 10.001085069444443  0.14565826330532214 9.89670138888889  0.1512605042016807 9.817708333333334  C 0.1568627450980392 9.772569444444445  0.1484593837535014 9.7119140625  0.12605042016806722 9.6357421875  C 0.10364145658263306 9.5595703125  0.09523809523809525 9.504557291666668  0.10084033613445378 9.470703125  C 0.11204481792717087 9.408637152777777  0.13445378151260504 9.34939236111111  0.16806722689075632 9.29296875  C 0.20168067226890757 9.236545138888888  0.24789915966386553 9.170247395833332  0.3067226890756303 9.094075520833332  C 0.365546218487395 9.017903645833332  0.4117647058823529 8.951605902777777  0.4453781512605042 8.895182291666668  C 0.5742296918767508 8.680772569444443  0.700280112044818 8.42263454861111  0.8235294117647058 8.120768229166668  C 0.9467787114845938 7.818901909722222  1.0308123249299719 7.5607638888888875  1.0756302521008403 7.346354166666668  C 1.0924369747899159 7.289930555555555  1.0938375350140057 7.2052951388888875  1.0798319327731092 7.092447916666668  C 1.065826330532213 6.979600694444445  1.0644257703081232 6.9006076388888875  1.0756302521008403 6.85546875  C 1.0924369747899159 6.793402777777778  1.1400560224089638 6.714409722222222  1.2184873949579833 6.618489583333332  C 1.2969187675070029 6.522569444444445  1.3445378151260505 6.457682291666666  1.361344537815126 6.423828125  C 1.4789915966386555 6.220703125  1.596638655462185 5.961154513888888  1.7142857142857142 5.645182291666666  C 1.8319327731092436 5.329210069444444  1.9019607843137258 5.075303819444444  1.9243697478991597 4.883463541666666  C 1.9299719887955182 4.832682291666666  1.9229691876750699 4.742404513888888  1.903361344537815 4.612630208333334  C 1.8837535014005602 4.482855902777778  1.88515406162465 4.403862847222221  1.9075630252100841 4.375651041666666  C 1.9299719887955182 4.302300347222221  1.9915966386554622 4.216254340277776  2.092436974789916 4.117513020833334  C 2.19327731092437 4.018771701388888  2.2549019607843137 3.955295138888889  2.277310924369748 3.927083333333334  C 2.3837535014005606 3.7803819444444438  2.5028011204481797 3.5419921875  2.634453781512605 3.2119140625  C 2.7661064425770308 2.8818359375  2.8431372549019613 2.609592013888889  2.865546218487395 2.395182291666666  C 2.8711484593837535 2.350043402777776  2.862745098039216 2.27810329861111  2.8403361344537816 2.179361979166666  C 2.8179271708683475 2.080620659722221  2.812324929971989 2.005859375  2.823529411764706 1.955078125  C 2.834733893557423 1.9099392361111098  2.859943977591037 1.8591579861111098  2.899159663865546 1.802734375  C 2.9383753501400562 1.7463107638888888  2.988795518207283 1.6814236111111098  3.0504201680672267 1.608072916666666  C 3.1120448179271714 1.534722222222221  3.1596638655462184 1.475477430555555  3.19327731092437 1.430338541666666  C 3.2380952380952386 1.362630208333334  3.2843137254901964 1.2765842013888888  3.331932773109244 1.172200520833334  C 3.3795518207282913 1.067816840277776  3.4215686274509807 0.9690755208333338  3.4579831932773106 0.8759765625  C 3.4943977591036415 0.7828776041666662  3.5392156862745106 0.6813151041666662  3.5924369747899156 0.5712890625  C 3.6456582633053225 0.4612630208333338  3.700280112044818 0.3709852430555549  3.756302521008403 0.3004557291666662  C 3.8123249299719895 0.229926215277776  3.88655462184874 0.1636284722222211  3.9789915966386555 0.1015625  C 4.071428571428572 0.039496527777776014  4.1722689075630255 0.0070529513888887285  4.281512605042017 0.004231770833333814  C 4.390756302521009 0.0014105902777760138  4.523809523809524 0.016927083333333814  4.680672268907562 0.05078125  L 4.6722689075630255 0.076171875  C 4.88515406162465 0.025390625  5.028011204481793 0  5.100840336134453 0  L 11.495798319327731 0  C 11.910364145658265 0  12.229691876750701 0.15798611111110983  12.453781512605042 0.4739583333333338  C 12.677871148459385 0.7899305555555549  12.728291316526612 1.156684027777776  12.605042016806724 1.57421875  L 10.30252100840336 9.2421875  C 10.100840336134453 9.913628472222221  9.900560224089636 10.3466796875  9.701680672268909 10.541341145833334  C 9.502801120448181 10.736002604166666  9.142857142857142 10.833333333333334  8.621848739495798 10.833333333333334  L 1.319327731092437 10.833333333333334  C 1.1680672268907564 10.833333333333334  1.061624649859944 10.875651041666666  1 10.960286458333334  C 0.938375350140056 11.05056423611111  0.9355742296918769 11.171875  0.9915966386554621 11.32421875  C 1.1260504201680672 11.719184027777779  1.5294117647058822 11.916666666666666  2.2016806722689073 11.916666666666666  L 9.957983193277311 11.916666666666666  C 10.12044817927171 11.916666666666666  10.277310924369749 11.872938368055555  10.428571428571429 11.785481770833334  C 10.579831932773109 11.69802517361111  10.677871148459385 11.580946180555555  10.722689075630251 11.434244791666666  L 13.243697478991596 3.080729166666666  C 13.282913165266107 2.956597222222221  13.296918767507004 2.795789930555555  13.285714285714286 2.598307291666666  Z " stroke-width="0" stroke-dasharray="0" stroke="rgba(255, 255, 255, 0)" fill="none" transform="matrix(1 0 0 1 41 929 )" class="stroke" mask="url(#Clip9)" />
    <path d="M 5.016806722689076 2.4375  L 4.840336134453782 2.979166666666666  C 4.817927170868347 3.05251736111111  4.823529411764706 3.11599392361111  4.857142857142857 3.169596354166666  C 4.890756302521009 3.223198784722221  4.946778711484595 3.25  5.025210084033613 3.25  L 10.134453781512605 3.25  C 10.207282913165267 3.25  10.278711484593838 3.223198784722221  10.34873949579832 3.169596354166666  C 10.418767507002801 3.11599392361111  10.464985994397761 3.05251736111111  10.487394957983193 2.979166666666666  L 10.663865546218487 2.4375  C 10.686274509803923 2.364149305555555  10.680672268907564 2.300672743055555  10.647058823529411 2.2470703125  C 10.61344537815126 2.1934678819444438  10.557422969187677 2.166666666666666  10.478991596638656 2.166666666666666  L 5.369747899159664 2.166666666666666  C 5.296918767507003 2.166666666666666  5.2254901960784315 2.1934678819444438  5.155462184873949 2.2470703125  C 5.085434173669468 2.300672743055555  5.0392156862745106 2.364149305555555  5.016806722689076 2.4375  Z " stroke-width="0" stroke-dasharray="0" stroke="rgba(255, 255, 255, 0)" fill="none" transform="matrix(1 0 0 1 41 929 )" class="stroke" mask="url(#Clip9)" />
    <path d="M 4.319327731092437 4.604166666666666  L 4.142857142857142 5.145833333333334  C 4.120448179271709 5.219184027777778  4.126050420168068 5.282660590277778  4.159663865546219 5.336263020833334  C 4.19327731092437 5.389865451388888  4.249299719887955 5.416666666666666  4.327731092436975 5.416666666666666  L 9.436974789915967 5.416666666666666  C 9.509803921568627 5.416666666666666  9.5812324929972 5.389865451388888  9.65126050420168 5.336263020833334  C 9.721288515406165 5.282660590277778  9.767507002801121 5.219184027777778  9.789915966386555 5.145833333333334  L 9.966386554621849 4.604166666666666  C 9.988795518207283 4.530815972222221  9.983193277310924 4.467339409722221  9.949579831932773 4.413736979166666  C 9.915966386554622 4.360134548611112  9.859943977591037 4.333333333333334  9.781512605042018 4.333333333333334  L 4.6722689075630255 4.333333333333334  C 4.599439775910365 4.333333333333334  4.5280112044817935 4.360134548611112  4.457983193277311 4.413736979166666  C 4.3879551820728295 4.467339409722221  4.341736694677872 4.530815972222221  4.319327731092437 4.604166666666666  Z " stroke-width="0" stroke-dasharray="0" stroke="rgba(255, 255, 255, 0)" fill="none" transform="matrix(1 0 0 1 41 929 )" class="stroke" mask="url(#Clip9)" />
  </g>
</svg>