<?xml version="1.0" encoding="utf-8"?>
<svg version="1.1" xmlns:xlink="http://www.w3.org/1999/xlink" width="15px" height="10px" xmlns="http://www.w3.org/2000/svg">
  <defs>
    <pattern id="BGPattern" patternUnits="userSpaceOnUse" alignment="0 0" imageRepeat="None" />
    <mask fill="white" id="Clip10">
      <path d="M 11.136997767857144 7.834201388888888  C 12.255859375000002 7.131076388888888  13.186383928571429 6.186342592592591  13.928571428571429 5  C 13.080357142857142 3.6342592592592595  12.017299107142858 2.6128472222222223  10.739397321428571 1.9357638888888884  C 11.079799107142858 2.5376157407407396  11.25 3.188657407407407  11.25 3.8888888888888884  C 11.25 4.95949074074074  10.883091517857142 5.875289351851851  10.149274553571429 6.636284722222222  C 9.415457589285715 7.397280092592591  8.532366071428571 7.777777777777778  7.5 7.777777777777778  C 6.46763392857143 7.777777777777778  5.5845424107142865 7.397280092592591  4.850725446428572 6.636284722222222  C 4.116908482142858 5.875289351851851  3.75 4.95949074074074  3.75 3.8888888888888884  C 3.75 3.188657407407407  3.9202008928571432 2.5376157407407396  4.260602678571428 1.9357638888888884  C 2.9827008928571432 2.6128472222222223  1.9196428571428574 3.6342592592592595  1.0714285714285714 5  C 1.8136160714285716 6.186342592592591  2.744140625 7.131076388888888  3.863002232142857 7.834201388888888  C 4.981863839285714 8.53732638888889  6.194196428571428 8.88888888888889  7.5 8.88888888888889  C 8.805803571428571 8.88888888888889  10.018136160714288 8.53732638888889  11.136997767857144 7.834201388888888  Z M 7.784598214285714 1.9618055555555558  C 7.862723214285715 1.8807870370370372  7.901785714285714 1.782407407407407  7.901785714285714 1.6666666666666663  C 7.901785714285714 1.5509259259259256  7.862723214285715 1.4525462962962954  7.784598214285714 1.371527777777778  C 7.706473214285715 1.2905092592592582  7.611607142857142 1.249999999999999  7.5 1.25  C 6.802455357142858 1.249999999999999  6.20396205357143 1.508969907407407  5.704520089285714 2.0269097222222223  C 5.205078125000001 2.544849537037037  4.955357142857142 3.1655092592592595  4.955357142857142 3.8888888888888884  C 4.955357142857142 4.004629629629629  4.994419642857144 4.1030092592592595  5.072544642857142 4.184027777777778  C 5.150669642857143 4.265046296296296  5.245535714285714 4.305555555555555  5.357142857142858 4.305555555555555  C 5.468750000000001 4.305555555555555  5.563616071428572 4.265046296296296  5.641741071428572 4.184027777777778  C 5.719866071428571 4.1030092592592595  5.758928571428572 4.004629629629629  5.758928571428572 3.8888888888888884  C 5.758928571428572 3.3912037037037033  5.929129464285714 2.9658564814814814  6.26953125 2.6128472222222223  C 6.6099330357142865 2.259837962962963  7.0200892857142865 2.0833333333333326  7.5 2.083333333333334  C 7.611607142857142 2.0833333333333326  7.706473214285715 2.0428240740740735  7.784598214285714 1.9618055555555558  Z M 14.832589285714285 4.401041666666666  C 14.944196428571429 4.603587962962963  15 4.80324074074074  15 5  C 15 5.196759259259258  14.944196428571429 5.396412037037037  14.832589285714285 5.598958333333332  C 14.051339285714288 6.929976851851851  13.000837053571432 7.9962384259259265  11.681082589285715 8.797743055555555  C 10.361328125 9.599247685185185  8.967633928571429 10  7.5 10  C 6.032366071428572 10  4.638671875 9.597800925925927  3.318917410714286 8.793402777777779  C 1.9991629464285716 7.989004629629629  0.9486607142857144 6.924189814814814  0.1674107142857143 5.598958333333332  C 0.055803571428571425 5.396412037037037  0 5.196759259259258  0 5  C 0 4.80324074074074  0.055803571428571425 4.603587962962963  0.1674107142857143 4.401041666666666  C 0.9486607142857144 3.075810185185185  1.9991629464285716 2.01099537037037  3.318917410714286 1.206597222222222  C 4.638671875 0.4021990740740733  6.032366071428572 0  7.5 0  C 8.967633928571429 0  10.361328125 0.4021990740740733  11.681082589285715 1.206597222222222  C 13.000837053571432 2.01099537037037  14.051339285714288 3.075810185185185  14.832589285714285 4.401041666666666  Z " fill-rule="evenodd" />
    </mask>
  </defs>
  <g transform="matrix(1 0 0 1 -294 -661 )">
    <path d="M 11.136997767857144 7.834201388888888  C 12.255859375000002 7.131076388888888  13.186383928571429 6.186342592592591  13.928571428571429 5  C 13.080357142857142 3.6342592592592595  12.017299107142858 2.6128472222222223  10.739397321428571 1.9357638888888884  C 11.079799107142858 2.5376157407407396  11.25 3.188657407407407  11.25 3.8888888888888884  C 11.25 4.95949074074074  10.883091517857142 5.875289351851851  10.149274553571429 6.636284722222222  C 9.415457589285715 7.397280092592591  8.532366071428571 7.777777777777778  7.5 7.777777777777778  C 6.46763392857143 7.777777777777778  5.5845424107142865 7.397280092592591  4.850725446428572 6.636284722222222  C 4.116908482142858 5.875289351851851  3.75 4.95949074074074  3.75 3.8888888888888884  C 3.75 3.188657407407407  3.9202008928571432 2.5376157407407396  4.260602678571428 1.9357638888888884  C 2.9827008928571432 2.6128472222222223  1.9196428571428574 3.6342592592592595  1.0714285714285714 5  C 1.8136160714285716 6.186342592592591  2.744140625 7.131076388888888  3.863002232142857 7.834201388888888  C 4.981863839285714 8.53732638888889  6.194196428571428 8.88888888888889  7.5 8.88888888888889  C 8.805803571428571 8.88888888888889  10.018136160714288 8.53732638888889  11.136997767857144 7.834201388888888  Z M 7.784598214285714 1.9618055555555558  C 7.862723214285715 1.8807870370370372  7.901785714285714 1.782407407407407  7.901785714285714 1.6666666666666663  C 7.901785714285714 1.5509259259259256  7.862723214285715 1.4525462962962954  7.784598214285714 1.371527777777778  C 7.706473214285715 1.2905092592592582  7.611607142857142 1.249999999999999  7.5 1.25  C 6.802455357142858 1.249999999999999  6.20396205357143 1.508969907407407  5.704520089285714 2.0269097222222223  C 5.205078125000001 2.544849537037037  4.955357142857142 3.1655092592592595  4.955357142857142 3.8888888888888884  C 4.955357142857142 4.004629629629629  4.994419642857144 4.1030092592592595  5.072544642857142 4.184027777777778  C 5.150669642857143 4.265046296296296  5.245535714285714 4.305555555555555  5.357142857142858 4.305555555555555  C 5.468750000000001 4.305555555555555  5.563616071428572 4.265046296296296  5.641741071428572 4.184027777777778  C 5.719866071428571 4.1030092592592595  5.758928571428572 4.004629629629629  5.758928571428572 3.8888888888888884  C 5.758928571428572 3.3912037037037033  5.929129464285714 2.9658564814814814  6.26953125 2.6128472222222223  C 6.6099330357142865 2.259837962962963  7.0200892857142865 2.0833333333333326  7.5 2.083333333333334  C 7.611607142857142 2.0833333333333326  7.706473214285715 2.0428240740740735  7.784598214285714 1.9618055555555558  Z M 14.832589285714285 4.401041666666666  C 14.944196428571429 4.603587962962963  15 4.80324074074074  15 5  C 15 5.196759259259258  14.944196428571429 5.396412037037037  14.832589285714285 5.598958333333332  C 14.051339285714288 6.929976851851851  13.000837053571432 7.9962384259259265  11.681082589285715 8.797743055555555  C 10.361328125 9.599247685185185  8.967633928571429 10  7.5 10  C 6.032366071428572 10  4.638671875 9.597800925925927  3.318917410714286 8.793402777777779  C 1.9991629464285716 7.989004629629629  0.9486607142857144 6.924189814814814  0.1674107142857143 5.598958333333332  C 0.055803571428571425 5.396412037037037  0 5.196759259259258  0 5  C 0 4.80324074074074  0.055803571428571425 4.603587962962963  0.1674107142857143 4.401041666666666  C 0.9486607142857144 3.075810185185185  1.9991629464285716 2.01099537037037  3.318917410714286 1.206597222222222  C 4.638671875 0.4021990740740733  6.032366071428572 0  7.5 0  C 8.967633928571429 0  10.361328125 0.4021990740740733  11.681082589285715 1.206597222222222  C 13.000837053571432 2.01099537037037  14.051339285714288 3.075810185185185  14.832589285714285 4.401041666666666  Z " fill-rule="nonzero" fill="rgba(30, 152, 215, 1)" stroke="none" transform="matrix(1 0 0 1 294 661 )" class="fill" />
    <path d="M 11.136997767857144 7.834201388888888  C 12.255859375000002 7.131076388888888  13.186383928571429 6.186342592592591  13.928571428571429 5  C 13.080357142857142 3.6342592592592595  12.017299107142858 2.6128472222222223  10.739397321428571 1.9357638888888884  C 11.079799107142858 2.5376157407407396  11.25 3.188657407407407  11.25 3.8888888888888884  C 11.25 4.95949074074074  10.883091517857142 5.875289351851851  10.149274553571429 6.636284722222222  C 9.415457589285715 7.397280092592591  8.532366071428571 7.777777777777778  7.5 7.777777777777778  C 6.46763392857143 7.777777777777778  5.5845424107142865 7.397280092592591  4.850725446428572 6.636284722222222  C 4.116908482142858 5.875289351851851  3.75 4.95949074074074  3.75 3.8888888888888884  C 3.75 3.188657407407407  3.9202008928571432 2.5376157407407396  4.260602678571428 1.9357638888888884  C 2.9827008928571432 2.6128472222222223  1.9196428571428574 3.6342592592592595  1.0714285714285714 5  C 1.8136160714285716 6.186342592592591  2.744140625 7.131076388888888  3.863002232142857 7.834201388888888  C 4.981863839285714 8.53732638888889  6.194196428571428 8.88888888888889  7.5 8.88888888888889  C 8.805803571428571 8.88888888888889  10.018136160714288 8.53732638888889  11.136997767857144 7.834201388888888  Z " stroke-width="0" stroke-dasharray="0" stroke="rgba(255, 255, 255, 0)" fill="none" transform="matrix(1 0 0 1 294 661 )" class="stroke" mask="url(#Clip10)" />
    <path d="M 7.784598214285714 1.9618055555555558  C 7.862723214285715 1.8807870370370372  7.901785714285714 1.782407407407407  7.901785714285714 1.6666666666666663  C 7.901785714285714 1.5509259259259256  7.862723214285715 1.4525462962962954  7.784598214285714 1.371527777777778  C 7.706473214285715 1.2905092592592582  7.611607142857142 1.249999999999999  7.5 1.25  C 6.802455357142858 1.249999999999999  6.20396205357143 1.508969907407407  5.704520089285714 2.0269097222222223  C 5.205078125000001 2.544849537037037  4.955357142857142 3.1655092592592595  4.955357142857142 3.8888888888888884  C 4.955357142857142 4.004629629629629  4.994419642857144 4.1030092592592595  5.072544642857142 4.184027777777778  C 5.150669642857143 4.265046296296296  5.245535714285714 4.305555555555555  5.357142857142858 4.305555555555555  C 5.468750000000001 4.305555555555555  5.563616071428572 4.265046296296296  5.641741071428572 4.184027777777778  C 5.719866071428571 4.1030092592592595  5.758928571428572 4.004629629629629  5.758928571428572 3.8888888888888884  C 5.758928571428572 3.3912037037037033  5.929129464285714 2.9658564814814814  6.26953125 2.6128472222222223  C 6.6099330357142865 2.259837962962963  7.0200892857142865 2.0833333333333326  7.5 2.083333333333334  C 7.611607142857142 2.0833333333333326  7.706473214285715 2.0428240740740735  7.784598214285714 1.9618055555555558  Z " stroke-width="0" stroke-dasharray="0" stroke="rgba(255, 255, 255, 0)" fill="none" transform="matrix(1 0 0 1 294 661 )" class="stroke" mask="url(#Clip10)" />
    <path d="M 14.832589285714285 4.401041666666666  C 14.944196428571429 4.603587962962963  15 4.80324074074074  15 5  C 15 5.196759259259258  14.944196428571429 5.396412037037037  14.832589285714285 5.598958333333332  C 14.051339285714288 6.929976851851851  13.000837053571432 7.9962384259259265  11.681082589285715 8.797743055555555  C 10.361328125 9.599247685185185  8.967633928571429 10  7.5 10  C 6.032366071428572 10  4.638671875 9.597800925925927  3.318917410714286 8.793402777777779  C 1.9991629464285716 7.989004629629629  0.9486607142857144 6.924189814814814  0.1674107142857143 5.598958333333332  C 0.055803571428571425 5.396412037037037  0 5.196759259259258  0 5  C 0 4.80324074074074  0.055803571428571425 4.603587962962963  0.1674107142857143 4.401041666666666  C 0.9486607142857144 3.075810185185185  1.9991629464285716 2.01099537037037  3.318917410714286 1.206597222222222  C 4.638671875 0.4021990740740733  6.032366071428572 0  7.5 0  C 8.967633928571429 0  10.361328125 0.4021990740740733  11.681082589285715 1.206597222222222  C 13.000837053571432 2.01099537037037  14.051339285714288 3.075810185185185  14.832589285714285 4.401041666666666  Z " stroke-width="0" stroke-dasharray="0" stroke="rgba(255, 255, 255, 0)" fill="none" transform="matrix(1 0 0 1 294 661 )" class="stroke" mask="url(#Clip10)" />
  </g>
</svg>