<?xml version="1.0" encoding="utf-8"?>
<svg version="1.1" xmlns:xlink="http://www.w3.org/1999/xlink" width="176px" height="14px" xmlns="http://www.w3.org/2000/svg">
  <defs>
    <pattern id="BGPattern" patternUnits="userSpaceOnUse" alignment="0 0" imageRepeat="None" />
    <mask fill="white" id="Clip79">
      <path d="M 0 14  L 0 0  L 50.00000000000001 0  L 130.97674418604652 0  L 176 0  L 176 14  L 75.03875968992247 14  L 0 14  Z " fill-rule="evenodd" />
    </mask>
  </defs>
  <g transform="matrix(1 0 0 1 -154 -75 )">
    <path d="M 0 14  L 0 0  L 50.00000000000001 0  L 130.97674418604652 0  L 176 0  L 176 14  L 75.03875968992247 14  L 0 14  Z " fill-rule="nonzero" fill="rgba(255, 255, 255, 1)" stroke="none" transform="matrix(1 0 0 1 154 75 )" class="fill" />
    <path d="M 0 14  L 0 0  L 50.00000000000001 0  L 130.97674418604652 0  L 176 0  L 176 14  L 75.03875968992247 14  L 0 14  Z " stroke-width="0" stroke-dasharray="0" stroke="rgba(121, 121, 121, 1)" fill="none" transform="matrix(1 0 0 1 154 75 )" class="stroke" mask="url(#Clip79)" />
  </g>
</svg>