<?xml version="1.0" encoding="utf-8"?>
<svg version="1.1" xmlns:xlink="http://www.w3.org/1999/xlink" width="16px" height="17px" xmlns="http://www.w3.org/2000/svg">
  <defs>
    <pattern id="BGPattern" patternUnits="userSpaceOnUse" alignment="0 0" imageRepeat="None" />
    <mask fill="white" id="Clip81">
      <path d="M 5.715909090909091 14.067057291666668  C 5.784090909090909 14.000651041666668  5.818181818181818 13.91579861111111  5.818181818181818 13.8125  L 5.818181818181818 6.020833333333333  C 5.818181818181818 5.917534722222222  5.784090909090909 5.832682291666667  5.715909090909091 5.766276041666667  C 5.6477272727272725 5.699869791666667  5.560606060606061 5.666666666666667  5.454545454545454 5.666666666666667  L 4.7272727272727275 5.666666666666667  C 4.621212121212122 5.666666666666667  4.53409090909091 5.699869791666667  4.465909090909091 5.766276041666667  C 4.3977272727272725 5.832682291666667  4.363636363636363 5.917534722222222  4.363636363636363 6.020833333333333  L 4.363636363636363 13.8125  C 4.363636363636363 13.91579861111111  4.3977272727272725 14.000651041666668  4.465909090909091 14.067057291666668  C 4.53409090909091 14.133463541666668  4.621212121212122 14.166666666666668  4.7272727272727275 14.166666666666668  L 5.454545454545454 14.166666666666668  C 5.560606060606061 14.166666666666668  5.6477272727272725 14.133463541666668  5.715909090909091 14.067057291666668  Z M 8.625 14.067057291666668  C 8.693181818181818 14.000651041666668  8.727272727272727 13.91579861111111  8.727272727272727 13.8125  L 8.727272727272727 6.020833333333333  C 8.727272727272727 5.917534722222222  8.693181818181818 5.832682291666667  8.625 5.766276041666667  C 8.556818181818182 5.699869791666667  8.46969696969697 5.666666666666667  8.363636363636363 5.666666666666667  L 7.636363636363637 5.666666666666667  C 7.530303030303031 5.666666666666667  7.443181818181818 5.699869791666667  7.375 5.766276041666667  C 7.306818181818182 5.832682291666667  7.2727272727272725 5.917534722222222  7.2727272727272725 6.020833333333333  L 7.2727272727272725 13.8125  C 7.2727272727272725 13.91579861111111  7.306818181818182 14.000651041666668  7.375 14.067057291666668  C 7.443181818181818 14.133463541666668  7.530303030303031 14.166666666666668  7.636363636363637 14.166666666666668  L 8.363636363636363 14.166666666666668  C 8.46969696969697 14.166666666666668  8.556818181818182 14.133463541666668  8.625 14.067057291666668  Z M 11.534090909090908 14.067057291666668  C 11.602272727272727 14.000651041666668  11.636363636363637 13.91579861111111  11.636363636363637 13.8125  L 11.636363636363637 6.020833333333333  C 11.636363636363637 5.917534722222222  11.602272727272727 5.832682291666667  11.534090909090908 5.766276041666667  C 11.465909090909092 5.699869791666667  11.378787878787879 5.666666666666667  11.272727272727273 5.666666666666667  L 10.545454545454545 5.666666666666667  C 10.43939393939394 5.666666666666667  10.352272727272727 5.699869791666667  10.284090909090908 5.766276041666667  C 10.215909090909092 5.832682291666667  10.181818181818182 5.917534722222222  10.181818181818182 6.020833333333333  L 10.181818181818182 13.8125  C 10.181818181818182 13.91579861111111  10.215909090909092 14.000651041666668  10.284090909090908 14.067057291666668  C 10.352272727272727 14.133463541666668  10.43939393939394 14.166666666666668  10.545454545454545 14.166666666666668  L 11.272727272727273 14.166666666666668  C 11.378787878787879 14.166666666666668  11.465909090909092 14.133463541666668  11.534090909090908 14.067057291666668  Z M 6.011363636363637 1.5384114583333326  L 5.454545454545454 2.8333333333333326  L 10.545454545454545 2.8333333333333326  L 10 1.5384114583333326  C 9.946969696969699 1.4720052083333326  9.882575757575758 1.4314236111111103  9.806818181818182 1.4166666666666674  L 6.204545454545454 1.4166666666666674  C 6.128787878787879 1.4314236111111103  6.06439393939394 1.4720052083333326  6.011363636363637 1.5384114583333326  Z M 15.897727272727273 2.9329427083333326  C 15.965909090909092 2.9993489583333326  16 3.084201388888888  16 3.1875  L 16 3.8958333333333326  C 16 3.999131944444443  15.965909090909092 4.083984375  15.897727272727273 4.150390625  C 15.829545454545455 4.216796875  15.742424242424244 4.25  15.636363636363637 4.25  L 14.545454545454545 4.25  L 14.545454545454545 14.7421875  C 14.545454545454545 15.354600694444443  14.367424242424244 15.88400607638889  14.011363636363637 16.330403645833332  C 13.655303030303031 16.77680121527778  13.227272727272727 17  12.727272727272727 17  L 3.272727272727273 17  C 2.772727272727273 17  2.34469696969697 16.7841796875  1.9886363636363635 16.3525390625  C 1.6325757575757578 15.9208984375  1.4545454545454546 15.398871527777777  1.4545454545454546 14.786458333333332  L 1.4545454545454546 4.25  L 0.36363636363636365 4.25  C 0.25757575757575757 4.25  0.17045454545454547 4.216796875  0.10227272727272728 4.150390625  C 0.03409090909090909 4.083984375  0 3.999131944444443  0 3.8958333333333326  L 0 3.1875  C 0 3.084201388888888  0.03409090909090909 2.9993489583333326  0.10227272727272728 2.9329427083333326  C 0.17045454545454547 2.8665364583333326  0.25757575757575757 2.8333333333333326  0.36363636363636365 2.8333333333333326  L 3.875 2.8333333333333326  L 4.670454545454546 0.9850260416666673  C 4.78409090909091 0.712022569444443  4.988636363636364 0.479600694444443  5.284090909090909 0.2877604166666673  C 5.579545454545455 0.09592013888888784  5.878787878787879 0  6.181818181818182 0  L 9.818181818181818 0  C 10.121212121212123 0  10.420454545454545 0.09592013888888784  10.715909090909092 0.2877604166666673  C 11.011363636363637 0.479600694444443  11.215909090909092 0.712022569444443  11.329545454545455 0.9850260416666673  L 12.125 2.8333333333333326  L 15.636363636363637 2.8333333333333326  C 15.742424242424244 2.8333333333333326  15.829545454545455 2.8665364583333326  15.897727272727273 2.9329427083333326  Z " fill-rule="evenodd" />
    </mask>
  </defs>
  <g transform="matrix(1 0 0 1 -431 -218 )">
    <path d="M 5.715909090909091 14.067057291666668  C 5.784090909090909 14.000651041666668  5.818181818181818 13.91579861111111  5.818181818181818 13.8125  L 5.818181818181818 6.020833333333333  C 5.818181818181818 5.917534722222222  5.784090909090909 5.832682291666667  5.715909090909091 5.766276041666667  C 5.6477272727272725 5.699869791666667  5.560606060606061 5.666666666666667  5.454545454545454 5.666666666666667  L 4.7272727272727275 5.666666666666667  C 4.621212121212122 5.666666666666667  4.53409090909091 5.699869791666667  4.465909090909091 5.766276041666667  C 4.3977272727272725 5.832682291666667  4.363636363636363 5.917534722222222  4.363636363636363 6.020833333333333  L 4.363636363636363 13.8125  C 4.363636363636363 13.91579861111111  4.3977272727272725 14.000651041666668  4.465909090909091 14.067057291666668  C 4.53409090909091 14.133463541666668  4.621212121212122 14.166666666666668  4.7272727272727275 14.166666666666668  L 5.454545454545454 14.166666666666668  C 5.560606060606061 14.166666666666668  5.6477272727272725 14.133463541666668  5.715909090909091 14.067057291666668  Z M 8.625 14.067057291666668  C 8.693181818181818 14.000651041666668  8.727272727272727 13.91579861111111  8.727272727272727 13.8125  L 8.727272727272727 6.020833333333333  C 8.727272727272727 5.917534722222222  8.693181818181818 5.832682291666667  8.625 5.766276041666667  C 8.556818181818182 5.699869791666667  8.46969696969697 5.666666666666667  8.363636363636363 5.666666666666667  L 7.636363636363637 5.666666666666667  C 7.530303030303031 5.666666666666667  7.443181818181818 5.699869791666667  7.375 5.766276041666667  C 7.306818181818182 5.832682291666667  7.2727272727272725 5.917534722222222  7.2727272727272725 6.020833333333333  L 7.2727272727272725 13.8125  C 7.2727272727272725 13.91579861111111  7.306818181818182 14.000651041666668  7.375 14.067057291666668  C 7.443181818181818 14.133463541666668  7.530303030303031 14.166666666666668  7.636363636363637 14.166666666666668  L 8.363636363636363 14.166666666666668  C 8.46969696969697 14.166666666666668  8.556818181818182 14.133463541666668  8.625 14.067057291666668  Z M 11.534090909090908 14.067057291666668  C 11.602272727272727 14.000651041666668  11.636363636363637 13.91579861111111  11.636363636363637 13.8125  L 11.636363636363637 6.020833333333333  C 11.636363636363637 5.917534722222222  11.602272727272727 5.832682291666667  11.534090909090908 5.766276041666667  C 11.465909090909092 5.699869791666667  11.378787878787879 5.666666666666667  11.272727272727273 5.666666666666667  L 10.545454545454545 5.666666666666667  C 10.43939393939394 5.666666666666667  10.352272727272727 5.699869791666667  10.284090909090908 5.766276041666667  C 10.215909090909092 5.832682291666667  10.181818181818182 5.917534722222222  10.181818181818182 6.020833333333333  L 10.181818181818182 13.8125  C 10.181818181818182 13.91579861111111  10.215909090909092 14.000651041666668  10.284090909090908 14.067057291666668  C 10.352272727272727 14.133463541666668  10.43939393939394 14.166666666666668  10.545454545454545 14.166666666666668  L 11.272727272727273 14.166666666666668  C 11.378787878787879 14.166666666666668  11.465909090909092 14.133463541666668  11.534090909090908 14.067057291666668  Z M 6.011363636363637 1.5384114583333326  L 5.454545454545454 2.8333333333333326  L 10.545454545454545 2.8333333333333326  L 10 1.5384114583333326  C 9.946969696969699 1.4720052083333326  9.882575757575758 1.4314236111111103  9.806818181818182 1.4166666666666674  L 6.204545454545454 1.4166666666666674  C 6.128787878787879 1.4314236111111103  6.06439393939394 1.4720052083333326  6.011363636363637 1.5384114583333326  Z M 15.897727272727273 2.9329427083333326  C 15.965909090909092 2.9993489583333326  16 3.084201388888888  16 3.1875  L 16 3.8958333333333326  C 16 3.999131944444443  15.965909090909092 4.083984375  15.897727272727273 4.150390625  C 15.829545454545455 4.216796875  15.742424242424244 4.25  15.636363636363637 4.25  L 14.545454545454545 4.25  L 14.545454545454545 14.7421875  C 14.545454545454545 15.354600694444443  14.367424242424244 15.88400607638889  14.011363636363637 16.330403645833332  C 13.655303030303031 16.77680121527778  13.227272727272727 17  12.727272727272727 17  L 3.272727272727273 17  C 2.772727272727273 17  2.34469696969697 16.7841796875  1.9886363636363635 16.3525390625  C 1.6325757575757578 15.9208984375  1.4545454545454546 15.398871527777777  1.4545454545454546 14.786458333333332  L 1.4545454545454546 4.25  L 0.36363636363636365 4.25  C 0.25757575757575757 4.25  0.17045454545454547 4.216796875  0.10227272727272728 4.150390625  C 0.03409090909090909 4.083984375  0 3.999131944444443  0 3.8958333333333326  L 0 3.1875  C 0 3.084201388888888  0.03409090909090909 2.9993489583333326  0.10227272727272728 2.9329427083333326  C 0.17045454545454547 2.8665364583333326  0.25757575757575757 2.8333333333333326  0.36363636363636365 2.8333333333333326  L 3.875 2.8333333333333326  L 4.670454545454546 0.9850260416666673  C 4.78409090909091 0.712022569444443  4.988636363636364 0.479600694444443  5.284090909090909 0.2877604166666673  C 5.579545454545455 0.09592013888888784  5.878787878787879 0  6.181818181818182 0  L 9.818181818181818 0  C 10.121212121212123 0  10.420454545454545 0.09592013888888784  10.715909090909092 0.2877604166666673  C 11.011363636363637 0.479600694444443  11.215909090909092 0.712022569444443  11.329545454545455 0.9850260416666673  L 12.125 2.8333333333333326  L 15.636363636363637 2.8333333333333326  C 15.742424242424244 2.8333333333333326  15.829545454545455 2.8665364583333326  15.897727272727273 2.9329427083333326  Z " fill-rule="nonzero" fill="rgba(0, 0, 0, 1)" stroke="none" transform="matrix(1 0 0 1 431 218 )" class="fill" />
    <path d="M 5.715909090909091 14.067057291666668  C 5.784090909090909 14.000651041666668  5.818181818181818 13.91579861111111  5.818181818181818 13.8125  L 5.818181818181818 6.020833333333333  C 5.818181818181818 5.917534722222222  5.784090909090909 5.832682291666667  5.715909090909091 5.766276041666667  C 5.6477272727272725 5.699869791666667  5.560606060606061 5.666666666666667  5.454545454545454 5.666666666666667  L 4.7272727272727275 5.666666666666667  C 4.621212121212122 5.666666666666667  4.53409090909091 5.699869791666667  4.465909090909091 5.766276041666667  C 4.3977272727272725 5.832682291666667  4.363636363636363 5.917534722222222  4.363636363636363 6.020833333333333  L 4.363636363636363 13.8125  C 4.363636363636363 13.91579861111111  4.3977272727272725 14.000651041666668  4.465909090909091 14.067057291666668  C 4.53409090909091 14.133463541666668  4.621212121212122 14.166666666666668  4.7272727272727275 14.166666666666668  L 5.454545454545454 14.166666666666668  C 5.560606060606061 14.166666666666668  5.6477272727272725 14.133463541666668  5.715909090909091 14.067057291666668  Z " stroke-width="0" stroke-dasharray="0" stroke="rgba(255, 255, 255, 0)" fill="none" transform="matrix(1 0 0 1 431 218 )" class="stroke" mask="url(#Clip81)" />
    <path d="M 8.625 14.067057291666668  C 8.693181818181818 14.000651041666668  8.727272727272727 13.91579861111111  8.727272727272727 13.8125  L 8.727272727272727 6.020833333333333  C 8.727272727272727 5.917534722222222  8.693181818181818 5.832682291666667  8.625 5.766276041666667  C 8.556818181818182 5.699869791666667  8.46969696969697 5.666666666666667  8.363636363636363 5.666666666666667  L 7.636363636363637 5.666666666666667  C 7.530303030303031 5.666666666666667  7.443181818181818 5.699869791666667  7.375 5.766276041666667  C 7.306818181818182 5.832682291666667  7.2727272727272725 5.917534722222222  7.2727272727272725 6.020833333333333  L 7.2727272727272725 13.8125  C 7.2727272727272725 13.91579861111111  7.306818181818182 14.000651041666668  7.375 14.067057291666668  C 7.443181818181818 14.133463541666668  7.530303030303031 14.166666666666668  7.636363636363637 14.166666666666668  L 8.363636363636363 14.166666666666668  C 8.46969696969697 14.166666666666668  8.556818181818182 14.133463541666668  8.625 14.067057291666668  Z " stroke-width="0" stroke-dasharray="0" stroke="rgba(255, 255, 255, 0)" fill="none" transform="matrix(1 0 0 1 431 218 )" class="stroke" mask="url(#Clip81)" />
    <path d="M 11.534090909090908 14.067057291666668  C 11.602272727272727 14.000651041666668  11.636363636363637 13.91579861111111  11.636363636363637 13.8125  L 11.636363636363637 6.020833333333333  C 11.636363636363637 5.917534722222222  11.602272727272727 5.832682291666667  11.534090909090908 5.766276041666667  C 11.465909090909092 5.699869791666667  11.378787878787879 5.666666666666667  11.272727272727273 5.666666666666667  L 10.545454545454545 5.666666666666667  C 10.43939393939394 5.666666666666667  10.352272727272727 5.699869791666667  10.284090909090908 5.766276041666667  C 10.215909090909092 5.832682291666667  10.181818181818182 5.917534722222222  10.181818181818182 6.020833333333333  L 10.181818181818182 13.8125  C 10.181818181818182 13.91579861111111  10.215909090909092 14.000651041666668  10.284090909090908 14.067057291666668  C 10.352272727272727 14.133463541666668  10.43939393939394 14.166666666666668  10.545454545454545 14.166666666666668  L 11.272727272727273 14.166666666666668  C 11.378787878787879 14.166666666666668  11.465909090909092 14.133463541666668  11.534090909090908 14.067057291666668  Z " stroke-width="0" stroke-dasharray="0" stroke="rgba(255, 255, 255, 0)" fill="none" transform="matrix(1 0 0 1 431 218 )" class="stroke" mask="url(#Clip81)" />
    <path d="M 6.011363636363637 1.5384114583333326  L 5.454545454545454 2.8333333333333326  L 10.545454545454545 2.8333333333333326  L 10 1.5384114583333326  C 9.946969696969699 1.4720052083333326  9.882575757575758 1.4314236111111103  9.806818181818182 1.4166666666666674  L 6.204545454545454 1.4166666666666674  C 6.128787878787879 1.4314236111111103  6.06439393939394 1.4720052083333326  6.011363636363637 1.5384114583333326  Z " stroke-width="0" stroke-dasharray="0" stroke="rgba(255, 255, 255, 0)" fill="none" transform="matrix(1 0 0 1 431 218 )" class="stroke" mask="url(#Clip81)" />
    <path d="M 15.897727272727273 2.9329427083333326  C 15.965909090909092 2.9993489583333326  16 3.084201388888888  16 3.1875  L 16 3.8958333333333326  C 16 3.999131944444443  15.965909090909092 4.083984375  15.897727272727273 4.150390625  C 15.829545454545455 4.216796875  15.742424242424244 4.25  15.636363636363637 4.25  L 14.545454545454545 4.25  L 14.545454545454545 14.7421875  C 14.545454545454545 15.354600694444443  14.367424242424244 15.88400607638889  14.011363636363637 16.330403645833332  C 13.655303030303031 16.77680121527778  13.227272727272727 17  12.727272727272727 17  L 3.272727272727273 17  C 2.772727272727273 17  2.34469696969697 16.7841796875  1.9886363636363635 16.3525390625  C 1.6325757575757578 15.9208984375  1.4545454545454546 15.398871527777777  1.4545454545454546 14.786458333333332  L 1.4545454545454546 4.25  L 0.36363636363636365 4.25  C 0.25757575757575757 4.25  0.17045454545454547 4.216796875  0.10227272727272728 4.150390625  C 0.03409090909090909 4.083984375  0 3.999131944444443  0 3.8958333333333326  L 0 3.1875  C 0 3.084201388888888  0.03409090909090909 2.9993489583333326  0.10227272727272728 2.9329427083333326  C 0.17045454545454547 2.8665364583333326  0.25757575757575757 2.8333333333333326  0.36363636363636365 2.8333333333333326  L 3.875 2.8333333333333326  L 4.670454545454546 0.9850260416666673  C 4.78409090909091 0.712022569444443  4.988636363636364 0.479600694444443  5.284090909090909 0.2877604166666673  C 5.579545454545455 0.09592013888888784  5.878787878787879 0  6.181818181818182 0  L 9.818181818181818 0  C 10.121212121212123 0  10.420454545454545 0.09592013888888784  10.715909090909092 0.2877604166666673  C 11.011363636363637 0.479600694444443  11.215909090909092 0.712022569444443  11.329545454545455 0.9850260416666673  L 12.125 2.8333333333333326  L 15.636363636363637 2.8333333333333326  C 15.742424242424244 2.8333333333333326  15.829545454545455 2.8665364583333326  15.897727272727273 2.9329427083333326  Z " stroke-width="0" stroke-dasharray="0" stroke="rgba(255, 255, 255, 0)" fill="none" transform="matrix(1 0 0 1 431 218 )" class="stroke" mask="url(#Clip81)" />
  </g>
</svg>