<?xml version="1.0" encoding="utf-8"?>
<svg version="1.1" xmlns:xlink="http://www.w3.org/1999/xlink" width="23px" height="23px" xmlns="http://www.w3.org/2000/svg">
  <defs>
    <pattern id="BGPattern" patternUnits="userSpaceOnUse" alignment="0 0" imageRepeat="None" />
    <mask fill="white" id="Clip82">
      <path d="M 20.90396341463415 10.5  C 20.90396341463415 4.754061070884147  16.24593892911585 0.09603658536585365  10.5 0.09603658536585365  C 4.754061070884147 0.09603658536585365  0.09603658536585365 4.754061070884147  0.09603658536585365 10.5  C 0.09603658536585365 16.24593892911585  4.754061070884147 20.90396341463415  10.5 20.90396341463415  C 16.24593892911585 20.90396341463415  20.90396341463415 16.24593892911585  20.90396341463415 10.5  Z M 15.852038871951219 9.449599847560975  L 15.852038871951219 11.550400152439025  L 11.550400152439025 11.550400152439025  L 11.550400152439025 15.852038871951219  L 9.449599847560975 15.852038871951219  L 9.449599847560975 11.550400152439025  L 5.147961128048781 11.550400152439025  L 5.147961128048781 9.449599847560975  L 9.449599847560975 9.449599847560975  L 9.449599847560975 5.147961128048781  L 11.550400152439025 5.147961128048781  L 11.550400152439025 9.449599847560975  L 15.852038871951219 9.449599847560975  Z " fill-rule="evenodd" />
    </mask>
  </defs>
  <g transform="matrix(1 0 0 1 -54 -315 )">
    <path d="M 20.90396341463415 10.5  C 20.90396341463415 4.754061070884147  16.24593892911585 0.09603658536585365  10.5 0.09603658536585365  C 4.754061070884147 0.09603658536585365  0.09603658536585365 4.754061070884147  0.09603658536585365 10.5  C 0.09603658536585365 16.24593892911585  4.754061070884147 20.90396341463415  10.5 20.90396341463415  C 16.24593892911585 20.90396341463415  20.90396341463415 16.24593892911585  20.90396341463415 10.5  Z M 15.852038871951219 9.449599847560975  L 15.852038871951219 11.550400152439025  L 11.550400152439025 11.550400152439025  L 11.550400152439025 15.852038871951219  L 9.449599847560975 15.852038871951219  L 9.449599847560975 11.550400152439025  L 5.147961128048781 11.550400152439025  L 5.147961128048781 9.449599847560975  L 9.449599847560975 9.449599847560975  L 9.449599847560975 5.147961128048781  L 11.550400152439025 5.147961128048781  L 11.550400152439025 9.449599847560975  L 15.852038871951219 9.449599847560975  Z " fill-rule="nonzero" fill="rgba(0, 0, 0, 1)" stroke="none" transform="matrix(1 0 0 1 54 315 )" class="fill" />
    <path d="M 20.90396341463415 10.5  C 20.90396341463415 4.754061070884147  16.24593892911585 0.09603658536585365  10.5 0.09603658536585365  C 4.754061070884147 0.09603658536585365  0.09603658536585365 4.754061070884147  0.09603658536585365 10.5  C 0.09603658536585365 16.24593892911585  4.754061070884147 20.90396341463415  10.5 20.90396341463415  C 16.24593892911585 20.90396341463415  20.90396341463415 16.24593892911585  20.90396341463415 10.5  Z " stroke-width="0" stroke-dasharray="0" stroke="rgba(255, 255, 255, 0)" fill="none" transform="matrix(1 0 0 1 54 315 )" class="stroke" mask="url(#Clip82)" />
    <path d="M 15.852038871951219 9.449599847560975  L 15.852038871951219 11.550400152439025  L 11.550400152439025 11.550400152439025  L 11.550400152439025 15.852038871951219  L 9.449599847560975 15.852038871951219  L 9.449599847560975 11.550400152439025  L 5.147961128048781 11.550400152439025  L 5.147961128048781 9.449599847560975  L 9.449599847560975 9.449599847560975  L 9.449599847560975 5.147961128048781  L 11.550400152439025 5.147961128048781  L 11.550400152439025 9.449599847560975  L 15.852038871951219 9.449599847560975  Z " stroke-width="0" stroke-dasharray="0" stroke="rgba(255, 255, 255, 0)" fill="none" transform="matrix(1 0 0 1 54 315 )" class="stroke" mask="url(#Clip82)" />
  </g>
  <style>svg { filter: drop-shadow(1px 1px 0.5px rgba(0, 0, 0, 0.34901960784313724)); }</style>
</svg>