<?xml version="1.0" encoding="utf-8"?>
<svg version="1.1" xmlns:xlink="http://www.w3.org/1999/xlink" width="13px" height="17px" xmlns="http://www.w3.org/2000/svg">
  <defs>
    <pattern id="BGPattern" patternUnits="userSpaceOnUse" alignment="0 0" imageRepeat="None" />
    <mask fill="white" id="Clip83">
      <path d="M 4.644176136363637 14.067057291666668  C 4.699573863636363 14.000651041666668  4.7272727272727275 13.91579861111111  4.7272727272727275 13.8125  L 4.7272727272727275 6.020833333333333  C 4.7272727272727275 5.917534722222222  4.699573863636363 5.832682291666667  4.644176136363637 5.766276041666667  C 4.588778409090909 5.699869791666667  4.517992424242425 5.666666666666667  4.431818181818182 5.666666666666667  L 3.8409090909090913 5.666666666666667  C 3.754734848484849 5.666666666666667  3.683948863636364 5.699869791666667  3.6285511363636362 5.766276041666667  C 3.5731534090909087 5.832682291666667  3.545454545454545 5.917534722222222  3.545454545454545 6.020833333333333  L 3.545454545454545 13.8125  C 3.545454545454545 13.91579861111111  3.5731534090909087 14.000651041666668  3.6285511363636362 14.067057291666668  C 3.683948863636364 14.133463541666668  3.754734848484849 14.166666666666668  3.8409090909090913 14.166666666666668  L 4.431818181818182 14.166666666666668  C 4.517992424242425 14.166666666666668  4.588778409090909 14.133463541666668  4.644176136363637 14.067057291666668  Z M 7.0078125 14.067057291666668  C 7.0632102272727275 14.000651041666668  7.09090909090909 13.91579861111111  7.09090909090909 13.8125  L 7.09090909090909 6.020833333333333  C 7.09090909090909 5.917534722222222  7.0632102272727275 5.832682291666667  7.0078125 5.766276041666667  C 6.9524147727272725 5.699869791666667  6.881628787878789 5.666666666666667  6.795454545454545 5.666666666666667  L 6.204545454545455 5.666666666666667  C 6.118371212121213 5.666666666666667  6.0475852272727275 5.699869791666667  5.9921875 5.766276041666667  C 5.9367897727272725 5.832682291666667  5.909090909090909 5.917534722222222  5.909090909090909 6.020833333333333  L 5.909090909090909 13.8125  C 5.909090909090909 13.91579861111111  5.9367897727272725 14.000651041666668  5.9921875 14.067057291666668  C 6.0475852272727275 14.133463541666668  6.118371212121213 14.166666666666668  6.204545454545455 14.166666666666668  L 6.795454545454545 14.166666666666668  C 6.881628787878789 14.166666666666668  6.9524147727272725 14.133463541666668  7.0078125 14.067057291666668  Z M 9.371448863636363 14.067057291666668  C 9.42684659090909 14.000651041666668  9.454545454545455 13.91579861111111  9.454545454545455 13.8125  L 9.454545454545455 6.020833333333333  C 9.454545454545455 5.917534722222222  9.42684659090909 5.832682291666667  9.371448863636363 5.766276041666667  C 9.316051136363637 5.699869791666667  9.245265151515152 5.666666666666667  9.15909090909091 5.666666666666667  L 8.568181818181818 5.666666666666667  C 8.482007575757576 5.666666666666667  8.41122159090909 5.699869791666667  8.355823863636363 5.766276041666667  C 8.300426136363637 5.832682291666667  8.272727272727273 5.917534722222222  8.272727272727273 6.020833333333333  L 8.272727272727273 13.8125  C 8.272727272727273 13.91579861111111  8.300426136363637 14.000651041666668  8.355823863636363 14.067057291666668  C 8.41122159090909 14.133463541666668  8.482007575757576 14.166666666666668  8.568181818181818 14.166666666666668  L 9.15909090909091 14.166666666666668  C 9.245265151515152 14.166666666666668  9.316051136363637 14.133463541666668  9.371448863636363 14.067057291666668  Z M 4.884232954545455 1.5384114583333326  L 4.431818181818182 2.8333333333333326  L 8.568181818181818 2.8333333333333326  L 8.125 1.5384114583333326  C 8.08191287878788 1.4720052083333326  8.029592803030303 1.4314236111111103  7.9680397727272725 1.4166666666666674  L 5.041193181818182 1.4166666666666674  C 4.979640151515151 1.4314236111111103  4.927320075757576 1.4720052083333326  4.884232954545455 1.5384114583333326  Z M 12.91690340909091 2.9329427083333326  C 12.972301136363637 2.9993489583333326  13 3.084201388888888  13 3.1875  L 13 3.8958333333333326  C 13 3.999131944444443  12.972301136363637 4.083984375  12.91690340909091 4.150390625  C 12.861505681818182 4.216796875  12.790719696969699 4.25  12.704545454545455 4.25  L 11.818181818181818 4.25  L 11.818181818181818 14.7421875  C 11.818181818181818 15.354600694444443  11.673532196969699 15.88400607638889  11.384232954545455 16.330403645833332  C 11.094933712121213 16.77680121527778  10.74715909090909 17  10.34090909090909 17  L 2.659090909090909 17  C 2.252840909090909 17  1.9050662878787883 16.7841796875  1.6157670454545454 16.3525390625  C 1.3264678030303032 15.9208984375  1.1818181818181819 15.398871527777777  1.1818181818181819 14.786458333333332  L 1.1818181818181819 4.25  L 0.29545454545454547 4.25  C 0.20928030303030304 4.25  0.1384943181818182 4.216796875  0.08309659090909091 4.150390625  C 0.027698863636363633 4.083984375  0 3.999131944444443  0 3.8958333333333326  L 0 3.1875  C 0 3.084201388888888  0.027698863636363633 2.9993489583333326  0.08309659090909091 2.9329427083333326  C 0.1384943181818182 2.8665364583333326  0.20928030303030304 2.8333333333333326  0.29545454545454547 2.8333333333333326  L 3.1484375 2.8333333333333326  L 3.7947443181818183 0.9850260416666673  C 3.887073863636364 0.712022569444443  4.053267045454546 0.479600694444443  4.293323863636363 0.2877604166666673  C 4.5333806818181825 0.09592013888888784  4.776515151515151 0  5.0227272727272725 0  L 7.9772727272727275 0  C 8.22348484848485 0  8.466619318181818 0.09592013888888784  8.706676136363637 0.2877604166666673  C 8.946732954545455 0.479600694444443  9.112926136363637 0.712022569444443  9.205255681818182 0.9850260416666673  L 9.8515625 2.8333333333333326  L 12.704545454545455 2.8333333333333326  C 12.790719696969699 2.8333333333333326  12.861505681818182 2.8665364583333326  12.91690340909091 2.9329427083333326  Z " fill-rule="evenodd" />
    </mask>
  </defs>
  <g transform="matrix(1 0 0 1 -417 -302 )">
    <path d="M 4.644176136363637 14.067057291666668  C 4.699573863636363 14.000651041666668  4.7272727272727275 13.91579861111111  4.7272727272727275 13.8125  L 4.7272727272727275 6.020833333333333  C 4.7272727272727275 5.917534722222222  4.699573863636363 5.832682291666667  4.644176136363637 5.766276041666667  C 4.588778409090909 5.699869791666667  4.517992424242425 5.666666666666667  4.431818181818182 5.666666666666667  L 3.8409090909090913 5.666666666666667  C 3.754734848484849 5.666666666666667  3.683948863636364 5.699869791666667  3.6285511363636362 5.766276041666667  C 3.5731534090909087 5.832682291666667  3.545454545454545 5.917534722222222  3.545454545454545 6.020833333333333  L 3.545454545454545 13.8125  C 3.545454545454545 13.91579861111111  3.5731534090909087 14.000651041666668  3.6285511363636362 14.067057291666668  C 3.683948863636364 14.133463541666668  3.754734848484849 14.166666666666668  3.8409090909090913 14.166666666666668  L 4.431818181818182 14.166666666666668  C 4.517992424242425 14.166666666666668  4.588778409090909 14.133463541666668  4.644176136363637 14.067057291666668  Z M 7.0078125 14.067057291666668  C 7.0632102272727275 14.000651041666668  7.09090909090909 13.91579861111111  7.09090909090909 13.8125  L 7.09090909090909 6.020833333333333  C 7.09090909090909 5.917534722222222  7.0632102272727275 5.832682291666667  7.0078125 5.766276041666667  C 6.9524147727272725 5.699869791666667  6.881628787878789 5.666666666666667  6.795454545454545 5.666666666666667  L 6.204545454545455 5.666666666666667  C 6.118371212121213 5.666666666666667  6.0475852272727275 5.699869791666667  5.9921875 5.766276041666667  C 5.9367897727272725 5.832682291666667  5.909090909090909 5.917534722222222  5.909090909090909 6.020833333333333  L 5.909090909090909 13.8125  C 5.909090909090909 13.91579861111111  5.9367897727272725 14.000651041666668  5.9921875 14.067057291666668  C 6.0475852272727275 14.133463541666668  6.118371212121213 14.166666666666668  6.204545454545455 14.166666666666668  L 6.795454545454545 14.166666666666668  C 6.881628787878789 14.166666666666668  6.9524147727272725 14.133463541666668  7.0078125 14.067057291666668  Z M 9.371448863636363 14.067057291666668  C 9.42684659090909 14.000651041666668  9.454545454545455 13.91579861111111  9.454545454545455 13.8125  L 9.454545454545455 6.020833333333333  C 9.454545454545455 5.917534722222222  9.42684659090909 5.832682291666667  9.371448863636363 5.766276041666667  C 9.316051136363637 5.699869791666667  9.245265151515152 5.666666666666667  9.15909090909091 5.666666666666667  L 8.568181818181818 5.666666666666667  C 8.482007575757576 5.666666666666667  8.41122159090909 5.699869791666667  8.355823863636363 5.766276041666667  C 8.300426136363637 5.832682291666667  8.272727272727273 5.917534722222222  8.272727272727273 6.020833333333333  L 8.272727272727273 13.8125  C 8.272727272727273 13.91579861111111  8.300426136363637 14.000651041666668  8.355823863636363 14.067057291666668  C 8.41122159090909 14.133463541666668  8.482007575757576 14.166666666666668  8.568181818181818 14.166666666666668  L 9.15909090909091 14.166666666666668  C 9.245265151515152 14.166666666666668  9.316051136363637 14.133463541666668  9.371448863636363 14.067057291666668  Z M 4.884232954545455 1.5384114583333326  L 4.431818181818182 2.8333333333333326  L 8.568181818181818 2.8333333333333326  L 8.125 1.5384114583333326  C 8.08191287878788 1.4720052083333326  8.029592803030303 1.4314236111111103  7.9680397727272725 1.4166666666666674  L 5.041193181818182 1.4166666666666674  C 4.979640151515151 1.4314236111111103  4.927320075757576 1.4720052083333326  4.884232954545455 1.5384114583333326  Z M 12.91690340909091 2.9329427083333326  C 12.972301136363637 2.9993489583333326  13 3.084201388888888  13 3.1875  L 13 3.8958333333333326  C 13 3.999131944444443  12.972301136363637 4.083984375  12.91690340909091 4.150390625  C 12.861505681818182 4.216796875  12.790719696969699 4.25  12.704545454545455 4.25  L 11.818181818181818 4.25  L 11.818181818181818 14.7421875  C 11.818181818181818 15.354600694444443  11.673532196969699 15.88400607638889  11.384232954545455 16.330403645833332  C 11.094933712121213 16.77680121527778  10.74715909090909 17  10.34090909090909 17  L 2.659090909090909 17  C 2.252840909090909 17  1.9050662878787883 16.7841796875  1.6157670454545454 16.3525390625  C 1.3264678030303032 15.9208984375  1.1818181818181819 15.398871527777777  1.1818181818181819 14.786458333333332  L 1.1818181818181819 4.25  L 0.29545454545454547 4.25  C 0.20928030303030304 4.25  0.1384943181818182 4.216796875  0.08309659090909091 4.150390625  C 0.027698863636363633 4.083984375  0 3.999131944444443  0 3.8958333333333326  L 0 3.1875  C 0 3.084201388888888  0.027698863636363633 2.9993489583333326  0.08309659090909091 2.9329427083333326  C 0.1384943181818182 2.8665364583333326  0.20928030303030304 2.8333333333333326  0.29545454545454547 2.8333333333333326  L 3.1484375 2.8333333333333326  L 3.7947443181818183 0.9850260416666673  C 3.887073863636364 0.712022569444443  4.053267045454546 0.479600694444443  4.293323863636363 0.2877604166666673  C 4.5333806818181825 0.09592013888888784  4.776515151515151 0  5.0227272727272725 0  L 7.9772727272727275 0  C 8.22348484848485 0  8.466619318181818 0.09592013888888784  8.706676136363637 0.2877604166666673  C 8.946732954545455 0.479600694444443  9.112926136363637 0.712022569444443  9.205255681818182 0.9850260416666673  L 9.8515625 2.8333333333333326  L 12.704545454545455 2.8333333333333326  C 12.790719696969699 2.8333333333333326  12.861505681818182 2.8665364583333326  12.91690340909091 2.9329427083333326  Z " fill-rule="nonzero" fill="rgba(0, 0, 0, 1)" stroke="none" transform="matrix(1 0 0 1 417 302 )" class="fill" />
    <path d="M 4.644176136363637 14.067057291666668  C 4.699573863636363 14.000651041666668  4.7272727272727275 13.91579861111111  4.7272727272727275 13.8125  L 4.7272727272727275 6.020833333333333  C 4.7272727272727275 5.917534722222222  4.699573863636363 5.832682291666667  4.644176136363637 5.766276041666667  C 4.588778409090909 5.699869791666667  4.517992424242425 5.666666666666667  4.431818181818182 5.666666666666667  L 3.8409090909090913 5.666666666666667  C 3.754734848484849 5.666666666666667  3.683948863636364 5.699869791666667  3.6285511363636362 5.766276041666667  C 3.5731534090909087 5.832682291666667  3.545454545454545 5.917534722222222  3.545454545454545 6.020833333333333  L 3.545454545454545 13.8125  C 3.545454545454545 13.91579861111111  3.5731534090909087 14.000651041666668  3.6285511363636362 14.067057291666668  C 3.683948863636364 14.133463541666668  3.754734848484849 14.166666666666668  3.8409090909090913 14.166666666666668  L 4.431818181818182 14.166666666666668  C 4.517992424242425 14.166666666666668  4.588778409090909 14.133463541666668  4.644176136363637 14.067057291666668  Z " stroke-width="0" stroke-dasharray="0" stroke="rgba(255, 255, 255, 0)" fill="none" transform="matrix(1 0 0 1 417 302 )" class="stroke" mask="url(#Clip83)" />
    <path d="M 7.0078125 14.067057291666668  C 7.0632102272727275 14.000651041666668  7.09090909090909 13.91579861111111  7.09090909090909 13.8125  L 7.09090909090909 6.020833333333333  C 7.09090909090909 5.917534722222222  7.0632102272727275 5.832682291666667  7.0078125 5.766276041666667  C 6.9524147727272725 5.699869791666667  6.881628787878789 5.666666666666667  6.795454545454545 5.666666666666667  L 6.204545454545455 5.666666666666667  C 6.118371212121213 5.666666666666667  6.0475852272727275 5.699869791666667  5.9921875 5.766276041666667  C 5.9367897727272725 5.832682291666667  5.909090909090909 5.917534722222222  5.909090909090909 6.020833333333333  L 5.909090909090909 13.8125  C 5.909090909090909 13.91579861111111  5.9367897727272725 14.000651041666668  5.9921875 14.067057291666668  C 6.0475852272727275 14.133463541666668  6.118371212121213 14.166666666666668  6.204545454545455 14.166666666666668  L 6.795454545454545 14.166666666666668  C 6.881628787878789 14.166666666666668  6.9524147727272725 14.133463541666668  7.0078125 14.067057291666668  Z " stroke-width="0" stroke-dasharray="0" stroke="rgba(255, 255, 255, 0)" fill="none" transform="matrix(1 0 0 1 417 302 )" class="stroke" mask="url(#Clip83)" />
    <path d="M 9.371448863636363 14.067057291666668  C 9.42684659090909 14.000651041666668  9.454545454545455 13.91579861111111  9.454545454545455 13.8125  L 9.454545454545455 6.020833333333333  C 9.454545454545455 5.917534722222222  9.42684659090909 5.832682291666667  9.371448863636363 5.766276041666667  C 9.316051136363637 5.699869791666667  9.245265151515152 5.666666666666667  9.15909090909091 5.666666666666667  L 8.568181818181818 5.666666666666667  C 8.482007575757576 5.666666666666667  8.41122159090909 5.699869791666667  8.355823863636363 5.766276041666667  C 8.300426136363637 5.832682291666667  8.272727272727273 5.917534722222222  8.272727272727273 6.020833333333333  L 8.272727272727273 13.8125  C 8.272727272727273 13.91579861111111  8.300426136363637 14.000651041666668  8.355823863636363 14.067057291666668  C 8.41122159090909 14.133463541666668  8.482007575757576 14.166666666666668  8.568181818181818 14.166666666666668  L 9.15909090909091 14.166666666666668  C 9.245265151515152 14.166666666666668  9.316051136363637 14.133463541666668  9.371448863636363 14.067057291666668  Z " stroke-width="0" stroke-dasharray="0" stroke="rgba(255, 255, 255, 0)" fill="none" transform="matrix(1 0 0 1 417 302 )" class="stroke" mask="url(#Clip83)" />
    <path d="M 4.884232954545455 1.5384114583333326  L 4.431818181818182 2.8333333333333326  L 8.568181818181818 2.8333333333333326  L 8.125 1.5384114583333326  C 8.08191287878788 1.4720052083333326  8.029592803030303 1.4314236111111103  7.9680397727272725 1.4166666666666674  L 5.041193181818182 1.4166666666666674  C 4.979640151515151 1.4314236111111103  4.927320075757576 1.4720052083333326  4.884232954545455 1.5384114583333326  Z " stroke-width="0" stroke-dasharray="0" stroke="rgba(255, 255, 255, 0)" fill="none" transform="matrix(1 0 0 1 417 302 )" class="stroke" mask="url(#Clip83)" />
    <path d="M 12.91690340909091 2.9329427083333326  C 12.972301136363637 2.9993489583333326  13 3.084201388888888  13 3.1875  L 13 3.8958333333333326  C 13 3.999131944444443  12.972301136363637 4.083984375  12.91690340909091 4.150390625  C 12.861505681818182 4.216796875  12.790719696969699 4.25  12.704545454545455 4.25  L 11.818181818181818 4.25  L 11.818181818181818 14.7421875  C 11.818181818181818 15.354600694444443  11.673532196969699 15.88400607638889  11.384232954545455 16.330403645833332  C 11.094933712121213 16.77680121527778  10.74715909090909 17  10.34090909090909 17  L 2.659090909090909 17  C 2.252840909090909 17  1.9050662878787883 16.7841796875  1.6157670454545454 16.3525390625  C 1.3264678030303032 15.9208984375  1.1818181818181819 15.398871527777777  1.1818181818181819 14.786458333333332  L 1.1818181818181819 4.25  L 0.29545454545454547 4.25  C 0.20928030303030304 4.25  0.1384943181818182 4.216796875  0.08309659090909091 4.150390625  C 0.027698863636363633 4.083984375  0 3.999131944444443  0 3.8958333333333326  L 0 3.1875  C 0 3.084201388888888  0.027698863636363633 2.9993489583333326  0.08309659090909091 2.9329427083333326  C 0.1384943181818182 2.8665364583333326  0.20928030303030304 2.8333333333333326  0.29545454545454547 2.8333333333333326  L 3.1484375 2.8333333333333326  L 3.7947443181818183 0.9850260416666673  C 3.887073863636364 0.712022569444443  4.053267045454546 0.479600694444443  4.293323863636363 0.2877604166666673  C 4.5333806818181825 0.09592013888888784  4.776515151515151 0  5.0227272727272725 0  L 7.9772727272727275 0  C 8.22348484848485 0  8.466619318181818 0.09592013888888784  8.706676136363637 0.2877604166666673  C 8.946732954545455 0.479600694444443  9.112926136363637 0.712022569444443  9.205255681818182 0.9850260416666673  L 9.8515625 2.8333333333333326  L 12.704545454545455 2.8333333333333326  C 12.790719696969699 2.8333333333333326  12.861505681818182 2.8665364583333326  12.91690340909091 2.9329427083333326  Z " stroke-width="0" stroke-dasharray="0" stroke="rgba(255, 255, 255, 0)" fill="none" transform="matrix(1 0 0 1 417 302 )" class="stroke" mask="url(#Clip83)" />
  </g>
</svg>