<?xml version="1.0" encoding="utf-8"?>
<svg version="1.1" xmlns:xlink="http://www.w3.org/1999/xlink" width="18px" height="13px" xmlns="http://www.w3.org/2000/svg">
  <defs>
    <pattern id="BGPattern" patternUnits="userSpaceOnUse" alignment="0 0" imageRepeat="None" />
    <mask fill="white" id="Clip5">
      <path d="M 17.67483870967742 1.794612794612795  C 17.89161290322581 1.9988776655443319  18.000000000000004 2.2469135802469133  18 2.538720538720539  C 18.000000000000004 2.8305274971941623  17.89161290322581 3.078563411896744  17.67483870967742 3.2828282828282824  L 9.267096774193549 11.205387205387204  L 7.687741935483872 12.693602693602694  C 7.4709677419354845 12.897867564534232  7.207741935483872 13  6.898064516129033 13  C 6.588387096774194 13  6.325161290322582 12.897867564534232  6.108387096774194 12.693602693602694  L 4.5290322580645155 11.205387205387204  L 0.3251612903225807 7.244107744107745  C 0.10838709677419366 7.039842873176205  0 6.791806958473623  0 6.5  C 0 6.208193041526375  0.10838709677419366 5.960157126823793  0.3251612903225807 5.755892255892256  L 1.904516129032258 4.267676767676768  C 2.1212903225806454 4.0634118967452295  2.3845161290322587 3.9612794612794597  2.694193548387097 3.961279461279461  C 3.0038709677419364 3.9612794612794597  3.267096774193549 4.0634118967452295  3.4838709677419355 4.267676767676768  L 6.898064516129033 7.495791245791246  L 14.516129032258064 0.30639730639730645  C 14.732903225806453 0.10213243546576833  14.996129032258066 0  15.305806451612904 0  C 15.615483870967742 0  15.878709677419355 0.10213243546576833  16.09548387096774 0.30639730639730645  L 17.67483870967742 1.794612794612795  Z " fill-rule="evenodd" />
    </mask>
  </defs>
  <g transform="matrix(1 0 0 1 -1338 -315 )">
    <path d="M 17.67483870967742 1.794612794612795  C 17.89161290322581 1.9988776655443319  18.000000000000004 2.2469135802469133  18 2.538720538720539  C 18.000000000000004 2.8305274971941623  17.89161290322581 3.078563411896744  17.67483870967742 3.2828282828282824  L 9.267096774193549 11.205387205387204  L 7.687741935483872 12.693602693602694  C 7.4709677419354845 12.897867564534232  7.207741935483872 13  6.898064516129033 13  C 6.588387096774194 13  6.325161290322582 12.897867564534232  6.108387096774194 12.693602693602694  L 4.5290322580645155 11.205387205387204  L 0.3251612903225807 7.244107744107745  C 0.10838709677419366 7.039842873176205  0 6.791806958473623  0 6.5  C 0 6.208193041526375  0.10838709677419366 5.960157126823793  0.3251612903225807 5.755892255892256  L 1.904516129032258 4.267676767676768  C 2.1212903225806454 4.0634118967452295  2.3845161290322587 3.9612794612794597  2.694193548387097 3.961279461279461  C 3.0038709677419364 3.9612794612794597  3.267096774193549 4.0634118967452295  3.4838709677419355 4.267676767676768  L 6.898064516129033 7.495791245791246  L 14.516129032258064 0.30639730639730645  C 14.732903225806453 0.10213243546576833  14.996129032258066 0  15.305806451612904 0  C 15.615483870967742 0  15.878709677419355 0.10213243546576833  16.09548387096774 0.30639730639730645  L 17.67483870967742 1.794612794612795  Z " fill-rule="nonzero" fill="rgba(170, 170, 170, 1)" stroke="none" transform="matrix(1 0 0 1 1338 315 )" class="fill" />
    <path d="M 17.67483870967742 1.794612794612795  C 17.89161290322581 1.9988776655443319  18.000000000000004 2.2469135802469133  18 2.538720538720539  C 18.000000000000004 2.8305274971941623  17.89161290322581 3.078563411896744  17.67483870967742 3.2828282828282824  L 9.267096774193549 11.205387205387204  L 7.687741935483872 12.693602693602694  C 7.4709677419354845 12.897867564534232  7.207741935483872 13  6.898064516129033 13  C 6.588387096774194 13  6.325161290322582 12.897867564534232  6.108387096774194 12.693602693602694  L 4.5290322580645155 11.205387205387204  L 0.3251612903225807 7.244107744107745  C 0.10838709677419366 7.039842873176205  0 6.791806958473623  0 6.5  C 0 6.208193041526375  0.10838709677419366 5.960157126823793  0.3251612903225807 5.755892255892256  L 1.904516129032258 4.267676767676768  C 2.1212903225806454 4.0634118967452295  2.3845161290322587 3.9612794612794597  2.694193548387097 3.961279461279461  C 3.0038709677419364 3.9612794612794597  3.267096774193549 4.0634118967452295  3.4838709677419355 4.267676767676768  L 6.898064516129033 7.495791245791246  L 14.516129032258064 0.30639730639730645  C 14.732903225806453 0.10213243546576833  14.996129032258066 0  15.305806451612904 0  C 15.615483870967742 0  15.878709677419355 0.10213243546576833  16.09548387096774 0.30639730639730645  L 17.67483870967742 1.794612794612795  Z " stroke-width="0" stroke-dasharray="0" stroke="rgba(255, 255, 255, 0)" fill="none" transform="matrix(1 0 0 1 1338 315 )" class="stroke" mask="url(#Clip5)" />
  </g>
</svg>