<?xml version="1.0" encoding="utf-8"?>
<svg version="1.1" xmlns:xlink="http://www.w3.org/1999/xlink" width="24px" height="25px" xmlns="http://www.w3.org/2000/svg">
  <defs>
    <pattern id="BGPattern" patternUnits="userSpaceOnUse" alignment="0 0" imageRepeat="None" />
    <mask fill="white" id="Clip2">
      <path d="M 14.211180124223603 11.923847695390782  C 14.376811594202902 12.090848363393453  14.459627329192546 12.282899131596526  14.459627329192546 12.5  C 14.459627329192546 12.717100868403472  14.376811594202902 12.909151636606545  14.211180124223603 13.076152304609218  L 2.6335403726708075 24.749498997995993  C 2.4679089026915118 24.916499665998664  2.277432712215321 25  2.062111801242236 25  C 1.8467908902691514 25  1.6563146997929605 24.916499665998664  1.4906832298136645 24.749498997995993  L 0.2484472049689441 23.49699398797595  C 0.08281573498964809 23.329993319973276  0 23.13794255177021  0 22.92084168336673  C 0 22.703740814963258  0.08281573498964809 22.511690046760187  0.2484472049689441 22.344689378757515  L 10.012422360248447 12.5  L 0.2484472049689441 2.655310621242485  C 0.08281573498964809 2.4883099532398116  0 2.2962591850367393  0 2.0791583166332672  C 0 1.8620574482297898  0.08281573498964809 1.670006680026717  0.2484472049689441 1.5030060120240467  L 1.4906832298136645 0.25050100200400827  C 1.6563146997929605 0.08350033400133516  1.8467908902691514 0  2.062111801242236 0  C 2.277432712215321 0  2.4679089026915118 0.08350033400133516  2.6335403726708075 0.25050100200400827  L 14.211180124223603 11.923847695390782  Z M 23.751552795031056 11.923847695390782  C 23.917184265010356 12.090848363393453  24 12.282899131596526  24 12.5  C 24 12.717100868403472  23.917184265010356 12.909151636606545  23.751552795031056 13.076152304609218  L 12.173913043478262 24.749498997995993  C 12.008281573498966 24.916499665998664  11.817805383022774 25  11.602484472049689 25  C 11.387163561076605 25  11.196687370600415 24.916499665998664  11.031055900621118 24.749498997995993  L 9.788819875776397 23.49699398797595  C 9.623188405797103 23.329993319973276  9.540372670807454 23.13794255177021  9.540372670807454 22.92084168336673  C 9.540372670807454 22.703740814963258  9.623188405797103 22.511690046760187  9.788819875776397 22.344689378757515  L 19.5527950310559 12.5  L 9.788819875776397 2.655310621242485  C 9.623188405797103 2.4883099532398116  9.540372670807454 2.2962591850367393  9.540372670807454 2.0791583166332672  C 9.540372670807454 1.8620574482297898  9.623188405797103 1.670006680026717  9.788819875776397 1.5030060120240467  L 11.031055900621118 0.25050100200400827  C 11.196687370600415 0.08350033400133516  11.387163561076605 0  11.602484472049689 0  C 11.817805383022774 0  12.008281573498966 0.08350033400133516  12.173913043478262 0.25050100200400827  L 23.751552795031056 11.923847695390782  Z " fill-rule="evenodd" />
    </mask>
  </defs>
  <g transform="matrix(1 0 0 1 -1398 -73 )">
    <path d="M 14.211180124223603 11.923847695390782  C 14.376811594202902 12.090848363393453  14.459627329192546 12.282899131596526  14.459627329192546 12.5  C 14.459627329192546 12.717100868403472  14.376811594202902 12.909151636606545  14.211180124223603 13.076152304609218  L 2.6335403726708075 24.749498997995993  C 2.4679089026915118 24.916499665998664  2.277432712215321 25  2.062111801242236 25  C 1.8467908902691514 25  1.6563146997929605 24.916499665998664  1.4906832298136645 24.749498997995993  L 0.2484472049689441 23.49699398797595  C 0.08281573498964809 23.329993319973276  0 23.13794255177021  0 22.92084168336673  C 0 22.703740814963258  0.08281573498964809 22.511690046760187  0.2484472049689441 22.344689378757515  L 10.012422360248447 12.5  L 0.2484472049689441 2.655310621242485  C 0.08281573498964809 2.4883099532398116  0 2.2962591850367393  0 2.0791583166332672  C 0 1.8620574482297898  0.08281573498964809 1.670006680026717  0.2484472049689441 1.5030060120240467  L 1.4906832298136645 0.25050100200400827  C 1.6563146997929605 0.08350033400133516  1.8467908902691514 0  2.062111801242236 0  C 2.277432712215321 0  2.4679089026915118 0.08350033400133516  2.6335403726708075 0.25050100200400827  L 14.211180124223603 11.923847695390782  Z M 23.751552795031056 11.923847695390782  C 23.917184265010356 12.090848363393453  24 12.282899131596526  24 12.5  C 24 12.717100868403472  23.917184265010356 12.909151636606545  23.751552795031056 13.076152304609218  L 12.173913043478262 24.749498997995993  C 12.008281573498966 24.916499665998664  11.817805383022774 25  11.602484472049689 25  C 11.387163561076605 25  11.196687370600415 24.916499665998664  11.031055900621118 24.749498997995993  L 9.788819875776397 23.49699398797595  C 9.623188405797103 23.329993319973276  9.540372670807454 23.13794255177021  9.540372670807454 22.92084168336673  C 9.540372670807454 22.703740814963258  9.623188405797103 22.511690046760187  9.788819875776397 22.344689378757515  L 19.5527950310559 12.5  L 9.788819875776397 2.655310621242485  C 9.623188405797103 2.4883099532398116  9.540372670807454 2.2962591850367393  9.540372670807454 2.0791583166332672  C 9.540372670807454 1.8620574482297898  9.623188405797103 1.670006680026717  9.788819875776397 1.5030060120240467  L 11.031055900621118 0.25050100200400827  C 11.196687370600415 0.08350033400133516  11.387163561076605 0  11.602484472049689 0  C 11.817805383022774 0  12.008281573498966 0.08350033400133516  12.173913043478262 0.25050100200400827  L 23.751552795031056 11.923847695390782  Z " fill-rule="nonzero" fill="rgba(0, 0, 0, 1)" stroke="none" transform="matrix(1 0 0 1 1398 73 )" class="fill" />
    <path d="M 14.211180124223603 11.923847695390782  C 14.376811594202902 12.090848363393453  14.459627329192546 12.282899131596526  14.459627329192546 12.5  C 14.459627329192546 12.717100868403472  14.376811594202902 12.909151636606545  14.211180124223603 13.076152304609218  L 2.6335403726708075 24.749498997995993  C 2.4679089026915118 24.916499665998664  2.277432712215321 25  2.062111801242236 25  C 1.8467908902691514 25  1.6563146997929605 24.916499665998664  1.4906832298136645 24.749498997995993  L 0.2484472049689441 23.49699398797595  C 0.08281573498964809 23.329993319973276  0 23.13794255177021  0 22.92084168336673  C 0 22.703740814963258  0.08281573498964809 22.511690046760187  0.2484472049689441 22.344689378757515  L 10.012422360248447 12.5  L 0.2484472049689441 2.655310621242485  C 0.08281573498964809 2.4883099532398116  0 2.2962591850367393  0 2.0791583166332672  C 0 1.8620574482297898  0.08281573498964809 1.670006680026717  0.2484472049689441 1.5030060120240467  L 1.4906832298136645 0.25050100200400827  C 1.6563146997929605 0.08350033400133516  1.8467908902691514 0  2.062111801242236 0  C 2.277432712215321 0  2.4679089026915118 0.08350033400133516  2.6335403726708075 0.25050100200400827  L 14.211180124223603 11.923847695390782  Z " stroke-width="0" stroke-dasharray="0" stroke="rgba(255, 255, 255, 0)" fill="none" transform="matrix(1 0 0 1 1398 73 )" class="stroke" mask="url(#Clip2)" />
    <path d="M 23.751552795031056 11.923847695390782  C 23.917184265010356 12.090848363393453  24 12.282899131596526  24 12.5  C 24 12.717100868403472  23.917184265010356 12.909151636606545  23.751552795031056 13.076152304609218  L 12.173913043478262 24.749498997995993  C 12.008281573498966 24.916499665998664  11.817805383022774 25  11.602484472049689 25  C 11.387163561076605 25  11.196687370600415 24.916499665998664  11.031055900621118 24.749498997995993  L 9.788819875776397 23.49699398797595  C 9.623188405797103 23.329993319973276  9.540372670807454 23.13794255177021  9.540372670807454 22.92084168336673  C 9.540372670807454 22.703740814963258  9.623188405797103 22.511690046760187  9.788819875776397 22.344689378757515  L 19.5527950310559 12.5  L 9.788819875776397 2.655310621242485  C 9.623188405797103 2.4883099532398116  9.540372670807454 2.2962591850367393  9.540372670807454 2.0791583166332672  C 9.540372670807454 1.8620574482297898  9.623188405797103 1.670006680026717  9.788819875776397 1.5030060120240467  L 11.031055900621118 0.25050100200400827  C 11.196687370600415 0.08350033400133516  11.387163561076605 0  11.602484472049689 0  C 11.817805383022774 0  12.008281573498966 0.08350033400133516  12.173913043478262 0.25050100200400827  L 23.751552795031056 11.923847695390782  Z " stroke-width="0" stroke-dasharray="0" stroke="rgba(255, 255, 255, 0)" fill="none" transform="matrix(1 0 0 1 1398 73 )" class="stroke" mask="url(#Clip2)" />
  </g>
</svg>