<?xml version="1.0" encoding="utf-8"?>
<svg version="1.1" xmlns:xlink="http://www.w3.org/1999/xlink" width="13px" height="15px" xmlns="http://www.w3.org/2000/svg">
  <defs>
    <pattern id="BGPattern" patternUnits="userSpaceOnUse" alignment="0 0" imageRepeat="None" />
    <mask fill="white" id="Clip6">
      <path d="M 4.644176136363637 5.712890625  C 4.699573863636363 5.771484375  4.7272727272727275 5.846354166666666  4.7272727272727275 5.937500000000001  L 4.7272727272727275 11.5625  C 4.7272727272727275 11.653645833333334  4.699573863636363 11.728515625  4.644176136363637 11.787109375  C 4.588778409090909 11.845703125  4.517992424242425 11.875  4.431818181818182 11.875  L 3.8409090909090913 11.875  C 3.754734848484849 11.875  3.683948863636364 11.845703125  3.6285511363636362 11.787109375  C 3.5731534090909087 11.728515625  3.545454545454545 11.653645833333334  3.545454545454545 11.5625  L 3.545454545454545 5.937500000000001  C 3.545454545454545 5.846354166666666  3.5731534090909087 5.771484375  3.6285511363636362 5.712890625  C 3.683948863636364 5.654296875  3.754734848484849 5.625  3.8409090909090913 5.625  L 4.431818181818182 5.625  C 4.517992424242425 5.625  4.588778409090909 5.654296875  4.644176136363637 5.712890625  Z M 7.0078125 5.712890625  C 7.0632102272727275 5.771484375  7.09090909090909 5.846354166666666  7.09090909090909 5.937500000000001  L 7.09090909090909 11.5625  C 7.09090909090909 11.653645833333334  7.0632102272727275 11.728515625  7.0078125 11.787109375  C 6.9524147727272725 11.845703125  6.881628787878789 11.875  6.795454545454545 11.875  L 6.204545454545455 11.875  C 6.118371212121213 11.875  6.0475852272727275 11.845703125  5.9921875 11.787109375  C 5.9367897727272725 11.728515625  5.909090909090909 11.653645833333334  5.909090909090909 11.5625  L 5.909090909090909 5.937500000000001  C 5.909090909090909 5.846354166666666  5.9367897727272725 5.771484375  5.9921875 5.712890625  C 6.0475852272727275 5.654296875  6.118371212121213 5.625  6.204545454545455 5.625  L 6.795454545454545 5.625  C 6.881628787878789 5.625  6.9524147727272725 5.654296875  7.0078125 5.712890625  Z M 9.371448863636363 5.712890625  C 9.42684659090909 5.771484375  9.454545454545455 5.846354166666666  9.454545454545455 5.937500000000001  L 9.454545454545455 11.5625  C 9.454545454545455 11.653645833333334  9.42684659090909 11.728515625  9.371448863636363 11.787109375  C 9.316051136363637 11.845703125  9.245265151515152 11.875  9.15909090909091 11.875  L 8.568181818181818 11.875  C 8.482007575757576 11.875  8.41122159090909 11.845703125  8.355823863636363 11.787109375  C 8.300426136363637 11.728515625  8.272727272727273 11.653645833333334  8.272727272727273 11.5625  L 8.272727272727273 5.937500000000001  C 8.272727272727273 5.846354166666666  8.300426136363637 5.771484375  8.355823863636363 5.712890625  C 8.41122159090909 5.654296875  8.482007575757576 5.625  8.568181818181818 5.625  L 9.15909090909091 5.625  C 9.245265151515152 5.625  9.316051136363637 5.654296875  9.371448863636363 5.712890625  Z M 10.571732954545455 13.4033203125  C 10.614820075757576 13.282877604166668  10.636363636363637 13.151041666666668  10.636363636363637 13.0078125  L 10.636363636363637 3.75  L 2.3636363636363638 3.75  L 2.3636363636363638 13.0078125  C 2.3636363636363638 13.151041666666668  2.3851799242424248 13.282877604166668  2.4282670454545454 13.4033203125  C 2.471354166666667 13.523763020833332  2.5159801136363638 13.611653645833332  2.5621448863636362 13.6669921875  C 2.608309659090909 13.722330729166668  2.640625 13.75  2.659090909090909 13.75  L 10.34090909090909 13.75  C 10.359375 13.75  10.39169034090909 13.722330729166668  10.437855113636363 13.6669921875  C 10.484019886363637 13.611653645833332  10.528645833333336 13.523763020833332  10.571732954545455 13.4033203125  Z M 4.884232954545455 1.3574218749999996  L 4.431818181818182 2.4999999999999996  L 8.568181818181818 2.4999999999999996  L 8.125 1.3574218749999996  C 8.08191287878788 1.2988281249999996  8.029592803030303 1.2630208333333326  7.9680397727272725 1.2500000000000004  L 5.041193181818182 1.2500000000000004  C 4.979640151515151 1.2630208333333326  4.927320075757576 1.2988281249999996  4.884232954545455 1.3574218749999996  Z M 12.91690340909091 2.5878906249999996  C 12.972301136363637 2.6464843749999996  13 2.7213541666666656  13 2.8125  L 13 3.4374999999999996  C 13 3.528645833333332  12.972301136363637 3.603515625  12.91690340909091 3.662109375  C 12.861505681818182 3.720703125  12.790719696969699 3.75  12.704545454545455 3.75  L 11.818181818181818 3.75  L 11.818181818181818 13.0078125  C 11.818181818181818 13.548177083333332  11.673532196969699 14.015299479166668  11.384232954545455 14.4091796875  C 11.094933712121213 14.803059895833334  10.74715909090909 15  10.34090909090909 15  L 2.659090909090909 15  C 2.252840909090909 15  1.9050662878787883 14.8095703125  1.6157670454545454 14.4287109375  C 1.3264678030303032 14.0478515625  1.1818181818181819 13.587239583333334  1.1818181818181819 13.046875  L 1.1818181818181819 3.75  L 0.29545454545454547 3.75  C 0.20928030303030304 3.75  0.1384943181818182 3.720703125  0.08309659090909091 3.662109375  C 0.027698863636363633 3.603515625  0 3.528645833333332  0 3.4374999999999996  L 0 2.8125  C 0 2.7213541666666656  0.027698863636363633 2.6464843749999996  0.08309659090909091 2.5878906249999996  C 0.1384943181818182 2.5292968749999996  0.20928030303030304 2.4999999999999996  0.29545454545454547 2.4999999999999996  L 3.1484375 2.4999999999999996  L 3.7947443181818183 0.8691406250000006  C 3.887073863636364 0.628255208333332  4.053267045454546 0.42317708333333204  4.293323863636363 0.25390625000000056  C 4.5333806818181825 0.08463541666666574  4.776515151515151 0  5.0227272727272725 0  L 7.9772727272727275 0  C 8.22348484848485 0  8.466619318181818 0.08463541666666574  8.706676136363637 0.25390625000000056  C 8.946732954545455 0.42317708333333204  9.112926136363637 0.628255208333332  9.205255681818182 0.8691406250000006  L 9.8515625 2.4999999999999996  L 12.704545454545455 2.4999999999999996  C 12.790719696969699 2.4999999999999996  12.861505681818182 2.5292968749999996  12.91690340909091 2.5878906249999996  Z " fill-rule="evenodd" />
    </mask>
  </defs>
  <g transform="matrix(1 0 0 1 -1344 -943 )">
    <path d="M 4.644176136363637 5.712890625  C 4.699573863636363 5.771484375  4.7272727272727275 5.846354166666666  4.7272727272727275 5.937500000000001  L 4.7272727272727275 11.5625  C 4.7272727272727275 11.653645833333334  4.699573863636363 11.728515625  4.644176136363637 11.787109375  C 4.588778409090909 11.845703125  4.517992424242425 11.875  4.431818181818182 11.875  L 3.8409090909090913 11.875  C 3.754734848484849 11.875  3.683948863636364 11.845703125  3.6285511363636362 11.787109375  C 3.5731534090909087 11.728515625  3.545454545454545 11.653645833333334  3.545454545454545 11.5625  L 3.545454545454545 5.937500000000001  C 3.545454545454545 5.846354166666666  3.5731534090909087 5.771484375  3.6285511363636362 5.712890625  C 3.683948863636364 5.654296875  3.754734848484849 5.625  3.8409090909090913 5.625  L 4.431818181818182 5.625  C 4.517992424242425 5.625  4.588778409090909 5.654296875  4.644176136363637 5.712890625  Z M 7.0078125 5.712890625  C 7.0632102272727275 5.771484375  7.09090909090909 5.846354166666666  7.09090909090909 5.937500000000001  L 7.09090909090909 11.5625  C 7.09090909090909 11.653645833333334  7.0632102272727275 11.728515625  7.0078125 11.787109375  C 6.9524147727272725 11.845703125  6.881628787878789 11.875  6.795454545454545 11.875  L 6.204545454545455 11.875  C 6.118371212121213 11.875  6.0475852272727275 11.845703125  5.9921875 11.787109375  C 5.9367897727272725 11.728515625  5.909090909090909 11.653645833333334  5.909090909090909 11.5625  L 5.909090909090909 5.937500000000001  C 5.909090909090909 5.846354166666666  5.9367897727272725 5.771484375  5.9921875 5.712890625  C 6.0475852272727275 5.654296875  6.118371212121213 5.625  6.204545454545455 5.625  L 6.795454545454545 5.625  C 6.881628787878789 5.625  6.9524147727272725 5.654296875  7.0078125 5.712890625  Z M 9.371448863636363 5.712890625  C 9.42684659090909 5.771484375  9.454545454545455 5.846354166666666  9.454545454545455 5.937500000000001  L 9.454545454545455 11.5625  C 9.454545454545455 11.653645833333334  9.42684659090909 11.728515625  9.371448863636363 11.787109375  C 9.316051136363637 11.845703125  9.245265151515152 11.875  9.15909090909091 11.875  L 8.568181818181818 11.875  C 8.482007575757576 11.875  8.41122159090909 11.845703125  8.355823863636363 11.787109375  C 8.300426136363637 11.728515625  8.272727272727273 11.653645833333334  8.272727272727273 11.5625  L 8.272727272727273 5.937500000000001  C 8.272727272727273 5.846354166666666  8.300426136363637 5.771484375  8.355823863636363 5.712890625  C 8.41122159090909 5.654296875  8.482007575757576 5.625  8.568181818181818 5.625  L 9.15909090909091 5.625  C 9.245265151515152 5.625  9.316051136363637 5.654296875  9.371448863636363 5.712890625  Z M 10.571732954545455 13.4033203125  C 10.614820075757576 13.282877604166668  10.636363636363637 13.151041666666668  10.636363636363637 13.0078125  L 10.636363636363637 3.75  L 2.3636363636363638 3.75  L 2.3636363636363638 13.0078125  C 2.3636363636363638 13.151041666666668  2.3851799242424248 13.282877604166668  2.4282670454545454 13.4033203125  C 2.471354166666667 13.523763020833332  2.5159801136363638 13.611653645833332  2.5621448863636362 13.6669921875  C 2.608309659090909 13.722330729166668  2.640625 13.75  2.659090909090909 13.75  L 10.34090909090909 13.75  C 10.359375 13.75  10.39169034090909 13.722330729166668  10.437855113636363 13.6669921875  C 10.484019886363637 13.611653645833332  10.528645833333336 13.523763020833332  10.571732954545455 13.4033203125  Z M 4.884232954545455 1.3574218749999996  L 4.431818181818182 2.4999999999999996  L 8.568181818181818 2.4999999999999996  L 8.125 1.3574218749999996  C 8.08191287878788 1.2988281249999996  8.029592803030303 1.2630208333333326  7.9680397727272725 1.2500000000000004  L 5.041193181818182 1.2500000000000004  C 4.979640151515151 1.2630208333333326  4.927320075757576 1.2988281249999996  4.884232954545455 1.3574218749999996  Z M 12.91690340909091 2.5878906249999996  C 12.972301136363637 2.6464843749999996  13 2.7213541666666656  13 2.8125  L 13 3.4374999999999996  C 13 3.528645833333332  12.972301136363637 3.603515625  12.91690340909091 3.662109375  C 12.861505681818182 3.720703125  12.790719696969699 3.75  12.704545454545455 3.75  L 11.818181818181818 3.75  L 11.818181818181818 13.0078125  C 11.818181818181818 13.548177083333332  11.673532196969699 14.015299479166668  11.384232954545455 14.4091796875  C 11.094933712121213 14.803059895833334  10.74715909090909 15  10.34090909090909 15  L 2.659090909090909 15  C 2.252840909090909 15  1.9050662878787883 14.8095703125  1.6157670454545454 14.4287109375  C 1.3264678030303032 14.0478515625  1.1818181818181819 13.587239583333334  1.1818181818181819 13.046875  L 1.1818181818181819 3.75  L 0.29545454545454547 3.75  C 0.20928030303030304 3.75  0.1384943181818182 3.720703125  0.08309659090909091 3.662109375  C 0.027698863636363633 3.603515625  0 3.528645833333332  0 3.4374999999999996  L 0 2.8125  C 0 2.7213541666666656  0.027698863636363633 2.6464843749999996  0.08309659090909091 2.5878906249999996  C 0.1384943181818182 2.5292968749999996  0.20928030303030304 2.4999999999999996  0.29545454545454547 2.4999999999999996  L 3.1484375 2.4999999999999996  L 3.7947443181818183 0.8691406250000006  C 3.887073863636364 0.628255208333332  4.053267045454546 0.42317708333333204  4.293323863636363 0.25390625000000056  C 4.5333806818181825 0.08463541666666574  4.776515151515151 0  5.0227272727272725 0  L 7.9772727272727275 0  C 8.22348484848485 0  8.466619318181818 0.08463541666666574  8.706676136363637 0.25390625000000056  C 8.946732954545455 0.42317708333333204  9.112926136363637 0.628255208333332  9.205255681818182 0.8691406250000006  L 9.8515625 2.4999999999999996  L 12.704545454545455 2.4999999999999996  C 12.790719696969699 2.4999999999999996  12.861505681818182 2.5292968749999996  12.91690340909091 2.5878906249999996  Z " fill-rule="nonzero" fill="rgba(0, 0, 0, 1)" stroke="none" transform="matrix(1 0 0 1 1344 943 )" class="fill" />
    <path d="M 4.644176136363637 5.712890625  C 4.699573863636363 5.771484375  4.7272727272727275 5.846354166666666  4.7272727272727275 5.937500000000001  L 4.7272727272727275 11.5625  C 4.7272727272727275 11.653645833333334  4.699573863636363 11.728515625  4.644176136363637 11.787109375  C 4.588778409090909 11.845703125  4.517992424242425 11.875  4.431818181818182 11.875  L 3.8409090909090913 11.875  C 3.754734848484849 11.875  3.683948863636364 11.845703125  3.6285511363636362 11.787109375  C 3.5731534090909087 11.728515625  3.545454545454545 11.653645833333334  3.545454545454545 11.5625  L 3.545454545454545 5.937500000000001  C 3.545454545454545 5.846354166666666  3.5731534090909087 5.771484375  3.6285511363636362 5.712890625  C 3.683948863636364 5.654296875  3.754734848484849 5.625  3.8409090909090913 5.625  L 4.431818181818182 5.625  C 4.517992424242425 5.625  4.588778409090909 5.654296875  4.644176136363637 5.712890625  Z " stroke-width="0" stroke-dasharray="0" stroke="rgba(255, 255, 255, 0)" fill="none" transform="matrix(1 0 0 1 1344 943 )" class="stroke" mask="url(#Clip6)" />
    <path d="M 7.0078125 5.712890625  C 7.0632102272727275 5.771484375  7.09090909090909 5.846354166666666  7.09090909090909 5.937500000000001  L 7.09090909090909 11.5625  C 7.09090909090909 11.653645833333334  7.0632102272727275 11.728515625  7.0078125 11.787109375  C 6.9524147727272725 11.845703125  6.881628787878789 11.875  6.795454545454545 11.875  L 6.204545454545455 11.875  C 6.118371212121213 11.875  6.0475852272727275 11.845703125  5.9921875 11.787109375  C 5.9367897727272725 11.728515625  5.909090909090909 11.653645833333334  5.909090909090909 11.5625  L 5.909090909090909 5.937500000000001  C 5.909090909090909 5.846354166666666  5.9367897727272725 5.771484375  5.9921875 5.712890625  C 6.0475852272727275 5.654296875  6.118371212121213 5.625  6.204545454545455 5.625  L 6.795454545454545 5.625  C 6.881628787878789 5.625  6.9524147727272725 5.654296875  7.0078125 5.712890625  Z " stroke-width="0" stroke-dasharray="0" stroke="rgba(255, 255, 255, 0)" fill="none" transform="matrix(1 0 0 1 1344 943 )" class="stroke" mask="url(#Clip6)" />
    <path d="M 9.371448863636363 5.712890625  C 9.42684659090909 5.771484375  9.454545454545455 5.846354166666666  9.454545454545455 5.937500000000001  L 9.454545454545455 11.5625  C 9.454545454545455 11.653645833333334  9.42684659090909 11.728515625  9.371448863636363 11.787109375  C 9.316051136363637 11.845703125  9.245265151515152 11.875  9.15909090909091 11.875  L 8.568181818181818 11.875  C 8.482007575757576 11.875  8.41122159090909 11.845703125  8.355823863636363 11.787109375  C 8.300426136363637 11.728515625  8.272727272727273 11.653645833333334  8.272727272727273 11.5625  L 8.272727272727273 5.937500000000001  C 8.272727272727273 5.846354166666666  8.300426136363637 5.771484375  8.355823863636363 5.712890625  C 8.41122159090909 5.654296875  8.482007575757576 5.625  8.568181818181818 5.625  L 9.15909090909091 5.625  C 9.245265151515152 5.625  9.316051136363637 5.654296875  9.371448863636363 5.712890625  Z " stroke-width="0" stroke-dasharray="0" stroke="rgba(255, 255, 255, 0)" fill="none" transform="matrix(1 0 0 1 1344 943 )" class="stroke" mask="url(#Clip6)" />
    <path d="M 10.571732954545455 13.4033203125  C 10.614820075757576 13.282877604166668  10.636363636363637 13.151041666666668  10.636363636363637 13.0078125  L 10.636363636363637 3.75  L 2.3636363636363638 3.75  L 2.3636363636363638 13.0078125  C 2.3636363636363638 13.151041666666668  2.3851799242424248 13.282877604166668  2.4282670454545454 13.4033203125  C 2.471354166666667 13.523763020833332  2.5159801136363638 13.611653645833332  2.5621448863636362 13.6669921875  C 2.608309659090909 13.722330729166668  2.640625 13.75  2.659090909090909 13.75  L 10.34090909090909 13.75  C 10.359375 13.75  10.39169034090909 13.722330729166668  10.437855113636363 13.6669921875  C 10.484019886363637 13.611653645833332  10.528645833333336 13.523763020833332  10.571732954545455 13.4033203125  Z " stroke-width="0" stroke-dasharray="0" stroke="rgba(255, 255, 255, 0)" fill="none" transform="matrix(1 0 0 1 1344 943 )" class="stroke" mask="url(#Clip6)" />
    <path d="M 4.884232954545455 1.3574218749999996  L 4.431818181818182 2.4999999999999996  L 8.568181818181818 2.4999999999999996  L 8.125 1.3574218749999996  C 8.08191287878788 1.2988281249999996  8.029592803030303 1.2630208333333326  7.9680397727272725 1.2500000000000004  L 5.041193181818182 1.2500000000000004  C 4.979640151515151 1.2630208333333326  4.927320075757576 1.2988281249999996  4.884232954545455 1.3574218749999996  Z " stroke-width="0" stroke-dasharray="0" stroke="rgba(255, 255, 255, 0)" fill="none" transform="matrix(1 0 0 1 1344 943 )" class="stroke" mask="url(#Clip6)" />
    <path d="M 12.91690340909091 2.5878906249999996  C 12.972301136363637 2.6464843749999996  13 2.7213541666666656  13 2.8125  L 13 3.4374999999999996  C 13 3.528645833333332  12.972301136363637 3.603515625  12.91690340909091 3.662109375  C 12.861505681818182 3.720703125  12.790719696969699 3.75  12.704545454545455 3.75  L 11.818181818181818 3.75  L 11.818181818181818 13.0078125  C 11.818181818181818 13.548177083333332  11.673532196969699 14.015299479166668  11.384232954545455 14.4091796875  C 11.094933712121213 14.803059895833334  10.74715909090909 15  10.34090909090909 15  L 2.659090909090909 15  C 2.252840909090909 15  1.9050662878787883 14.8095703125  1.6157670454545454 14.4287109375  C 1.3264678030303032 14.0478515625  1.1818181818181819 13.587239583333334  1.1818181818181819 13.046875  L 1.1818181818181819 3.75  L 0.29545454545454547 3.75  C 0.20928030303030304 3.75  0.1384943181818182 3.720703125  0.08309659090909091 3.662109375  C 0.027698863636363633 3.603515625  0 3.528645833333332  0 3.4374999999999996  L 0 2.8125  C 0 2.7213541666666656  0.027698863636363633 2.6464843749999996  0.08309659090909091 2.5878906249999996  C 0.1384943181818182 2.5292968749999996  0.20928030303030304 2.4999999999999996  0.29545454545454547 2.4999999999999996  L 3.1484375 2.4999999999999996  L 3.7947443181818183 0.8691406250000006  C 3.887073863636364 0.628255208333332  4.053267045454546 0.42317708333333204  4.293323863636363 0.25390625000000056  C 4.5333806818181825 0.08463541666666574  4.776515151515151 0  5.0227272727272725 0  L 7.9772727272727275 0  C 8.22348484848485 0  8.466619318181818 0.08463541666666574  8.706676136363637 0.25390625000000056  C 8.946732954545455 0.42317708333333204  9.112926136363637 0.628255208333332  9.205255681818182 0.8691406250000006  L 9.8515625 2.4999999999999996  L 12.704545454545455 2.4999999999999996  C 12.790719696969699 2.4999999999999996  12.861505681818182 2.5292968749999996  12.91690340909091 2.5878906249999996  Z " stroke-width="0" stroke-dasharray="0" stroke="rgba(255, 255, 255, 0)" fill="none" transform="matrix(1 0 0 1 1344 943 )" class="stroke" mask="url(#Clip6)" />
  </g>
</svg>