<?xml version="1.0" encoding="utf-8"?>
<svg version="1.1" xmlns:xlink="http://www.w3.org/1999/xlink" width="13px" height="10px" xmlns="http://www.w3.org/2000/svg">
  <defs>
    <pattern id="BGPattern" patternUnits="userSpaceOnUse" alignment="0 0" imageRepeat="None" />
    <mask fill="white" id="Clip100">
      <path d="M 4.671875 9.583333333333334  C 4.33532648057186 9.583333333333334  4.0625 9.30351130197758  4.0625 8.958333333333334  C 4.0625 8.613155364689087  4.33532648057186 8.333333333333334  4.671875 8.333333333333334  L 8.328125 8.333333333333334  C 8.66467351942814 8.333333333333334  8.9375 8.613155364689087  8.9375 8.958333333333334  C 8.9375 9.30351130197758  8.66467351942814 9.583333333333334  8.328125 9.583333333333334  L 4.671875 9.583333333333334  Z M 0.40625 4.857083333333332  L 0.40625 3.4108333333333336  C 0.40625 1.7833333333333337  1.9114062500000006 0.5395833333333325  3.4896875 0.6908333333333339  C 5.492211134679054 0.8825228288994176  7.507788865320946 0.8825228288994176  9.510312500000001 0.6908333333333339  C 11.088593750000001 0.5395833333333325  12.59375 1.7833333333333337  12.59375 3.4108333333333336  L 12.593750000000004 4.857083333333332  C 12.604031435304865 5.428298337068975  12.20934839793743 5.923057700150665  11.661406249999999 6.025833333333334  C 10.631562499999998 6.209583333333333  8.80953125 6.458333333333334  6.499999999999998 6.458333333333334  C 4.190468749999999 6.458333333333334  2.3684374999999993 6.208333333333335  1.3385937499999994 6.025833333333335  C 0.7906516020625701 5.923057700150664  0.3959685646951355 5.428298337068975  0.40625 4.857083333333332  Z M 6.1636250000000015 2.5458333333333316  C 6.120215202355373 2.456471523328115  6.037787512856576 2.393762376625732  5.941812499999999 2.3770833333333328  C 5.845466767075196 2.3602747604955945  5.747107026392863 2.3918874858478287  5.67734375 2.4620833333333327  L 4.55609375 3.5870833333333323  C 3.7934513709098785 3.5404584362514324  3.0328098161148227 3.4641534823518327  2.2758125000000007 3.3583333333333325  C 2.265800948500189 3.357313021879003  2.2557462680188682 3.3568019269185623  2.2456854132951785 3.3568019269185623  C 2.077411153581108 3.3568019269185623  1.9409979132951782 3.4967129425964387  1.9409979132951782 3.6693019269185623  C 1.9409979132951782 3.8210192970444172  2.0472466490687578 3.950817816419212  2.192937500000001 3.977083333333331  C 2.8632500000000007 4.072083333333332  3.694437500000002 4.16333333333333  4.654812500000001 4.218333333333331  C 4.740344244283716 4.223278142207898  4.823954079999433 4.191063797691193  4.8851562500000005 4.129583333333331  L 5.80409375 3.209583333333332  L 6.836374999999999 5.347083333333332  C 6.887871590872959 5.4532782702272975  6.993544078787903 5.52042054777217  7.1091833611068616 5.52042054777217  C 7.192032350055337 5.52042054777217  7.271309063275192 5.485817570729946  7.328749999999999 5.424583333333332  L 8.464625 4.212083333333331  C 9.248070209400707 4.164370835799358  10.029452421642098 4.085980347311733  10.8070625 3.9770833333333293  C 10.952753350931241 3.9508178164192103  11.059002086704824 3.8210192970444172  11.059002086704824 3.6693019269185623  C 11.059002086704824 3.4967129425964387  10.922588846418893 3.3568019269185623  10.754314586704824 3.3568019269185623  C 10.744253731981148 3.3568019269185623  10.734199051499798 3.357313021879002  10.724187500000001 3.3583333333333316  C 10.068500000000002 3.45083333333333  9.25315625 3.5395833333333293  8.3110625 3.5945833333333317  C 8.234359597150323 3.5989589594525118  8.162099180287688 3.63289032603614  8.10875 3.6895833333333323  L 7.1898125 4.670833333333331  L 6.1636250000000015 2.5458333333333316  Z " fill-rule="evenodd" />
    </mask>
  </defs>
  <g transform="matrix(1 0 0 1 -989 -181 )">
    <path d="M 4.671875 9.583333333333334  C 4.33532648057186 9.583333333333334  4.0625 9.30351130197758  4.0625 8.958333333333334  C 4.0625 8.613155364689087  4.33532648057186 8.333333333333334  4.671875 8.333333333333334  L 8.328125 8.333333333333334  C 8.66467351942814 8.333333333333334  8.9375 8.613155364689087  8.9375 8.958333333333334  C 8.9375 9.30351130197758  8.66467351942814 9.583333333333334  8.328125 9.583333333333334  L 4.671875 9.583333333333334  Z M 0.40625 4.857083333333332  L 0.40625 3.4108333333333336  C 0.40625 1.7833333333333337  1.9114062500000006 0.5395833333333325  3.4896875 0.6908333333333339  C 5.492211134679054 0.8825228288994176  7.507788865320946 0.8825228288994176  9.510312500000001 0.6908333333333339  C 11.088593750000001 0.5395833333333325  12.59375 1.7833333333333337  12.59375 3.4108333333333336  L 12.593750000000004 4.857083333333332  C 12.604031435304865 5.428298337068975  12.20934839793743 5.923057700150665  11.661406249999999 6.025833333333334  C 10.631562499999998 6.209583333333333  8.80953125 6.458333333333334  6.499999999999998 6.458333333333334  C 4.190468749999999 6.458333333333334  2.3684374999999993 6.208333333333335  1.3385937499999994 6.025833333333335  C 0.7906516020625701 5.923057700150664  0.3959685646951355 5.428298337068975  0.40625 4.857083333333332  Z M 6.1636250000000015 2.5458333333333316  C 6.120215202355373 2.456471523328115  6.037787512856576 2.393762376625732  5.941812499999999 2.3770833333333328  C 5.845466767075196 2.3602747604955945  5.747107026392863 2.3918874858478287  5.67734375 2.4620833333333327  L 4.55609375 3.5870833333333323  C 3.7934513709098785 3.5404584362514324  3.0328098161148227 3.4641534823518327  2.2758125000000007 3.3583333333333325  C 2.265800948500189 3.357313021879003  2.2557462680188682 3.3568019269185623  2.2456854132951785 3.3568019269185623  C 2.077411153581108 3.3568019269185623  1.9409979132951782 3.4967129425964387  1.9409979132951782 3.6693019269185623  C 1.9409979132951782 3.8210192970444172  2.0472466490687578 3.950817816419212  2.192937500000001 3.977083333333331  C 2.8632500000000007 4.072083333333332  3.694437500000002 4.16333333333333  4.654812500000001 4.218333333333331  C 4.740344244283716 4.223278142207898  4.823954079999433 4.191063797691193  4.8851562500000005 4.129583333333331  L 5.80409375 3.209583333333332  L 6.836374999999999 5.347083333333332  C 6.887871590872959 5.4532782702272975  6.993544078787903 5.52042054777217  7.1091833611068616 5.52042054777217  C 7.192032350055337 5.52042054777217  7.271309063275192 5.485817570729946  7.328749999999999 5.424583333333332  L 8.464625 4.212083333333331  C 9.248070209400707 4.164370835799358  10.029452421642098 4.085980347311733  10.8070625 3.9770833333333293  C 10.952753350931241 3.9508178164192103  11.059002086704824 3.8210192970444172  11.059002086704824 3.6693019269185623  C 11.059002086704824 3.4967129425964387  10.922588846418893 3.3568019269185623  10.754314586704824 3.3568019269185623  C 10.744253731981148 3.3568019269185623  10.734199051499798 3.357313021879002  10.724187500000001 3.3583333333333316  C 10.068500000000002 3.45083333333333  9.25315625 3.5395833333333293  8.3110625 3.5945833333333317  C 8.234359597150323 3.5989589594525118  8.162099180287688 3.63289032603614  8.10875 3.6895833333333323  L 7.1898125 4.670833333333331  L 6.1636250000000015 2.5458333333333316  Z " fill-rule="nonzero" fill="rgba(34, 208, 230, 1)" stroke="none" transform="matrix(1 0 0 1 989 181 )" class="fill" />
    <path d="M 4.671875 9.583333333333334  C 4.33532648057186 9.583333333333334  4.0625 9.30351130197758  4.0625 8.958333333333334  C 4.0625 8.613155364689087  4.33532648057186 8.333333333333334  4.671875 8.333333333333334  L 8.328125 8.333333333333334  C 8.66467351942814 8.333333333333334  8.9375 8.613155364689087  8.9375 8.958333333333334  C 8.9375 9.30351130197758  8.66467351942814 9.583333333333334  8.328125 9.583333333333334  L 4.671875 9.583333333333334  Z " stroke-width="0" stroke-dasharray="0" stroke="rgba(255, 255, 255, 0)" fill="none" transform="matrix(1 0 0 1 989 181 )" class="stroke" mask="url(#Clip100)" />
    <path d="M 0.40625 4.857083333333332  L 0.40625 3.4108333333333336  C 0.40625 1.7833333333333337  1.9114062500000006 0.5395833333333325  3.4896875 0.6908333333333339  C 5.492211134679054 0.8825228288994176  7.507788865320946 0.8825228288994176  9.510312500000001 0.6908333333333339  C 11.088593750000001 0.5395833333333325  12.59375 1.7833333333333337  12.59375 3.4108333333333336  L 12.593750000000004 4.857083333333332  C 12.604031435304865 5.428298337068975  12.20934839793743 5.923057700150665  11.661406249999999 6.025833333333334  C 10.631562499999998 6.209583333333333  8.80953125 6.458333333333334  6.499999999999998 6.458333333333334  C 4.190468749999999 6.458333333333334  2.3684374999999993 6.208333333333335  1.3385937499999994 6.025833333333335  C 0.7906516020625701 5.923057700150664  0.3959685646951355 5.428298337068975  0.40625 4.857083333333332  Z " stroke-width="0" stroke-dasharray="0" stroke="rgba(255, 255, 255, 0)" fill="none" transform="matrix(1 0 0 1 989 181 )" class="stroke" mask="url(#Clip100)" />
    <path d="M 6.1636250000000015 2.5458333333333316  C 6.120215202355373 2.456471523328115  6.037787512856576 2.393762376625732  5.941812499999999 2.3770833333333328  C 5.845466767075196 2.3602747604955945  5.747107026392863 2.3918874858478287  5.67734375 2.4620833333333327  L 4.55609375 3.5870833333333323  C 3.7934513709098785 3.5404584362514324  3.0328098161148227 3.4641534823518327  2.2758125000000007 3.3583333333333325  C 2.265800948500189 3.357313021879003  2.2557462680188682 3.3568019269185623  2.2456854132951785 3.3568019269185623  C 2.077411153581108 3.3568019269185623  1.9409979132951782 3.4967129425964387  1.9409979132951782 3.6693019269185623  C 1.9409979132951782 3.8210192970444172  2.0472466490687578 3.950817816419212  2.192937500000001 3.977083333333331  C 2.8632500000000007 4.072083333333332  3.694437500000002 4.16333333333333  4.654812500000001 4.218333333333331  C 4.740344244283716 4.223278142207898  4.823954079999433 4.191063797691193  4.8851562500000005 4.129583333333331  L 5.80409375 3.209583333333332  L 6.836374999999999 5.347083333333332  C 6.887871590872959 5.4532782702272975  6.993544078787903 5.52042054777217  7.1091833611068616 5.52042054777217  C 7.192032350055337 5.52042054777217  7.271309063275192 5.485817570729946  7.328749999999999 5.424583333333332  L 8.464625 4.212083333333331  C 9.248070209400707 4.164370835799358  10.029452421642098 4.085980347311733  10.8070625 3.9770833333333293  C 10.952753350931241 3.9508178164192103  11.059002086704824 3.8210192970444172  11.059002086704824 3.6693019269185623  C 11.059002086704824 3.4967129425964387  10.922588846418893 3.3568019269185623  10.754314586704824 3.3568019269185623  C 10.744253731981148 3.3568019269185623  10.734199051499798 3.357313021879002  10.724187500000001 3.3583333333333316  C 10.068500000000002 3.45083333333333  9.25315625 3.5395833333333293  8.3110625 3.5945833333333317  C 8.234359597150323 3.5989589594525118  8.162099180287688 3.63289032603614  8.10875 3.6895833333333323  L 7.1898125 4.670833333333331  L 6.1636250000000015 2.5458333333333316  Z " stroke-width="0" stroke-dasharray="0" stroke="rgba(255, 255, 255, 0)" fill="none" transform="matrix(1 0 0 1 989 181 )" class="stroke" mask="url(#Clip100)" />
  </g>
</svg>