<?xml version="1.0" encoding="utf-8"?>
<svg version="1.1" xmlns:xlink="http://www.w3.org/1999/xlink" width="20px" height="20px" xmlns="http://www.w3.org/2000/svg">
  <defs>
    <pattern id="BGPattern" patternUnits="userSpaceOnUse" alignment="0 0" imageRepeat="None" />
    <mask fill="white" id="Clip101">
      <path d="M 10.625 4.583333333333333  L 10.625 3.165833333333334  C 11.011751345948129 2.942542339640731  11.25 2.5298835659879892  11.25 2.0833015786027853  C 11.25 1.3929456413142935  10.69035593728849 0.8333015786027852  10 0.8333015786027852  C 9.30964406271151 0.8333015786027852  8.75 1.3929456413142935  8.75 2.0833015786027853  C 8.75 2.5298835659879892  8.988248654051873 2.942542339640731  9.375 3.165833333333334  L 9.375 4.583333333333333  L 6.874999999999999 4.583333333333333  C 3.7683982822017876 4.583333333333333  1.25 7.101731615535121  1.25 10.208333333333332  L 1.25 10.833333333333332  C 0.5596440627115082 10.833333333333332  0 11.392977396044841  0 12.083333333333332  L 0 14.583333333333332  C 0 15.273689270621826  0.5596440627115082 15.833333333333332  1.25 15.833333333333332  L 1.25 17.083333333333332  C 1.25 18.464045207910317  2.369288125423016 19.583333333333332  3.75 19.583333333333332  L 16.25 19.583333333333332  C 17.63071187457698 19.583333333333332  18.75 18.464045207910317  18.75 17.083333333333332  L 18.75 15.833333333333332  C 19.440355937288494 15.833333333333332  20 15.273689270621826  20 14.583333333333332  L 20 12.083333333333332  C 20 11.392977396044841  19.440355937288494 10.833333333333332  18.75 10.833333333333332  L 18.749999999999996 10.208333333333332  C 18.749999999999996 7.101731615535117  16.23160171779821 4.583333333333333  13.125 4.583333333333333  L 10.625 4.583333333333333  Z M 13.125 5.833333333333334  C 15.54124578050972 5.833333333333334  17.5 7.792087552823612  17.5 10.208333333333332  L 17.5 17.083333333333332  C 17.5 17.773689270621826  16.940355937288494 18.333333333333332  16.25 18  L 3.75 18  C 3.0596440627115085 18.333333333333332  2.5 17.773689270621826  2.5 17.083333333333332  L 2.5 10.208333333333332  C 2.5 7.792087552823612  4.458754219490279 5.833333333333334  6.875 5.833333333333334  L 13.125 5.833333333333334  Z " fill-rule="evenodd" />
    </mask>
  </defs>
  <g transform="matrix(1 0 0 1 -986 -173 )">
    <path d="M 10.625 4.583333333333333  L 10.625 3.165833333333334  C 11.011751345948129 2.942542339640731  11.25 2.5298835659879892  11.25 2.0833015786027853  C 11.25 1.3929456413142935  10.69035593728849 0.8333015786027852  10 0.8333015786027852  C 9.30964406271151 0.8333015786027852  8.75 1.3929456413142935  8.75 2.0833015786027853  C 8.75 2.5298835659879892  8.988248654051873 2.942542339640731  9.375 3.165833333333334  L 9.375 4.583333333333333  L 6.874999999999999 4.583333333333333  C 3.7683982822017876 4.583333333333333  1.25 7.101731615535121  1.25 10.208333333333332  L 1.25 10.833333333333332  C 0.5596440627115082 10.833333333333332  0 11.392977396044841  0 12.083333333333332  L 0 14.583333333333332  C 0 15.273689270621826  0.5596440627115082 15.833333333333332  1.25 15.833333333333332  L 1.25 17.083333333333332  C 1.25 18.464045207910317  2.369288125423016 19.583333333333332  3.75 19.583333333333332  L 16.25 19.583333333333332  C 17.63071187457698 19.583333333333332  18.75 18.464045207910317  18.75 17.083333333333332  L 18.75 15.833333333333332  C 19.440355937288494 15.833333333333332  20 15.273689270621826  20 14.583333333333332  L 20 12.083333333333332  C 20 11.392977396044841  19.440355937288494 10.833333333333332  18.75 10.833333333333332  L 18.749999999999996 10.208333333333332  C 18.749999999999996 7.101731615535117  16.23160171779821 4.583333333333333  13.125 4.583333333333333  L 10.625 4.583333333333333  Z M 13.125 5.833333333333334  C 15.54124578050972 5.833333333333334  17.5 7.792087552823612  17.5 10.208333333333332  L 17.5 17.083333333333332  C 17.5 17.773689270621826  16.940355937288494 18.333333333333332  16.25 18  L 3.75 18  C 3.0596440627115085 18.333333333333332  2.5 17.773689270621826  2.5 17.083333333333332  L 2.5 10.208333333333332  C 2.5 7.792087552823612  4.458754219490279 5.833333333333334  6.875 5.833333333333334  L 13.125 5.833333333333334  Z " fill-rule="nonzero" fill="rgba(34, 208, 230, 1)" stroke="none" transform="matrix(1 0 0 1 986 173 )" class="fill" />
    <path d="M 10.625 4.583333333333333  L 10.625 3.165833333333334  C 11.011751345948129 2.942542339640731  11.25 2.5298835659879892  11.25 2.0833015786027853  C 11.25 1.3929456413142935  10.69035593728849 0.8333015786027852  10 0.8333015786027852  C 9.30964406271151 0.8333015786027852  8.75 1.3929456413142935  8.75 2.0833015786027853  C 8.75 2.5298835659879892  8.988248654051873 2.942542339640731  9.375 3.165833333333334  L 9.375 4.583333333333333  L 6.874999999999999 4.583333333333333  C 3.7683982822017876 4.583333333333333  1.25 7.101731615535121  1.25 10.208333333333332  L 1.25 10.833333333333332  C 0.5596440627115082 10.833333333333332  0 11.392977396044841  0 12.083333333333332  L 0 14.583333333333332  C 0 15.273689270621826  0.5596440627115082 15.833333333333332  1.25 15.833333333333332  L 1.25 17.083333333333332  C 1.25 18.464045207910317  2.369288125423016 19.583333333333332  3.75 19.583333333333332  L 16.25 19.583333333333332  C 17.63071187457698 19.583333333333332  18.75 18.464045207910317  18.75 17.083333333333332  L 18.75 15.833333333333332  C 19.440355937288494 15.833333333333332  20 15.273689270621826  20 14.583333333333332  L 20 12.083333333333332  C 20 11.392977396044841  19.440355937288494 10.833333333333332  18.75 10.833333333333332  L 18.749999999999996 10.208333333333332  C 18.749999999999996 7.101731615535117  16.23160171779821 4.583333333333333  13.125 4.583333333333333  L 10.625 4.583333333333333  Z " stroke-width="0" stroke-dasharray="0" stroke="rgba(255, 255, 255, 0)" fill="none" transform="matrix(1 0 0 1 986 173 )" class="stroke" mask="url(#Clip101)" />
    <path d="M 13.125 5.833333333333334  C 15.54124578050972 5.833333333333334  17.5 7.792087552823612  17.5 10.208333333333332  L 17.5 17.083333333333332  C 17.5 17.773689270621826  16.940355937288494 18.333333333333332  16.25 18  L 3.75 18  C 3.0596440627115085 18.333333333333332  2.5 17.773689270621826  2.5 17.083333333333332  L 2.5 10.208333333333332  C 2.5 7.792087552823612  4.458754219490279 5.833333333333334  6.875 5.833333333333334  L 13.125 5.833333333333334  Z " stroke-width="0" stroke-dasharray="0" stroke="rgba(255, 255, 255, 0)" fill="none" transform="matrix(1 0 0 1 986 173 )" class="stroke" mask="url(#Clip101)" />
  </g>
</svg>