<?xml version="1.0" encoding="utf-8"?>
<svg version="1.1" xmlns:xlink="http://www.w3.org/1999/xlink" width="35px" height="35px" xmlns="http://www.w3.org/2000/svg">
  <defs>
    <pattern id="BGPattern" patternUnits="userSpaceOnUse" alignment="0 0" imageRepeat="None" />
    <mask fill="white" id="Clip102">
      <path d="M 0 12.5  C 0 5.499999999999999  5.499999999999999 0  12.5 0  C 19.5 0  25 5.499999999999999  25 12.5  C 25 19.5  19.5 25  12.5 25  C 5.499999999999999 25  0 19.5  0 12.5  Z " fill-rule="evenodd" />
    </mask>
  </defs>
  <g transform="matrix(1 0 0 1 -986 -232 )">
    <path d="M 0 12.5  C 0 5.499999999999999  5.499999999999999 0  12.5 0  C 19.5 0  25 5.499999999999999  25 12.5  C 25 19.5  19.5 25  12.5 25  C 5.499999999999999 25  0 19.5  0 12.5  Z " fill-rule="nonzero" fill="rgba(0, 0, 255, 0.9921568627450981)" stroke="none" transform="matrix(1 0 0 1 986 232 )" class="fill" />
    <path d="M 0 12.5  C 0 5.499999999999999  5.499999999999999 0  12.5 0  C 19.5 0  25 5.499999999999999  25 12.5  C 25 19.5  19.5 25  12.5 25  C 5.499999999999999 25  0 19.5  0 12.5  Z " stroke-width="2" stroke-dasharray="0" stroke="rgba(0, 0, 255, 1)" fill="none" transform="matrix(1 0 0 1 986 232 )" class="stroke" mask="url(#Clip102)" />
  </g>
  <style>svg { filter: drop-shadow(5px 5px 2.5px rgba(0, 0, 0, 0.34901960784313724)); }</style>
</svg>