<?xml version="1.0" encoding="utf-8"?>
<svg version="1.1" xmlns:xlink="http://www.w3.org/1999/xlink" width="164px" height="16px" xmlns="http://www.w3.org/2000/svg">
  <defs>
    <pattern id="BGPattern" patternUnits="userSpaceOnUse" alignment="0 0" imageRepeat="None" />
    <mask fill="white" id="Clip33">
      <path d="M 0 16  L 0 0  L 86.3157894736842 0  L 122.04651162790698 0  L 129.02941176470586 0  L 164 0  L 164 16  L 132.92631578947368 16  L 69.92248062015504 16  L 0 16  Z " fill-rule="evenodd" />
    </mask>
  </defs>
  <g transform="matrix(1 0 0 1 -1507 -290 )">
    <path d="M 0 16  L 0 0  L 86.3157894736842 0  L 122.04651162790698 0  L 129.02941176470586 0  L 164 0  L 164 16  L 132.92631578947368 16  L 69.92248062015504 16  L 0 16  Z " fill-rule="nonzero" fill="rgba(255, 255, 255, 1)" stroke="none" transform="matrix(1 0 0 1 1507 290 )" class="fill" />
    <path d="M 0 16  L 0 0  L 86.3157894736842 0  L 122.04651162790698 0  L 129.02941176470586 0  L 164 0  L 164 16  L 132.92631578947368 16  L 69.92248062015504 16  L 0 16  Z " stroke-width="0" stroke-dasharray="0" stroke="rgba(121, 121, 121, 1)" fill="none" transform="matrix(1 0 0 1 1507 290 )" class="stroke" mask="url(#Clip33)" />
  </g>
</svg>